<svg width="80" height="80" viewBox="0 0 80 80" fill="none" xmlns="http://www.w3.org/2000/svg">
<g id="Layer_1" clip-path="url(#clip0_332_362)">
<path id="Vector" d="M80 34.0632V45.9368C79.9625 45.9024 79.925 45.8648 79.8843 45.8336C79.8499 45.8085 79.7874 45.771 79.7749 45.7835C79.4747 46.0462 79.4684 46.4215 79.3996 46.7779C76.1162 63.955 63.9393 76.1318 46.7811 79.4121C46.4527 79.4747 45.8492 79.2839 45.9399 80H34.0664C34.1008 79.9625 34.1383 79.925 34.1696 79.8812C34.1946 79.8468 34.2321 79.7842 34.2196 79.7717C33.9538 79.4747 33.5785 79.4653 33.2252 79.3996C16.0669 76.1224 3.8807 63.9362 0.584763 46.7904C0.522222 46.4652 0.712973 45.8586 0 45.9368C0 41.9779 0 38.0221 0 34.0632C0.040652 34.0976 0.0750498 34.1352 0.118829 34.1633C0.153227 34.1852 0.193879 34.1977 0.231404 34.2133C0.35336 33.8787 0.522222 33.5535 0.58789 33.2096C3.88383 16.0513 16.0482 3.88696 33.2064 0.584763C33.5348 0.522222 34.1383 0.712973 34.0632 0C38.0221 0 41.9779 0 45.9368 0C45.9024 0.040652 45.8648 0.0781769 45.8367 0.118829C45.8148 0.153227 45.8023 0.193879 45.7867 0.234531C46.1213 0.356487 46.4465 0.525349 46.7904 0.591017C63.955 3.88383 76.1287 16.0638 79.409 33.2158C79.4715 33.541 79.2808 34.1477 79.9969 34.0601L80 34.0632ZM59.3332 57.3756C59.1768 56.9222 58.9798 56.2217 58.7015 55.5525C53.62 43.31 48.5228 31.0738 43.4476 18.8281C42.9191 17.5554 42.2968 16.4859 40.7083 16.4672C39.0541 16.4453 38.3724 17.5241 37.822 18.8594C34.7074 26.4019 31.5647 33.935 28.4314 41.4713C26.036 47.2314 23.6626 53.0008 21.2266 58.7421C20.7669 59.8241 20.8826 60.2431 22.1397 60.1587C23.1748 60.0868 24.2286 60.068 25.2605 60.165C26.33 60.265 26.8147 59.8366 27.1962 58.8547C29.0912 53.9608 31.0956 49.1076 32.9875 44.2106C33.4316 43.0598 33.7412 42.9191 34.7418 43.7384C40.9397 48.8199 47.1907 53.8389 53.4324 58.8703C53.9984 59.3269 54.5612 59.8179 55.2023 60.1399C57.0973 61.0906 59.3613 59.6896 59.3332 57.3725V57.3756Z" fill="#FE5850"/>
<path id="Vector_2" d="M59.3332 57.3756C59.3614 59.6896 57.1005 61.0906 55.2024 60.1431C54.5613 59.821 53.9984 59.33 53.4324 58.8735C47.1939 53.842 40.9429 48.823 34.7419 43.7415C33.7412 42.9222 33.4316 43.063 32.9876 44.2137C31.0957 49.1107 29.0913 53.9639 27.1963 58.8578C26.8147 59.8397 26.3301 60.2681 25.2606 60.1681C24.2287 60.0711 23.1748 60.0899 22.1398 60.1618C20.8827 60.2494 20.7701 59.8272 21.2267 58.7452C23.6595 53.0008 26.0361 47.2345 28.4314 41.4744C31.5648 33.9381 34.7044 26.405 37.8221 18.8625C38.3724 17.5273 39.0541 16.4484 40.7083 16.4703C42.2969 16.4891 42.9192 17.5585 43.4477 18.8312C48.5229 31.0769 53.6201 43.3131 58.7016 55.5556C58.9799 56.2248 59.1769 56.9253 59.3332 57.3787V57.3756ZM40.6771 25.0229C38.8915 29.4977 37.2623 33.5817 35.6331 37.6625C35.3673 38.3286 35.8614 38.6006 36.2648 38.9165C40.7959 42.4907 45.3302 46.0618 49.8676 49.6298C50.0521 49.7737 50.2835 49.8644 50.8682 50.1864C47.4284 41.6902 44.1325 33.5598 40.6771 25.0229Z" fill="#FEFCFC"/>
<path id="Vector_3" d="M40.677 25.0229C44.1324 33.5567 47.4283 41.6902 50.8681 50.1865C50.2802 49.8644 50.0519 49.7737 49.8674 49.6299C45.33 46.0619 40.7958 42.4907 36.2647 38.9165C35.8613 38.6007 35.3672 38.3286 35.633 37.6625C37.2653 33.5817 38.8914 29.5009 40.677 25.0229Z" fill="#FE5850"/>
</g>
<defs>
<clipPath id="clip0_332_362">
<rect width="80" height="80" fill="white"/>
</clipPath>
</defs>
</svg>
