<svg width="58" height="58" viewBox="0 0 58 58" fill="none" xmlns="http://www.w3.org/2000/svg">
<g id="Layer_1" clip-path="url(#clip0_332_480)">
<path id="Vector" d="M0.00522 58C0.00522 38.7556 0.0058 19.5112 0 0.266252C0 0.0487259 0.04872 0 0.26622 0C19.4219 0.0058007 38.5781 0.0058007 57.7338 0C57.9513 0 58 0.0487259 58 0.266252C57.9942 19.5106 57.9948 38.7556 57.9948 58H0.00522ZM30.5121 44.1955C30.4923 44.1787 30.4726 44.1613 30.4535 44.1445C28.7848 43.2506 26.4596 43.6398 25.0525 45.0494C23.595 46.5088 23.2307 48.8332 24.1854 50.5745C25.0137 52.3101 26.988 53.3739 28.9397 53.1367C32.3443 52.7231 34.2183 49.0698 32.5455 46.0883C32.0728 45.246 31.4157 44.5807 30.5115 44.1903V44.1955H30.5121ZM5.78724 23.0479L5.77622 23.0607C6.61316 24.6559 7.94658 25.5335 9.72718 25.6263C12.8081 25.7864 15.1554 23.1587 14.6624 20.1133C14.406 18.5292 13.5279 17.3557 12.0692 16.6422C12.0379 16.6213 12.0089 16.5964 11.9758 16.5807C9.60306 15.4861 6.79296 16.5007 5.68922 18.8778C5.0576 20.2386 5.0576 21.6157 5.7333 22.9742C5.73852 23.0085 5.74548 23.0409 5.78724 23.0479ZM17.3919 11.6785H17.3826C17.4116 11.7493 17.4342 11.8236 17.4713 11.8903C18.6047 13.9466 21.1079 14.8643 23.3085 14.0313C25.5206 13.1943 26.8041 10.8276 26.2583 8.53514C25.9132 7.08555 25.0821 5.99734 23.7237 5.34012H23.7255C23.7069 5.32794 23.6884 5.3146 23.6698 5.30184C21.4606 4.21073 18.6835 5.07677 17.4934 7.25377C16.7191 8.66972 16.6506 10.1298 17.3449 11.6055C17.3611 11.6298 17.3768 11.6542 17.393 11.678L17.3919 11.6785ZM17.3913 22.9876L17.382 22.9824C17.3971 23.0276 17.4052 23.0769 17.4284 23.1175C18.288 24.6448 19.5866 25.5294 21.3376 25.6269C24.0085 25.7754 26.1296 23.8844 26.3685 21.2126C26.5362 19.3407 25.3553 17.3307 23.6657 16.6126C21.123 15.3631 17.9701 16.7043 17.1164 19.4068C16.7388 20.6018 16.78 21.777 17.3472 22.9133C17.3617 22.9383 17.3768 22.9626 17.3913 22.9876ZM32.1001 42.75C32.8141 44.4455 34.8916 45.6149 36.8138 45.4044C39.9231 45.0633 41.8667 42.0028 40.8227 39.0567C40.3993 37.8611 39.6105 36.9655 38.4482 36.4214C37.6298 35.9933 36.7639 35.8379 35.8463 35.9533C34.0501 36.1789 32.7596 37.1204 32.0183 38.7562C31.4174 40.0822 31.4511 41.4321 32.1001 42.7505V42.75ZM43.7842 23.0322C44.6432 24.8885 46.8623 25.9778 48.9294 25.5579C51.4008 25.0561 53.0451 22.7973 52.7197 20.2984C52.5028 18.6313 51.62 17.4085 50.1166 16.6434C48.1406 15.5609 45.4239 16.2443 44.1206 18.1858C43.087 19.7253 42.9734 21.3524 43.7842 23.0322ZM30.4529 28.1595C29.6479 27.7517 28.7958 27.6119 27.9015 27.7157C25.8877 27.9495 24.2805 29.3376 23.8032 31.282C23.5294 32.3975 23.624 33.4828 24.1541 34.5159C24.9493 36.1047 26.2496 36.9997 27.9989 37.1616C31.4609 37.4818 34.0692 34.0605 32.8698 30.7965C32.429 29.5981 31.6291 28.6984 30.4535 28.1595H30.4529ZM16.1014 42.7505C16.9221 44.6329 19.2258 45.7721 21.304 45.3243C23.9499 44.7535 25.5786 42.2534 24.9841 39.6048C24.657 38.1489 23.7986 37.0722 22.4425 36.4145C22.3752 36.3779 22.3103 36.335 22.2395 36.3066C20.7164 35.6853 19.2473 35.7932 17.8367 36.643C15.7905 37.8756 15.0011 40.6588 16.102 42.7511L16.1014 42.7505ZM31.1866 22.9638C31.9713 24.5607 33.2711 25.4656 35.0204 25.6176C38.164 25.8914 40.6249 23.2225 40.1192 20.1058C39.8617 18.5199 38.9766 17.3522 37.5196 16.6393C36.9164 16.3005 36.2558 16.1474 35.5772 16.1462C33.6823 16.1416 32.208 16.9502 31.2864 18.6086C30.5034 20.0176 30.4593 21.4945 31.186 22.9638H31.1866ZM12.0692 5.33258C10.3368 4.37488 7.91468 4.81748 6.50528 6.34886C5.15852 7.8118 4.8314 10.0607 5.73156 11.6669C6.51746 13.5353 8.84152 14.6868 10.9307 14.2424C13.5987 13.6751 15.2494 11.0845 14.5916 8.43711C14.2402 7.02406 13.3974 5.97124 12.0698 5.332L12.0692 5.33258ZM43.6102 5.56693C42.7825 5.13246 41.9056 5.00484 40.9787 5.09765C37.7516 5.42133 35.7819 9.01602 37.2598 11.899C37.2778 11.9436 37.2917 11.9906 37.3137 12.033C38.4407 14.1723 41.0298 15.13 43.2628 14.2343C45.5358 13.3225 46.7637 10.8711 46.0914 8.53514C45.704 7.18938 44.8879 6.17948 43.6102 5.56751V5.56693Z" fill="#FEFEFE"/>
<path id="Vector_2" d="M5.73335 22.9742C5.05765 21.6157 5.05707 20.2386 5.68927 18.8778C6.79301 16.5007 9.60311 15.4861 11.9759 16.5807C12.0095 16.5964 12.0385 16.6213 12.0693 16.6422C12.0681 16.7101 12.0832 16.771 12.1099 16.8365C12.3053 17.3174 12.4561 17.8128 12.4706 18.3343C12.5054 19.5861 12.1748 20.7114 11.3605 21.6952C10.7411 22.4435 9.96735 22.9296 9.05559 23.197C8.07017 23.4859 7.08185 23.454 6.10919 23.1013C6.00595 23.0641 5.89749 22.9916 5.77685 23.0607C5.77685 23.0607 5.78787 23.0479 5.78845 23.0479C5.79135 23.0079 5.77047 22.9858 5.73451 22.9742H5.73335Z" fill="#FEB601"/>
<path id="Vector_3" d="M37.2597 11.8984C35.7819 9.01546 37.7516 5.42077 40.9787 5.09709C41.9056 5.00428 42.7825 5.13189 43.6102 5.56637C43.6032 5.6673 43.6519 5.75199 43.6873 5.8419C44.026 6.70562 44.1223 7.59835 43.9152 8.50152C43.5266 10.1982 42.5273 11.3827 40.8882 12.0115C39.9074 12.388 38.9162 12.3862 37.9157 12.1125C37.6942 12.0521 37.4784 11.9698 37.2597 11.8978V11.8984Z" fill="#A1CD5B"/>
<path id="Vector_4" d="M24.1855 50.5745C23.2303 48.8331 23.5951 46.5088 25.0526 45.0494C26.4597 43.6398 28.7849 43.2506 30.4536 44.1444C30.4733 44.1613 30.493 44.1787 30.5122 44.1955V44.1903C30.529 44.2552 30.5388 44.3219 30.5632 44.384C30.7708 44.9165 30.8967 45.4711 30.9071 46.0389C30.9228 46.9178 30.7198 47.7473 30.2686 48.5158C29.3464 50.0878 27.9544 50.8558 26.1627 50.9156C25.5787 50.9353 24.9993 50.8181 24.4471 50.5989C24.3723 50.5693 24.2812 50.4747 24.1861 50.5751L24.1855 50.5745Z" fill="#67CCE5"/>
<path id="Vector_5" d="M5.73151 11.667C4.83135 10.0607 5.15847 7.81181 6.50523 6.34888C7.91521 4.81749 10.3367 4.3749 12.0692 5.3326C12.0326 5.47297 12.1486 5.56346 12.1857 5.68006C12.5117 6.7004 12.5952 7.71842 12.2559 8.75849C12.0001 9.54274 11.5785 10.2214 10.9904 10.7818C10.502 11.247 9.93651 11.6095 9.27763 11.8143C8.56075 12.037 7.84213 12.1235 7.09103 12.0324C6.61543 11.9744 6.18565 11.7853 5.73209 11.6675L5.73151 11.667Z" fill="#FEB601"/>
<path id="Vector_6" d="M31.1865 22.9638C30.4598 21.4945 30.5044 20.0176 31.2868 18.6087C32.2085 16.9502 33.6828 16.141 35.5777 16.1463C36.2563 16.148 36.9169 16.3006 37.5201 16.6399C37.5972 16.8777 37.6755 17.115 37.7509 17.3534C37.9858 18.0941 38.0021 18.8523 37.8385 19.6012C37.5468 20.94 36.816 21.9847 35.6357 22.7016C34.9234 23.1344 34.1538 23.3542 33.3192 23.3826C32.5721 23.4082 31.8761 23.2115 31.1865 22.9644V22.9638Z" fill="#A1CD5B"/>
<path id="Vector_7" d="M16.1014 42.7506C15.0006 40.6583 15.7905 37.8751 17.8362 36.6424C19.2467 35.7932 20.7159 35.6847 22.239 36.306C22.3097 36.335 22.3741 36.3779 22.442 36.4139C22.4385 36.5142 22.4831 36.5995 22.5185 36.6894C22.8039 37.4075 22.9355 38.1587 22.8329 38.9209C22.6803 40.0527 22.2198 41.0411 21.3724 41.8457C20.5343 42.6415 19.5437 43.0493 18.4092 43.1525C17.6036 43.2262 16.8502 43 16.1008 42.75L16.1014 42.7506Z" fill="#67CCE5"/>
<path id="Vector_8" d="M24.1535 34.5159C23.6234 33.4828 23.5295 32.3974 23.8026 31.282C24.28 29.3382 25.8872 27.9495 27.9009 27.7157C28.7959 27.6119 29.6473 27.7511 30.4523 28.1595C30.602 28.4106 30.6461 28.6995 30.7371 28.9715C30.9714 29.6734 30.9639 30.391 30.8154 31.1033C30.6078 32.0987 30.1357 32.9537 29.3776 33.644C28.1874 34.7282 26.8041 35.111 25.2213 34.8332C24.8495 34.7676 24.5224 34.5762 24.1535 34.5153V34.5159Z" fill="#67CCE5"/>
<path id="Vector_9" d="M43.7842 23.0323C42.974 21.353 43.0871 19.7253 44.1206 18.1858C45.4239 16.2443 48.1406 15.561 50.1167 16.6434C50.0598 16.6892 50.1097 16.7217 50.1265 16.764C50.478 17.6475 50.6097 18.5524 50.4281 19.4991C50.2112 20.6296 49.6608 21.5572 48.7838 22.2933C47.9765 22.9708 47.0415 23.3327 45.9882 23.3757C45.2685 23.4053 44.5707 23.2985 43.9078 23.0033C43.8556 22.9801 43.8167 22.9847 43.7842 23.0323Z" fill="#A1CD5B"/>
<path id="Vector_10" d="M32.1 42.75C31.4516 41.4309 31.4173 40.0817 32.0182 38.7556C32.7595 37.1198 34.05 36.1784 35.8462 35.9527C36.7638 35.8379 37.6297 35.9927 38.4481 36.4208C38.4417 36.5218 38.4933 36.6053 38.5252 36.6964C38.8825 37.7092 38.9811 38.7249 38.6447 39.7742C38.2996 40.8514 37.6825 41.7018 36.7504 42.3428C36.0063 42.8544 35.1868 43.0974 34.2965 43.1554C33.528 43.2053 32.8134 42.9866 32.1 42.75Z" fill="#67CCE5"/>
<path id="Vector_11" d="M17.3432 11.6055C16.649 10.1298 16.7174 8.66973 17.4917 7.25378C18.6819 5.07678 21.4589 4.21074 23.6681 5.30185C23.6867 5.31519 23.7053 5.32795 23.7238 5.34129L23.7221 5.34071C23.816 5.85871 24.0318 6.34075 24.0915 6.87616C24.1826 7.68883 24.0393 8.44641 23.7383 9.18077C23.3845 10.0439 22.8063 10.7313 22.0233 11.2539C20.8441 12.0411 19.5757 12.2633 18.2057 11.9193C17.9285 11.8497 17.6559 11.7592 17.3815 11.6786C17.3815 11.6786 17.3908 11.6786 17.3914 11.6786C17.3751 11.6542 17.3595 11.6298 17.3432 11.606V11.6055Z" fill="#FEB601"/>
<path id="Vector_12" d="M17.3467 22.9134C16.7795 21.777 16.7383 20.6018 17.1159 19.4068C17.9697 16.7049 21.1225 15.3638 23.6653 16.6126C23.7302 16.8238 23.8433 17.0146 23.9019 17.2316C24.0788 17.8865 24.1815 18.5373 24.08 19.2224C23.9982 19.7723 23.8561 20.303 23.602 20.7857C23.2221 21.5073 22.6996 22.1192 22.007 22.5769C21.2861 23.0537 20.5054 23.3287 19.6406 23.3797C18.8536 23.4261 18.1147 23.2312 17.3821 22.9818L17.3914 22.987C17.3769 22.9621 17.3618 22.9377 17.3473 22.9134H17.3467Z" fill="#FEB601"/>
<path id="Vector_13" d="M17.3819 22.9818C18.1139 23.2312 18.8534 23.4261 19.6404 23.3797C20.5058 23.3287 21.2859 23.0531 22.0068 22.5769C22.6994 22.1192 23.2219 21.5072 23.6018 20.7856C23.8559 20.303 23.998 19.7722 24.0798 19.2223C24.1813 18.5373 24.0792 17.8859 23.9017 17.2315C23.8431 17.0152 23.73 16.8243 23.6651 16.6126C25.3546 17.3307 26.5355 19.3401 26.3679 21.2126C26.1289 23.8844 24.0078 25.7754 21.3369 25.6269C19.5859 25.5294 18.2873 24.6448 17.4277 23.1175C17.4045 23.0769 17.3964 23.0276 17.3813 22.9824L17.3819 22.9818Z" fill="#E2A403"/>
<path id="Vector_14" d="M17.3819 11.678C17.6563 11.7586 17.9289 11.8491 18.2061 11.9187C19.5761 12.2627 20.8451 12.0405 22.0237 11.2534C22.8067 10.7307 23.3843 10.0434 23.7387 9.18021C24.0397 8.44584 24.183 7.68827 24.0919 6.87559C24.0322 6.34019 23.8159 5.85815 23.7225 5.34015C25.0814 5.99737 25.9126 7.08558 26.2571 8.53517C26.8023 10.8276 25.5193 13.1943 23.3072 14.0313C21.1067 14.8637 18.604 13.9461 17.4701 11.8903C17.4335 11.8236 17.4109 11.7493 17.3813 11.6786L17.3819 11.678Z" fill="#E2A403"/>
<path id="Vector_15" d="M5.73163 11.6669C6.18519 11.7847 6.61439 11.9738 7.09057 12.0318C7.84167 12.1228 8.56029 12.0364 9.27717 11.8137C9.93605 11.6089 10.5021 11.2464 10.9899 10.7811C11.578 10.2202 11.9997 9.54154 12.2555 8.75786C12.5948 7.71838 12.5112 6.69977 12.1853 5.67943C12.1482 5.56284 12.0322 5.47235 12.0687 5.33197C13.3963 5.97121 14.2396 7.02403 14.5905 8.43708C15.2488 11.0845 13.5982 13.6751 10.9296 14.2424C8.84101 14.6868 6.51637 13.5353 5.73047 11.6669H5.73163Z" fill="#E2A403"/>
<path id="Vector_16" d="M43.7842 23.0323C43.8167 22.9847 43.8555 22.9801 43.9077 23.0033C44.5701 23.2985 45.2684 23.4052 45.9882 23.3757C47.0415 23.3322 47.9764 22.9708 48.7838 22.2932C49.6607 21.5571 50.2112 20.6296 50.4281 19.4991C50.6096 18.5524 50.478 17.6481 50.1265 16.764C50.1097 16.7217 50.0604 16.6892 50.1166 16.6434C51.6206 17.4085 52.5027 18.6313 52.7197 20.2984C53.045 22.7973 51.4007 25.0555 48.9294 25.5579C46.8622 25.9779 44.6432 24.8885 43.7842 23.0323Z" fill="#8AB04D"/>
<path id="Vector_17" d="M32.1001 42.75C32.8135 42.9872 33.5281 43.2059 34.2966 43.1554C35.1874 43.0974 36.007 42.8544 36.7505 42.3428C37.6826 41.7018 38.2997 40.8514 38.6448 39.7742C38.9806 38.7249 38.8826 37.7098 38.5253 36.6964C38.4934 36.6059 38.4418 36.5218 38.4482 36.4208C39.6105 36.9649 40.3993 37.8611 40.8227 39.0561C41.8661 42.0023 39.9231 45.0627 36.8138 45.4038C34.8911 45.6144 32.8141 44.4449 32.1001 42.7494V42.75Z" fill="#58AFC2"/>
<path id="Vector_18" d="M31.1865 22.9638C31.8761 23.2103 32.5716 23.407 33.3192 23.382C34.1538 23.3536 34.9235 23.1337 35.6357 22.701C36.816 21.984 37.5468 20.9393 37.8385 19.6005C38.0015 18.8522 37.9853 18.0941 37.751 17.3528C37.6756 17.1144 37.5973 16.8771 37.5201 16.6393C38.9771 17.3522 39.8622 18.5199 40.1197 20.1058C40.6254 23.2225 38.1645 25.8914 35.0209 25.6176C33.2716 25.465 31.9718 24.5607 31.1871 22.9638H31.1865Z" fill="#8AB04D"/>
<path id="Vector_19" d="M5.77573 23.0607C5.89637 22.9917 6.00483 23.0642 6.10807 23.1013C7.08073 23.454 8.06905 23.4865 9.05447 23.197C9.96623 22.9296 10.7399 22.4435 11.3594 21.6952C12.1743 20.7114 12.5049 19.5861 12.4695 18.3343C12.455 17.8128 12.3042 17.3168 12.1087 16.8365C12.0821 16.7716 12.067 16.7101 12.0681 16.6422C13.5268 17.3551 14.405 18.5292 14.6613 20.1133C15.1543 23.1587 12.8071 25.7864 9.72611 25.6263C7.94551 25.5335 6.61209 24.6559 5.77515 23.0607H5.77573Z" fill="#E2A403"/>
<path id="Vector_20" d="M37.2598 11.8984C37.4784 11.9703 37.6942 12.0521 37.9157 12.113C38.9162 12.3863 39.9069 12.3886 40.8882 12.0121C42.5273 11.3833 43.5267 10.1988 43.9153 8.50211C44.1223 7.59836 44.0255 6.70621 43.6873 5.84249C43.6519 5.75258 43.6038 5.66789 43.6102 5.56696C44.8879 6.17951 45.7046 7.18941 46.0914 8.53459C46.7636 10.8711 45.5358 13.3219 43.2628 14.2338C41.0303 15.1294 38.4406 14.1717 37.3137 12.0324C37.2917 11.9901 37.2772 11.9431 37.2598 11.8984Z" fill="#8AB04D"/>
<path id="Vector_21" d="M24.1534 34.5159C24.5223 34.5768 24.8488 34.7682 25.2212 34.8337C26.804 35.1116 28.1879 34.7287 29.3775 33.6446C30.1355 32.9543 30.6077 32.0993 30.8153 31.1039C30.9638 30.3916 30.9713 29.6734 30.737 28.9721C30.6459 28.7001 30.6019 28.4118 30.4522 28.16C31.6285 28.6995 32.4283 29.5986 32.8685 30.797C34.0679 34.0611 31.4597 37.4823 27.9977 37.1621C26.2484 37.0003 24.948 36.1052 24.1528 34.5164L24.1534 34.5159Z" fill="#58AFC2"/>
<path id="Vector_22" d="M24.1853 50.5745C24.2804 50.4742 24.3721 50.5687 24.4463 50.5983C24.9985 50.8176 25.5779 50.9342 26.1619 50.915C27.9536 50.8553 29.3456 50.0873 30.2678 48.5153C30.719 47.7467 30.922 46.9172 30.9063 46.0384C30.8959 45.4711 30.77 44.9159 30.5624 44.3834C30.5386 44.322 30.5282 44.2547 30.5114 44.1897C31.415 44.5801 32.0727 45.2454 32.5454 46.0877C34.2181 49.0698 32.3442 52.7225 28.9396 53.1361C26.9873 53.3734 25.0135 52.3095 24.1853 50.5739V50.5745Z" fill="#58AFC2"/>
<path id="Vector_23" d="M16.1013 42.7505C16.8507 43.0005 17.6041 43.2268 18.4097 43.1531C19.5436 43.0498 20.5348 42.6421 21.3729 41.8462C22.2197 41.0416 22.6808 40.0532 22.8334 38.9215C22.936 38.1593 22.8038 37.4081 22.519 36.69C22.4831 36.6001 22.439 36.5148 22.4425 36.4144C23.7985 37.0728 24.6575 38.1488 24.984 39.6048C25.5785 42.2534 23.9505 44.7535 21.3039 45.3243C19.2258 45.7727 16.922 44.6329 16.1013 42.7505Z" fill="#58AFC2"/>
<path id="Vector_24" d="M17.3433 11.6055C17.3595 11.6298 17.3752 11.6536 17.3914 11.678C17.3752 11.6536 17.3595 11.6293 17.3433 11.6055Z" fill="#E2A403"/>
<path id="Vector_25" d="M30.5119 44.1955C30.4922 44.1787 30.4725 44.1613 30.4534 44.1445C30.4731 44.1613 30.4928 44.1787 30.5119 44.1955Z" fill="#58AFC2"/>
<path id="Vector_26" d="M5.7334 22.9742C5.76936 22.9853 5.79024 23.0079 5.78734 23.0479C5.74558 23.041 5.73804 23.0085 5.7334 22.9742Z" fill="#E2A403"/>
</g>
<defs>
<clipPath id="clip0_332_480">
<rect width="58" height="58" fill="white"/>
</clipPath>
</defs>
</svg>
