<svg width="59" height="85" viewBox="0 0 59 85" fill="none" xmlns="http://www.w3.org/2000/svg">
<g id="Group 83">
<g id="Group">
<path id="Vector" d="M29.5098 18.7232C39.1359 18.7232 48.7615 18.7221 58.3875 18.7256C59.0097 18.7256 59.0208 18.5812 58.9489 19.3388C58.8268 20.6211 58.7083 21.9043 58.589 23.187C58.4389 24.7969 58.2887 26.4071 58.1402 28.0174C57.9976 29.5621 57.8585 31.1073 57.7159 32.652C57.5697 34.2359 57.4196 35.8197 57.273 37.4035C57.13 38.9482 56.9906 40.4934 56.848 42.0381C56.6749 43.91 56.4995 45.7818 56.3261 47.6537C56.1843 49.1854 56.0448 50.7171 55.903 52.2489C55.754 53.8591 55.6027 55.469 55.4542 57.0788C55.3116 58.6236 55.1725 60.1687 55.0299 61.7135C54.8837 63.2973 54.734 64.8811 54.5874 66.4649C54.4468 67.9832 54.3077 69.502 54.1671 71.0207C54.017 72.6439 53.8653 74.2672 53.7155 75.8905C53.6492 76.6106 53.584 77.3307 53.5235 78.0512C53.4785 78.5901 53.4828 78.5933 52.9697 78.7314C45.2696 80.8025 37.5691 82.872 29.8697 84.9467C29.6193 85.0142 29.3897 85.0197 29.1365 84.9514C21.3993 82.8657 13.6609 80.7859 5.92243 78.705C5.85883 78.688 5.79601 78.6667 5.73162 78.6556C5.56135 78.626 5.50051 78.5286 5.48629 78.3566C5.41636 77.5181 5.3334 76.6808 5.25557 75.8431C5.08056 73.9583 4.90476 72.0734 4.73054 70.1881C4.58871 68.6564 4.44926 67.1247 4.30782 65.5929C4.15889 63.9827 4.00758 62.3728 3.85904 60.7626C3.71642 59.2178 3.57736 57.6727 3.43474 56.1279C3.28857 54.5441 3.13924 52.9603 2.99228 51.3765C2.85164 49.8582 2.71258 48.3395 2.57233 46.8207C2.42221 45.1975 2.2705 43.5746 2.12078 41.9513C2.00502 40.6946 1.89243 39.4375 1.77628 38.1808C1.63011 36.597 1.48078 35.0132 1.33421 33.4293C1.19239 31.8976 1.05254 30.3659 0.911105 28.8342C0.762167 27.2239 0.610464 25.614 0.462712 24.0038C0.309824 22.3411 0.158912 20.6783 0.00957917 19.0156C-0.0157046 18.7359 -0.0105689 18.7339 0.277824 18.724C0.396342 18.7201 0.51486 18.7232 0.633378 18.7232C10.2594 18.7232 19.885 18.7232 29.511 18.7232H29.5098ZM29.5035 38.1484C29.5047 38.2692 29.5059 38.3899 29.5071 38.5107C29.4802 38.5379 29.4537 38.5651 29.4269 38.5927C29.2902 38.5943 29.1756 38.6657 29.0551 38.7158C25.3902 40.2369 21.726 41.7588 18.063 43.2842C17.8465 43.3745 17.6158 43.4373 17.4222 43.5789C16.8241 43.7774 16.2544 44.0457 15.6737 44.2864C14.5956 44.7331 13.5222 45.1904 12.4468 45.6433C12.2963 45.6627 12.3054 45.7704 12.3141 45.8793C12.3394 46.1934 12.3631 46.5078 12.3888 46.8219C12.5389 48.6677 12.6906 50.5132 12.8387 52.3594C12.8692 52.7397 12.8636 52.7421 13.2508 52.7437C18.5134 52.7654 23.776 52.7863 29.0389 52.8064C29.1701 52.8068 29.3013 52.7958 29.4324 52.7898C29.4557 52.8021 29.4794 52.8135 29.5031 52.8246C29.5039 56.7375 29.5051 60.6505 29.5059 64.5635C29.4822 64.582 29.4585 64.6002 29.4348 64.6187C26.9364 63.9886 24.4385 63.3585 21.9401 62.7283C21.5498 62.6299 21.3388 62.3865 21.3072 61.998C21.1717 60.3483 21.0354 58.6986 20.8991 57.0489C20.8742 56.7482 20.8735 56.7395 20.5783 56.7395C18.2886 56.7375 15.9992 56.7383 13.7094 56.7411C13.3914 56.7415 13.3879 56.7502 13.4132 57.0469C13.5443 58.5782 13.6763 60.1099 13.8098 61.6409C13.9836 63.6303 14.1602 65.6194 14.3328 67.6084C14.3684 68.018 14.3621 68.0188 14.754 68.1348C18.7247 69.3098 22.6943 70.4888 26.667 71.6575C27.5867 71.9282 28.4969 72.2312 29.4308 72.4518L29.5027 72.4936C29.5027 74.7817 29.5019 77.0702 29.5019 79.3584C29.5019 79.4243 29.5 79.4902 29.5051 79.5557C29.5264 79.8382 29.5782 79.8804 29.846 79.8319C29.9365 79.8153 30.0254 79.7896 30.1143 79.766C31.589 79.3698 33.0642 78.9741 34.5386 78.5771C39.1149 77.3457 43.6917 76.1154 48.2673 74.8796C48.9432 74.6969 48.9341 74.8508 49.0171 73.9559C49.0878 73.1971 49.1427 72.4368 49.2087 71.6772C49.3039 70.5776 49.4042 69.4783 49.4998 68.379C49.5887 67.3578 49.6729 66.3363 49.7618 65.3151C49.8578 64.2155 49.9585 63.1166 50.0553 62.0169C50.1438 61.0088 50.2275 60.0006 50.316 58.9925C50.4116 57.9063 50.5116 56.82 50.6068 55.7337C50.6965 54.7126 50.781 53.691 50.8703 52.6703C50.9655 51.584 51.0651 50.4978 51.1603 49.4115C51.25 48.3903 51.3349 47.3692 51.4246 46.348C51.519 45.2748 51.6178 44.202 51.7118 43.1283C51.8026 42.0942 51.888 41.0596 51.9788 40.0254C52.0721 38.9652 52.1704 37.9054 52.2633 36.8452C52.3538 35.811 52.4379 34.7764 52.528 33.7422C52.6236 32.6426 52.7235 31.5433 52.8211 30.444C52.9092 29.4493 52.9969 28.4546 53.083 27.4595C53.183 26.3073 53.2849 25.1556 53.3778 24.003C53.4086 23.6183 53.3872 23.6073 52.9969 23.5978C52.9574 23.597 52.9179 23.5974 52.8784 23.5974C45.2806 23.5974 37.6832 23.5974 30.0854 23.5974C30.0195 23.5974 29.9535 23.5958 29.8879 23.5994C29.5671 23.6163 29.5229 23.6589 29.5035 23.9667C29.5004 24.0192 29.5012 24.0721 29.5012 24.1245C29.5019 26.3732 29.5031 28.6223 29.5043 30.8709C29.4806 30.8836 29.4569 30.8958 29.4332 30.9084C29.3155 30.9017 29.1974 30.8891 29.0796 30.8891C23.1194 30.8895 17.1591 30.8911 11.1992 30.8926C11.1202 30.8926 11.0412 30.8958 10.9626 30.8946C10.8283 30.893 10.7714 30.9585 10.786 31.0903C10.7931 31.1554 10.7959 31.2213 10.8042 31.2864C11.0653 33.3978 11.3213 35.5099 11.5911 37.6205C11.6686 38.2246 11.6026 38.1263 12.1446 38.1267C17.7628 38.1307 23.3809 38.1311 28.999 38.1311C29.1432 38.1311 29.2874 38.1196 29.4316 38.1137C29.4549 38.1252 29.4786 38.1366 29.5023 38.1476L29.5035 38.1484Z" fill="#2062AF"/>
<path id="Vector_2" d="M29.5053 30.8713C29.5041 28.6226 29.5033 26.3736 29.5021 24.1249C29.5021 24.0724 29.501 24.0196 29.5045 23.9671C29.5235 23.6593 29.5681 23.6171 29.8889 23.5997C29.9545 23.5962 30.0205 23.5978 30.0864 23.5978C37.6842 23.5978 45.2816 23.5978 52.8794 23.5978C52.9189 23.5978 52.9584 23.5974 52.9979 23.5982C53.3878 23.6072 53.4095 23.6187 53.3787 24.0034C53.2863 25.1559 53.184 26.3077 53.084 27.4598C52.9979 28.4549 52.9098 29.4497 52.8221 30.4444C52.7249 31.5437 52.625 32.6429 52.529 33.7426C52.4389 34.7768 52.3547 35.8114 52.2643 36.8455C52.1714 37.9058 52.0731 38.9656 51.9798 40.0258C51.889 41.06 51.8032 42.0945 51.7128 43.1287C51.6187 44.2019 51.52 45.2752 51.4256 46.3484C51.3359 47.3696 51.2506 48.3907 51.1613 49.4119C51.0661 50.4981 50.9665 51.5844 50.8713 52.6707C50.782 53.6918 50.6971 54.7134 50.6078 55.7341C50.5126 56.8204 50.4126 57.9066 50.317 58.9929C50.2285 60.001 50.1444 61.0092 50.0563 62.0173C49.9599 63.117 49.8592 64.2158 49.7628 65.3155C49.6735 66.3367 49.5893 67.3582 49.5008 68.3794C49.4052 69.4791 49.3049 70.5779 49.2097 71.6776C49.1437 72.4368 49.0888 73.1971 49.0181 73.9563C48.9347 74.8515 48.9442 74.6977 48.2682 74.88C43.6931 76.1158 39.1159 77.346 34.5395 78.5775C33.0648 78.9744 31.59 79.3702 30.1153 79.7663C30.0264 79.7904 29.9375 79.8161 29.847 79.8322C29.5792 79.8808 29.5274 79.8386 29.5061 79.556C29.501 79.4905 29.5029 79.4246 29.5029 79.3588C29.5029 77.0706 29.5033 74.7821 29.5037 72.494C30.3464 72.2474 31.1906 72.0063 32.0309 71.753C32.7195 71.5454 33.4223 71.3844 34.0951 71.1252C34.1974 71.1031 34.3013 71.0865 34.4017 71.0577C35.7026 70.6817 37.0035 70.3045 38.3037 69.9257C40.2604 69.3559 42.2167 68.7846 44.1731 68.2137C44.4225 68.1408 44.5596 67.9723 44.5843 67.7082C44.5918 67.6297 44.5938 67.5508 44.6005 67.4723C44.6886 66.4381 44.7759 65.4039 44.8656 64.3697C45.0157 62.6419 45.1674 60.9145 45.3179 59.1866C45.4309 57.8909 45.5419 56.5951 45.6549 55.2993C45.8055 53.5715 45.9575 51.844 46.1085 50.1166C46.2226 48.8078 46.3269 47.4978 46.4537 46.1902C46.5083 45.6264 46.4984 45.6911 46.0152 45.6911C42.6201 45.6903 39.2249 45.6919 35.8298 45.6938C35.6986 45.6938 35.5675 45.7049 35.4363 45.7108C35.2791 45.7041 35.1219 45.6915 34.9646 45.6911C33.3081 45.6899 31.6513 45.6922 29.9948 45.6895C29.8399 45.6895 29.6783 45.727 29.5314 45.641C31.4656 44.8155 33.4006 43.9912 35.3344 43.1642C37.2149 42.3605 39.0954 41.5563 40.9739 40.7479C41.8015 40.3916 42.6134 39.9954 43.4517 39.6667C44.6112 39.2122 45.745 38.6988 46.8966 38.2261C47.0629 38.1579 47.1328 38.0667 47.1498 37.8809C47.2407 36.9008 47.3493 35.9218 47.4509 34.9425C47.5725 33.7675 47.6958 32.5924 47.8124 31.417C47.872 30.8145 47.8787 30.8914 47.3588 30.8914C43.1613 30.8906 38.9638 30.8926 34.7659 30.8946C34.6217 30.8946 34.4771 30.906 34.3329 30.912C34.1895 30.9049 34.0461 30.8918 33.9027 30.8918C32.8163 30.8903 31.7295 30.8934 30.6431 30.891C30.2638 30.8903 29.885 30.8784 29.5057 30.8717L29.5053 30.8713Z" fill="#3C9CD7"/>
<path id="Vector_3" d="M34.3329 30.9119C34.4771 30.906 34.6217 30.8945 34.7659 30.8945C38.9634 30.8926 43.1609 30.8906 47.3588 30.8914C47.8787 30.8914 47.872 30.8144 47.8123 31.4169C47.6962 32.5924 47.5725 33.7674 47.4509 34.9424C47.3493 35.9218 47.2407 36.9003 47.1498 37.8808C47.1324 38.0667 47.0629 38.1578 46.8966 38.2261C45.7454 38.6988 44.6116 39.2125 43.4517 39.6667C42.6134 39.9953 41.8015 40.3915 40.9739 40.7478C39.0953 41.5567 37.2149 42.3604 35.3344 43.1642C33.4006 43.9908 31.4656 44.8154 29.5314 45.6409C29.4468 45.517 29.4314 45.3769 29.4318 45.2325C29.433 44.9476 29.4259 44.6635 29.4796 44.3806C29.5207 44.164 29.5404 43.9422 29.4263 43.7355C29.4314 42.5313 29.4381 41.3274 29.4401 40.1232C29.4409 39.613 29.4318 39.1028 29.4271 38.5926C29.4539 38.5654 29.4804 38.5378 29.5073 38.5106C29.787 38.4068 30.0667 38.303 30.3464 38.1992C31.4482 38.2083 32.5488 38.2415 33.6506 38.1428C34.3203 38.0828 34.3294 38.1152 34.3297 37.4428C34.3313 35.266 34.3317 33.0887 34.3325 30.9119H34.3329Z" fill="#FCFCFC"/>
<path id="Vector_4" d="M29.4317 72.4521C28.4978 72.2316 27.5872 71.9285 26.6679 71.6578C22.6951 70.4887 18.7256 69.3101 14.7548 68.1351C14.3629 68.0191 14.3693 68.0187 14.3337 67.6087C14.1611 65.6193 13.9845 63.6303 13.8107 61.6412C13.6771 60.1099 13.5448 58.5786 13.414 57.0472C13.3887 56.7505 13.3923 56.7418 13.7103 56.7414C16.0001 56.7383 18.2894 56.7379 20.5792 56.7399C20.8747 56.7399 20.8755 56.7485 20.9 57.0492C21.0363 58.6989 21.1722 60.3486 21.3081 61.9983C21.34 62.3863 21.5509 62.6298 21.941 62.7287C24.4389 63.3588 26.9373 63.9889 29.4356 64.6191C29.4345 67.2304 29.4333 69.8412 29.4321 72.4525L29.4317 72.4521Z" fill="#E1E1E0"/>
<path id="Vector_5" d="M29.4328 38.1145C29.2886 38.1204 29.1444 38.1318 29.0002 38.1318C23.382 38.1318 17.7639 38.1318 12.1458 38.1275C11.6037 38.1271 11.6693 38.2249 11.5923 37.6212C11.3225 35.5111 11.0661 33.3989 10.8053 31.2872C10.7974 31.2221 10.7947 31.1562 10.7871 31.0911C10.7725 30.9589 10.8294 30.8934 10.9637 30.8954C11.0428 30.8965 11.1218 30.8934 11.2004 30.8934C17.1606 30.8918 23.1205 30.8902 29.0808 30.8898C29.1985 30.8898 29.3166 30.9025 29.4343 30.9092C29.434 33.3109 29.4332 35.7127 29.4328 38.1148V38.1145Z" fill="#E1E1E0"/>
<path id="Vector_6" d="M29.433 52.7898C29.3018 52.7957 29.1707 52.8068 29.0395 52.8064C23.7769 52.7863 18.5139 52.765 13.2513 52.7436C12.8642 52.7421 12.8697 52.7397 12.8393 52.3593C12.6912 50.5135 12.5395 48.6677 12.3893 46.8219C12.3637 46.5078 12.3399 46.1933 12.3147 45.8793C12.306 45.7704 12.2969 45.6623 12.4474 45.6433C12.6485 45.7293 12.8614 45.7041 13.0708 45.7045C18.331 45.7076 23.5912 45.7092 28.8515 45.712C29.4085 45.712 29.4271 45.7341 29.4306 46.2888C29.4306 46.3413 29.4306 46.3938 29.4306 46.4463C29.4314 48.5608 29.4322 50.6753 29.4334 52.7902L29.433 52.7898Z" fill="#E1E1E0"/>
<path id="Vector_7" d="M29.5067 64.5635C29.5059 60.6505 29.5047 56.7376 29.5039 52.8246C29.6999 52.8187 29.8962 52.8072 30.0922 52.8072C31.6514 52.8096 33.2107 52.8147 34.77 52.8171C34.9925 52.8171 35.2145 52.8068 35.4369 52.8009C35.5155 52.8064 35.5941 52.8159 35.6728 52.8163C36.436 52.8194 37.1989 52.8198 37.9621 52.8242C38.3623 52.8266 38.3659 52.8297 38.3453 53.2136C38.3193 53.699 38.2877 54.1843 38.2576 54.6692C38.1099 57.0686 37.9621 59.4684 37.8136 61.8678C37.7907 62.2351 37.8843 62.2332 37.415 62.3661C36.2768 62.6885 35.1398 63.0144 34.0021 63.3388C33.3222 63.525 32.643 63.7148 31.962 63.8967C31.1426 64.1157 30.3375 64.3859 29.5067 64.5635Z" fill="#3C9CD7"/>
<path id="Vector_8" d="M35.4369 52.8013C35.2144 52.8068 34.9924 52.8175 34.77 52.8175C33.2107 52.8151 31.6514 52.81 30.0921 52.8076C29.8962 52.8076 29.6998 52.8187 29.5039 52.825C29.4798 52.8139 29.4564 52.8025 29.4327 52.7903C29.432 50.6758 29.4308 48.5612 29.43 46.4463C29.43 46.3939 29.43 46.3414 29.43 46.2889C29.4268 45.7341 29.4079 45.7124 28.8508 45.712C23.5906 45.7093 18.3304 45.7077 13.0702 45.7045C12.8612 45.7045 12.6483 45.7298 12.4468 45.6434C13.5221 45.1904 14.5955 44.7327 15.6736 44.2865C16.2544 44.0458 16.824 43.7774 17.4222 43.579C17.5948 43.7778 17.8303 43.7325 18.0495 43.7329C21.8417 43.7352 25.6339 43.7352 29.4256 43.7356C29.5398 43.9424 29.5201 44.1641 29.479 44.3807C29.4252 44.6637 29.4324 44.9481 29.4312 45.2326C29.4308 45.377 29.4458 45.5175 29.5307 45.641C29.6777 45.727 29.8393 45.6892 29.9941 45.6895C31.6506 45.6919 33.3075 45.6899 34.964 45.6911C35.1212 45.6911 35.2784 45.7038 35.4357 45.7109C35.4357 48.0743 35.4357 50.4378 35.4361 52.8013H35.4369Z" fill="#F4F4F4"/>
<path id="Vector_9" d="M29.5068 64.5635C30.3372 64.3863 31.1427 64.1161 31.9621 63.8967C32.6432 63.7148 33.3223 63.525 34.0022 63.3387C34.0061 63.5747 34.014 63.811 34.014 64.047C34.0148 66.1595 34.0152 68.2721 34.0136 70.385C34.0136 70.6356 34.0239 70.8834 34.0954 71.1252C33.4226 71.3845 32.7198 71.5455 32.0312 71.753C31.1909 72.0063 30.3467 72.2474 29.504 72.494C29.4799 72.4802 29.4562 72.466 29.4321 72.4522C29.4333 69.8409 29.4345 67.23 29.4357 64.6187C29.4594 64.6002 29.4831 64.582 29.5068 64.5635Z" fill="#F4F4F4"/>
<path id="Vector_10" d="M29.4326 38.1145C29.433 35.7127 29.4338 33.311 29.4342 30.9088C29.4579 30.8962 29.4816 30.884 29.5053 30.8713C29.8846 30.878 30.2634 30.8899 30.6427 30.8907C31.7291 30.893 32.8159 30.8903 33.9023 30.8915C34.0457 30.8915 34.1891 30.9045 34.3325 30.9116C34.3317 33.0884 34.3314 35.2657 34.3298 37.4425C34.3294 38.1149 34.3203 38.0825 33.6507 38.1425C32.5488 38.2412 31.4482 38.2076 30.3464 38.1989C30.0722 38.0672 29.7858 38.1417 29.5033 38.1484C29.4796 38.1374 29.4559 38.1263 29.4326 38.1145Z" fill="#F4F4F4"/>
<path id="Vector_11" d="M29.4261 43.7351C25.6339 43.7347 21.8417 43.7351 18.05 43.7324C17.8307 43.7324 17.5952 43.7774 17.4226 43.5785C17.6158 43.4365 17.8465 43.3737 18.0634 43.2838C21.7264 41.7583 25.391 40.2365 29.0555 38.7154C29.1756 38.6653 29.2902 38.5939 29.4273 38.5923C29.432 39.1025 29.4411 39.6127 29.4403 40.1228C29.4383 41.3271 29.4312 42.5309 29.4265 43.7351H29.4261Z" fill="#E1E1E0"/>
<path id="Vector_12" d="M29.5037 38.1485C29.7861 38.1417 30.0725 38.0672 30.3467 38.199C30.067 38.3027 29.7873 38.4065 29.5076 38.5103C29.5064 38.3895 29.5052 38.2688 29.5041 38.1481L29.5037 38.1485Z" fill="#3C9CD7"/>
<path id="Vector_13" d="M34.0947 71.1256C34.0236 70.8838 34.0129 70.636 34.0129 70.3854C34.0145 68.2729 34.0141 66.1603 34.0133 64.0474C34.0133 63.8114 34.0054 63.5751 34.0015 63.3391C35.1388 63.0148 36.2762 62.6889 37.4144 62.3665C37.8837 62.2335 37.7905 62.2355 37.813 61.8682C37.9615 59.4688 38.1093 57.069 38.257 54.6696C38.2871 54.1843 38.3187 53.6993 38.3447 53.214C38.3653 52.8301 38.3617 52.8269 37.9615 52.8246C37.1983 52.8202 36.4354 52.8202 35.6722 52.8167C35.5936 52.8167 35.5149 52.8068 35.4363 52.8013C35.4363 50.4378 35.4363 48.0743 35.4359 45.7108C35.5671 45.7049 35.6982 45.6939 35.8294 45.6939C39.2245 45.6919 42.6197 45.6903 46.0148 45.6911C46.4976 45.6911 46.5079 45.6264 46.4533 46.1902C46.3265 47.4978 46.2222 48.8078 46.1081 50.1166C45.9571 51.8445 45.8054 53.5719 45.6545 55.2993C45.5415 56.5951 45.4301 57.8909 45.3175 59.1867C45.167 60.9145 45.0153 62.6419 44.8652 64.3698C44.7755 65.4039 44.6882 66.4381 44.6001 67.4723C44.5934 67.5508 44.591 67.6297 44.5839 67.7082C44.5592 67.9718 44.4221 68.1403 44.1727 68.2137C42.2163 68.7846 40.26 69.356 38.3033 69.9257C37.0031 70.3045 35.7022 70.6813 34.4013 71.0578C34.3009 71.0866 34.197 71.1031 34.0947 71.1252V71.1256Z" fill="#FCFCFC"/>
</g>
<g id="Group_2">
<path id="Vector_14" d="M37.6066 9.95277H44.029C44.2108 9.1214 44.1934 9.10286 43.4242 9.10483C41.6374 9.10957 39.8509 9.10759 38.064 9.11391C37.8073 9.1147 37.6038 9.11667 37.605 8.75879C37.6149 5.91392 37.6121 3.06866 37.6157 0.223399C37.6157 0.176445 37.6433 0.129886 37.6698 0.0466309H48.7239C48.7382 0.223005 48.763 0.39859 48.7642 0.574174C48.7702 1.53377 48.7429 2.49456 48.7832 3.45258C48.8045 3.95684 48.6212 4.06456 48.1503 4.05746C46.3808 4.03102 44.6106 4.04326 42.8407 4.04957C42.5812 4.05036 42.2525 3.92922 42.239 4.41849C42.2252 4.9271 42.5401 4.88172 42.866 4.88133C44.6189 4.87975 46.3721 4.88093 48.125 4.88133C48.3091 4.88133 48.4928 4.88133 48.7295 4.88133C48.7449 5.09045 48.7698 5.26761 48.7698 5.44517C48.7713 8.206 48.7642 10.9668 48.7765 13.7276C48.7781 14.1017 48.6611 14.2232 48.2858 14.222C44.8812 14.211 41.4766 14.2161 38.0719 14.2138C37.8598 14.2138 37.6058 14.2599 37.6062 13.9155C37.607 12.6221 37.6062 11.329 37.6062 9.95316L37.6066 9.95277Z" fill="black"/>
<path id="Vector_15" d="M28.8913 4.04756C28.8163 4.888 28.8163 4.88523 29.5771 4.88405C31.3304 4.88089 33.0841 4.88918 34.8374 4.87221C35.2237 4.86827 35.3604 4.9748 35.3577 5.38279C35.3403 8.17794 35.3438 10.9731 35.3521 13.7682C35.3529 14.0863 35.2676 14.2149 34.9255 14.2141C31.5031 14.2066 28.0807 14.2133 24.6583 14.2133C24.5267 14.2133 24.3952 14.1857 24.1913 14.1628C24.1913 12.8367 24.1814 11.529 24.2126 10.2218C24.215 10.1295 24.5208 9.96891 24.6867 9.96733C26.4064 9.94957 28.1261 9.95786 29.8458 9.95904C30.1121 9.95904 30.3779 9.95904 30.6327 9.95904C30.8074 9.13833 30.7868 9.10795 30.0153 9.10716C28.2284 9.10598 26.4412 9.09808 24.6543 9.12058C24.2589 9.12531 24.1747 8.98484 24.1763 8.62341C24.1897 5.94663 24.1941 3.26985 24.1794 0.593469C24.1771 0.133792 24.3209 -0.000362799 24.7871 0.00200464C28.1083 0.0205495 31.4296 0.0162092 34.7512 3.17739e-05C35.1913 -0.00194109 35.377 0.0868377 35.3561 0.580448C35.315 1.55544 35.3292 2.53358 35.3573 3.50975C35.3691 3.92169 35.2538 4.06137 34.8235 4.05584C33.0367 4.03335 31.249 4.04716 29.4622 4.04756C29.2812 4.04756 29.0999 4.04756 28.8917 4.04756H28.8913Z" fill="black"/>
<path id="Vector_16" d="M10.8131 13.9362V0.042486C10.9964 0.0306488 11.1734 0.00973643 11.3504 0.00973643C14.7045 0.00815814 18.0585 0.015655 21.4126 0.000266693C21.8337 -0.00170617 21.9657 0.125346 21.957 0.543199C21.9325 1.721 21.9269 2.89998 21.9546 4.07778C21.9649 4.52167 21.8341 4.65898 21.3853 4.65307C19.5993 4.6286 17.812 4.65543 16.0259 4.62979C15.5369 4.62268 15.3919 4.79432 15.4018 5.26426C15.4278 6.4756 15.4247 7.68812 15.4085 8.90024C15.4037 9.26286 15.5404 9.35795 15.8818 9.35558C17.7018 9.34335 19.5222 9.36347 21.3419 9.34059C21.7986 9.33467 21.9621 9.45699 21.9507 9.93245C21.9222 11.1268 21.9427 12.3224 21.9499 13.5175C21.9514 13.8028 21.9107 13.9894 21.5426 13.9883C18.0198 13.976 14.4975 13.9788 10.9747 13.976C10.9419 13.976 10.9095 13.961 10.8127 13.937L10.8131 13.9362Z" fill="black"/>
</g>
</g>
</svg>
