<svg width="63" height="63" viewBox="0 0 63 63" fill="none" xmlns="http://www.w3.org/2000/svg">
<g id="Layer_1">
<rect id="Rectangle 153" y="1" width="57" height="57" rx="10" fill="white"/>
<path id="Vector" d="M23.7083 9C23.7466 9.24265 23.9549 9.16593 24.0938 9.19358C29.6043 10.2864 33.6032 13.3641 35.7415 18.5614C37.9502 23.9282 37.2095 29.055 33.8516 33.7929C33.7501 33.9365 33.6076 34.0552 33.5702 34.2407C32.8136 35.0757 32.015 35.8688 31.1853 36.6315C31.0287 36.6538 30.9254 36.7671 30.8079 36.8554C21.5015 43.8851 8.09648 38.4969 6.18517 26.9586C6.16202 26.8186 6.23947 26.6116 6 26.5679V22.3769C6.22968 22.3554 6.16291 22.1628 6.18517 22.0352C6.35342 21.0682 6.56707 20.111 6.92583 19.1966C9.09086 13.687 13.08 10.3586 18.87 9.19091C19.0106 9.16236 19.2163 9.23908 19.259 9H23.7083ZM21.4801 12.026C14.6058 12.0161 9.03834 17.5596 9.01786 24.434C8.99739 31.3539 14.5648 36.9723 21.4498 36.9812C28.3028 36.9893 33.9254 31.3727 33.9299 24.5143C33.9343 17.6345 28.3526 12.0358 21.4792 12.026H21.4801Z" fill="#395469"/>
<path id="Vector_2" d="M35.232 35.8434C35.3836 35.7059 35.5361 35.571 35.6859 35.4317C36.3125 34.8498 36.9303 34.8533 37.5375 35.4599C39.2084 37.128 40.8758 38.8006 42.5441 40.4723C45.1765 43.1085 47.8053 45.7483 50.4457 48.3766C50.6219 48.5521 50.7092 48.8351 51 48.888V49.946C50.9392 49.9169 50.8907 49.9354 50.8475 49.983C49.7539 51.1962 48.5456 52.2975 47.4193 53.4772C47.2589 53.6456 46.9769 53.7126 46.9478 54H45.8903C45.8595 53.747 45.6127 53.6844 45.4673 53.538C41.1384 49.1948 36.8016 44.8595 32.4683 40.5216C31.8408 39.893 31.847 39.2855 32.4683 38.6472C32.6005 38.5114 32.7221 38.365 32.8481 38.224C33.6809 37.4684 34.4723 36.6722 35.2302 35.8425L35.232 35.8434ZM46.0357 45.2113C46.0119 45.0482 45.8859 44.9609 45.7837 44.8613C44.6821 43.7839 43.5778 42.71 42.4771 41.6308C40.6643 39.8533 38.8541 38.0723 37.0422 36.2931C36.9999 36.2516 36.9567 36.2128 36.9162 36.1696C36.7892 36.0347 36.6791 36.0559 36.5381 36.1688C36.0684 36.5444 36.056 36.6246 36.4887 37.0434C37.9543 38.462 39.4261 39.8736 40.8881 41.2958C42.3299 42.6977 43.762 44.1092 45.2011 45.5129C45.299 45.6081 45.3871 45.803 45.5501 45.7139C45.7528 45.6037 45.915 45.4247 46.0348 45.2113H46.0357Z" fill="#3A5469"/>
<path id="Vector_3" d="M34.9992 35.8375C34.3106 36.5909 33.5909 37.3139 32.8351 38C32.2074 37.3979 31.5781 36.7966 31 36.1457C31.7454 35.4612 32.4636 34.7494 33.1449 34C33.795 34.5805 34.3955 35.2106 35 35.8375H34.9992Z" fill="#313C4E"/>
<path id="Vector_4" d="M45.9991 45.4562C45.8776 45.6762 45.7131 45.8615 45.5076 45.9765C45.3413 46.0687 45.252 45.8669 45.1537 45.7684C43.6934 44.3154 42.242 42.8542 40.7799 41.4031C39.2973 39.9309 37.8048 38.4697 36.3186 37.0012C35.8798 36.5677 35.8923 36.4838 36.3686 36.0959C36.5116 35.9791 36.6242 35.9571 36.752 36.0968C36.7922 36.1415 36.8369 36.1817 36.8798 36.2246C38.7164 38.0663 40.5529 39.9099 42.3912 41.7499C43.5066 42.867 44.6273 43.9777 45.7444 45.0939C45.8481 45.197 45.9768 45.2874 46 45.4562H45.9991Z" fill="#657B8B"/>
<path id="Vector_5" d="M27.9947 26.0106C27.9947 27.8624 27.9894 29.7142 27.9999 31.566C28.0019 31.8868 27.9465 32.0073 27.6753 31.9997C26.8843 31.9759 26.0926 31.9818 25.3015 31.9971C25.0732 32.0014 24.9993 31.9122 25 31.6152C25.0059 27.8827 25.0066 24.1511 25 20.4186C25 20.114 25.0594 19.9943 25.3127 20.0002C26.1038 20.0189 26.8955 20.0189 27.6866 20.0002C27.9373 19.9943 28.0013 20.1004 27.9999 20.4127C27.9901 22.2789 27.9947 24.1452 27.9947 26.0106Z" fill="#1C74A0"/>
<path id="Vector_6" d="M14.008 27.4742C14.008 26.1112 14.0177 24.7481 14.0001 23.3851C13.9966 23.0748 14.0958 22.9946 14.4217 23.0003C15.4889 23.0199 16.5569 23.015 17.6241 23.0027C17.9025 22.9995 18.0009 23.065 18 23.3425C17.9895 26.1235 17.9895 28.9044 18 31.6854C18.0009 31.949 17.9051 31.9998 17.6487 31.9973C16.5516 31.9859 15.4546 31.9801 14.3584 31.9998C14.0449 32.0055 14.0027 31.8925 14.0036 31.6461C14.0124 30.2561 14.008 28.8651 14.008 27.4751V27.4742Z" fill="#FC6F57"/>
<path id="Vector_7" d="M22.9946 28.5004C22.9946 29.5354 22.9858 30.5704 22.9999 31.6055C23.0034 31.8802 22.9399 32.0053 22.5907 31.9998C21.5343 31.9809 20.477 31.9825 19.4198 31.9998C19.0794 32.0053 18.9983 31.8896 19 31.6094C19.0097 29.5394 19.0088 27.4685 19 25.3984C18.9991 25.123 19.075 24.9955 19.4171 25.0002C20.4735 25.0151 21.5308 25.0167 22.5881 25.0002C22.9346 24.9947 23.0034 25.1198 22.9999 25.3961C22.9858 26.4311 22.9946 27.4661 22.9946 28.5012V28.5004Z" fill="#395469"/>
<path id="Vector_8" d="M26.0335 16.1733C25.74 16.0132 25.4282 16.0371 25.1383 15.9831C24.9366 15.9459 24.7421 15.9052 24.8421 15.669C24.9411 15.4363 24.7112 14.9594 25.2047 15.0028C26.0762 15.0797 26.9405 15.2346 27.8074 15.3584C27.9874 15.3841 28.0092 15.5142 27.9974 15.6557C27.931 16.4184 27.8665 17.1811 27.7938 17.9428C27.7593 18.3074 27.4666 18.1702 27.2676 18.1658C27.0559 18.1605 26.7814 18.2021 26.7896 17.8517C26.796 17.5757 26.7905 17.2996 26.7905 17.0156C26.5733 17.0041 26.4643 17.166 26.3298 17.2704C24.8621 18.4065 23.3953 19.5443 21.9376 20.6927C21.7032 20.8776 21.4942 20.9236 21.1952 20.8564C19.6784 20.5148 18.1544 20.2078 16.6368 19.8707C16.315 19.7991 16.067 19.8504 15.7916 20.0256C14.7928 20.6635 13.7696 21.2642 12.7726 21.9057C12.4627 22.1048 12.3455 21.9614 12.2274 21.7287C12.1147 21.5067 11.7857 21.3032 12.2128 21.0466C13.397 20.3352 14.572 19.6106 15.7434 18.8798C16.0097 18.7135 16.266 18.7834 16.5295 18.8391C18.0363 19.155 19.543 19.4726 21.0479 19.7982C21.2379 19.8398 21.3887 19.8398 21.5514 19.7124C23.0009 18.5772 24.4559 17.4491 25.909 16.3175C25.9526 16.283 25.9835 16.2326 26.0335 16.1724V16.1733Z" fill="#395367"/>
</g>
</svg>
