<svg width="31" height="33" viewBox="0 0 31 33" fill="none" xmlns="http://www.w3.org/2000/svg">
<g id="Layer_1" clip-path="url(#clip0_412_1674)">
<path id="Vector" d="M27.6974 7.05847C28.9829 7.58733 29.7671 8.53139 30.0311 9.87194C30.2689 11.0782 29.9695 12.2172 29.4867 13.3202C28.9907 14.4541 28.3067 15.4743 27.5179 16.4268C27.3574 16.6205 27.3443 16.7516 27.5146 16.9492C28.0099 17.5226 28.4378 18.147 28.8315 18.7921C28.8806 18.8728 28.9049 18.9691 28.9409 19.0582C28.6376 19.1615 28.3382 19.2719 28.084 19.4734C27.719 18.8354 27.2958 18.2361 26.8424 17.6569C26.75 17.5388 26.6852 17.4064 26.5017 17.6001C25.4292 18.7347 24.2578 19.7627 23.0025 20.6983C22.8898 20.7823 22.7896 20.872 22.7706 21.0315C22.5878 22.5587 22.2733 24.0594 21.8206 25.5317C21.757 25.7377 21.7668 25.8603 22.0309 25.8681C22.2366 25.8746 22.441 25.9165 22.6461 25.9417C23.9761 26.1057 25.2949 26.0831 26.5974 25.7267C28.2949 25.2624 29.2102 24.0749 29.108 22.4593C29.4395 22.4593 29.7612 22.4057 30.0698 22.283C30.3463 23.9955 29.2895 25.7228 27.5402 26.4318C26.07 27.0278 24.5382 27.0982 22.9795 26.9768C22.5452 26.9432 22.1121 26.9039 21.683 26.827C21.4851 26.7915 21.3731 26.8509 21.2905 27.055C20.9701 27.8537 20.634 28.6473 20.1446 29.3654C19.9179 29.1368 19.6539 28.9605 19.3604 28.8256C19.7057 28.1676 20.0549 27.5115 20.33 26.8193C20.3982 26.6475 20.3818 26.5855 20.1866 26.5416C18.6436 26.1935 17.1492 25.6963 15.6915 25.09C15.5689 25.039 15.4569 25.0151 15.318 25.0725C13.8609 25.6808 12.3671 26.1793 10.8216 26.5203C10.6401 26.5603 10.6034 26.6339 10.6742 26.8063C11.1931 28.0675 11.805 29.2776 12.7308 30.3011C14.0175 31.7236 15.5735 32.2363 17.2265 31.2103C17.3824 31.4944 17.6163 31.7107 17.8588 31.9199C17.1341 32.4972 16.2981 32.7445 15.377 32.7155C13.8216 32.6664 12.719 31.8069 11.7736 30.7021C10.8661 29.6418 10.2143 28.4291 9.73074 27.1324C9.61543 26.8238 9.45164 26.7754 9.16205 26.8251C8.33589 26.9665 7.5012 27.0253 6.66193 27.0201C6.78052 26.7095 6.80214 26.3873 6.77724 26.0599C7.49465 26.0289 8.21009 25.9798 8.92357 25.8881C9.19285 25.8532 9.23674 25.7738 9.15812 25.52C8.71064 24.0704 8.39682 22.5916 8.22516 21.0851C8.20354 20.8979 8.10461 20.7732 7.95851 20.6641C6.73138 19.7478 5.5868 18.7392 4.53198 17.635C4.37605 17.4716 4.29743 17.4677 4.16509 17.6395C3.46406 18.5487 2.81937 19.4908 2.37648 20.553C2.04627 21.3447 1.81565 22.1622 1.891 23.0269C1.98862 24.1408 2.6202 24.9053 3.59247 25.4258C3.46275 25.7144 3.34154 26.0056 3.30158 26.3227C2.02203 25.788 1.22993 24.8504 0.965902 23.5073C0.730696 22.3114 1.02356 21.1826 1.49593 20.0881C1.98207 18.962 2.65427 17.9469 3.43523 17.0009C3.62195 16.7742 3.65864 16.6231 3.44375 16.3777C2.95892 15.8243 2.55075 15.2122 2.16682 14.5858C2.11703 14.5051 2.0941 14.4082 2.05807 14.3191C2.366 14.2274 2.6523 14.0918 2.91306 13.9065C3.2793 14.5309 3.69664 15.1205 4.13888 15.6958C4.2935 15.8966 4.37016 15.9089 4.54705 15.7223C5.61366 14.5955 6.78576 13.5836 8.02927 12.6512C8.14851 12.5621 8.21337 12.4575 8.23172 12.3038C8.41058 10.8192 8.71916 9.36052 9.15092 7.92698C9.26557 7.546 9.25967 7.52275 8.87181 7.47239C7.64665 7.31418 6.41952 7.24961 5.1937 7.46528C4.56867 7.5757 3.96264 7.74811 3.40771 8.06582C2.30769 8.69605 1.83728 9.66078 1.86872 10.8903C1.54442 10.9064 1.23452 10.9871 0.931833 11.0982C0.661249 9.54907 1.52476 7.93279 3.04344 7.145C4.04847 6.62389 5.13605 6.42371 6.25507 6.36947C7.27058 6.32039 8.28151 6.39336 9.2826 6.56319C9.52174 6.60387 9.62198 6.5548 9.7065 6.32491C9.9666 5.61654 10.3066 4.94175 10.6683 4.27858C10.7194 4.18495 10.7895 4.10229 10.8511 4.01447C11.0797 4.24177 11.3438 4.41935 11.6373 4.55431C11.2959 5.191 10.969 5.83351 10.6853 6.49862C10.5956 6.70913 10.5949 6.81438 10.8609 6.87185C12.3979 7.20441 13.8806 7.70679 15.3292 8.3099C15.4497 8.36027 15.5519 8.35833 15.6718 8.30926C17.1217 7.71131 18.6011 7.20182 20.1387 6.86862C20.3399 6.82536 20.4008 6.75691 20.3137 6.54769C19.8026 5.31821 19.2032 4.13974 18.3108 3.12917C17.0365 1.6853 15.4432 1.12545 13.7705 2.16961C13.6152 1.88484 13.382 1.66722 13.1383 1.45865C13.6984 0.998242 14.3543 0.761903 15.069 0.682477C16.4364 0.530084 17.5554 1.06023 18.527 1.95264C19.8151 3.13627 20.6262 4.62276 21.2584 6.21449C21.3672 6.48764 21.4641 6.62324 21.8035 6.55802C22.6369 6.39724 23.4847 6.3501 24.3351 6.35914C24.2185 6.66974 24.1942 6.99131 24.2204 7.3187C23.5332 7.32774 22.8505 7.39361 22.1685 7.46851C21.7478 7.515 21.7439 7.52986 21.8618 7.92053C22.289 9.34437 22.5963 10.7921 22.7699 12.2676C22.7902 12.4387 22.8531 12.573 22.994 12.6777C24.2519 13.6107 25.4194 14.6446 26.5004 15.7714C26.6446 15.9218 26.7114 15.8812 26.8208 15.7417C27.4963 14.8796 28.1134 13.9827 28.5498 12.9766C28.9573 12.0377 29.2403 11.0756 29.0543 10.0353C28.878 9.05185 28.2478 8.41968 27.4046 7.94958C27.5369 7.66288 27.6542 7.37165 27.6968 7.05589L27.6974 7.05847ZM8.94847 16.6554C8.91702 17.7467 8.99564 18.8173 9.07492 19.8892C9.09719 20.185 9.20071 20.3819 9.4464 20.5524C11.2789 21.8245 13.2103 22.9242 15.2525 23.8366C15.4268 23.9141 15.5703 23.9173 15.7458 23.8385C17.807 22.9158 19.7561 21.8032 21.6057 20.5169C21.8186 20.369 21.9044 20.1985 21.9156 19.957C21.9359 19.5283 21.9686 19.1001 21.9975 18.672C22.1167 16.8885 22.0669 15.1082 21.9005 13.3305C21.8828 13.1432 21.8048 13.0031 21.6332 12.8836C19.7771 11.5883 17.8168 10.4731 15.7471 9.54261C15.5722 9.46383 15.4274 9.46448 15.2532 9.54261C13.1822 10.4699 11.2212 11.5844 9.36581 12.8817C9.18761 13.0063 9.10178 13.151 9.0854 13.3576C8.99826 14.4605 8.91243 15.5635 8.94781 16.6554H8.94847ZM8.03844 13.9323C7.9572 13.9653 7.91265 13.973 7.88251 13.9975C6.91614 14.8015 5.95566 15.6106 5.1177 16.5501C4.98601 16.6974 5.07118 16.7677 5.16029 16.8698C5.68966 17.4729 6.2898 18.0056 6.886 18.5396C7.23586 18.8528 7.58179 19.1796 8.04237 19.465C7.91986 17.5969 7.92903 15.7817 8.03844 13.9336V13.9323ZM22.9573 13.9194C23.0739 15.783 23.0745 17.5975 22.9547 19.4624C23.0516 19.4056 23.0988 19.3843 23.1381 19.3533C24.1117 18.5739 25.0368 17.7435 25.8813 16.8272C26.0163 16.6806 25.9252 16.6095 25.8367 16.5082C25.289 15.8786 24.6666 15.3219 24.0403 14.7731C23.7114 14.4851 23.391 14.179 22.9566 13.9201L22.9573 13.9194ZM14.2186 8.91302C12.9778 8.4397 11.7749 8.07163 10.5471 7.77524C10.2817 7.71131 10.2064 7.803 10.1409 8.0232C9.81395 9.11514 9.56302 10.2239 9.35926 11.3436C9.34223 11.4366 9.29898 11.5612 9.37826 11.618C9.46933 11.6826 9.55515 11.5741 9.63312 11.5231C10.4416 10.9949 11.2573 10.4776 12.1129 10.0263C12.793 9.66789 13.4717 9.30757 14.218 8.91302H14.2186ZM16.7751 24.4617C18.0461 24.9376 19.2582 25.3108 20.4997 25.5937C20.733 25.6466 20.805 25.5297 20.8614 25.3438C21.1923 24.2538 21.4379 23.145 21.6417 22.0266C21.6581 21.9375 21.7079 21.8142 21.6122 21.7599C21.5172 21.7063 21.4353 21.8129 21.3574 21.8639C20.2986 22.5639 19.2091 23.2128 18.0763 23.7901C17.6642 24 17.254 24.215 16.7758 24.4617H16.7751ZM9.3514 21.6676C9.3514 21.8193 9.34223 21.8833 9.35271 21.944C9.55778 23.0972 9.81722 24.237 10.1612 25.3586C10.2326 25.5917 10.321 25.6582 10.572 25.5969C11.6307 25.3386 12.6731 25.0299 13.6991 24.667C13.8557 24.6115 14.007 24.5411 14.2239 24.4514C12.5185 23.6216 10.929 22.7369 9.3514 21.6669V21.6676ZM16.7784 8.92658C17.2298 9.15388 17.6288 9.34566 18.0193 9.5523C19.173 10.1625 20.3058 10.807 21.3855 11.5386C21.4543 11.5851 21.5284 11.6716 21.6161 11.6232C21.6895 11.5831 21.6561 11.4863 21.643 11.4152C21.4334 10.2516 21.1739 9.10028 20.8195 7.97025C20.7553 7.76619 20.6675 7.72358 20.4689 7.77911C19.914 7.93409 19.3506 8.0613 18.7976 8.22402C18.1346 8.41903 17.4774 8.63342 16.7784 8.92658Z" fill="#2E4163"/>
<path id="Vector_2" d="M11.6372 4.55623C11.3437 4.42063 11.0803 4.24305 10.851 4.0164C10.5365 3.53791 10.378 3.02972 10.5457 2.45824C10.8307 1.48447 11.9163 0.968529 12.8676 1.35597C12.9574 1.39278 13.0484 1.42571 13.1395 1.46058C13.3832 1.66915 13.6158 1.88676 13.7717 2.17089C13.7992 2.25225 13.8287 2.33232 13.8536 2.41433C14.1484 3.38164 13.5739 4.35477 12.5728 4.58852C12.257 4.66214 11.9477 4.60919 11.6378 4.55623H11.6372ZM12.1875 3.65091C12.597 3.6606 12.941 3.33192 12.9429 2.92963C12.9449 2.54154 12.6219 2.21738 12.2236 2.2077C11.8056 2.19801 11.4708 2.51507 11.4688 2.92382C11.4668 3.30997 11.7944 3.64123 12.1875 3.65027V3.65091Z" fill="#4447DF"/>
<path id="Vector_3" d="M17.86 31.9213C17.6176 31.7121 17.3837 31.4958 17.2278 31.2117C16.9323 30.4342 17.0293 29.7342 17.6779 29.1647C18.1673 28.7353 18.7485 28.6888 19.3617 28.8263C19.6546 28.9613 19.9186 29.1376 20.1459 29.3661C20.3949 29.7549 20.5744 30.163 20.5082 30.6389C20.3438 31.8161 19.175 32.4683 18.073 31.9988C18.0035 31.9691 17.9308 31.9478 17.86 31.922V31.9213ZM18.8048 31.1749C19.2064 31.1697 19.5261 30.8539 19.5301 30.4594C19.534 30.061 19.1874 29.7245 18.7812 29.731C18.3842 29.7374 18.0586 30.0597 18.0559 30.449C18.0533 30.85 18.394 31.18 18.8048 31.1749Z" fill="#4447DF"/>
<path id="Vector_4" d="M27.6975 7.05855C27.6556 7.37367 27.5377 7.66489 27.4053 7.95225C27.3149 8.04394 27.2271 8.13757 27.1334 8.22604C26.5156 8.80978 25.5414 8.85111 24.8711 8.33C24.5331 8.06719 24.3607 7.70493 24.2205 7.32007C24.1937 6.99268 24.2186 6.67111 24.3352 6.36051C24.8508 5.4229 25.7287 5.06064 26.6119 5.43259C27.3332 5.73673 27.634 6.32241 27.6969 7.05855H27.6975ZM25.9607 7.71978C26.3701 7.71203 26.7017 7.36786 26.6859 6.96621C26.6709 6.582 26.3295 6.27075 25.9292 6.27721C25.5158 6.28367 25.1915 6.62139 25.2066 7.02949C25.221 7.41693 25.5604 7.72688 25.9607 7.71914V7.71978Z" fill="#4447DF"/>
<path id="Vector_5" d="M0.932551 11.1003C1.23524 10.9892 1.54513 10.9078 1.86944 10.8923C1.95199 10.913 2.03454 10.9356 2.11775 10.953C2.81681 11.0996 3.35012 11.6653 3.45953 12.362C3.55584 12.9755 3.32785 13.472 2.91443 13.9086C2.65302 14.0945 2.36737 14.2301 2.05944 14.3212C1.74627 14.2986 1.42851 14.3322 1.12648 14.2024C0.528968 13.946 0.152901 13.5089 0.0572466 12.878C-0.0423389 12.2213 0.192866 11.6743 0.727483 11.2604C0.795621 11.2075 0.864414 11.1539 0.932551 11.1009V11.1003ZM1.75479 13.341C2.16492 13.3429 2.47875 13.0433 2.48792 12.6416C2.49709 12.2213 2.18327 11.8997 1.76527 11.9016C1.3571 11.9036 1.03607 12.2071 1.02624 12.5997C1.01641 13.0097 1.33941 13.3384 1.75479 13.3403V13.341Z" fill="#4447DF"/>
<path id="Vector_6" d="M3.30225 26.3235C3.34221 26.0064 3.46342 25.7152 3.59314 25.4265C3.66849 25.351 3.74448 25.2748 3.81983 25.1992C4.36034 24.6575 5.16947 24.5335 5.85413 24.8796C6.35271 25.1314 6.60822 25.5621 6.77791 26.0613C6.80281 26.3887 6.78119 26.7109 6.6626 27.0215C6.09654 28.2555 4.63486 28.3672 3.84407 27.5982C3.48242 27.2462 3.34352 26.8058 3.30225 26.3241V26.3235ZM5.05941 25.6609C4.64927 25.6584 4.31383 25.9883 4.31252 26.3951C4.3112 26.7761 4.64796 27.0996 5.04892 27.1029C5.46823 27.1055 5.79254 26.7878 5.79188 26.3732C5.79188 25.987 5.45906 25.6642 5.05941 25.6616V25.6609Z" fill="#4447DF"/>
<path id="Vector_7" d="M28.0839 19.4733C28.3381 19.2718 28.6375 19.1614 28.9408 19.0581C29.1688 19.0723 29.4053 19.0523 29.6222 19.1065C30.3147 19.2796 30.772 19.7142 30.9214 20.409C31.0649 21.0747 30.8474 21.6365 30.3226 22.0801C30.24 22.1499 30.1542 22.2151 30.0697 22.2823C29.7611 22.4056 29.4394 22.4585 29.1079 22.4585C28.2621 22.3339 27.6836 21.8206 27.5473 21.0831C27.43 20.449 27.6482 19.9266 28.0839 19.4733ZM29.9727 20.7738C29.9786 20.3735 29.6648 20.05 29.2619 20.0403C28.8478 20.0306 28.5241 20.3283 28.5104 20.7299C28.4966 21.1412 28.7941 21.4641 29.1996 21.477C29.6294 21.4912 29.9662 21.1845 29.9727 20.7738Z" fill="#4447DF"/>
<path id="Vector_8" d="M19.2935 16.7065C19.2935 17.4265 19.2804 18.1472 19.2974 18.8672C19.3158 19.6388 18.9607 20.2077 18.3494 20.6391C17.6189 21.1544 16.7862 21.3623 15.8971 21.4191C14.8154 21.4889 13.7907 21.3248 12.8532 20.7708C12.0991 20.3252 11.6811 19.6937 11.6975 18.7858C11.7237 17.3671 11.7152 15.9478 11.6975 14.5291C11.6877 13.7723 12.0152 13.2002 12.6095 12.7695C13.2836 12.28 14.06 12.0566 14.8901 11.9727C15.8761 11.8732 16.8281 11.9869 17.7303 12.3866C18.4837 12.7204 19.0819 13.2163 19.2653 14.0655C19.2902 14.1798 19.2955 14.2999 19.2961 14.4168C19.2987 15.18 19.2974 15.9433 19.2974 16.7065C19.2961 16.7065 19.2948 16.7065 19.2935 16.7065ZM18.2439 18.3512C18.3605 17.8669 18.333 17.3807 18.2616 16.8944C18.2754 16.7885 18.3022 16.6833 18.3009 16.578C18.2983 16.3908 18.3985 16.1486 18.2492 16.033C18.1398 15.9491 17.9805 16.1661 17.8272 16.2138C17.8063 16.2203 17.7866 16.2293 17.767 16.2377C16.1245 16.9009 14.5055 16.8873 12.9174 16.0679C12.7575 15.9852 12.6743 15.984 12.6894 16.1912C12.7064 16.4256 12.7222 16.66 12.7385 16.8944C12.6272 17.3639 12.7182 17.8411 12.6868 18.3138C12.6874 18.4533 12.7012 18.5947 12.6868 18.7329C12.6311 19.2811 12.8827 19.6543 13.3446 19.9294C14.2631 20.4763 15.2642 20.5215 16.2863 20.4001C16.8314 20.3356 17.3411 20.1554 17.7991 19.8351C18.2302 19.5336 18.4392 19.0732 18.2446 18.3519L18.2439 18.3512ZM13.4134 15.2233C14.8036 15.9246 16.1946 15.9252 17.5848 15.2233C18.5112 14.7015 18.5296 13.9815 17.6254 13.432C17.478 13.3429 17.3201 13.2661 17.159 13.2047C16.3466 12.8941 15.5073 12.8502 14.6543 12.9832C14.1327 13.0646 13.6401 13.2299 13.2096 13.5392C12.5453 14.0164 12.54 14.5989 13.1919 15.089C13.2607 15.1406 13.3393 15.1787 13.4134 15.2233Z" fill="#2E4163"/>
<path id="Vector_9" d="M13.414 15.2233C13.34 15.1787 13.2613 15.1406 13.1925 15.089C12.5407 14.5988 12.5459 14.0164 13.2102 13.5392C13.6413 13.2299 14.1334 13.0646 14.6549 12.9832C15.5079 12.8495 16.3472 12.8941 17.1596 13.2047C17.3208 13.266 17.4787 13.3429 17.6261 13.432C18.5295 13.9809 18.5119 14.7015 17.5854 15.2233C16.1952 14.6486 14.8043 14.6511 13.414 15.2233Z" fill="#DFE2E9"/>
<path id="Vector_10" d="M18.2447 18.3512C16.3847 19.3515 14.5325 19.3315 12.6869 18.3131C12.7184 17.8404 12.6273 17.3639 12.7387 16.8938C12.8763 17.2606 13.1665 17.4898 13.5033 17.6487C14.8071 18.2608 16.1259 18.2634 17.4389 17.6784C17.8005 17.5176 18.1117 17.2819 18.2618 16.8944C18.3332 17.3807 18.3613 17.8669 18.2441 18.3512H18.2447Z" fill="#4447DF"/>
</g>
<defs>
<clipPath id="clip0_412_1674">

<rect width="30.9298" height="32.0614" fill="white" transform="translate(0.0349121 0.657959)"/>
</clipPath>
</defs>
</svg>
