<svg width="92" height="66" viewBox="0 0 92 66" fill="none" xmlns="http://www.w3.org/2000/svg">
<g id="Isolation_Mode" clip-path="url(#clip0_332_366)">
<path id="Vector" d="M92 26.3379C91.7167 26.2567 91.7397 26.5064 91.68 26.6473C89.7368 31.254 86.1307 33.6516 81.324 34.4621C80.465 34.6076 79.5952 34.6995 78.7362 34.6229C77.9736 34.5555 77.6873 34.8864 77.4285 35.5406C76.0718 38.9845 74.4609 42.3059 72.5039 45.4526C66.0971 55.7507 56.8391 61.966 45.0927 64.621C42.8295 65.1326 40.5418 65.4973 38.2311 65.7133C38.029 65.7317 37.6814 65.5769 37.6569 65.9998H26.788C26.7466 65.5907 26.4082 65.7393 26.2015 65.7194C23.5325 65.4682 20.9079 64.9794 18.3109 64.31C11.6468 62.5957 6.86007 58.6201 3.86185 52.4416C1.91408 48.4277 0.83454 44.178 0.300128 39.7689C0.269503 39.5176 0.453255 39.1362 0 39.0473V33.6884C0.27869 33.7681 0.260315 33.5122 0.329222 33.3789C1.08567 31.9174 2.29537 31.2311 3.92617 31.2479C4.41005 31.2525 4.89699 31.2142 5.37781 31.2571C5.94437 31.3077 6.12506 31.1131 6.11894 30.534C6.08831 28.0874 6.10516 25.6393 6.10669 23.1911C6.10669 21.4738 6.78657 20.8028 8.52609 20.8012C11.1767 20.7982 13.8273 20.7828 16.478 20.8135C17.0996 20.8211 17.3125 20.6618 17.3018 20.0107C17.265 17.6407 17.2865 15.2692 17.288 12.8977C17.288 11.0684 17.9495 10.402 19.7641 10.402C26.0851 10.402 32.4047 10.4036 38.7257 10.399C39.9415 10.399 39.8527 10.5644 39.8543 9.23464C39.8589 7.14347 39.8772 5.05382 39.8466 2.96265C39.8313 1.87952 39.8818 0.860745 40.9001 0.183602C40.9216 0.169814 40.8817 0.0625739 40.871 -0.00177002C44.5445 -0.00177002 48.218 -0.00177002 51.8931 -0.00177002C51.7905 0.0855539 51.8119 0.18207 51.9053 0.24335C52.821 0.843893 52.9052 1.75696 52.9022 2.73744C52.8899 8.42575 52.8961 14.1125 52.8961 19.8008C52.8961 20.4657 53.2309 20.7987 53.9006 20.7997C56.5772 20.7997 59.2554 20.7951 61.9321 20.8012C63.4495 20.8043 64.1922 21.5105 64.2121 23.0425C64.2412 25.4907 64.2397 27.9388 64.2136 30.3885C64.2075 31.012 64.3285 31.2387 65.0222 31.1269C66.6131 30.871 68.1781 30.557 69.6604 29.9028C69.9942 29.7558 70.1396 29.6332 69.9176 29.2364C67.3466 24.6496 67.8703 20.0873 70.0616 15.5465C70.4612 14.7161 70.9803 13.9593 71.4948 13.1995C71.7199 12.867 71.9113 12.7766 72.2972 12.9942C76.1116 15.1543 78.6535 18.2811 79.5876 22.612C79.7192 23.2248 79.9627 23.3045 80.5186 23.2187C82.9609 22.8464 85.3972 22.874 87.8043 23.4868C89.1488 23.8285 90.4182 24.3401 91.4962 25.2547C91.6248 25.3635 91.7535 25.6132 91.9985 25.4202V26.3394L92 26.3379ZM24.2308 54.6262C24.0011 54.7304 23.7652 54.8223 23.5447 54.9418C20.3444 56.676 16.945 57.6948 13.299 57.9077C12.1705 57.9736 11.045 57.9231 9.73732 57.8664C11.6009 59.6757 13.593 60.8691 15.7965 61.7285C20.2464 63.4628 24.9015 64.1093 29.6331 64.2931C31.8733 64.3804 34.1212 64.4325 36.3599 64.1721C38.8099 64.071 41.2293 63.7186 43.6288 63.2345C55.1853 60.9013 64.3989 55.0582 70.8073 45.0328C73.0567 41.5154 74.836 37.7604 76.3091 33.8615C76.574 33.1614 76.8987 32.8688 77.6857 32.9239C78.9551 33.0128 80.2353 33.0097 81.497 32.7615C85.1231 32.0507 87.9682 30.246 89.7521 26.9185C90.0354 26.39 89.9603 26.0912 89.4213 25.8415C88.7706 25.5397 88.1075 25.2823 87.4139 25.1031C84.6331 24.3892 81.8492 24.5623 79.0761 25.1352C78.4636 25.2624 78.2431 25.1996 78.188 24.4995C77.8848 20.6465 76.0151 17.6622 72.9648 15.3703C72.6739 15.1512 72.3646 14.8142 72.043 15.378C70.5852 17.9333 69.7262 20.6358 69.8992 23.6186C70.0279 25.8277 70.7767 27.7979 72.1058 29.5505C72.3906 29.9258 72.3447 30.1479 71.9772 30.4206C71.3784 30.8634 70.7537 31.251 70.0631 31.5298C67.7907 32.4475 65.4218 32.9147 62.9749 32.9163C43.3073 32.9255 23.6397 32.9209 3.9721 32.9224C2.30609 32.9224 1.66142 33.5643 1.68286 35.2434C1.73186 39.0366 2.25249 42.7655 3.30753 46.4116C4.22936 49.5951 5.54778 52.5963 7.50933 55.2911C7.76352 55.6404 7.99933 55.9836 8.50465 56.0448C13.6206 56.6745 18.4655 55.8916 22.9766 53.3209C23.387 53.0865 23.7943 52.8322 24.2292 53.2428C24.7054 53.6932 24.5125 54.1635 24.2292 54.6247L24.2308 54.6262ZM23.8035 12.1087C22.58 12.1087 21.3566 12.0949 20.1331 12.1133C19.343 12.1255 19.0061 12.4518 19 13.2378C18.9831 15.3795 18.9831 17.5212 19 19.6645C19.0061 20.455 19.3384 20.7936 20.1239 20.7997C22.5448 20.8165 24.9673 20.8165 27.3898 20.7997C28.2059 20.7936 28.5826 20.4335 28.5918 19.6323C28.6148 17.5166 28.6163 15.3994 28.5918 13.2822C28.5826 12.4518 28.1875 12.1179 27.3239 12.1102C26.151 12.0995 24.978 12.1071 23.8066 12.1102L23.8035 12.1087ZM23.7714 31.2081C24.9688 31.2081 26.1678 31.2249 27.3653 31.202C28.2182 31.1866 28.5857 30.8297 28.5933 29.9794C28.6132 27.8898 28.6148 25.7986 28.5903 23.7074C28.5796 22.8219 28.2473 22.5155 27.3637 22.5125C24.9933 22.5017 22.6229 22.5033 20.2525 22.5125C19.3215 22.5155 18.9984 22.8296 18.9938 23.7457C18.9816 25.8109 18.9831 27.876 18.9938 29.9411C18.9984 30.8312 19.3475 31.1866 20.2541 31.202C21.4255 31.2234 22.5984 31.2066 23.7714 31.2066V31.2081ZM35.1227 22.5094C33.9497 22.5094 32.7783 22.5017 31.6053 22.5125C30.7034 22.5201 30.3604 22.8081 30.3497 23.6753C30.3237 25.7909 30.3252 27.9066 30.3466 30.0223C30.3543 30.8297 30.7249 31.1943 31.5364 31.2004C33.9313 31.2203 36.3278 31.2203 38.7227 31.2004C39.5802 31.1928 39.9324 30.8205 39.937 29.9748C39.9477 27.8852 39.9492 25.794 39.937 23.7028C39.9308 22.8327 39.6031 22.5217 38.715 22.5109C37.5176 22.4987 36.3201 22.5079 35.1211 22.5079L35.1227 22.5094ZM12.6054 22.5094C11.434 22.5094 10.2625 22.5017 9.09113 22.5125C8.1203 22.5217 7.81864 22.8235 7.81405 23.8024C7.80486 25.84 7.80639 27.8775 7.81405 29.9166C7.81711 30.819 8.15705 31.1943 9.04366 31.202C11.411 31.2219 13.7799 31.2188 16.1487 31.2035C17.02 31.1974 17.3829 30.8741 17.3967 30.007C17.4289 27.8928 17.4273 25.7787 17.4013 23.6645C17.3921 22.8572 17.0078 22.5217 16.1962 22.5125C14.9988 22.4987 13.8028 22.5094 12.6054 22.5079V22.5094ZM35.1456 12.1071C33.9482 12.1071 32.7492 12.0964 31.5517 12.1102C30.7417 12.1194 30.3589 12.461 30.3497 13.2669C30.3237 15.3826 30.3252 17.4982 30.3466 19.6139C30.3543 20.4259 30.7218 20.7905 31.5318 20.7966C33.9528 20.815 36.3737 20.8165 38.7946 20.792C39.6261 20.7844 39.9324 20.4397 39.937 19.5955C39.9492 17.5044 39.9492 15.4147 39.937 13.3235C39.9324 12.4396 39.6123 12.1209 38.738 12.1087C37.5405 12.0934 36.3431 12.1056 35.1441 12.1041L35.1456 12.1071ZM46.382 12.1087C45.2091 12.1087 44.0346 12.0995 42.8617 12.1117C41.9077 12.1225 41.6275 12.4028 41.6229 13.3481C41.6152 15.4147 41.6152 17.4814 41.6229 19.5481C41.6259 20.4948 41.9092 20.7951 42.8494 20.7997C45.1953 20.812 47.5428 20.812 49.8902 20.7997C50.8243 20.7951 51.129 20.4872 51.1336 19.5542C51.1443 17.4875 51.1428 15.4209 51.1336 13.3542C51.1305 12.4089 50.8472 12.1209 49.9009 12.1102C48.728 12.0964 47.555 12.1071 46.3805 12.1071L46.382 12.1087ZM46.4004 1.70488C45.2045 1.70488 44.0071 1.69262 42.8111 1.70947C41.9138 1.72173 41.6275 2.01894 41.6244 2.91669C41.6152 5.0048 41.6167 7.09291 41.6244 9.18102C41.6275 10.0818 41.9138 10.3882 42.805 10.3944C45.1724 10.4082 47.5397 10.4082 49.907 10.3959C50.8426 10.3913 51.132 10.0895 51.1351 9.15038C51.1428 7.08832 51.1428 5.02471 51.1351 2.96265C51.132 2.01587 50.8472 1.72173 49.9131 1.70947C48.7417 1.69415 47.5703 1.70641 46.4004 1.70641V1.70488ZM46.3499 22.5109C45.1769 22.5109 44.004 22.5033 42.831 22.514C41.9169 22.5217 41.629 22.799 41.6244 23.6967C41.6137 25.7879 41.6152 27.8806 41.6244 29.9733C41.6275 30.8756 41.8985 31.1866 42.8035 31.1958C45.1754 31.2203 47.5473 31.2188 49.9193 31.1989C50.8503 31.1912 51.132 30.871 51.1366 29.9243C51.1443 27.8576 51.1443 25.7909 51.1366 23.7243C51.1336 22.8219 50.8472 22.5278 49.9484 22.5155C48.7494 22.5002 47.5504 22.5109 46.353 22.5109H46.3499ZM57.7027 31.205C58.8756 31.205 60.0486 31.2234 61.2216 31.1989C62.1648 31.1805 62.4527 30.8787 62.4573 29.9427C62.4665 27.876 62.4649 25.8093 62.4573 23.7442C62.4542 22.8035 62.1709 22.5186 61.2139 22.514C58.868 22.5033 56.5221 22.5048 54.1762 22.514C53.2253 22.5171 52.9527 22.7944 52.9497 23.7534C52.942 25.8201 52.9435 27.8867 52.9497 29.9518C52.9527 30.8879 53.2283 31.179 54.1839 31.1989C55.3568 31.2234 56.5297 31.205 57.7027 31.205Z" fill="#2854A0"/>
<path id="Vector_2" d="M24.2307 54.6265C24.5125 54.1653 24.7069 53.6935 24.2307 53.2446C23.7974 52.8356 23.3901 53.0883 22.9781 53.3227C18.467 55.8934 13.6206 56.6748 8.50614 56.0466C8.00236 55.9854 7.76501 55.6407 7.51082 55.2929C5.5508 52.5981 4.23085 49.5969 3.30903 46.4134C2.25398 42.7673 1.73489 39.0384 1.68435 35.2452C1.66292 33.5661 2.30758 32.9242 3.9736 32.9242C23.6412 32.9242 43.3088 32.9273 62.9763 32.9181C65.4218 32.9181 67.7906 32.4493 70.0646 31.5316C70.7552 31.2528 71.3799 30.8652 71.9787 30.4224C72.3477 30.1497 72.3921 29.9276 72.1073 29.5523C70.7781 27.7997 70.0294 25.828 69.9007 23.6204C69.7277 20.6391 70.5852 17.9351 72.0445 15.3797C72.3661 14.816 72.6754 15.1545 72.9663 15.3721C76.0166 17.664 77.8863 20.6483 78.1895 24.5013C78.2446 25.2014 78.4651 25.2642 79.0776 25.137C81.8507 24.5641 84.633 24.391 87.4154 25.1049C88.109 25.2826 88.7721 25.5415 89.4228 25.8433C89.9618 26.093 90.0369 26.3918 89.7536 26.9203C87.9697 30.2463 85.1246 32.0525 81.4985 32.7633C80.2368 33.0115 78.9551 33.0146 77.6872 32.9257C76.9017 32.8706 76.5755 33.1632 76.3106 33.8633C74.836 37.7622 73.0567 41.5172 70.8088 45.0346C64.4004 55.06 55.1883 60.9031 43.6303 63.2363C41.2308 63.7204 38.8114 64.0728 36.3614 64.1739C36.1333 64.0697 35.9112 63.9517 35.6785 63.8614C30.8703 62.0138 27.0406 58.9559 24.2323 54.6265H24.2307ZM29.4814 45.148C27.8154 45.1618 26.4847 46.5145 26.4939 48.1829C26.5031 49.8482 27.846 51.1856 29.5136 51.1871C31.2179 51.1902 32.5761 49.8083 32.5378 48.1124C32.4996 46.4272 31.1643 45.1327 29.4814 45.148Z" fill="#2495EC"/>
<path id="Vector_3" d="M24.2307 54.6265C27.0376 58.9544 30.8688 62.0122 35.677 63.8613C35.9097 63.9517 36.1333 64.0697 36.3599 64.1739C34.1212 64.4343 31.8733 64.3822 29.633 64.2949C24.9014 64.1111 20.2464 63.4646 15.7965 61.7303C13.5915 60.8709 11.6009 59.6775 9.7373 57.8682C11.045 57.9233 12.172 57.9754 13.299 57.9095C16.945 57.6966 20.3444 56.6778 23.5447 54.9436C23.7652 54.8241 24.0011 54.7322 24.2307 54.628V54.6265Z" fill="#FCFDFE"/>
<path id="Vector_4" d="M23.8037 12.1074C24.9766 12.1074 26.1496 12.0982 27.321 12.1089C28.1846 12.1166 28.5797 12.4506 28.5889 13.2809C28.6134 15.3966 28.6134 17.5138 28.5889 19.631C28.5797 20.4323 28.203 20.7923 27.3868 20.7984C24.9659 20.8168 22.5434 20.8153 20.121 20.7984C19.3354 20.7923 19.0031 20.4537 18.997 19.6632C18.9802 17.5215 18.9802 15.3798 18.997 13.2365C19.0031 12.4506 19.34 12.1258 20.1301 12.112C21.3536 12.0921 22.5771 12.1074 23.8006 12.1059L23.8037 12.1074ZM26.7973 16.5318C26.7973 15.8424 26.7988 15.1546 26.7973 14.4652C26.7973 14.194 26.7529 13.9351 26.3976 13.9397C26.0454 13.9443 26.0041 14.2078 26.0041 14.4759C26.001 15.8026 26.001 17.1293 26.0041 18.4545C26.0041 18.7272 26.0577 18.983 26.4083 18.98C26.7636 18.9769 26.7957 18.7119 26.7973 18.4438C26.8003 17.8064 26.7973 17.1691 26.7973 16.5303V16.5318ZM23.3994 16.4629C23.3994 17.1262 23.3963 17.7896 23.3994 18.4529C23.4009 18.7256 23.4499 18.983 23.8006 18.983C24.1558 18.983 24.1926 18.7195 24.1941 18.4499C24.1972 17.1232 24.1957 15.7965 24.1941 14.4713C24.1941 14.2001 24.1528 13.9397 23.7975 13.9412C23.4453 13.9427 23.4025 14.2047 23.3994 14.4743C23.3948 15.1377 23.3994 15.8011 23.3994 16.4644V16.4629ZM20.7932 16.4797C20.7932 17.0925 20.7855 17.7038 20.7962 18.3166C20.8008 18.6138 20.7534 18.9861 21.2158 18.9769C21.6293 18.9692 21.591 18.6291 21.5925 18.3549C21.5986 17.1048 21.6002 15.8547 21.5925 14.6061C21.591 14.312 21.6476 13.9274 21.1775 13.9473C20.7182 13.9673 20.8024 14.3564 20.7962 14.6444C20.7825 15.2557 20.7917 15.8685 20.7932 16.4813V16.4797Z" fill="#2493EA"/>
<path id="Vector_5" d="M23.7714 31.2083C22.5985 31.2083 21.4271 31.2252 20.2541 31.2037C19.3476 31.1869 18.9985 30.833 18.9939 29.9429C18.9832 27.8777 18.9832 25.8126 18.9939 23.7475C19 22.8298 19.3216 22.5173 20.2526 22.5142C22.623 22.505 24.9934 22.505 27.3638 22.5142C28.2473 22.5188 28.5796 22.8237 28.5903 23.7092C28.6148 25.7988 28.6118 27.89 28.5934 29.9812C28.5857 30.8314 28.2182 31.1884 27.3653 31.2037C26.1679 31.2252 24.9704 31.2098 23.7714 31.2098V31.2083ZM20.7946 26.8528C20.7946 27.5162 20.7901 28.1795 20.7962 28.8429C20.7992 29.1064 20.8222 29.376 21.1805 29.3868C21.5388 29.399 21.5894 29.1462 21.5894 28.8735C21.5924 27.5468 21.5924 26.2201 21.5894 24.8934C21.5894 24.6299 21.5664 24.3511 21.2096 24.3465C20.8038 24.3404 20.7962 24.6529 20.7931 24.9394C20.787 25.5767 20.7916 26.2155 20.7931 26.8528H20.7946ZM26.7972 26.8927C26.7972 26.2293 26.8018 25.566 26.7957 24.9026C26.7941 24.6422 26.785 24.3633 26.4251 24.3465C26.0745 24.3296 26.004 24.5778 26.004 24.8536C26.001 26.2048 26.001 27.5576 26.004 28.9088C26.004 29.1539 26.0668 29.373 26.3761 29.3852C26.7329 29.399 26.7926 29.157 26.7941 28.8812C26.7987 28.2178 26.7941 27.5545 26.7972 26.8911V26.8927ZM24.1941 26.9478C24.1941 26.2584 24.1956 25.5706 24.1941 24.8812C24.1941 24.6115 24.1542 24.3465 23.8021 24.345C23.4545 24.345 23.4009 24.6039 23.4009 24.8766C23.3978 26.2033 23.3978 27.53 23.4009 28.8567C23.4009 29.1263 23.4437 29.3868 23.7975 29.3883C24.1542 29.3914 24.1925 29.1309 24.1941 28.8613C24.1971 28.224 24.1941 27.5851 24.1941 26.9478Z" fill="#2493EA"/>
<path id="Vector_6" d="M35.1225 22.5097C36.32 22.5097 37.5174 22.5005 38.7164 22.5127C39.6046 22.5219 39.9323 22.8329 39.9384 23.7046C39.9522 25.7943 39.9506 27.8854 39.9384 29.9766C39.9338 30.8223 39.5816 31.1946 38.7241 31.2022C36.3292 31.2221 33.9328 31.2206 31.5379 31.2022C30.7248 31.1961 30.3557 30.8315 30.3481 30.0241C30.3266 27.9084 30.3251 25.7927 30.3511 23.677C30.3618 22.8099 30.7048 22.5219 31.6068 22.5143C32.7797 22.5035 33.9511 22.5112 35.1241 22.5112L35.1225 22.5097ZM33.0186 26.8421C33.0186 26.1819 33.0262 25.5216 33.0155 24.8613C33.0109 24.5641 32.9282 24.2837 32.5607 24.273C32.1626 24.2623 32.1366 24.561 32.1366 24.8536C32.1335 26.1742 32.1335 27.4948 32.1366 28.8169C32.1366 29.1064 32.1534 29.3991 32.5607 29.3945C32.9436 29.3899 33.014 29.1218 33.0171 28.823C33.0262 28.1627 33.0201 27.5024 33.0171 26.8421H33.0186ZM35.6233 26.8881C35.6233 26.2278 35.6294 25.5675 35.6202 24.9072C35.6156 24.584 35.5436 24.2669 35.1317 24.2745C34.7351 24.2822 34.7382 24.6024 34.7382 24.8873C34.7351 26.1834 34.7336 27.4779 34.7382 28.774C34.7382 29.0498 34.7106 29.3699 35.118 29.396C35.5436 29.422 35.6187 29.1248 35.6233 28.7954C35.6309 28.1612 35.6248 27.5254 35.6233 26.8896V26.8881ZM37.3414 26.8038C37.3414 27.4902 37.3398 28.175 37.3414 28.8613C37.3414 29.1294 37.3796 29.3822 37.7318 29.396C38.1055 29.4098 38.2172 29.1677 38.2188 28.8567C38.2234 27.5101 38.2249 26.165 38.2142 24.8184C38.2126 24.5089 38.0794 24.2561 37.7196 24.273C37.3781 24.2883 37.3414 24.5564 37.3398 24.8245C37.3368 25.4848 37.3398 26.1451 37.3398 26.8054L37.3414 26.8038Z" fill="#2493EA"/>
<path id="Vector_7" d="M12.607 22.5096C13.8044 22.5096 15.0004 22.4989 16.1978 22.5127C17.0109 22.5219 17.3937 22.8574 17.4029 23.6648C17.4289 25.7789 17.4305 27.8931 17.3983 30.0072C17.3845 30.8744 17.0216 31.1976 16.1503 31.2037C13.7815 31.2191 11.4141 31.2206 9.04526 31.2022C8.15713 31.1945 7.81872 30.8177 7.81566 29.9169C7.808 27.8793 7.80647 25.8417 7.81566 23.8027C7.82025 22.8237 8.12191 22.5219 9.09273 22.5127C10.2642 22.502 11.4356 22.5097 12.607 22.5112V22.5096ZM13.0174 26.8406C13.0174 26.1773 13.0174 25.5139 13.0174 24.8521C13.0174 24.5518 12.9745 24.2699 12.5886 24.2592C12.2058 24.25 12.1308 24.5227 12.1308 24.826C12.1277 26.1527 12.1262 27.4779 12.1323 28.8046C12.1323 29.0988 12.1905 29.3822 12.5764 29.3914C13.0434 29.4036 13.0143 29.0574 13.0174 28.7525C13.0235 28.1152 13.0189 27.4779 13.0174 26.8406ZM14.7324 26.7962C14.7324 26.7962 14.7385 26.7962 14.7431 26.7962C14.7431 27.5101 14.7339 28.224 14.7477 28.9379C14.7538 29.2351 14.9192 29.4098 15.2377 29.3944C15.5394 29.3807 15.6175 29.1784 15.6175 28.9257C15.6205 27.5484 15.6205 26.1711 15.6205 24.7939C15.6205 24.5135 15.547 24.2745 15.2132 24.2577C14.835 24.2377 14.7385 24.4936 14.7354 24.8061C14.7293 25.4695 14.7339 26.1328 14.7339 26.7946L14.7324 26.7962ZM10.4142 26.8069H10.4112C10.4112 26.119 10.4127 25.4296 10.4112 24.7418C10.4112 24.4415 10.2764 24.2515 9.95483 24.2592C9.67002 24.2653 9.54139 24.4522 9.53986 24.7096C9.53374 26.1114 9.5322 27.5147 9.53986 28.9165C9.54139 29.2045 9.68227 29.4021 10.01 29.396C10.3652 29.3899 10.4127 29.1463 10.4142 28.8736C10.4173 28.1857 10.4142 27.4963 10.4142 26.8084V26.8069Z" fill="#2493EA"/>
<path id="Vector_8" d="M35.1455 12.1074C36.343 12.1074 37.5419 12.0966 38.7394 12.1104C39.6138 12.1212 39.9338 12.4413 39.9384 13.3253C39.9506 15.4165 39.9506 17.5061 39.9384 19.5973C39.9338 20.4414 39.6275 20.7861 38.7961 20.7938C36.3751 20.8183 33.9542 20.8168 31.5333 20.7984C30.7232 20.7923 30.3557 20.4276 30.3481 19.6157C30.3266 17.5 30.3251 15.3843 30.3511 13.2686C30.3603 12.4613 30.7431 12.1212 31.5532 12.112C32.7506 12.0982 33.9481 12.1089 35.147 12.1089L35.1455 12.1074ZM32.1335 16.4445C32.1335 17.1063 32.1305 17.7681 32.1335 18.4299C32.135 18.7118 32.1213 19.0351 32.5194 19.0488C32.9344 19.0626 33.014 18.7516 33.0155 18.4238C33.0217 17.1001 33.0217 15.7765 33.0125 14.4529C33.0109 14.1541 32.9237 13.8784 32.5516 13.8722C32.1488 13.8661 32.1335 14.1679 32.132 14.459C32.1289 15.1208 32.132 15.7826 32.1305 16.4445H32.1335ZM34.7367 16.4782C34.7367 17.14 34.7351 17.8018 34.7367 18.4636C34.7367 18.7547 34.7535 19.0565 35.1562 19.0488C35.5283 19.0427 35.6141 18.7654 35.6171 18.4667C35.6263 17.143 35.6263 15.8194 35.6202 14.4958C35.6202 14.1694 35.5391 13.8569 35.1241 13.8722C34.7244 13.8875 34.7397 14.2093 34.7382 14.4927C34.7336 15.1545 34.7382 15.8163 34.7382 16.4782H34.7367ZM38.2249 16.4506C38.2249 16.4506 38.2264 16.4506 38.228 16.4506C38.228 15.8148 38.2356 15.1775 38.2249 14.5417C38.2203 14.2292 38.1897 13.8906 37.7701 13.8768C37.3107 13.8615 37.3414 14.2231 37.3414 14.5264C37.3368 15.824 37.3368 17.1231 37.3414 18.4207C37.3414 18.7011 37.3199 19.0274 37.718 19.0504C38.1315 19.0734 38.2188 18.767 38.2234 18.436C38.2325 17.7742 38.2264 17.1124 38.2264 16.4506H38.2249Z" fill="#2493EA"/>
<path id="Vector_9" d="M46.382 12.1089C47.555 12.1089 48.7295 12.0982 49.9024 12.112C50.8487 12.1227 51.132 12.4107 51.1351 13.3559C51.1427 15.4226 51.1443 17.4893 51.1351 19.5559C51.1305 20.4874 50.8258 20.7969 49.8917 20.8014C47.5458 20.8122 45.1984 20.8137 42.8509 20.8014C41.9107 20.7969 41.6275 20.4966 41.6244 19.5498C41.6167 17.4831 41.6167 15.4165 41.6244 13.3498C41.6275 12.4046 41.9077 12.1242 42.8632 12.1135C44.0361 12.1012 45.2106 12.1104 46.3836 12.1104L46.382 12.1089ZM49.4277 16.4429C49.4277 15.7811 49.4277 15.1193 49.4277 14.4574C49.4277 14.1342 49.3221 13.909 48.9438 13.9274C48.5993 13.9442 48.5365 14.1786 48.5365 14.4559C48.535 15.7796 48.535 17.1032 48.535 18.4284C48.535 18.7317 48.5871 18.9968 48.9806 18.9968C49.3711 18.9968 49.4293 18.7348 49.4293 18.4299C49.4293 17.7681 49.4293 17.1063 49.4293 16.4444L49.4277 16.4429ZM45.9318 16.4215C45.9318 17.0833 45.9303 17.7451 45.9318 18.4069C45.9318 18.7011 45.9594 18.983 46.3575 18.9937C46.7419 19.0044 46.8246 18.7608 46.8246 18.4468C46.8246 17.1231 46.8246 15.7995 46.8246 14.4758C46.8246 14.1618 46.745 13.9167 46.3591 13.9274C45.9609 13.9381 45.9319 14.2169 45.9303 14.5126C45.9273 15.1484 45.9303 15.7857 45.9303 16.4215H45.9318ZM44.2214 16.4061C44.2214 15.7443 44.223 15.0825 44.2214 14.4207C44.2214 14.1296 44.1142 13.9274 43.7789 13.9274C43.4466 13.9274 43.3348 14.1219 43.3333 14.4161C43.3318 15.7658 43.3318 17.1155 43.3318 18.4636C43.3318 18.7869 43.4344 19.0136 43.8126 18.9952C44.1556 18.9784 44.2214 18.744 44.2214 18.4682C44.2245 17.7803 44.2214 17.094 44.2214 16.4061Z" fill="#2495EC"/>
<path id="Vector_10" d="M46.4019 1.70512C47.5733 1.70512 48.7447 1.69286 49.9146 1.70818C50.8487 1.72044 51.132 2.01611 51.1366 2.96135C51.1442 5.02342 51.1442 7.08702 51.1366 9.14909C51.1335 10.0882 50.8441 10.39 49.9085 10.3946C47.5411 10.4053 45.1738 10.4069 42.8065 10.3931C41.9153 10.3869 41.6305 10.0821 41.6259 9.17973C41.6182 7.09162 41.6182 5.00351 41.6259 2.91539C41.6289 2.01611 41.9153 1.72044 42.8126 1.70818C44.0085 1.69133 45.206 1.70358 46.4019 1.70358V1.70512ZM44.2229 6.14331C44.2229 5.43247 44.2244 4.72009 44.2229 4.00924C44.2229 3.71663 44.1126 3.52053 43.7788 3.52053C43.4465 3.52053 43.3363 3.7151 43.3348 4.00924C43.3332 5.38191 43.3332 6.75305 43.3332 8.12572C43.3332 8.40608 43.4083 8.64047 43.739 8.65885C44.108 8.6803 44.2229 8.44897 44.2229 8.12572C44.2229 7.46543 44.2229 6.80514 44.2229 6.14331ZM45.9318 6.08663C45.9318 6.72241 45.9287 7.35666 45.9318 7.99244C45.9333 8.3019 45.9211 8.642 46.3605 8.65732C46.7954 8.67111 46.8276 8.35399 46.8276 8.0292C46.8276 6.73313 46.8276 5.43706 46.8276 4.14252C46.8276 3.82081 46.8031 3.50828 46.359 3.5236C45.9042 3.53739 45.9348 3.87902 45.9318 4.18236C45.9257 4.81814 45.9303 5.45238 45.9303 6.08816L45.9318 6.08663ZM48.5334 6.08663C48.5334 6.72241 48.5303 7.35666 48.5334 7.99244C48.5349 8.3019 48.5227 8.642 48.9622 8.65732C49.397 8.67111 49.4292 8.35246 49.4292 8.0292C49.4292 6.73313 49.4292 5.43706 49.4292 4.14252C49.4292 3.82081 49.4047 3.50828 48.9606 3.5236C48.5058 3.53739 48.5365 3.87902 48.5334 4.18236C48.5273 4.81814 48.5319 5.45238 48.5319 6.08816L48.5334 6.08663Z" fill="#2495EC"/>
<path id="Vector_11" d="M46.3513 22.5127C47.5503 22.5127 48.7493 22.502 49.9467 22.5173C50.8456 22.5295 51.1319 22.8221 51.135 23.726C51.1427 25.7927 51.1442 27.8594 51.135 29.926C51.1319 30.8728 50.8487 31.193 49.9176 31.2006C47.5457 31.2206 45.1738 31.2221 42.8019 31.1976C41.8969 31.1884 41.6258 30.8774 41.6228 29.975C41.6151 27.8823 41.6136 25.7912 41.6228 23.6984C41.6274 22.7992 41.9153 22.5234 42.8294 22.5157C44.0024 22.505 45.1753 22.5127 46.3483 22.5142L46.3513 22.5127ZM45.9318 26.7992C45.9318 27.4595 45.9318 28.1213 45.9318 28.7816C45.9318 29.1049 45.9563 29.4128 46.4019 29.4005C46.8 29.3898 46.8276 29.1079 46.8276 28.8138C46.8306 27.4917 46.8276 26.1696 46.8276 24.8474C46.8276 24.5472 46.7786 24.2653 46.3957 24.2576C45.9593 24.2484 45.9333 24.5671 45.9333 24.8903C45.9333 25.5261 45.9333 26.1619 45.9333 26.7977L45.9318 26.7992ZM44.2259 26.9019C44.2259 26.2155 44.2259 25.5292 44.2259 24.8429C44.2259 24.541 44.1693 24.2668 43.788 24.2607C43.4082 24.2546 43.3332 24.515 43.3332 24.8245C43.3332 26.1711 43.3332 27.5193 43.3332 28.8659C43.3332 29.1861 43.4281 29.4159 43.8079 29.4021C44.1509 29.3898 44.2229 29.1631 44.2244 28.8843C44.2275 28.224 44.2244 27.5621 44.2275 26.9019H44.2259ZM49.4307 26.8222C49.4307 26.1619 49.4307 25.5001 49.4307 24.8398C49.4307 24.5365 49.371 24.2638 48.9897 24.2592C48.6084 24.2546 48.538 24.5181 48.538 24.826C48.538 26.1726 48.538 27.5208 48.538 28.8674C48.538 29.1876 48.6344 29.4174 49.0142 29.4021C49.3572 29.3883 49.4276 29.16 49.4276 28.8812C49.4307 28.1949 49.4276 27.5085 49.4307 26.8222Z" fill="#2495EC"/>
<path id="Vector_12" d="M57.7043 31.2053C56.5313 31.2053 55.3584 31.2237 54.1854 31.1992C53.2299 31.1792 52.9543 30.8866 52.9512 29.9521C52.9451 27.8854 52.9436 25.8188 52.9512 23.7537C52.9543 22.7946 53.2269 22.5173 54.1778 22.5143C56.5237 22.5066 58.8696 22.5051 61.2155 22.5143C62.1725 22.5189 62.4558 22.8038 62.4589 23.7445C62.4665 25.8111 62.4665 27.8778 62.4589 29.9429C62.4543 30.879 62.1679 31.1808 61.2231 31.1992C60.0502 31.2221 58.8772 31.2053 57.7043 31.2053ZM55.5513 26.8912C55.5513 26.8912 55.5498 26.8912 55.5483 26.8912C55.5483 26.1788 55.5513 25.4664 55.5483 24.7556C55.5467 24.4645 55.4273 24.2577 55.1011 24.2592C54.7765 24.2592 54.6586 24.4645 54.6571 24.7571C54.654 26.1298 54.654 27.504 54.654 28.8767C54.654 29.1555 54.7229 29.3837 55.0644 29.4006C55.4395 29.419 55.5513 29.1999 55.5513 28.8751C55.5513 28.2133 55.5513 27.553 55.5513 26.8912ZM57.2526 26.8345C57.2526 27.4703 57.2495 28.1061 57.2541 28.7418C57.2572 29.0482 57.2296 29.3853 57.6828 29.4006C58.1269 29.4144 58.1545 29.1065 58.1545 28.7817C58.1545 27.4841 58.1545 26.188 58.1545 24.8904C58.1545 24.5656 58.1177 24.247 57.6844 24.2607C57.248 24.2761 57.2541 24.6146 57.2526 24.9256C57.2495 25.5614 57.2526 26.1972 57.2526 26.833V26.8345ZM59.8557 26.7548C59.8557 27.4412 59.8557 28.1275 59.8557 28.8154C59.8557 29.111 59.8863 29.3883 60.2829 29.4021C60.6642 29.4144 60.7561 29.1785 60.7561 28.8613C60.7561 27.5132 60.7561 26.165 60.7561 24.8169C60.7561 24.5059 60.6673 24.2485 60.2906 24.2592C59.9093 24.2699 59.8572 24.5442 59.8572 24.8475C59.8572 25.4833 59.8572 26.1191 59.8572 26.7548H59.8557Z" fill="#2495EC"/>
<path id="Vector_13" d="M29.48 45.148C31.1628 45.1326 32.4966 46.4272 32.5364 48.1124C32.5747 49.8083 31.2164 51.1902 29.5121 51.1871C27.8446 51.184 26.5017 49.8481 26.4925 48.1828C26.4833 46.5145 27.8155 45.1617 29.48 45.148ZM31.195 47.8014C30.2533 47.9975 29.6683 47.6865 29.7924 46.9772C29.921 46.2418 29.5213 46.4149 29.1584 46.49C28.2213 46.6861 27.6807 47.5272 27.8415 48.4969C27.9885 49.3747 28.8445 50.0136 29.728 49.9033C30.7126 49.7807 31.2716 49.0086 31.1935 47.7999L31.195 47.8014Z" fill="#FCFDFE"/>
<path id="Vector_14" d="M26.7972 16.5333C26.7972 17.1706 26.8003 17.8079 26.7972 18.4468C26.7957 18.7149 26.7635 18.9799 26.4083 18.983C26.0576 18.986 26.004 18.7302 26.004 18.4575C26.0009 17.1308 26.0009 15.8041 26.004 14.4789C26.004 14.2108 26.0453 13.9473 26.3975 13.9427C26.7528 13.9381 26.7957 14.197 26.7972 14.4682C26.8003 15.1576 26.7972 15.8454 26.7972 16.5348V16.5333Z" fill="#2854A0"/>
<path id="Vector_15" d="M23.3993 16.4629C23.3993 15.7995 23.3962 15.1362 23.3993 14.4728C23.4008 14.2032 23.4452 13.9427 23.7974 13.9397C24.1526 13.9366 24.194 14.1986 24.194 14.4697C24.197 15.7964 24.197 17.1232 24.194 18.4483C24.194 18.718 24.1557 18.9815 23.8004 18.9815C23.4498 18.9815 23.4008 18.7241 23.3993 18.4514C23.3947 17.788 23.3993 17.1247 23.3993 16.4613V16.4629Z" fill="#2854A0"/>
<path id="Vector_16" d="M20.793 16.4812C20.793 15.8684 20.7822 15.2571 20.7975 14.6443C20.8037 14.3563 20.7195 13.9672 21.1788 13.9473C21.6489 13.9274 21.5907 14.3119 21.5938 14.606C21.6015 15.8561 21.5999 17.1063 21.5938 18.3548C21.5938 18.6291 21.6306 18.9692 21.2171 18.9768C20.7531 18.986 20.8021 18.6137 20.7975 18.3165C20.7868 17.7053 20.7945 17.0925 20.7945 16.4797L20.793 16.4812Z" fill="#2854A0"/>
<path id="Vector_17" d="M20.7945 26.8544C20.7945 26.217 20.7899 25.5782 20.7945 24.9409C20.7976 24.6544 20.8052 24.3434 21.211 24.348C21.5678 24.3526 21.5892 24.6314 21.5908 24.8949C21.5938 26.2216 21.5938 27.5484 21.5908 28.8751C21.5908 29.1478 21.5387 29.4005 21.1819 29.3883C20.8236 29.376 20.8006 29.1064 20.7976 28.8444C20.7915 28.1811 20.7961 27.5177 20.7945 26.8544Z" fill="#2854A0"/>
<path id="Vector_18" d="M26.7971 26.8942C26.7971 27.5576 26.7986 28.2209 26.7955 28.8843C26.794 29.1616 26.7343 29.4036 26.3775 29.3883C26.0682 29.3761 26.0069 29.157 26.0054 28.9119C26.0008 27.5606 26.0008 26.2079 26.0054 24.8567C26.0054 24.5809 26.0774 24.3327 26.4265 24.3496C26.7863 24.3664 26.7955 24.6452 26.7971 24.9057C26.8032 25.569 26.7986 26.2324 26.7971 26.8957V26.8942Z" fill="#2854A0"/>
<path id="Vector_19" d="M24.1956 26.9494C24.1956 27.5867 24.1987 28.2255 24.1956 28.8628C24.1956 29.134 24.1558 29.3929 23.799 29.3898C23.4453 29.3868 23.4024 29.1263 23.4024 28.8582C23.3994 27.5315 23.3994 26.2048 23.4024 24.8781C23.4024 24.6054 23.456 24.3465 23.8036 24.3465C24.1558 24.3465 24.1941 24.6131 24.1956 24.8827C24.1987 25.5721 24.1956 26.26 24.1956 26.9494Z" fill="#2854A0"/>
<path id="Vector_20" d="M33.0203 26.8422C33.0203 27.5025 33.0279 28.1627 33.0188 28.823C33.0142 29.1202 32.9453 29.3899 32.5624 29.3945C32.1536 29.3991 32.1383 29.1065 32.1383 28.8169C32.1352 27.4963 32.1352 26.1757 32.1383 24.8536C32.1383 24.561 32.1643 24.2608 32.5624 24.273C32.9299 24.2837 33.0126 24.5641 33.0172 24.8613C33.0279 25.5216 33.0203 26.1819 33.0218 26.8422H33.0203Z" fill="#2854A0"/>
<path id="Vector_21" d="M35.6248 26.8881C35.6248 27.5239 35.6309 28.1581 35.6248 28.7939C35.6217 29.1233 35.5452 29.4205 35.1195 29.3944C34.7122 29.3699 34.7412 29.0482 34.7397 28.7724C34.7351 27.4764 34.7367 26.1818 34.7397 24.8858C34.7397 24.6023 34.7367 24.2806 35.1333 24.273C35.5467 24.2653 35.6171 24.5824 35.6217 24.9057C35.6309 25.566 35.6248 26.2263 35.6248 26.8866V26.8881Z" fill="#2854A0"/>
<path id="Vector_22" d="M37.3415 26.8038C37.3415 26.1435 37.34 25.4832 37.3415 24.8229C37.3415 24.5548 37.3798 24.2867 37.7213 24.2714C38.0811 24.2561 38.2143 24.5089 38.2159 24.8168C38.225 26.1634 38.225 27.5085 38.2204 28.8552C38.2204 29.1661 38.1071 29.4082 37.7335 29.3944C37.3798 29.3822 37.343 29.1294 37.343 28.8597C37.34 28.1734 37.343 27.4886 37.343 26.8023L37.3415 26.8038Z" fill="#2854A0"/>
<path id="Vector_23" d="M13.0188 26.8422C13.0188 27.4795 13.0249 28.1168 13.0188 28.7541C13.0157 29.059 13.0448 29.4052 12.5778 29.3929C12.1919 29.3822 12.1352 29.1003 12.1337 28.8062C12.1276 27.4795 12.1276 26.1543 12.1322 24.8276C12.1322 24.5242 12.2072 24.25 12.59 24.2607C12.9759 24.2699 13.0188 24.5534 13.0188 24.8536C13.0188 25.517 13.0188 26.1803 13.0188 26.8422Z" fill="#2854A0"/>
<path id="Vector_24" d="M14.7322 26.7977C14.7322 26.1344 14.7292 25.471 14.7338 24.8092C14.7368 24.4967 14.8333 24.2408 15.2115 24.2607C15.5453 24.2776 15.6188 24.5166 15.6188 24.7969C15.6188 26.1742 15.6188 27.5515 15.6158 28.9287C15.6158 29.1815 15.5377 29.3837 15.236 29.3975C14.9175 29.4128 14.7522 29.2382 14.746 28.941C14.7338 28.2271 14.7414 27.5132 14.7414 26.7993C14.7384 26.7993 14.7353 26.7993 14.7307 26.7993L14.7322 26.7977Z" fill="#2854A0"/>
<path id="Vector_25" d="M10.4141 26.8084C10.4141 27.4963 10.4157 28.1857 10.4141 28.8736C10.4141 29.1478 10.3651 29.3914 10.0099 29.396C9.68219 29.4021 9.54284 29.2045 9.53978 28.9165C9.53059 27.5147 9.53212 26.1114 9.53978 24.7096C9.53978 24.4522 9.66993 24.2669 9.95475 24.2592C10.2778 24.2515 10.4111 24.4415 10.4111 24.7418C10.4141 25.4296 10.4111 26.119 10.4111 26.8069H10.4141V26.8084Z" fill="#2854A0"/>
<path id="Vector_26" d="M32.1352 16.4444C32.1352 15.7826 32.1337 15.1208 32.1352 14.459C32.1352 14.1679 32.152 13.8661 32.5548 13.8722C32.9253 13.8784 33.0141 14.1556 33.0157 14.4528C33.0233 15.7765 33.0249 17.1001 33.0187 18.4238C33.0187 18.7501 32.9376 19.0626 32.5226 19.0488C32.123 19.0351 32.1383 18.7118 32.1367 18.4299C32.1321 17.7681 32.1367 17.1063 32.1367 16.4444H32.1352Z" fill="#2854A0"/>
<path id="Vector_27" d="M34.7368 16.4782C34.7368 15.8163 34.7337 15.1545 34.7368 14.4927C34.7383 14.2108 34.7245 13.8876 35.1227 13.8722C35.5376 13.8569 35.6173 14.1695 35.6188 14.4958C35.6249 15.8194 35.6249 17.1431 35.6157 18.4667C35.6142 18.7639 35.5269 19.0412 35.1548 19.0489C34.7521 19.0565 34.7368 18.7547 34.7352 18.4636C34.7322 17.8018 34.7352 17.14 34.7352 16.4782H34.7368Z" fill="#2854A0"/>
<path id="Vector_28" d="M38.2264 16.4506C38.2264 17.1124 38.2325 17.7742 38.2233 18.436C38.2188 18.7654 38.1315 19.0733 37.718 19.0504C37.3199 19.0289 37.3429 18.7011 37.3413 18.4207C37.3367 17.1231 37.3367 15.824 37.3413 14.5264C37.3413 14.223 37.3122 13.8615 37.7701 13.8768C38.1912 13.8906 38.2203 14.2292 38.2249 14.5417C38.2341 15.1775 38.2279 15.8148 38.2279 16.4506C38.2279 16.4506 38.2264 16.4506 38.2249 16.4506H38.2264Z" fill="#2854A0"/>
<path id="Vector_29" d="M49.4292 16.4429C49.4292 17.1047 49.4307 17.7666 49.4292 18.4284C49.4292 18.7333 49.371 18.9952 48.9805 18.9952C48.5885 18.9952 48.5349 18.7302 48.5349 18.4269C48.5349 17.1032 48.5349 15.7796 48.5364 14.4544C48.5364 14.1771 48.5992 13.9427 48.9438 13.9259C49.322 13.9075 49.4276 14.1327 49.4276 14.4559C49.4276 15.1177 49.4276 15.7796 49.4276 16.4414L49.4292 16.4429Z" fill="#2854A0"/>
<path id="Vector_30" d="M45.9318 16.4215C45.9318 15.7857 45.9303 15.1484 45.9318 14.5126C45.9318 14.2169 45.9625 13.9381 46.3606 13.9274C46.7465 13.9167 46.8261 14.1633 46.8261 14.4759C46.8261 15.7995 46.8261 17.1231 46.8261 18.4468C46.8261 18.7609 46.7434 19.0044 46.3591 18.9937C45.9609 18.983 45.9349 18.7011 45.9334 18.407C45.9303 17.7451 45.9334 17.0833 45.9334 16.4215H45.9318Z" fill="#2854A0"/>
<path id="Vector_31" d="M44.2229 16.4061C44.2229 17.094 44.226 17.7804 44.2229 18.4682C44.2229 18.7455 44.1571 18.9784 43.8141 18.9952C43.4358 19.0136 43.3333 18.7869 43.3333 18.4636C43.3333 17.1139 43.3333 15.7642 43.3348 14.4161C43.3348 14.1219 43.4466 13.9258 43.7804 13.9274C44.1142 13.9274 44.2214 14.1296 44.2229 14.4207C44.226 15.0825 44.2229 15.7443 44.2229 16.4061Z" fill="#2854A0"/>
<path id="Vector_32" d="M44.2229 6.14481C44.2229 6.80511 44.2244 7.4654 44.2229 8.12722C44.2229 8.45047 44.1081 8.6818 43.739 8.66035C43.4068 8.64197 43.3333 8.40604 43.3333 8.12722C43.3333 6.75455 43.3333 5.38341 43.3348 4.01074C43.3348 3.7166 43.445 3.52203 43.7789 3.52203C44.1127 3.52203 44.2214 3.71813 44.2229 4.01074C44.226 4.72159 44.2229 5.43397 44.2244 6.14481H44.2229Z" fill="#2854A0"/>
<path id="Vector_33" d="M45.9304 6.08814C45.9304 5.45236 45.9258 4.81811 45.9319 4.18233C45.935 3.879 45.9028 3.53736 46.3591 3.52357C46.8047 3.50979 46.8277 3.82078 46.8277 4.1425C46.8277 5.43857 46.8277 6.73464 46.8277 8.02918C46.8277 8.35243 46.7955 8.67109 46.3607 8.6573C45.9212 8.64198 45.9334 8.30341 45.9319 7.99241C45.9288 7.35663 45.9319 6.72239 45.9319 6.08661L45.9304 6.08814Z" fill="#2854A0"/>
<path id="Vector_34" d="M48.5334 6.08814C48.5334 5.45236 48.5288 4.81811 48.5349 4.18233C48.538 3.879 48.5058 3.53736 48.9621 3.52357C49.4062 3.50979 49.4307 3.82078 49.4307 4.1425C49.4307 5.43857 49.4307 6.73464 49.4307 8.02918C49.4307 8.35243 49.3986 8.67109 48.9637 8.6573C48.5242 8.64198 48.5365 8.30341 48.5349 7.99241C48.5319 7.35663 48.5349 6.72239 48.5349 6.08661L48.5334 6.08814Z" fill="#2854A0"/>
<path id="Vector_35" d="M45.9319 26.7992C45.9319 26.1634 45.9319 25.5277 45.9319 24.8919C45.9319 24.5686 45.9595 24.2515 46.3944 24.2592C46.7772 24.2668 46.8262 24.5487 46.8262 24.849C46.8277 26.1711 46.8293 27.4932 46.8262 28.8153C46.8262 29.1079 46.7986 29.3914 46.4005 29.4021C45.9549 29.4128 45.932 29.1064 45.9304 28.7832C45.9304 28.1229 45.9304 27.461 45.9304 26.8008L45.9319 26.7992Z" fill="#2854A0"/>
<path id="Vector_36" d="M44.2245 26.9004C44.2245 27.5607 44.2245 28.2225 44.223 28.8828C44.223 29.1616 44.1495 29.3883 43.8065 29.4006C43.4267 29.4144 43.3318 29.183 43.3318 28.8644C43.3318 27.5178 43.3318 26.1696 43.3318 24.823C43.3318 24.5135 43.4068 24.2531 43.7866 24.2592C44.1679 24.2653 44.2245 24.5396 44.2245 24.8414C44.226 25.5277 44.2245 26.214 44.2245 26.9004Z" fill="#2854A0"/>
<path id="Vector_37" d="M49.4293 26.8222C49.4293 27.5086 49.4293 28.1949 49.4278 28.8813C49.4278 29.1601 49.3558 29.3883 49.0143 29.4021C48.6346 29.4175 48.5381 29.1892 48.5381 28.8675C48.5381 27.5208 48.5381 26.1727 48.5381 24.8261C48.5381 24.5181 48.6101 24.2546 48.9898 24.2592C49.3711 24.2638 49.4293 24.5365 49.4308 24.8398C49.4323 25.5001 49.4308 26.162 49.4308 26.8222H49.4293Z" fill="#2854A0"/>
<path id="Vector_38" d="M55.5514 26.8912C55.5514 27.553 55.5514 28.2133 55.5514 28.8751C55.5514 29.1999 55.4411 29.4205 55.0644 29.4006C54.723 29.3837 54.6541 29.1555 54.6541 28.8767C54.6541 27.504 54.6541 26.1298 54.6571 24.7571C54.6571 24.4645 54.7766 24.2607 55.1012 24.2592C55.4273 24.2592 55.5452 24.4645 55.5483 24.7556C55.5529 25.468 55.5483 26.1803 55.5483 26.8912C55.5483 26.8912 55.5498 26.8912 55.5514 26.8912Z" fill="#2854A0"/>
<path id="Vector_39" d="M57.2525 26.8345C57.2525 26.1987 57.2509 25.5629 57.2525 24.9271C57.2525 24.6146 57.2479 24.276 57.6843 24.2622C58.1176 24.2469 58.1528 24.5671 58.1544 24.8919C58.1544 26.1895 58.1559 27.4856 58.1544 28.7832C58.1544 29.1064 58.1268 29.4159 57.6828 29.4021C57.2295 29.3868 57.2555 29.0497 57.254 28.7433C57.2494 28.1076 57.2525 27.4718 57.2525 26.836V26.8345Z" fill="#2854A0"/>
<path id="Vector_40" d="M59.8572 26.7548C59.8572 26.119 59.8572 25.4832 59.8572 24.8475C59.8572 24.5457 59.9108 24.2699 60.2905 24.2592C60.6672 24.2484 60.7545 24.5058 60.756 24.8168C60.7576 26.165 60.756 27.5131 60.756 28.8613C60.756 29.1784 60.6657 29.4143 60.2829 29.4021C59.8863 29.3883 59.8572 29.111 59.8557 28.8153C59.8541 28.129 59.8557 27.4427 59.8557 26.7548H59.8572Z" fill="#2854A0"/>
<path id="Vector_41" d="M31.1949 47.8014C31.273 49.0102 30.7141 49.7823 29.7295 49.9049C28.846 50.0152 27.9885 49.3763 27.843 48.4985C27.6807 47.5287 28.2227 46.6877 29.1599 46.4916C29.5228 46.415 29.9209 46.2418 29.7938 46.9787C29.6698 47.6881 30.2563 47.999 31.1965 47.803L31.1949 47.8014Z" fill="#2854A0"/>
</g>
<defs>
<clipPath id="clip0_332_366">
<rect width="92" height="66" fill="white"/>
</clipPath>
</defs>
</svg>
