<svg width="53" height="59" viewBox="0 0 53 59" fill="none" xmlns="http://www.w3.org/2000/svg">
<g id="Isolation_Mode" clip-path="url(#clip0_316_28)">
<path id="Vector" d="M19.493 8.83067C19.4727 4.5089 22.8422 0.931624 26.9556 0.907412C31.2152 0.883201 34.6176 4.3838 34.6398 8.81453C34.6611 13.1363 31.2316 16.7025 27.0417 16.7136C22.8964 16.7257 19.5143 13.1928 19.494 8.83067H19.493Z" fill="black"/>
<path id="Vector_2" d="M20.321 15.9913C20.8947 16.4462 21.4055 16.8498 21.9666 17.2947C21.5013 17.9494 21.0591 18.5799 20.6083 19.2033C18.3417 22.3388 16.0741 25.4742 13.7997 28.6045C13.6246 28.8456 13.6091 29.0161 13.8074 29.2532C15.0844 30.7846 15.5517 32.5702 15.1782 34.5485C14.8203 36.4441 13.8074 37.9109 12.1628 38.8188C8.85909 40.6418 4.98556 39.0619 3.696 35.404C2.4016 31.7309 4.82981 27.6391 8.55726 27.1871C9.60497 27.06 10.6149 27.1589 11.5814 27.5947C11.8532 27.7178 11.9577 27.5866 12.0912 27.401C13.551 25.3753 15.0138 23.3526 16.4746 21.3269C17.6925 19.6371 18.9086 17.9454 20.1256 16.2546C20.1836 16.1749 20.2436 16.0962 20.322 15.9913H20.321Z" fill="black"/>
<path id="Vector_3" d="M31.812 17.6498C32.3828 17.2039 32.8945 16.8044 33.4586 16.3635C33.8475 16.9012 34.2131 17.4046 34.5778 17.909C36.8222 21.0192 39.0744 24.1254 41.3023 27.2487C41.5781 27.6351 41.7754 27.7218 42.2378 27.5402C45.6634 26.1945 49.1345 28.3281 50.0758 31.6179C50.7811 34.0854 49.7885 37.2804 47.3777 38.7008C45.4274 39.8498 43.4065 39.9477 41.4465 38.7825C39.4546 37.5981 38.3982 35.7681 38.3846 33.3339C38.3759 31.8095 38.8509 30.4698 39.8019 29.3208C40.0002 29.0807 39.948 28.9243 39.798 28.7175C37.8603 26.0381 35.9235 23.3567 33.9887 20.6752C33.2738 19.6846 32.5627 18.6929 31.813 17.6498H31.812Z" fill="black"/>
<path id="Vector_4" d="M27.9473 23.0449C27.9473 24.2707 27.9637 25.4964 27.9376 26.7221C27.9298 27.1034 28.0643 27.2568 28.3932 27.3445C30.9433 28.0265 32.7669 30.3155 32.8549 33.1029C32.9594 36.3765 30.745 38.9964 27.7702 39.5038C24.7277 40.0224 21.7684 37.7959 21.0689 34.7967C20.3173 31.5755 22.2947 28.0931 25.3923 27.3425C25.729 27.2608 25.8634 27.1256 25.8596 26.7392C25.8393 24.2868 25.8567 21.8334 25.8373 19.3809C25.8335 18.929 25.9418 18.7292 26.4023 18.7787C26.7689 18.818 27.1433 18.817 27.5129 18.7968C27.8573 18.7787 27.954 18.9229 27.9492 19.2689C27.9327 20.5279 27.9424 21.787 27.9424 23.046H27.9453L27.9473 23.0449Z" fill="black"/>
<path id="Vector_5" d="M37.5284 37.7363C37.9792 38.3184 38.3904 38.8491 38.8277 39.415C37.6968 40.3774 36.6036 41.3136 35.5056 42.2427C32.5201 44.7698 29.5308 47.2919 26.5454 49.82C25.3342 50.8459 24.1307 51.883 22.9185 52.9069C22.7154 53.0784 22.6283 53.2086 22.7096 53.5264C23.1962 55.432 22.4639 57.2469 20.8763 58.175C19.4155 59.0295 17.5349 58.7571 16.3266 57.5152C14.9635 56.115 14.7932 53.8784 15.928 52.2734C17.0715 50.6573 19.165 50.17 20.8908 51.1617C21.2565 51.3715 21.4635 51.3705 21.7973 51.085C25.578 47.8467 29.376 44.6296 33.1712 41.4094C34.6049 40.1928 36.0454 38.9852 37.5275 37.7363H37.5284Z" fill="black"/>
<path id="Vector_6" d="M39.8464 40.1998C40.4501 40.5196 41.0325 40.8283 41.6623 41.1622C41.226 42.0732 40.808 42.9529 40.3843 43.8296C39.1712 46.3425 37.9503 48.8515 36.7526 51.3725C36.6859 51.5127 36.7255 51.8002 36.8252 51.9193C38.3527 53.7392 38.1573 56.3601 36.3695 57.8017C34.5469 59.2715 32.0268 58.8569 30.7711 56.8161C29.9759 55.5228 29.9062 54.1235 30.6299 52.7576C31.3457 51.4058 32.466 50.6401 33.9636 50.6764C34.5701 50.6915 34.8391 50.515 35.1051 49.9501C36.5766 46.8237 38.1002 43.7246 39.6084 40.6165C39.6723 40.4853 39.7526 40.3633 39.8464 40.1998Z" fill="black"/>
<path id="Vector_7" d="M8.16832 41.7787C7.81811 43.2617 7.48436 44.673 7.1506 46.0853C6.77427 47.6803 6.40956 49.2783 6.01002 50.8672C5.92392 51.2091 6.10676 51.31 6.29734 51.4644C8.66847 53.3942 8.20218 57.2177 5.43537 58.3657C3.91847 58.9952 2.4896 58.7137 1.32483 57.5385C0.211335 56.4146 -0.165956 55.0013 0.336132 53.4316C0.845959 51.8366 1.94397 50.9226 3.53537 50.6876C3.84688 50.6412 3.96297 50.5292 4.03649 50.2175C4.6924 47.418 5.37829 44.6256 6.02356 41.8231C6.13675 41.3328 6.30798 41.2299 6.74525 41.3883C7.18252 41.5467 7.64301 41.6375 8.16832 41.7787Z" fill="black"/>
<path id="Vector_8" d="M46.9221 41.7413C47.6399 44.7527 48.3374 47.6792 49.0408 50.6331C49.9917 50.6795 50.843 50.969 51.5647 51.6217C52.9772 52.8968 53.2935 55.0244 52.3174 56.7384C51.3887 58.3677 49.4316 59.089 47.7444 58.4242C45.9499 57.716 44.8896 55.8376 45.2485 53.9349C45.4304 52.9705 45.8638 52.1281 46.6454 51.539C46.954 51.307 47.0276 51.083 46.9328 50.6966C46.2594 47.9516 45.6103 45.1996 44.9544 42.4495C44.9428 42.4021 44.9534 42.3497 44.9534 42.2316C45.589 42.0732 46.2333 41.9138 46.9221 41.7423V41.7413Z" fill="black"/>
</g>
<defs>
<clipPath id="clip0_316_28">
<rect width="52.7647" height="57.7851" fill="white" transform="translate(0.117554 0.90741)"/>
</clipPath>
</defs>
</svg>
