<svg width="99" height="99" viewBox="0 0 99 99" fill="none" xmlns="http://www.w3.org/2000/svg">
<g id="Isolation_Mode" clip-path="url(#clip0_331_256)">
<path id="Vector" d="M0 51.6983C0 50.1465 0 48.5948 0 47.0457C0.0206897 47.0819 0.0387931 47.1233 0.0646552 47.1569C0.0853448 47.1828 0.137069 47.219 0.137069 47.219C0.773276 46.4767 1.12241 45.5405 1.83362 44.8319C11.5009 35.1905 21.1552 25.5362 30.7914 15.8638C31.35 15.3026 31.6422 15.2819 32.206 15.856C35.4672 19.1716 38.7621 22.456 42.0698 25.7276C42.5534 26.206 42.675 26.6017 42.4862 27.3C41.55 30.7552 42.8664 34.1069 45.8741 35.8578C46.6241 36.2922 46.8491 36.7397 46.844 37.5647C46.8155 45.7914 46.8103 54.0181 46.8465 62.2422C46.8517 63.2121 46.5879 63.7448 45.7138 64.2647C42.8172 65.9793 41.55 69.3853 42.4345 72.6491C43.2724 75.7371 46.1871 78.0388 49.35 78.106C52.8983 78.1836 55.7974 76.1948 56.8707 72.9517C57.9181 69.7862 56.7776 66.2845 53.9612 64.4328C53.1879 63.9233 53.0095 63.3853 53.0121 62.5474C53.0379 54.494 53.025 46.4405 53.0353 38.3845C53.0353 37.9784 52.8931 37.5414 53.1672 37.1509C53.6224 37.2129 53.8138 37.5853 54.0776 37.8465C56.8862 40.6397 59.6664 43.4664 62.5034 46.231C63.1422 46.8517 63.2457 47.3819 63.0259 48.2353C62.3017 51.0647 63.0802 53.5422 65.2034 55.5129C67.2828 57.4422 69.7629 58.0422 72.5017 57.2043C76.3397 56.0302 78.5948 52.0784 77.6483 48.2793C76.6578 44.3095 72.9491 41.8914 68.9379 42.6207C68.2552 42.7448 67.7043 42.8509 67.0991 42.2276C63.9129 38.9586 60.6647 35.7491 57.4293 32.5293C57.0388 32.1414 56.881 31.8129 57.0078 31.1897C58.1612 25.5 53.6767 20.9586 48.0103 22.0784C47.3405 22.2103 46.9862 22.0371 46.5621 21.6129C43.2233 18.2509 39.8819 14.8914 36.5069 11.5681C35.9353 11.0043 35.9379 10.7017 36.5095 10.1457C38.5526 8.16983 40.5233 6.11897 42.5586 4.13534C43.9681 2.76465 45.1629 1.12759 47.0715 0.341379C47.2371 0.274138 47.2862 0.0931034 47.0405 0C48.5948 0 50.1465 0 51.6983 0C51.6621 0.0232759 51.6233 0.0439655 51.5922 0.0724138C51.569 0.0931034 51.5405 0.15 51.5405 0.15C52.65 0.871552 53.7362 1.60086 54.6853 2.55C68.6017 16.4948 82.5362 30.4216 96.4681 44.3509C97.2621 45.1448 98.0147 45.9621 98.4802 47.0069C98.5552 47.1776 98.5552 47.7 99.0026 47.3017V51.6957C98.9431 51.6543 98.8888 51.6026 98.8241 51.5741C98.806 51.5664 98.744 51.6181 98.731 51.6517C97.8957 53.7828 96.106 55.1328 94.5672 56.6741C81.5534 69.7112 68.5241 82.7302 55.5 95.7569C54.375 96.8819 53.3198 98.0871 51.7603 98.6509C51.6129 98.7052 51.4681 98.8397 51.7009 98.9974H47.3069C47.3457 98.9767 47.3845 98.9612 47.4207 98.9353C47.4465 98.9172 47.4879 98.8655 47.4853 98.8629C46.7483 98.1491 45.7397 97.8465 45.0052 97.0888C42.9129 94.9241 40.7379 92.8422 38.6095 90.7138C26.744 78.8534 14.8836 66.9905 3.02069 55.1276C2.01724 54.1241 0.959483 53.1698 0.421552 51.7991C0.372414 51.6724 0.240517 51.3388 0.00517241 51.6931L0 51.6983Z" fill="#EE4F33"/>
</g>
<defs>
<clipPath id="clip0_331_256">
<rect width="99" height="99" fill="white"/>
</clipPath>
</defs>
</svg>
