<svg width="54" height="38" viewBox="0 0 54 38" fill="none" xmlns="http://www.w3.org/2000/svg">
<g id="Layer_1" clip-path="url(#clip0_416_6496)">
<path id="Vector" d="M54 31.4225V34.7104C53.9388 34.7104 53.8757 34.7122 53.8145 34.714C53.0489 34.1636 52.215 33.7851 51.2927 33.573C49.4554 33.1506 47.6055 32.7775 45.7376 32.5599C43.958 32.3533 42.245 32.4264 40.7896 33.8217C38.9343 35.5991 36.6304 36.2116 34.1033 36.1915C29.1912 36.1531 24.2792 36.1824 19.3654 36.1787C17.1282 36.1787 15.109 35.4967 13.4248 33.9972C12.1837 32.8927 10.8364 32.3387 9.16482 32.4904C8.09126 32.5892 7.01771 32.6989 5.96938 32.9165C3.99159 33.3279 1.90573 33.4175 0.190934 34.7122C0.12789 34.7122 0.0630441 34.7104 0 34.7085V31.4207C0.634044 30.7259 1.52567 30.5156 2.32903 30.1389C5.54248 29.4349 8.79556 28.9942 12.0684 28.7144C12.7673 28.6541 12.9979 28.4602 12.9763 27.7489C12.9006 25.3827 13.0555 23.0238 13.3041 20.6686C13.7562 16.3915 14.7127 12.2497 16.2474 8.23599C16.8994 6.53174 17.8145 4.96646 18.5332 3.30244C18.7619 1.44276 20.0642 0.903325 21.6421 0.652808C22.7751 0.473606 23.8955 0.219431 25.0213 0C26.5218 0 28.0222 0 29.5209 0C29.6379 0.24686 29.8757 0.182859 30.072 0.212117C31.3455 0.411434 32.6136 0.641836 33.8547 1.0039C34.5644 1.21053 35.1696 1.60368 35.2867 2.36071C35.4074 3.14701 35.8505 3.43044 36.508 3.71022C40.3879 5.36509 43.6986 7.80078 46.269 11.2202C46.224 11.6573 46.3753 12.0577 46.4905 12.4655C47.4596 15.9142 48.027 19.427 48.2792 23.0092C48.4143 24.9219 48.3945 26.8273 48.4035 28.7363C48.4053 29.274 48.5152 29.5665 49.1114 29.6433C49.967 29.753 50.81 29.9725 51.6584 30.1444C52.4725 30.5083 53.3642 30.7259 54.0018 31.4225H54ZM26.9703 28.2097C27.0243 28.1987 27.1036 28.2079 27.127 28.175C28.867 25.6698 30.6016 23.161 32.3308 20.6485C32.347 20.6265 32.2984 20.5589 32.2498 20.4382C30.4845 21.528 28.7283 22.6124 26.9739 23.6949C25.2357 22.6051 23.4956 21.5152 21.7574 20.4272C21.7016 20.493 21.6476 20.5589 21.5917 20.6247C23.384 23.1537 25.178 25.6826 26.9703 28.2097ZM26.8694 8.91256C25.1438 11.7505 23.4146 14.5867 21.698 17.4302C21.5395 17.6935 21.1234 17.9769 21.6944 18.2969C23.4668 19.2953 25.2249 20.3175 26.9883 21.3305C28.8166 20.4382 30.5062 19.2935 32.2858 18.3097C32.7541 18.05 32.538 17.7886 32.3651 17.5051C30.6539 14.6927 28.9427 11.8822 27.2297 9.07348C27.1522 8.94731 27.1162 8.67668 26.8712 8.91256H26.8694Z" fill="#FEEF4D"/>
<path id="Vector_2" d="M0.190858 34.714C1.90566 33.4212 3.99152 33.3316 5.9693 32.9183C7.01764 32.7007 8.09119 32.591 9.16474 32.4922C10.8381 32.3386 12.1837 32.8927 13.4247 33.999C15.1089 35.4985 17.1281 36.1805 19.3653 36.1805C24.2773 36.1823 29.1894 36.1549 34.1032 36.1933C36.6304 36.2134 38.9342 35.6027 40.7895 33.8235C42.2449 32.4282 43.9579 32.3533 45.7375 32.5617C47.6054 32.7793 49.4553 33.1524 51.2926 33.5748C52.2149 33.7869 53.0489 34.1636 53.8144 34.7158C53.1858 35.6228 52.1662 35.7581 51.2332 35.9885C46.7625 37.0912 42.1891 37.3783 37.6175 37.6818C36.4791 37.7568 35.3118 37.5959 34.2005 38.0018H33.1197C32.9936 37.5447 32.619 37.6416 32.3037 37.6416C28.7679 37.6361 25.2302 37.6361 21.6943 37.6416C21.3809 37.6416 21.0062 37.5447 20.8783 38.0018H19.6175C19.5076 37.733 19.2662 37.8208 19.0735 37.8116C16.3518 37.6891 13.6319 37.5428 10.921 37.2704C7.91286 36.9668 4.90296 36.6541 1.99212 35.7727C1.32565 35.5716 0.579931 35.4345 0.187256 34.7176L0.190858 34.714Z" fill="#EFD50D"/>
<path id="Vector_3" d="M2.32894 30.1408C2.10018 25.284 2.52888 20.5406 4.68318 16.0972C7.64446 9.98783 12.2052 5.66138 18.5313 3.30249C17.8126 4.96651 16.8975 6.53179 16.2455 8.23604C14.7108 12.2516 13.7543 16.3934 13.3022 20.6686C13.0536 23.0239 12.8987 25.3828 12.9744 27.749C12.9978 28.4603 12.7672 28.6541 12.0666 28.7145C8.79546 28.9961 5.54058 29.4368 2.32713 30.1389L2.32894 30.1408Z" fill="#EFD50D"/>
<path id="Vector_4" d="M46.2655 11.2202C48.9421 14.4605 50.5128 18.2128 51.3072 22.3344C51.8061 24.9219 51.6873 27.5331 51.6548 30.1443C50.8064 29.9724 49.9635 29.753 49.1079 29.6433C48.5098 29.5665 48.4018 29.2739 48.4 28.7363C48.391 26.8273 48.4108 24.9219 48.2757 23.0092C48.0235 19.4269 47.4561 15.9142 46.487 12.4655C46.3717 12.0577 46.2204 11.6572 46.2655 11.2202Z" fill="#FEEA03"/>
<path id="Vector_5" d="M26.9864 21.3305C25.223 20.3174 23.4649 19.2952 21.6925 18.2968C21.1215 17.975 21.5376 17.6916 21.6961 17.4301C23.4127 14.5866 25.1419 11.7505 26.8675 8.91431C27.0693 9.1502 26.9882 9.43546 26.9882 9.69877C26.9918 13.5754 26.9882 17.4538 26.9882 21.3305H26.9864Z" fill="#0C0C0B"/>
<path id="Vector_6" d="M26.9864 21.3306C26.9864 17.454 26.99 13.5755 26.9864 9.69892C26.9864 9.43377 27.0675 9.15034 26.8657 8.91445C27.1107 8.67856 27.1467 8.94736 27.2242 9.07536C28.939 11.8841 30.6502 14.6965 32.3596 17.507C32.5325 17.7904 32.7486 18.0519 32.2803 18.3116C30.5025 19.2954 28.8129 20.4401 26.9828 21.3324L26.9864 21.3306Z" fill="#6F6F6F"/>
<path id="Vector_7" d="M26.9704 28.2097C25.1781 25.6808 23.3841 23.1519 21.5918 20.6247C21.6476 20.5589 21.7017 20.4931 21.7575 20.4272C23.4957 21.5171 25.2357 22.6069 26.974 23.6949C26.974 25.1999 26.9722 26.7048 26.9704 28.2097Z" fill="#0C0C0B"/>
<path id="Vector_8" d="M26.9702 28.2098C26.9702 26.7048 26.972 25.1999 26.9738 23.695C28.73 22.6106 30.4845 21.5281 32.2497 20.4382C32.2983 20.5589 32.347 20.6266 32.3308 20.6485C30.5998 23.161 28.8651 25.6698 27.1269 28.175C27.1035 28.2079 27.0243 28.1988 26.9702 28.2098Z" fill="#6F6F6F"/>
</g>
<defs>
<clipPath id="clip0_416_6496">
<rect width="54" height="38" fill="white"/>
</clipPath>
</defs>
</svg>
