<svg width="60" height="94" viewBox="0 0 60 94" fill="none" xmlns="http://www.w3.org/2000/svg">
<g id="Layer_1" clip-path="url(#clip0_331_260)">
<path id="Vector" d="M31.7809 93.9871C19.7886 94.1611 22.637 92.5736 19.0259 83.0693C15.2935 83.3721 12.027 81.3865 8.72303 79.9073C6.42189 78.8713 4.74153 78.8417 5.31842 75.7814C5.25002 75.9772 5.20614 76.1022 5.16226 76.2272C5.03578 70.7535 4.55439 65.1432 2.76046 59.7739C2.24422 56.6492 -1.47013 53.1972 0.649034 50.1357C3.32703 48.6358 6.03987 46.944 8.58881 45.2469C15.9517 41.5901 11.6979 42.1931 10.6215 36.2375C7.22851 34.7943 4.92737 32.3925 4.48986 28.3787C3.82391 24.4036 6.02567 23.4642 5.64366 21.1758C5.50943 17.7122 5.10289 13.1096 8.7127 11.276C14.4314 0.309254 32.5049 -3.61434 42.4967 3.80892C52.3776 11.7708 50.7372 23.7645 48.3935 34.681L48.4038 34.6732C44.8611 44.2187 44.2481 39.406 51.7516 46.6592L51.7478 46.6553C51.7929 46.7017 51.8368 46.7481 51.882 46.7958L51.8704 46.7842C53.6979 50.8392 48.5651 60.3035 47.3133 64.9809C53.241 61.9167 58.1001 61.3111 59.4733 68.9019C61.8725 77.3521 55.6854 80.8337 48.6645 77.1408C47.2074 77.155 44.976 77.2233 44.674 78.9396C40.2846 81.4754 48.4942 88.507 40.6757 89.3574C41.583 94.7963 35.5198 93.5361 31.7796 93.9871H31.7809ZM25.848 57.3411L25.8377 57.3321C28.0988 58.3591 38.2816 51.8352 31.142 51.6329C31.848 50.9706 33.2689 51.4848 33.4587 50.5055C31.5525 49.8883 25.7822 45.4892 24.4542 48.4876C23.6501 51.5028 24.5613 54.6133 25.848 57.3411ZM35.8953 50.0171C35.3417 49.972 34.313 49.9488 34.4021 50.7529C34.5686 51.3933 34.3505 52.4524 35.1068 52.7179C36.7768 53.0838 37.4582 50.5866 35.8953 50.0171ZM18.8504 48.0882C19.364 48.574 23.028 50.4243 22.8977 49.1551C23.2281 47.8549 23.5765 47.8086 21.8588 47.672C20.9566 47.9013 16.9016 46.2082 18.8504 48.0882ZM7.44662 17.5872C7.59246 18.2109 7.00266 22.4811 8.06224 21.6925C10.8512 20.4967 14.3965 22.1525 14.5578 25.3674C16.3827 24.7657 14.2687 22.1847 14.6159 20.7661C14.5269 17.9583 15.7439 15.2112 15.1451 12.4241C15.2573 9.40503 6.76261 13.8788 7.44662 17.5872ZM12.8271 10.1111C16.6447 10.9242 16.7441 7.14365 19.2776 5.35645C26.0171 1.13649 11.916 5.96593 10.4408 10.8856C11.2952 10.6949 12.0696 10.4307 12.8271 10.1111ZM39.5916 59.4956C39.4096 58.0614 40.0898 56.2369 39.5709 55.0089C38.3681 54.7551 37.5563 53.2835 36.2399 53.7719C35.7224 53.9922 35.2229 54.3582 34.5479 54.1469C32.7501 54.5991 36.0192 57.7973 36.1651 58.9918C37.013 60.8266 37.7189 62.7285 38.7192 64.5209C39.3038 63.0932 39.2819 61.5328 39.5697 60.0355C39.8949 59.8693 39.8149 59.6863 39.5903 59.4969L39.5916 59.4956ZM44.5591 74.8163C44.3965 76.8676 45.2831 76.8315 46.8332 76.003C47.139 74.0921 46.8061 71.5537 46.2175 69.59C45.4303 67.2732 45.8717 67.7255 43.648 67.7525C43.537 69.8631 44.3591 72.5214 44.5591 74.8163ZM7.63505 31.8835C9.96846 35.0508 11.0719 33.4942 13.8428 32.5059C14.1577 33.1618 13.9616 33.7403 13.4363 34.1385C11.2152 36.3071 14.4055 40.8775 15.3451 43.2523C16.948 46.3383 20.4223 46.4015 23.4281 46.7623C24.4813 45.7675 25.5086 45.6335 26.9889 45.7482C24.2902 43.3141 20.7475 40.8221 20.2378 36.9784C23.2203 40.9613 26.6043 45.2766 31.9358 46.0935C31.9177 46.1193 31.9009 46.1451 31.8828 46.1708C47.6617 50.1511 56.5578 9.13186 41.8463 12.6869C41.7882 10.8907 42.742 10.2825 45.6045 10.3495C43.9732 8.4309 42.6439 6.17467 40.4305 4.92866L40.4498 4.94025C32.0932 -0.404595 22.2188 1.98435 16.5324 9.93462C15.802 10.7889 16.4047 11.5144 16.4473 12.4331C16.9532 16.394 14.4017 20.6462 16.3376 25.1625C16.7118 26.6057 15.6213 26.9819 14.4004 27.0567C13.5008 27.2203 13.3937 27.1469 13.1911 26.2256C10.9429 18.64 2.61333 26.0233 7.64538 31.89L7.63634 31.8835H7.63505ZM39.4187 84.3231C39.2251 84.5267 39.1141 84.7303 39.4225 84.9313C39.9323 86.895 38.8534 88.1603 41.6578 87.2236C43.7641 86.5535 41.4307 81.9045 41.552 80.1972C41.5185 79.9073 41.3287 79.933 41.13 79.9537C38.4662 79.8235 39.6122 82.5849 39.4174 84.3231H39.4187ZM43.8041 48.2918C42.5251 44.7302 39.5942 48.5482 37.635 49.2272C37.2776 49.396 37.7719 49.8174 37.7641 50.0996C38.0274 50.7877 39.2135 50.115 40.0085 50.7451C38.2649 50.9796 37.799 50.7026 37.9616 52.495C38.1255 53.866 41.7456 53.406 42.9136 53.8286C45.2819 53.7217 43.9435 49.7916 43.8028 48.2918H43.8041ZM38.7811 71.0692C38.8985 73.4362 39.0147 75.8033 39.1347 78.169C39.1179 78.9267 41.9908 78.0982 42.4671 77.959C42.6477 74.9425 42.0554 71.4699 41.5778 68.3646C41.2849 67.5773 39.8846 68.1391 39.2083 68.1481C38.2261 68.5398 38.9824 70.202 38.7811 71.0679V71.0692ZM33.5761 92.0324C34.2472 91.9667 39.3683 91.7012 39.0521 90.682C38.0803 83.2394 38.403 76.8096 37.666 69.7137C37.9977 66.2269 29.3649 68.3955 27.0082 67.6662C27.0341 67.71 27.0612 67.7525 27.087 67.7963C17.6643 69.6608 18.3367 66.1625 19.6234 75.4953C22.5247 86.7945 19.1588 93.0259 33.5748 92.0324H33.5761ZM47.7701 67.1302C47.4604 67.3698 46.9906 67.4742 47.1971 68.0721C49.6905 78.5079 44.8818 74.6939 55.182 75.9167C53.8437 76.4037 52.4331 76.32 51.047 77.0261C59.7301 78.8172 59.241 71.8475 56.6933 66.0529C55.1885 62.6808 50.2339 66.2681 47.7701 67.1302ZM44.6895 46.3783C45.5258 48.6603 45.7749 51.2412 45.0082 53.5516C44.3655 54.8491 46.2666 55.2357 45.8175 56.3284C43.8493 59.5072 41.8824 62.8883 39.9788 65.9911C41.8772 65.1729 45.5206 66.4949 46.2227 63.9165C48.0089 59.5716 49.6957 55.1597 50.4688 50.5093C51.4974 48.0109 46.2588 45.4454 44.8663 43.4494C44.1848 42.7317 43.5176 44.2097 42.8659 44.4713C41.8682 45.1052 44.2455 44.9351 44.6895 46.3783ZM20.0532 66.9755C24.6852 66.5039 29.3184 66.0864 33.9736 65.9189C31.6286 64.7167 29.2242 63.7916 27.0057 62.4077C25.3589 61.2647 27.2548 60.0922 27.62 58.7985C23.534 60.462 24.2128 53.2629 22.757 51.2966C20.4739 50.2439 18.2038 49.1693 16.1633 47.6771C15.3141 46.5574 14.1139 44.077 12.5303 45.3964C-5.76267 53.5773 7.77056 55.0463 6.90715 75.5933C6.52772 77.4436 16.7235 81.1675 18.5393 81.1108C20.1384 81.4909 18.6903 78.1974 18.831 77.3225C18.538 75.0688 18.2567 72.8152 17.9715 70.5602C18.4477 68.2499 15.9401 68.9109 14.4752 68.9856C12.6968 69.1802 13.7228 67.8582 14.8147 67.8427C16.4653 67.4291 14.3862 66.3338 14.8495 65.4808C20.2894 69.1351 16.2356 60.7016 17.7701 58.1516C20.0855 56.0346 16.2898 69.1364 20.0571 66.973L20.0532 66.9755ZM32.6378 55.8387C23.0487 61.4593 31.4131 62.6229 37.293 64.9422C35.9069 61.7428 34.7544 58.5588 32.6378 55.8387ZM39.4806 64.8546C41.543 62.3162 43.0014 59.3989 44.7153 56.6337C44.9695 55.2022 42.1715 54.3659 41.0758 54.8968C40.3169 55.6235 40.7944 57.1633 40.5454 58.1735C40.415 60.386 40.0807 62.5662 39.4806 64.8546ZM31.9099 47.5212C32.332 48.5559 33.9878 48.7724 35.028 48.869C36.4813 49.1564 37.2272 47.7454 38.4739 46.9813C36.1521 47.2068 34.1053 48.3691 31.9112 47.5212H31.9099Z" fill="#221E1F"/>
<path id="Vector_2" d="M13.0687 25.9408C13.11 26.0362 13.1693 26.1277 13.1913 26.2269C13.3939 27.1482 13.5023 27.2229 14.4018 27.058C14.6109 27.0193 14.8226 26.991 15.0342 26.9678C16.1622 26.8441 16.5571 26.2655 16.339 25.1625C16.0719 23.8122 15.5543 22.5133 15.5324 21.1114C15.504 19.368 15.9583 17.7071 16.3494 16.0333C16.7882 15.8426 16.5675 15.3967 16.703 15.081C17.8568 12.4047 19.4687 10.1021 21.7234 8.20412C24.0607 6.23524 26.7542 5.216 29.7084 4.71219C31.1822 4.46092 32.6613 4.28697 34.1584 4.29599C35.5122 4.30372 36.8596 4.26249 38.207 4.53952C38.9478 4.69157 39.6653 5.03045 40.4513 4.94155C40.4513 4.94155 40.432 4.92995 40.4332 4.92995C40.4733 5.09875 40.6023 5.09875 40.7352 5.08973C40.8011 5.13354 40.8682 5.17864 40.934 5.22245C40.9843 5.26626 41.0334 5.31007 41.0837 5.35388C42.262 6.18369 43.1822 7.2622 44.0418 8.39998C43.9204 8.75175 43.5733 8.73757 43.3061 8.83035C42.2672 9.19243 41.5393 9.86762 41.2515 10.9345C41.1186 11.4242 41.1379 11.9447 41.267 12.4498C41.3586 12.8055 41.7484 12.3828 41.849 12.6869C44.4806 10.7541 48.191 13.5348 48.4505 16.4082C48.5318 17.3115 48.6505 18.2238 48.7692 19.1296C48.6131 19.4273 48.6053 19.7236 48.777 20.0187C48.7808 20.105 48.7847 20.1901 48.7886 20.2764C48.5137 21.1887 48.7137 22.1126 48.7292 23.0313C48.7292 23.0584 48.8363 23.0828 48.8931 23.1086C49.0828 24.3933 48.8557 25.6702 48.7563 26.9407C48.6402 28.4238 48.3769 29.9005 48.0142 31.3514C47.3367 34.0612 46.3674 36.6537 44.8239 39.0027C44.2186 39.924 43.5991 40.8363 42.9499 41.728C41.9523 43.099 40.4823 43.854 39.0162 44.5756C36.8015 45.6657 34.4707 46.2971 31.9682 46.1077L31.9385 46.0909C28.7275 45.4879 26.0973 43.8528 23.8865 41.5115C22.6462 40.1985 21.5956 38.7282 20.5516 37.258C20.469 37.1408 20.4302 36.9784 20.2392 36.9758C20.2934 38.4821 21.0626 39.6869 21.9673 40.7912C23.1611 42.2472 24.4104 43.6646 25.8972 44.8424C26.2534 45.1245 26.6419 45.3629 26.9916 45.7456C26.5374 45.7456 26.0844 45.7508 25.6301 45.7456C24.8647 45.7353 24.2104 45.966 23.7419 46.5999C23.6593 46.712 23.5806 46.8035 23.4309 46.761C22.7056 46.5548 21.9338 46.7301 21.2136 46.4878C21.0962 46.1567 20.9065 46.2211 20.6961 46.3937C20.5683 46.3873 20.4406 46.3809 20.3128 46.3744C20.2612 46.3074 20.2186 46.2288 20.1553 46.1747C18.0633 44.3334 16.7482 42.0114 15.8899 39.3918C15.2846 37.5428 14.909 35.6512 14.7103 33.721C14.6509 33.1463 14.4483 32.6876 13.8456 32.5059C13.2222 32.4737 12.7834 32.8731 12.3085 33.1734C10.9843 34.0109 10.0306 34.0148 8.77999 33.1102C8.4083 32.8409 8.0637 32.5227 7.80817 32.1284C7.80817 32.0085 7.79397 31.8977 7.6391 31.8823C7.6391 31.8823 7.64813 31.8887 7.64942 31.8887C7.652 31.7418 7.68427 31.5885 7.65458 31.4493C7.47003 30.6015 7.3784 29.7691 7.52423 28.8851C7.64684 28.1391 7.92045 27.4175 7.92819 26.6521C8.17082 26.433 8.33473 26.1341 8.68577 26.0272C8.86388 25.973 8.99552 25.9421 9.15039 26.0568C9.36076 26.2127 9.12071 26.3068 9.10264 26.4292C9.06779 26.6534 8.91937 26.8557 8.97874 27.0992C8.83032 27.7409 8.81225 28.3839 8.97874 29.0256C8.96325 29.4044 9.07683 29.7433 9.30268 30.0474C9.32978 30.2278 9.40464 30.3695 9.59952 30.4494V29.9301C9.60984 29.3735 9.62017 28.8168 9.63178 28.2602C9.65243 28.1751 9.67308 28.0901 9.69373 28.0038C9.71309 27.9226 9.73632 27.8414 9.75181 27.7589C9.8499 27.2461 10.0061 26.6959 10.5778 26.6212C11.0979 26.5542 11.3728 27.0167 11.569 27.4626C11.6116 27.5592 11.6477 27.6636 11.7097 27.7473C12.0052 28.1416 12.0478 28.7099 12.5395 28.9959C12.7821 27.8311 12.7305 27.5219 12.0555 26.0001C12.071 25.8158 12.0039 25.6973 11.8039 25.6831C11.7587 25.6586 11.7122 25.6341 11.6671 25.6097C11.7535 25.3674 11.8929 25.2527 12.1497 25.4022C12.4582 25.5813 12.7667 25.7591 13.0764 25.9382L13.0687 25.9408ZM46.5288 21.2377L46.5339 21.2467C46.4603 21.2402 46.3868 21.2351 46.3132 21.2286L46.3416 21.3974C45.6253 21.6771 44.851 21.5057 44.1231 21.6783C43.8559 21.7415 43.4171 21.708 43.3707 21.9683C43.2945 22.3832 43.4946 22.7994 43.8495 23.0906C43.8985 23.1305 43.9656 23.146 44.0185 23.1821C45.0226 23.8482 47.5354 22.9643 48.1381 21.9051C48.2569 21.6977 48.1497 21.5559 48.0439 21.3871C47.1611 19.9878 46.5197 18.466 45.8202 16.9739C45.7776 16.9352 45.735 16.8979 45.6937 16.8592C45.6692 16.9095 45.6447 16.9584 45.6215 17.0087L45.606 16.9713H45.646C45.4821 16.9919 45.4305 17.1105 45.4498 17.2445C45.5169 17.7006 45.3078 17.9519 44.8961 18.1233C44.6677 18.2186 44.4625 18.3977 44.2831 18.5755C43.9153 18.9389 43.6727 19.3899 43.5371 19.886C43.4481 20.212 43.5268 20.5625 43.7759 20.7673C44.2018 21.1204 44.7284 20.9323 45.1091 20.7248C45.7286 20.3859 46.1906 20.3022 46.5481 21.0147L46.53 20.998C46.53 21.0779 46.53 21.1565 46.5313 21.2364L46.5288 21.2377ZM28.1596 11.2025C27.7208 10.2709 26.7155 9.81092 25.6223 10.191C23.7664 10.8366 22.3365 11.9976 21.8189 13.9742C21.6137 14.755 21.5221 15.6119 22.2009 16.2923C22.2745 16.5384 22.432 16.7355 22.6888 16.7265C22.9017 16.7188 22.9572 16.4623 23.0192 16.2987C23.1792 15.8786 23.4257 15.5088 23.6774 15.1493C24.857 13.4691 26.4018 12.5761 28.5184 13.0323C28.9366 13.1225 29.036 12.9318 29.0837 12.5864C29.1857 11.8455 28.6126 11.5672 28.1596 11.2025ZM30.595 17.9648C29.4915 17.9609 28.6088 18.439 27.9802 19.3061C27.5466 19.904 27.8112 20.739 28.4642 21.0624C29.0644 21.3588 29.68 21.543 30.3821 21.3936C30.8144 21.3008 31.2403 21.1088 31.7023 21.1681C31.9011 21.2557 31.9282 21.4722 32.0237 21.6294C32.3773 22.2157 32.3154 22.293 31.6559 22.5017C30.657 22.8174 29.7084 22.4244 28.7404 22.3381C28.0874 22.2801 27.7479 22.628 27.9454 23.2632C28.0564 23.6202 28.3145 23.8328 28.6372 23.9681C29.8658 24.4822 31.1474 24.6394 32.3864 24.1291C33.9248 23.4952 34.2461 22.1796 32.9929 21.0611C32.5799 20.6926 32.2031 20.297 31.9708 19.7765C31.6597 19.0794 31.3152 18.3952 30.9861 17.7071C30.8712 17.5215 30.8712 17.269 30.6324 17.1156V17.7096C30.6208 17.796 30.6092 17.881 30.5963 17.9674L30.595 17.9648ZM39.6228 37.0081C39.6202 36.5158 39.6189 36.0249 39.615 35.5327C39.6111 35.0662 39.4369 34.8949 38.9116 34.9C36.0994 34.9206 33.2833 34.9193 30.5473 33.788C30.888 34.7222 31.5423 35.3072 32.3231 35.726C34.5701 36.932 37.008 37.2258 39.5182 37.1111C39.5995 37.124 39.6344 37.0892 39.6228 37.0068V37.0081ZM37.8288 40.7938C38.0753 40.7384 38.3205 40.6636 38.5696 40.6288C39.5169 40.4948 40.3739 40.2114 40.8759 39.3081C41.1469 39.1406 41.0953 38.9563 40.8191 38.955C40.2138 38.9512 39.5956 38.8146 39.0007 39.0439C38.829 39.0478 38.6574 39.0517 38.4857 39.0555C38.0534 38.8635 37.6223 38.8635 37.19 39.0555C37.0183 39.0517 36.8467 39.0478 36.675 39.0427C36.3795 38.8713 36.0813 38.8803 35.7819 39.0349C34.7843 38.9396 33.797 38.7953 32.8548 38.4383C31.6804 37.9925 30.7383 37.2799 30.2091 36.1048C29.9807 35.5971 29.6116 35.8832 29.347 35.9991C28.9882 36.1563 29.2631 36.3883 29.3935 36.5519C29.6838 36.9166 30.0207 37.2451 30.2956 37.6201C31.3281 39.0285 32.3063 40.4948 34.2435 40.7732C34.4113 41.1159 34.6385 41.036 34.8785 40.8608C35.0063 40.8685 35.134 40.875 35.2618 40.8827C35.6245 41.1417 36.5795 41.1404 36.9357 40.8801C37.0635 40.8737 37.1913 40.8672 37.319 40.8608C37.5152 41.036 37.6933 41.0772 37.8301 40.7938H37.8288ZM35.7703 30.9648C36.2543 30.586 36.746 30.2136 37.2209 29.8232C37.4274 29.6531 37.8327 29.5938 37.6456 29.1622C37.4533 28.7176 37.2261 28.3117 36.6711 28.2602C36.2362 28.219 36.062 28.5192 35.942 28.8503C35.7819 29.2897 35.6542 29.7407 35.5135 30.1865C35.0114 30.4726 34.9624 31.0048 34.9753 31.4583C35.0101 32.7482 35.307 33.8048 36.9409 33.7081C39.202 33.5741 41.2876 32.9865 43.2184 31.823C44.1399 31.2676 45.1646 30.8772 45.3724 29.5577C45.5595 28.3723 45.8176 28.0952 44.9697 27.393C44.3567 26.8853 43.8379 26.2913 43.3358 25.687C41.5638 23.557 39.6357 21.5211 38.8071 18.774C38.7309 18.5214 38.6019 18.3385 38.3154 18.3771C37.9811 18.4222 38.0947 18.7018 38.0998 18.8887C38.1463 20.4452 38.7284 21.833 39.5234 23.137C40.5907 24.8855 41.9226 26.4382 43.2971 27.9458C44.0895 28.8143 43.9682 30.3425 42.7718 30.72C42.1059 30.93 41.5006 31.3217 40.8488 31.5859C39.6473 32.073 38.4522 32.6154 37.1009 32.493C36.4647 32.435 35.9949 32.1773 35.9032 31.4777C35.8671 31.3913 35.8323 31.3037 35.7961 31.2174C35.7871 31.1336 35.7793 31.0486 35.7703 30.9648ZM46.4978 32.5239C46.21 32.4621 46.0783 32.5845 45.9286 32.6618C44.5361 33.3782 43.1887 34.1836 41.6503 34.5946C41.2489 34.7016 40.6372 34.431 40.4642 34.9825C40.3352 35.3935 40.4552 35.8754 40.419 36.3226C40.3687 36.9604 40.6668 37.0506 41.2192 36.9539C43.8301 36.4991 45.3259 34.7467 46.4965 32.5239H46.4978ZM29.3586 34.7621C28.8269 34.3666 28.2229 34.4026 27.6318 34.4439C27.2188 34.4722 26.9916 34.6977 27.002 35.1654C27.0162 35.793 27.2407 36.3754 27.322 36.9836C27.3672 37.325 27.5737 37.4397 27.828 37.4462C28.1971 37.4565 28.0203 37.1369 28.0357 36.9642C28.1222 36.0159 28.3648 35.1706 29.3573 34.7621H29.3586Z" fill="#EFD5B7"/>
<path id="Vector_3" d="M17.9703 70.5641C18.2555 72.8178 18.5369 75.0727 18.8298 77.3264C18.9615 78.3353 19.1215 79.3403 19.2583 80.348C19.3577 81.0721 19.2428 81.2049 18.5382 81.1134C16.7791 80.884 15.0755 80.433 13.4416 79.7462C11.4941 78.9267 9.66657 77.8663 7.7965 76.8921C8.23401 76.6383 8.13463 76.1577 8.17206 75.7982C8.47406 72.9286 8.34113 70.0603 7.99396 67.2049C7.73584 65.0788 7.42222 62.9592 7.03246 60.8511C6.53687 58.162 6.01289 55.4792 5.32112 52.8313C5.25788 52.5903 5.2011 52.361 5.54053 52.2141C6.90598 51.6226 8.25853 51.0016 9.61624 50.3947C11.2734 49.655 12.9305 48.9128 14.5915 48.1835C15.0948 47.9619 15.5775 47.6604 16.1609 47.6797C18.2013 49.1718 20.4728 50.2452 22.7546 51.2992C23.0462 51.4332 23.0927 51.7012 23.1417 51.9847C23.4889 53.96 24.0452 55.8851 24.7963 57.738C25.2519 58.8629 25.994 59.542 27.6175 58.8011C27.4872 59.4685 26.9955 59.877 26.6831 60.3808C26.1462 61.2441 26.2172 61.7815 27.0045 62.4103C27.8486 63.0842 28.8914 63.378 29.818 63.8947C31.1551 64.6394 32.5773 65.2103 33.9724 65.9215C32.9955 65.9718 32.0198 66.0323 31.0428 66.0697C28.508 66.1663 25.9836 66.3841 23.4631 66.6534C22.3274 66.7745 21.1891 66.8699 20.052 66.9768C19.7913 66.58 19.9604 66.1457 19.9565 65.7321C19.9423 64.1073 19.9578 62.4837 19.9539 60.8589C19.9527 60.2893 19.9539 59.7391 19.4571 59.2907C19.0867 58.9557 18.8221 58.5021 18.5111 58.1014C18.2349 57.7509 18 57.8089 17.7651 58.1555C17.4076 58.6825 17.3999 59.2946 17.4179 59.8757C17.4463 60.8073 17.5354 61.7376 17.6541 62.6667C17.8064 63.8521 17.7909 65.0415 17.4837 66.2192C17.3547 66.7127 17.1559 66.7385 16.7804 66.4988C16.277 66.1779 15.7685 65.8635 15.2575 65.553C15.1336 65.4783 14.9838 65.3675 14.8445 65.4847C14.718 65.5904 14.7554 65.7656 14.7799 65.9099C14.8303 66.2179 15.0574 66.4357 15.2187 66.6843C15.6317 67.3247 15.5401 67.6056 14.8109 67.8466C14.2637 68.027 13.5681 67.9922 13.4532 68.7898C12.9215 68.9006 12.8505 68.9844 13.0647 69.1235C13.5771 69.4573 14.012 69.9456 14.6457 70.0539C15.7505 70.242 16.8604 70.3966 17.969 70.5641H17.9703Z" fill="#345060"/>
<path id="Vector_4" d="M31.9062 92.044C29.1082 92.1058 26.3773 91.66 23.6812 90.9603C23.3702 90.8804 23.1766 90.7271 23.0579 90.3534C22.0912 87.3022 21.2768 84.211 20.6212 81.0824C20.234 79.2334 19.9307 77.3637 19.6249 75.4966C19.3048 73.538 19.1667 71.5563 18.8144 69.6054C18.7356 69.1673 18.8079 68.9521 19.2919 68.8735C20.9994 68.5978 22.7107 68.3439 24.4272 68.1223C25.3138 68.0076 26.2237 68.0759 27.0897 67.7963C27.1568 67.7963 27.2226 67.7963 27.2897 67.7963C29.769 67.7177 32.2482 67.7113 34.7275 67.7963C34.8152 67.7963 34.903 67.7963 34.9907 67.7963C35.4218 67.8736 35.8529 67.9496 36.2826 68.027C35.9613 68.2202 36.0336 68.5385 36.0336 68.8284C36.0336 73.864 35.9522 78.8996 36.5253 83.9211C36.7253 85.6747 36.9576 87.4207 37.2545 89.1577C37.3242 89.5687 37.2377 89.7349 36.8957 89.896C35.6812 90.4681 34.4784 91.0557 33.1891 91.4629C32.7554 91.5994 32.2314 91.6329 31.9049 92.044H31.9062Z" fill="#FEFEFE"/>
<path id="Vector_5" d="M16.1635 47.6797C15.5802 47.6604 15.0988 47.9632 14.5942 48.1835C12.9319 48.9128 11.276 49.655 9.6189 50.3946C8.2599 51.0015 6.90864 51.6226 5.54318 52.2141C5.20376 52.3609 5.26054 52.5903 5.32378 52.8313C6.01554 55.4792 6.53953 58.1606 7.03512 60.8511C7.42359 62.9592 7.7372 65.0788 7.99661 67.2049C8.34379 70.0603 8.47801 72.9286 8.17472 75.7981C8.13729 76.1576 8.23538 76.6383 7.79915 76.8921C7.11126 76.7259 6.90219 76.3187 6.90864 75.5958C6.93445 73.0097 6.58728 70.4468 6.29044 67.8827C5.98973 65.2772 5.48898 62.7079 4.84755 60.1669C4.17515 57.4983 3.33755 54.8826 2.15923 52.3893C2.04437 52.147 2.08825 52.0672 2.27151 51.9306C5.52899 49.4991 8.77097 47.0457 12.5305 45.4003C12.6273 45.3578 12.7112 45.2856 12.8054 45.2353C13.6043 44.8063 13.8869 44.8436 14.4599 45.5639C15.0239 46.2726 15.7893 46.8202 16.1648 47.681L16.1635 47.6797Z" fill="#48728A"/>
<path id="Vector_6" d="M40.1506 65.9382C40.6424 64.6046 41.5238 63.49 42.2324 62.2788C43.4017 60.2803 44.6148 58.3088 45.8189 56.3309C45.9893 56.05 45.9596 55.8026 45.7751 55.5642C45.6447 55.3954 45.4744 55.2576 45.3401 55.0926C44.971 54.6378 44.7878 54.2422 45.0097 53.5541C45.5286 51.946 45.606 50.2709 45.2808 48.5791C45.1362 47.8253 44.9723 47.0921 44.691 46.3808C44.9246 46.3705 45.0756 46.5123 45.2511 46.6424C46.9857 47.9387 48.7293 49.2246 50.4703 50.5119C50.2096 51.7515 49.9928 53.0026 49.6778 54.2293C49.3836 55.3748 49.0171 56.5049 48.6286 57.6246C47.8929 59.7481 47.076 61.8407 46.2229 63.9204C45.7299 65.1226 45.3737 65.4873 43.8082 65.5555C42.5821 65.6097 41.3561 65.6341 40.161 65.9511L40.1506 65.9395V65.9382Z" fill="#345060"/>
<path id="Vector_7" d="M47.7703 67.1315C48.9164 66.3661 50.2651 66.089 51.5208 65.5865C52.0474 65.3752 52.6088 65.2128 53.0837 64.9152C54.6983 63.9011 56.1102 64.9023 56.6935 66.0542C57.3027 67.259 57.6615 68.5759 57.8319 69.9289C57.5763 70.2111 57.4821 70.5834 57.4537 70.9236C57.3814 71.814 57.0497 72.6193 56.7568 73.4414C56.6393 73.7713 56.5038 73.9517 56.0392 73.9543C54.6234 73.9607 53.218 73.7816 51.8035 73.7932C50.9259 73.8009 50.0586 73.5883 49.1771 73.6631C48.9086 73.6862 48.8106 73.5613 48.7847 73.2894C48.7189 72.6129 48.6273 71.9377 48.5253 71.2664C48.3137 69.8812 48.1627 68.4857 47.769 67.1328L47.7703 67.1315ZM53.6451 67.174C51.8822 67.2925 50.2276 67.6714 49.0183 69.2588C50.9233 69.2215 52.09 67.7744 53.6451 67.174ZM55.4288 72.7482C53.9691 72.073 50.82 71.6504 50.0276 72.6219C51.7957 72.6876 53.5651 72.8204 55.4288 72.7482ZM50.0792 70.4288C51.7286 70.55 53.2915 70.3515 54.8867 70.1647C53.5483 69.4006 50.8987 69.5307 50.0792 70.4288Z" fill="#FEFEFE"/>
<path id="Vector_8" d="M40.4513 4.94153C39.6654 5.03044 38.9478 4.69156 38.207 4.53951C36.8596 4.26248 35.5122 4.30371 34.1584 4.29598C32.6613 4.28825 31.1822 4.46091 29.7084 4.71217C26.7542 5.21599 24.0607 6.23522 21.7234 8.20411C19.4688 10.1021 17.8568 12.4047 16.703 15.081C16.5675 15.3967 16.7882 15.8425 16.3494 16.0333C16.3868 15.6506 16.4242 15.2679 16.4617 14.8852C16.4926 14.7975 16.5223 14.7112 16.5533 14.6236C16.5972 13.978 16.6088 13.3325 16.5481 12.6882C16.5146 12.6032 16.4823 12.5181 16.4487 12.4331C16.4552 12.1973 16.4746 11.9525 16.352 11.7411C15.9725 11.0891 16.1545 10.5428 16.5339 9.93332C17.5561 8.29173 18.9603 7.0354 20.4883 5.90794C22.3119 4.5627 24.2543 3.39658 26.3631 2.55517C27.1517 2.24076 27.9906 2.04104 28.8953 2.11835C29.5225 2.17247 30.173 2.05521 30.8196 2.04362C32.5167 2.01269 34.1145 2.41214 35.7084 2.85282C37.2648 3.28319 38.7503 3.91328 40.1648 4.70187C40.2797 4.76629 40.3907 4.81783 40.4526 4.93896L40.4513 4.94153Z" fill="#F6E5CD"/>
<path id="Vector_9" d="M15.1451 12.4241C15.4187 13.4498 15.3232 14.4844 15.2032 15.5166C15.0006 17.2651 14.5915 18.9866 14.616 20.7661C14.6302 21.8729 14.9257 22.9012 15.2213 23.9449C15.473 24.8378 15.3078 25.1458 14.5592 25.3674C14.3669 23.3676 13.2609 22.0945 11.3805 21.4889C10.2628 21.1294 9.1503 21.315 8.06361 21.6925C7.50607 19.5767 7.86228 17.5821 9.02769 15.7704C10.4422 13.5709 12.7085 12.8171 15.1451 12.4228V12.4241Z" fill="#6E6C6C"/>
<path id="Vector_10" d="M31.9062 92.044C32.2328 91.6342 32.758 91.5994 33.1904 91.4628C34.4797 91.0557 35.6825 90.4681 36.897 89.896C37.239 89.7349 37.3268 89.5674 37.2558 89.1576C36.959 87.4207 36.7266 85.6747 36.5266 83.921C35.9536 78.8996 36.0362 73.864 36.0349 68.8284C36.0349 68.5372 35.9613 68.2202 36.284 68.0269C36.3046 68.0231 36.3317 68.0102 36.3459 68.0179C36.6802 68.2177 37.2338 67.978 37.3965 68.2885C37.612 68.7008 37.6314 69.2304 37.6688 69.7149C37.7565 70.8579 37.8069 72.0047 37.8714 73.1489C37.905 73.8344 37.9385 74.5199 37.9721 75.2054C38.0237 76.472 38.0134 77.7451 38.3167 78.9898C38.3167 79.0633 38.3192 79.1367 38.3205 79.2102C38.3476 79.8299 38.3747 80.451 38.4031 81.0721C38.3773 81.1069 38.3734 81.1442 38.3902 81.1829C38.4005 81.2873 38.4122 81.3916 38.4225 81.4973C38.4315 81.6378 38.4393 81.7769 38.4483 81.9174C38.4522 82.2988 38.456 82.6802 38.4599 83.0616C38.4444 83.0732 38.4135 83.0912 38.4147 83.0938C38.4277 83.1234 38.447 83.1492 38.4638 83.1776C38.4638 83.4391 38.4651 83.6994 38.4664 83.961C38.2973 84.3901 38.2754 84.8166 38.4819 85.2418C38.6535 86.3138 38.589 87.4014 38.7103 88.4812C38.7942 89.2221 38.9 89.9617 39.0536 90.6833C39.1491 91.1317 38.9942 91.1317 38.6677 91.2283C37.1706 91.6703 35.6348 91.8687 34.0887 92.0092C34.0486 92.0208 34.0086 92.0337 33.9686 92.0453L33.5776 92.0337C33.535 91.9692 33.4963 91.9641 33.4614 92.0401C32.9426 92.0414 32.4251 92.0427 31.9062 92.044Z" fill="#DCD9D8"/>
<path id="Vector_11" d="M25.7371 57.2033C25.599 56.8193 25.4609 56.434 25.3228 56.0501C25.5706 55.8207 25.4725 55.5282 25.4415 55.2653C25.2621 53.7242 25.075 52.1832 25.0815 50.6292C25.084 49.8226 25.4674 49.3729 26.1914 49.3574C27.5801 49.329 28.9713 49.2788 30.3148 49.7749C30.9511 50.0094 31.2505 50.5738 30.9072 51.1613C30.6904 51.5324 30.8672 51.7206 31.1124 51.9074C31.8532 52.4769 32.6986 52.5878 33.5968 52.4422C33.9014 53.4665 33.1374 53.924 32.5089 54.4265C31.328 55.371 30.1664 56.3464 28.7106 56.8786C28.3312 57.0177 27.9479 57.1234 27.5607 57.2304C27.5323 57.2033 27.5039 57.1762 27.4755 57.1492C27.4523 57.1994 27.4278 57.2497 27.4045 57.2999C27.1193 57.4107 26.8315 57.5087 26.5179 57.461C26.4611 57.461 26.4043 57.461 26.3488 57.461C26.2249 57.4546 26.101 57.4481 25.9771 57.4417C25.932 57.4056 25.8855 57.3682 25.8403 57.3321L25.8507 57.3412C25.8132 57.2948 25.7771 57.2497 25.7397 57.2033H25.7371Z" fill="#D23833"/>
<path id="Vector_12" d="M32.6393 55.84C34.7559 58.5601 35.9071 61.7441 37.2945 64.9435C36.2865 64.785 35.4476 64.4307 34.6191 64.0918C32.518 63.2311 30.4762 62.2441 28.4706 61.1771C28.037 60.9465 27.9273 60.7532 28.1015 60.2661C28.6023 58.8694 29.6528 57.9597 30.7705 57.1054C31.3577 56.657 31.9953 56.273 32.6393 55.8413V55.84Z" fill="#81AFC3"/>
<path id="Vector_13" d="M47.7703 67.1315C48.1639 68.4831 48.3149 69.8799 48.5266 71.2651C48.6298 71.9377 48.7201 72.6116 48.786 73.2881C48.8118 73.5587 48.9099 73.685 49.1783 73.6618C50.0598 73.5857 50.9271 73.7984 51.8047 73.7919C53.2179 73.7803 54.6234 73.9594 56.0404 73.953C56.505 73.9504 56.6393 73.77 56.758 73.4401C57.051 72.6193 57.3827 71.8127 57.4549 70.9223C57.482 70.5822 57.5775 70.2098 57.8331 69.9276C58.4539 71.7857 58.8088 73.6347 57.6782 75.4464C57.211 76.195 56.5825 76.753 55.7191 76.9591C54.2375 77.3109 52.7417 77.3934 51.0471 77.0274C52.4332 76.3213 53.8438 76.4051 55.1822 75.918C53.6128 75.3794 52.0951 75.5984 50.5851 75.6719C50.0069 75.7002 49.4287 75.7221 48.8518 75.7724C48.4323 75.8085 48.2362 75.6861 48.1975 75.2273C48.0761 73.8009 47.9032 72.3797 47.7638 70.9546C47.667 69.9753 47.5173 69.005 47.1985 68.0747C46.9933 67.4768 47.4618 67.3724 47.7716 67.1328L47.7703 67.1315Z" fill="#DCD9D8"/>
<path id="Vector_14" d="M13.8429 32.5072C14.4456 32.6889 14.6482 33.1476 14.7076 33.7223C14.9063 35.6525 15.2806 37.5441 15.8872 39.3931C16.7454 42.0127 18.0606 44.3334 20.1526 46.176C20.2159 46.2314 20.2585 46.3087 20.3101 46.3757C18.2025 46.0523 16.4357 45.2379 15.3464 43.2523C14.2146 41.1894 13.3486 39.0375 12.7665 36.7619C12.5084 35.753 12.489 34.8562 13.4376 34.1385C13.9629 33.7403 14.1591 33.1618 13.8442 32.5072H13.8429Z" fill="#F6E5CD"/>
<path id="Vector_15" d="M41.92 70.2986C42.222 72.4002 42.3562 74.5173 42.4775 76.6344C42.5033 77.0867 42.8583 77.6394 42.4685 77.9603C42.1678 78.2077 41.6051 78.111 41.1869 78.2528C40.6488 78.4357 40.0899 78.3791 39.5505 78.4899C39.2523 78.5517 39.1478 78.4254 39.1349 78.1703C39.0149 75.8033 38.8987 73.4362 38.7812 71.0705C38.909 71.0705 39.0355 71.0705 39.1633 71.0666C40.1441 71.0331 40.9946 70.5319 41.9187 70.2986H41.92Z" fill="#345060"/>
<path id="Vector_16" d="M43.8056 48.293C44.0857 49.8882 44.5219 51.4615 44.0534 53.1122C43.8611 53.7886 43.5333 53.9252 42.9164 53.8299C41.48 53.607 40.0203 53.5412 38.6058 53.1779C38.5632 53.0361 38.5245 52.8931 38.4793 52.7514C38.2702 52.0878 38.4832 51.7592 39.1827 51.669C40.2061 51.5376 40.4978 51.1562 40.352 50.1408C40.2152 49.186 40.6011 48.7208 41.5535 48.5005C42.3021 48.3278 43.0558 48.3652 43.8056 48.293Z" fill="#D23833"/>
<path id="Vector_17" d="M39.4819 64.8559C40.0821 62.5674 40.4163 60.3872 40.5467 58.1748C40.6022 57.2367 40.6874 56.3 40.7377 55.3619C40.7506 55.1068 40.85 54.9998 41.0771 54.8968C42.2128 54.3852 44.2417 55.0978 44.7527 56.2085C44.8211 56.3567 44.8005 56.4958 44.7166 56.6337C43.0969 59.3023 41.6153 62.0584 39.7426 64.5685C39.6923 64.6355 39.6303 64.6922 39.4832 64.8546L39.4819 64.8559Z" fill="#81AFC3"/>
<path id="Vector_18" d="M33.5955 52.4434C32.6973 52.589 31.8519 52.4782 31.1111 51.9087C30.8672 51.7205 30.6891 51.5337 30.9059 51.1626C31.2492 50.575 30.9498 50.0119 30.3135 49.7761C28.97 49.28 27.58 49.329 26.1901 49.3586C25.466 49.3741 25.084 49.8238 25.0801 50.6304C25.0737 52.1857 25.2608 53.7255 25.4402 55.2666C25.4712 55.5294 25.5693 55.8219 25.3215 56.0513C24.4555 54.1443 24.036 52.1509 24.1896 50.0557C24.2283 49.53 24.3071 48.9953 24.4529 48.4902C24.7562 47.4439 25.488 47.2789 26.3204 47.4812C27.9324 47.8717 29.4733 48.458 30.9524 49.2117C31.4983 49.4901 31.9539 49.9217 32.5579 50.1047C32.7115 50.1511 32.8496 50.2503 33.0277 50.2606C33.2006 50.2709 33.4226 50.2001 33.4574 50.5067C33.4923 50.8173 33.3039 50.9191 33.0754 51.0067C32.4727 51.2399 31.7758 51.1845 31.1408 51.6329C31.9732 51.7128 32.7205 51.7888 33.3942 52.1625C33.5129 52.2282 33.6975 52.2295 33.5929 52.4447L33.5955 52.4434Z" fill="#EF3C39"/>
<path id="Vector_19" d="M39.4032 82.5449C39.4032 82.3696 39.4019 82.1944 39.4006 82.0192C39.6471 81.4754 39.4471 80.902 39.5155 80.3466C40.0446 80.1778 40.5751 80.0129 41.1313 79.9549C41.3301 79.9343 41.5198 79.9085 41.5534 80.1985C41.7766 82.1699 42.4568 84.0666 42.5032 86.0703C42.5187 86.7146 42.3948 87.105 41.6592 87.2261C41.161 87.3086 40.6693 87.4774 40.1608 87.5509C39.8007 87.6024 39.6355 87.5199 39.6291 87.0921C39.6175 86.3706 39.6317 85.64 39.4239 84.9338C39.4239 84.7315 39.4213 84.5279 39.42 84.3256C39.4161 83.7716 39.4122 83.2162 39.4084 82.6621C39.4239 82.6506 39.4548 82.6325 39.4535 82.6299C39.4406 82.6003 39.4213 82.5745 39.4045 82.5462L39.4032 82.5449Z" fill="#DCD9D8"/>
<path id="Vector_20" d="M7.92301 26.6534C7.91655 27.4188 7.64295 28.1391 7.51905 28.8864C7.37321 29.7704 7.46484 30.6028 7.6494 31.4506C7.68037 31.5898 7.64811 31.7431 7.64424 31.89C6.33944 30.068 5.64897 28.1094 6.34589 25.8609C6.90214 24.0621 8.9129 22.8097 10.7494 23.1331C11.6012 23.2826 12.1717 23.8418 12.5692 24.575C12.8015 25.0015 13.0002 25.4499 13.0686 25.9408C12.7602 25.763 12.4504 25.5852 12.142 25.4048C11.8864 25.2553 11.7458 25.37 11.6593 25.6123C11.1934 25.0633 10.5649 24.8159 9.88343 24.709C8.83288 24.5441 7.69457 25.6896 7.92301 26.6547V26.6534Z" fill="#F6E5CD"/>
<path id="Vector_21" d="M50.4701 50.5119C48.7291 49.2234 46.9855 47.9387 45.2509 46.6424C45.0754 46.511 44.9244 46.3693 44.6908 46.3809C44.2959 45.7057 43.8222 45.1323 42.9756 45.015C42.8491 44.997 42.6504 45.0215 42.622 44.8101C42.5962 44.6233 42.7511 44.5679 42.8685 44.4738C43.2815 44.1401 43.7229 43.8283 44.0804 43.4417C44.3953 43.1015 44.5927 43.1866 44.8676 43.4533C45.9969 44.546 47.1275 45.6374 48.2761 46.7082C48.7898 47.1875 49.3576 47.6076 49.8868 48.0701C50.656 48.7428 50.745 49.588 50.4688 50.5132L50.4701 50.5119Z" fill="#48728A"/>
<path id="Vector_22" d="M44.5579 74.8176C44.2068 72.4815 43.8571 70.1441 43.5073 67.8157C43.5719 67.786 43.6093 67.7538 43.6467 67.7525C45.8704 67.7255 45.429 67.2732 46.2163 69.59C46.7029 71.0254 46.899 72.5266 46.8655 74.0509C46.0408 74.1411 45.34 74.5998 44.5579 74.8163V74.8176Z" fill="#FEFEFE"/>
<path id="Vector_23" d="M39.6614 56.5899C39.6382 57.5589 39.6149 58.5279 39.5917 59.4969C39.584 59.676 39.5775 59.8551 39.5698 60.0355C39.4136 61.1037 39.2574 62.1719 39.1013 63.2401C38.8019 63.1834 38.7309 62.9154 38.6212 62.6976C38.2275 61.9219 37.8158 61.1526 37.4648 60.3576C36.9085 59.1 36.2594 57.8823 35.8348 56.5654C35.6541 56.0062 35.9896 55.6738 36.2994 55.3336C36.5794 55.0244 36.9305 54.9239 37.3396 55.1249C38.0068 55.4534 38.678 55.7743 39.3542 56.0822C39.5891 56.1892 39.6459 56.3696 39.6614 56.5912V56.5899ZM38.1088 56.3258C38.0688 55.8774 37.8016 55.6648 37.4016 55.6777C37.0028 55.6905 36.6956 55.9212 36.7343 56.3464C36.7705 56.7433 37.0092 57.0757 37.4648 57.0409C37.8739 57.01 38.083 56.7227 38.1088 56.3258ZM38.7735 59.6425C38.7735 59.1026 38.5141 58.8603 38.0933 58.8925C37.7513 58.9183 37.4312 59.0626 37.4403 59.5239C37.4506 60.0162 37.7578 60.2275 38.1682 60.2365C38.5695 60.2455 38.718 59.9118 38.7722 59.6425H38.7735Z" fill="#FEFEFE"/>
<path id="Vector_24" d="M12.8272 10.1124C12.0697 10.432 11.2953 10.6949 10.4409 10.8868C11.1766 9.29937 12.3433 8.14742 13.6687 7.14107C15.6653 5.62576 17.889 4.54339 20.2663 3.76511C20.5683 3.66589 20.8974 3.58858 21.0613 3.92231C21.2587 4.32305 20.8651 4.46478 20.6147 4.53823C20.0856 4.69414 19.7681 5.16188 19.2777 5.35774C19.1731 5.37836 19.0608 5.38093 18.9653 5.42217C17.414 6.09736 15.9737 6.95681 14.6831 8.05336C13.9746 8.6551 13.2815 9.27747 12.8272 10.1112V10.1124Z" fill="#DCD9D8"/>
<path id="Vector_25" d="M39.6615 56.5899C39.6447 56.3683 39.5879 56.1879 39.3543 56.0809C38.678 55.773 38.0069 55.4534 37.3397 55.1236C36.9306 54.9213 36.5795 55.0231 36.2995 55.3323C35.9897 55.6738 35.6542 56.0049 35.8348 56.5641C36.2595 57.881 36.9086 59.0974 37.4649 60.3563C37.8159 61.1513 38.2276 61.9206 38.6212 62.6963C38.7322 62.9141 38.8019 63.1808 39.1014 63.2388C39.0278 63.6756 38.9129 64.0982 38.7193 64.5196C37.7178 62.7285 37.0132 60.8266 36.1652 58.9905C35.5587 57.6774 34.8746 56.4147 34.0228 55.2421C33.7725 54.8968 34.1726 54.0283 34.5468 54.1456C35.2218 54.3582 35.7213 53.9922 36.2388 53.7719C36.8299 53.5206 37.2816 53.6856 37.7191 54.0038C38.2947 54.4213 38.9091 54.7576 39.5685 55.0089C39.7247 55.0682 39.7699 55.1261 39.7621 55.2666C39.7363 55.7086 39.8254 56.1583 39.6602 56.5899H39.6615Z" fill="#DCD9D8"/>
<path id="Vector_26" d="M43.8056 48.2931C43.0557 48.3652 42.302 48.3279 41.5535 48.5005C40.601 48.7196 40.2151 49.1847 40.3519 50.1408C40.4978 51.1575 40.2061 51.5376 39.1827 51.669C38.4844 51.7592 38.2715 52.0878 38.4793 52.7514C38.5244 52.8931 38.5632 53.0362 38.6058 53.1779C38.1386 53.1882 37.945 53.0014 37.963 52.4963C38.0224 50.8701 37.6468 51.1575 39.4421 50.7825C39.5647 50.7568 39.695 50.7645 40.0112 50.7464C39.3401 50.4514 38.7981 50.3122 38.2754 50.4127C37.9101 50.4836 37.843 50.3766 37.7669 50.1009C37.7114 49.8986 37.6301 49.7002 37.5397 49.5107C37.4726 49.3703 37.4649 49.3007 37.6365 49.2298C38.6406 48.8124 39.4485 48.074 40.3752 47.5251C40.9314 47.1952 41.5303 46.9839 42.1317 46.8216C42.8544 46.6257 43.3526 47.1141 43.8043 48.2956L43.8056 48.2931Z" fill="#EF3C39"/>
<path id="Vector_27" d="M18.5136 58.1001C18.8246 58.5008 19.0879 58.9544 19.4596 59.2894C19.9565 59.7378 19.9552 60.288 19.9565 60.8576C19.9603 62.4824 19.9436 64.106 19.9591 65.7308C19.9629 66.1444 19.7939 66.58 20.0546 66.9756C19.6803 67.2062 19.2634 67.0683 18.8685 67.1018C18.6117 67.1237 18.5962 66.866 18.5342 66.6985C18.2529 65.9344 18.4129 65.1368 18.3729 64.3534C18.2645 62.2647 18.6297 60.1875 18.5149 58.0975L18.5136 58.1001Z" fill="#48728A"/>
<path id="Vector_28" d="M12.8274 10.1124C13.2817 9.27874 13.9747 8.65637 14.6833 8.05463C15.9739 6.95808 17.4142 6.09863 18.9655 5.42344C19.061 5.3822 19.1733 5.37963 19.2778 5.35901C18.7925 5.82417 18.244 6.24166 17.8362 6.76738C17.2258 7.55339 16.7147 8.4167 16.1623 9.24781C15.7519 9.86502 15.2202 10.2026 14.4355 10.1214C13.905 10.066 13.3643 10.1124 12.8287 10.1137L12.8274 10.1124Z" fill="#6E6C6C"/>
<path id="Vector_29" d="M41.9199 70.2987C40.9946 70.5319 40.144 71.0332 39.1645 71.0667C39.0367 71.0705 38.9089 71.0692 38.7825 71.0705C38.7708 70.2832 38.7696 69.4959 38.7412 68.7099C38.7283 68.3594 38.8986 68.2203 39.2109 68.1507C39.8614 68.0051 40.517 67.9909 41.1791 67.9999C41.4424 68.0038 41.5431 68.0979 41.5805 68.3659C41.6708 69.0127 41.805 69.6544 41.9212 70.2974L41.9199 70.2987Z" fill="#48728A"/>
<path id="Vector_30" d="M41.8476 12.6882C41.747 12.3841 41.3572 12.8067 41.2656 12.4511C41.1352 11.9447 41.1171 11.4254 41.2501 10.9358C41.5379 9.86889 42.2658 9.1937 43.3047 8.83162C43.5732 8.73755 43.919 8.75302 44.0404 8.40125C44.5514 9.03778 45.0612 9.67303 45.6059 10.3508C42.7433 10.2851 41.7908 10.892 41.8476 12.6882Z" fill="#F6E5CD"/>
<path id="Vector_31" d="M17.9704 70.5641C16.8618 70.3953 15.7519 70.242 14.6471 70.0538C14.0134 69.9456 13.5785 69.4573 13.0661 69.1235C12.8519 68.9844 12.9216 68.9006 13.4546 68.7898C13.7579 69.0411 14.1141 69.0449 14.4742 68.9895C15.2989 68.8645 16.1274 68.8632 16.9547 68.9083C17.8401 68.956 17.9381 69.0784 17.9665 69.9907C17.973 70.1814 17.9691 70.3734 17.9704 70.5641Z" fill="#48728A"/>
<path id="Vector_32" d="M31.9114 47.5225C34.1054 48.3704 36.1523 47.2081 38.4741 46.9826C37.6365 47.6372 36.9408 48.1693 36.2594 48.717C35.8748 49.0262 35.4347 48.8819 35.0294 48.8703C33.9247 48.8381 32.9025 48.5198 32.0146 47.8317C31.923 47.7609 31.8597 47.6939 31.9114 47.5225Z" fill="#EFD5B7"/>
<path id="Vector_33" d="M18.8505 48.0895C18.6169 47.9967 18.4737 47.8112 18.3859 47.5921C18.324 47.4349 18.2943 47.2339 18.4117 47.1025C18.5524 46.9453 18.7099 47.0844 18.8647 47.1514C19.8198 47.5638 20.8471 47.5921 21.8589 47.6733C23.5767 47.8099 23.2282 47.8563 22.8979 49.1564C22.8824 49.2182 22.8759 49.2827 22.8656 49.3458C22.7262 49.2118 22.7288 48.9244 22.4229 48.967C22.0719 49.0159 21.7583 48.8214 21.4266 48.7737C20.5386 48.6461 19.7578 48.1307 18.8492 48.0895H18.8505Z" fill="#FBFAFA"/>
<path id="Vector_34" d="M44.5581 74.8176C45.3402 74.6011 46.0423 74.1411 46.8657 74.0522C46.8799 74.3047 46.9147 74.5586 46.9018 74.8111C46.8812 75.2222 47.1974 75.8072 46.8321 76.0056C46.3004 76.2929 45.6951 76.561 45.0304 76.5339C44.7775 76.5236 44.7142 76.4386 44.6833 76.2066C44.6239 75.7453 44.5284 75.2892 44.5581 74.8201V74.8176Z" fill="#DCD9D8"/>
<path id="Vector_35" d="M35.8943 50.0171C36.6777 50.3753 36.9577 51.0299 36.679 51.8533C36.4492 52.5297 35.8401 52.8274 35.107 52.7166C34.645 52.647 34.6863 52.339 34.6411 52.0401C35.1948 51.5595 35.5807 50.9861 35.6865 50.2426C35.6981 50.1588 35.8233 50.0918 35.8956 50.0158L35.8943 50.0171Z" fill="#D23833"/>
<path id="Vector_36" d="M18.8506 48.0895C19.7579 48.1307 20.5387 48.6461 21.4279 48.7737C21.7596 48.8214 22.0719 49.0159 22.4243 48.967C22.7301 48.9244 22.7275 49.2105 22.8669 49.3458C22.9495 49.6705 22.7263 49.6486 22.5391 49.61C21.215 49.3355 19.9308 48.9618 18.8519 48.0908L18.8506 48.0895Z" fill="#DCD9D8"/>
<path id="Vector_37" d="M35.8941 50.0171C35.8218 50.0918 35.6979 50.1601 35.685 50.2439C35.5792 50.9874 35.1933 51.562 34.6396 52.0414C34.4163 51.6406 34.4757 51.1819 34.4008 50.7528C34.3131 50.2542 34.7467 50.0983 35.1352 50.0158C35.3765 49.9643 35.6398 50.0132 35.8928 50.0158L35.8941 50.0171Z" fill="#EF3C39"/>
<path id="Vector_38" d="M37.9708 75.2054C37.9372 74.5199 37.9037 73.8344 37.8701 73.1489C38.0947 73.1914 38.1115 73.3641 38.0921 73.5368C38.0289 74.0921 38.2444 74.6668 37.9695 75.2054H37.9708Z" fill="#242021"/>
<path id="Vector_39" d="M39.5156 80.3454C39.4472 80.9008 39.6473 81.4754 39.4008 82.0179C39.4369 81.46 39.242 80.8866 39.5156 80.3454Z" fill="#FEFEFE"/>
<path id="Vector_40" d="M39.5698 60.0342C39.5776 59.8551 39.584 59.676 39.5918 59.4956C39.8163 59.6837 39.8951 59.8667 39.5698 60.0342Z" fill="#0B090A"/>
<path id="Vector_41" d="M20.6921 46.395C20.9025 46.2236 21.0922 46.1592 21.2097 46.4891C21.0367 46.4581 20.8651 46.4259 20.6921 46.395Z" fill="#F6E5CD"/>
<path id="Vector_42" d="M16.4474 12.4331C16.4809 12.5181 16.5132 12.6032 16.5468 12.6882C16.3712 12.6586 16.2499 12.6071 16.4474 12.4331Z" fill="#0B090A"/>
<path id="Vector_43" d="M16.5508 14.6236C16.5198 14.7112 16.4901 14.7975 16.4591 14.8852C16.2488 14.7138 16.3649 14.6571 16.5508 14.6236Z" fill="#0B090A"/>
<path id="Vector_44" d="M27.2898 67.7976C27.2226 67.7976 27.1568 67.7976 27.0897 67.7976C27.0639 67.7538 27.0368 67.7113 27.011 67.6675C27.1646 67.5799 27.2252 67.6932 27.2898 67.7976Z" fill="#0B090A"/>
<path id="Vector_45" d="M40.161 65.9498C40.1119 65.982 40.0642 66.013 40.0139 66.0426C40.0126 66.0426 39.9919 66.0117 39.979 65.9936C40.0358 65.9756 40.0926 65.9563 40.1507 65.9382L40.161 65.9498Z" fill="#345060"/>
<path id="Vector_46" d="M52.863 62.9759C52.8888 62.9488 52.9121 62.9205 52.9301 62.8883C53.0127 62.8857 53.0953 62.8831 53.1779 62.8806C53.0734 62.9128 52.9676 62.9437 52.863 62.9759Z" fill="#0B090A"/>
<path id="Vector_47" d="M27.4033 57.2999C27.4266 57.2497 27.4511 57.1994 27.4743 57.1492C27.5027 57.1762 27.5311 57.2033 27.5595 57.2303C27.5079 57.2535 27.4549 57.2767 27.4033 57.2999Z" fill="#EF3C39"/>
<path id="Vector_48" d="M7.63525 31.8835C7.79013 31.8977 7.80432 32.0085 7.80432 32.1297C7.68301 32.0923 7.65719 31.9892 7.63525 31.8835Z" fill="#F6E5CD"/>
<path id="Vector_49" d="M40.7339 5.08971C40.5997 5.09873 40.4706 5.09873 40.4319 4.92993C40.5455 4.95957 40.6706 4.96472 40.7339 5.08971Z" fill="#F6E5CD"/>
<path id="Vector_50" d="M34.9908 67.7963C34.9031 67.7963 34.8153 67.7963 34.7275 67.7963C34.814 67.6391 34.9018 67.585 34.9908 67.7963Z" fill="#0B090A"/>
<path id="Vector_51" d="M4.48874 28.3787C4.45905 28.3414 4.45518 28.3014 4.47712 28.2589C4.4939 28.286 4.51455 28.3105 4.52616 28.3401C4.52875 28.3465 4.50164 28.3659 4.48874 28.3787Z" fill="#0B090A"/>
<path id="Vector_52" d="M31.9657 46.1102C31.9386 46.1309 31.9102 46.1515 31.8831 46.1721C31.9011 46.1463 31.9179 46.1206 31.936 46.0948L31.9657 46.1115V46.1102Z" fill="#0B090A"/>
<path id="Vector_53" d="M38.4636 83.1776C38.4469 83.1506 38.4275 83.1235 38.4146 83.0939C38.4133 83.09 38.443 83.072 38.4598 83.0616C38.4778 83.1003 38.4791 83.139 38.4636 83.1776Z" fill="#FEFEFE"/>
<path id="Vector_54" d="M26.3477 57.461C26.4044 57.461 26.4612 57.461 26.5167 57.461C26.4599 57.5654 26.4032 57.5654 26.3477 57.461Z" fill="#EF3C39"/>
<path id="Vector_55" d="M25.7371 57.2032C25.7745 57.2496 25.8106 57.2947 25.8481 57.3411C25.8119 57.296 25.7745 57.2496 25.7371 57.2032Z" fill="#EF3C39"/>
<path id="Vector_56" d="M39.4033 82.5449C39.4201 82.572 39.4394 82.599 39.4523 82.6287C39.4536 82.6325 39.4239 82.6506 39.4072 82.6609C39.3891 82.6222 39.3878 82.5836 39.4033 82.5449Z" fill="#FEFEFE"/>
<path id="Vector_57" d="M35.9033 31.4789C35.9949 32.1786 36.4647 32.4363 37.101 32.4943C38.4522 32.6167 39.6473 32.0742 40.8489 31.5872C41.5006 31.323 42.1059 30.9313 42.7719 30.7213C43.967 30.3437 44.0883 28.8155 43.2971 27.9471C41.9239 26.4395 40.5907 24.8868 39.5234 23.1382C38.7284 21.8355 38.1463 20.4478 38.0999 18.8899C38.0947 18.7031 37.9812 18.4235 38.3154 18.3784C38.6032 18.3397 38.731 18.5227 38.8071 18.7753C39.6357 21.5224 41.5626 23.5583 43.3358 25.6883C43.8379 26.2913 44.3567 26.8866 44.9698 27.3943C45.819 28.0965 45.5596 28.3736 45.3724 29.559C45.1646 30.8785 44.1386 31.2689 43.2184 31.8243C41.2877 32.9878 39.2021 33.5754 36.9409 33.7094C35.3083 33.806 35.0102 32.7481 34.9753 31.4596C34.9624 31.006 35.0115 30.4739 35.5135 30.1878C35.5987 30.4468 35.6852 30.7071 35.7704 30.9661C35.7794 31.0499 35.7871 31.1349 35.7962 31.2187C35.7794 31.3269 35.8052 31.4184 35.9033 31.4789Z" fill="#221E1F"/>
<path id="Vector_58" d="M40.8759 39.3081C40.3725 40.2113 39.5169 40.4961 38.5696 40.6288C38.3192 40.6636 38.0753 40.737 37.8288 40.7937C37.6584 40.8156 37.4881 40.8388 37.3177 40.8607C37.1899 40.8672 37.0622 40.8736 36.9344 40.8801C36.3768 40.8801 35.8193 40.8814 35.2605 40.8826C35.1327 40.8749 35.0049 40.8685 34.8772 40.8607C34.6655 40.8311 34.4539 40.8028 34.2422 40.7731C32.3063 40.4948 31.328 39.0284 30.2942 37.6201C30.0194 37.2451 29.6825 36.9165 29.3921 36.5519C29.2618 36.3882 28.9869 36.1563 29.3457 35.9991C29.6102 35.8831 29.9793 35.5971 30.2078 36.1048C30.7356 37.2799 31.6791 37.9925 32.8535 38.4383C33.7956 38.7965 34.7842 38.9395 35.7806 39.0349C36.0787 39.0375 36.3756 39.04 36.6737 39.0426C36.8453 39.0465 37.017 39.0503 37.1886 39.0542C37.621 39.1289 38.052 39.0942 38.4844 39.0542C38.656 39.0503 38.8277 39.0465 38.9993 39.0426C39.5349 39.0465 40.0705 39.0491 40.6061 39.0555C40.7675 39.0568 40.9856 39.0117 40.8746 39.3068L40.8759 39.3081Z" fill="#221E1F"/>
<path id="Vector_59" d="M39.5181 37.1124C37.0079 37.2258 34.5699 36.9333 32.323 35.7273C31.5422 35.3085 30.8878 34.7222 30.5471 33.7893C33.2832 34.9206 36.1006 34.9232 38.9115 34.9013C39.4368 34.8974 39.611 35.0675 39.6149 35.534C39.6187 36.0262 39.62 36.5171 39.6226 37.0094C39.5878 37.0441 39.5529 37.0789 39.5181 37.1137V37.1124Z" fill="#242021"/>
<path id="Vector_60" d="M30.9848 17.7058C31.3152 18.3951 31.6585 19.078 31.9695 19.7751C32.2018 20.2957 32.5787 20.6913 32.9917 21.0598C34.2448 22.1796 33.9248 23.4952 32.3851 24.1278C31.1461 24.6381 29.8645 24.4809 28.6359 23.9668C28.3132 23.8315 28.0551 23.6188 27.9441 23.2619C27.7467 22.6267 28.0861 22.2775 28.7391 22.3368C29.7071 22.4231 30.6557 22.8161 31.6546 22.5004C32.3141 22.2917 32.376 22.2143 32.0224 21.6281C31.9269 21.4709 31.8998 21.2557 31.7011 21.1668C31.4365 20.3795 30.9073 19.6978 30.7822 18.8551C30.7951 18.8422 30.8209 18.8242 30.8183 18.8191C30.8067 18.7907 30.7873 18.7662 30.7705 18.7417C30.6544 18.4956 30.5989 18.2353 30.5937 17.9635C30.6053 17.8771 30.617 17.7921 30.6299 17.7058C30.7473 17.7058 30.866 17.7058 30.9835 17.7045L30.9848 17.7058Z" fill="#242021"/>
<path id="Vector_61" d="M28.1596 11.2025C28.6126 11.5672 29.1856 11.8442 29.0837 12.5864C29.0359 12.9317 28.9366 13.1224 28.5184 13.0322C26.4018 12.5761 24.857 13.469 23.6774 15.1493C23.4257 15.5088 23.1805 15.8786 23.0192 16.2987C22.9572 16.461 22.9017 16.7174 22.6888 16.7265C22.4319 16.7355 22.2745 16.5383 22.2009 16.2922C22.0899 15.2472 22.4423 14.3246 23.0811 13.5412C24.382 11.9486 25.8636 10.6742 28.1596 11.2025Z" fill="#221E1F"/>
<path id="Vector_62" d="M46.4976 32.5252C45.3271 34.748 43.83 36.5004 41.2204 36.9552C40.668 37.0519 40.3699 36.9604 40.4202 36.3238C40.4551 35.8767 40.3363 35.3935 40.4654 34.9838C40.6383 34.4323 41.2501 34.7029 41.6514 34.5959C43.1898 34.1849 44.5385 33.3808 45.9298 32.6631C46.0795 32.5858 46.2111 32.4634 46.4989 32.5252H46.4976Z" fill="#242021"/>
<path id="Vector_63" d="M45.8189 16.9739C46.5184 18.466 47.1598 19.9878 48.0426 21.3871C48.1484 21.5546 48.2556 21.6964 48.1368 21.9051C47.5341 22.9643 45.0213 23.8482 44.0172 23.1821C43.9643 23.1473 43.8959 23.1305 43.8482 23.0906C43.4932 22.7994 43.2932 22.3819 43.3693 21.9683C43.4171 21.708 43.8546 21.7415 44.1218 21.6783C44.8497 21.507 45.6227 21.6783 46.3403 21.3974C46.4461 21.4 46.5003 21.3369 46.5339 21.2467L46.5287 21.2377C46.7133 21.1578 46.6759 21.0779 46.5274 20.9993L46.5455 21.016C46.4616 20.757 46.4152 20.4942 46.308 20.2352C45.8783 19.194 45.584 18.1155 45.6434 16.97H45.6034L45.6189 17.0087C45.686 16.9971 45.7518 16.9855 45.8189 16.9739Z" fill="#221E1F"/>
<path id="Vector_64" d="M7.9231 26.6534C7.69467 25.6883 8.83297 24.5427 9.88352 24.7077C10.565 24.8146 11.1948 25.0633 11.6594 25.6109C11.7059 25.6354 11.751 25.6599 11.7975 25.6844C11.8814 25.79 11.9653 25.8957 12.0492 26.0014C12.7241 27.5244 12.7745 27.8324 12.5331 28.9972C12.0414 28.7112 11.9988 28.1429 11.7033 27.7486C11.6413 27.6649 11.6052 27.5618 11.5626 27.4639C11.3677 27.018 11.0915 26.5554 10.5714 26.6224C9.99968 26.6972 9.84351 27.2474 9.74543 27.7602C9.72994 27.8427 9.70671 27.9226 9.68735 28.005C9.51441 28.054 9.42278 28.1223 9.6254 28.2615C9.61508 28.8181 9.60475 29.3748 9.59314 29.9314C9.49376 29.9701 9.39568 30.0087 9.2963 30.0487C9.07044 29.7458 8.95687 29.407 8.97236 29.0268C9.17627 28.3852 9.17627 27.7422 8.97236 27.1005C8.91299 26.8582 9.06141 26.6547 9.09626 26.4304C9.11562 26.3093 9.35438 26.2153 9.14401 26.0581C8.98914 25.9421 8.8575 25.9743 8.67939 26.0284C8.32835 26.1354 8.16444 26.4343 7.92181 26.6534H7.9231Z" fill="#221E1F"/>
<path id="Vector_65" d="M30.7821 18.8578C30.9072 19.6992 31.4364 20.3821 31.701 21.1694C31.2389 21.1088 30.8143 21.3021 30.3807 21.3949C29.6786 21.5444 29.063 21.3601 28.4628 21.0637C27.8085 20.7403 27.5439 19.9066 27.9789 19.3075C28.6074 18.4403 29.4902 17.9622 30.5936 17.9661C30.5988 18.238 30.6556 18.4983 30.7704 18.7444C30.7511 18.7843 30.755 18.823 30.7821 18.859V18.8578Z" fill="#F6E5CD"/>
<path id="Vector_66" d="M28.1595 11.2025C25.8635 10.6742 24.3819 11.9486 23.081 13.5412C22.4409 14.3234 22.0898 15.246 22.2008 16.2923C21.522 15.6119 21.6136 14.755 21.8188 13.9742C22.3376 11.9976 23.7663 10.8366 25.6222 10.191C26.7153 9.81093 27.7207 10.2709 28.1595 11.2025Z" fill="#F6E5CD"/>
<path id="Vector_67" d="M45.6434 16.97C45.5841 18.1155 45.8783 19.194 46.3081 20.2352C46.4152 20.4955 46.4617 20.7583 46.5456 21.016C46.1881 20.3035 45.726 20.3859 45.1066 20.7261C44.7258 20.9349 44.1993 21.1217 43.7734 20.7686C43.5243 20.5625 43.4468 20.2133 43.5346 19.8873C43.6688 19.3912 43.9115 18.9415 44.2806 18.5768C44.46 18.399 44.6652 18.2199 44.8936 18.1246C45.3053 17.9532 45.5144 17.7019 45.4473 17.2458C45.4279 17.1118 45.4795 16.9919 45.6434 16.97Z" fill="#F6E5CD"/>
<path id="Vector_68" d="M29.3586 34.7634C28.3661 35.1706 28.1235 36.0172 28.037 36.9655C28.0216 37.1382 28.1984 37.4578 27.8293 37.4474C27.575 37.441 27.3685 37.3263 27.3233 36.9849C27.242 36.3767 27.0175 35.7955 27.0033 35.1667C26.9929 34.699 27.2201 34.4735 27.6331 34.4452C28.2229 34.4039 28.8282 34.3679 29.3599 34.7634H29.3586Z" fill="#F6E5CD"/>
<path id="Vector_69" d="M35.7703 30.9661C35.6851 30.7071 35.5986 30.4468 35.5134 30.1878C35.6541 29.742 35.7819 29.291 35.9419 28.8516C36.0619 28.5204 36.2362 28.2202 36.6711 28.2614C37.2261 28.3143 37.4532 28.7189 37.6455 29.1634C37.8326 29.5951 37.4274 29.6543 37.2209 29.8244C36.7459 30.2149 36.2542 30.5872 35.7703 30.9661Z" fill="#F6E5CD"/>
<path id="Vector_70" d="M8.97366 27.1005C9.17757 27.7422 9.17757 28.3851 8.97366 29.0268C8.80717 28.3851 8.82524 27.7422 8.97366 27.1005Z" fill="#242021"/>
<path id="Vector_71" d="M35.2617 40.8827C35.8193 40.8827 36.3768 40.8814 36.9356 40.8801C36.5794 41.1404 35.6257 41.1417 35.2617 40.8827Z" fill="#F6E5CD"/>
<path id="Vector_72" d="M40.876 39.3081C40.9857 39.0117 40.7689 39.0581 40.6075 39.0568C40.0719 39.0504 39.5363 39.0478 39.0007 39.0439C39.5957 38.8133 40.2139 38.9512 40.8192 38.955C41.0954 38.9563 41.147 39.1419 40.876 39.3081Z" fill="#F6E5CD"/>
<path id="Vector_73" d="M38.4857 39.0556C38.0534 39.0955 37.6223 39.1303 37.1899 39.0556C37.6223 38.8636 38.0534 38.8636 38.4857 39.0556Z" fill="#F6E5CD"/>
<path id="Vector_74" d="M9.29736 30.0487C9.39674 30.01 9.49482 29.9713 9.5942 29.9314V30.4507C9.39932 30.3708 9.32447 30.2278 9.29736 30.0487Z" fill="#0B090A"/>
<path id="Vector_75" d="M30.9847 17.7058C30.8673 17.7058 30.7485 17.7058 30.6311 17.7071V17.113C30.8712 17.2664 30.8712 17.5202 30.9847 17.7045V17.7058Z" fill="#0B090A"/>
<path id="Vector_76" d="M36.6736 39.044C36.3755 39.0414 36.0786 39.0388 35.7805 39.0362C36.0799 38.8803 36.3768 38.8713 36.6736 39.044Z" fill="#F6E5CD"/>
<path id="Vector_77" d="M34.2434 40.7731C34.4551 40.8028 34.6667 40.8311 34.8784 40.8608C34.6383 41.036 34.4112 41.1172 34.2434 40.7731Z" fill="#F6E5CD"/>
<path id="Vector_78" d="M9.62531 28.2615C9.42268 28.1223 9.51431 28.054 9.68725 28.0051C9.6666 28.0901 9.64596 28.1752 9.62531 28.2615Z" fill="#0B090A"/>
<path id="Vector_79" d="M37.3176 40.8608C37.488 40.8389 37.6583 40.8157 37.8287 40.7938C37.6932 41.0772 37.5138 41.036 37.3176 40.8608Z" fill="#F6E5CD"/>
<path id="Vector_80" d="M46.534 21.2467C46.5017 21.3369 46.4462 21.4 46.3404 21.3974L46.312 21.2286C46.3856 21.2351 46.4591 21.2402 46.5327 21.2467H46.534Z" fill="#F6E5CD"/>
<path id="Vector_81" d="M12.049 26.0026C11.9651 25.897 11.8813 25.7913 11.7974 25.6857C11.9974 25.6998 12.0645 25.8184 12.049 26.0026Z" fill="#F6E5CD"/>
<path id="Vector_82" d="M45.8189 16.9739C45.7518 16.9855 45.686 16.9971 45.6189 17.0087C45.6434 16.9597 45.6679 16.9094 45.6912 16.8592C45.7338 16.8978 45.7764 16.9352 45.8177 16.9739H45.8189Z" fill="#F6E5CD"/>
<path id="Vector_83" d="M35.9031 31.4789C35.805 31.4171 35.7792 31.3269 35.796 31.2186C35.8321 31.305 35.867 31.3926 35.9031 31.4789Z" fill="#F6E5CD"/>
<path id="Vector_84" d="M46.5261 20.9993C46.6758 21.0779 46.712 21.1565 46.5274 21.2376C46.5274 21.159 46.5274 21.0792 46.5261 20.9993Z" fill="#F6E5CD"/>
<path id="Vector_85" d="M39.5181 37.1124C39.5529 37.0776 39.5878 37.0428 39.6226 37.0081C39.6342 37.0892 39.5994 37.124 39.5181 37.1124Z" fill="#0B090A"/>
<path id="Vector_86" d="M53.6463 67.174C52.0912 67.7744 50.9245 69.2214 49.0195 69.2588C50.2288 67.6713 51.8834 67.2925 53.6463 67.174Z" fill="#242021"/>
<path id="Vector_87" d="M55.4288 72.7482C53.5651 72.8203 51.7957 72.6876 50.0276 72.6219C50.8187 71.6503 53.9678 72.0717 55.4288 72.7482Z" fill="#242021"/>
<path id="Vector_88" d="M50.0791 70.4288C50.8986 69.5307 53.5495 69.3993 54.8866 70.1647C53.2914 70.3515 51.7285 70.5499 50.0791 70.4288Z" fill="#221E1F"/>
<path id="Vector_89" d="M38.3889 81.1829C38.4883 81.2783 38.4986 81.3826 38.4212 81.4973C38.4109 81.393 38.3992 81.2886 38.3889 81.1829Z" fill="#221E1F"/>
<path id="Vector_90" d="M38.1088 56.3258C38.083 56.7227 37.8739 57.0087 37.4648 57.0409C37.0079 57.0757 36.7691 56.7433 36.7343 56.3464C36.6969 55.9212 37.004 55.6906 37.4015 55.6777C37.8016 55.6648 38.0688 55.8774 38.1088 56.3258Z" fill="#221E1F"/>
<path id="Vector_91" d="M38.7735 59.6412C38.7193 59.9105 38.5709 60.2442 38.1695 60.2352C37.7578 60.2262 37.4506 60.0136 37.4416 59.5226C37.4326 59.06 37.7526 58.917 38.0946 58.8912C38.5154 58.859 38.7748 59.1026 38.7748 59.6412H38.7735Z" fill="#221E1F"/>
<path id="Vector_92" d="M30.7821 18.8577C30.7562 18.8216 30.7524 18.7843 30.7704 18.743C30.7872 18.7688 30.8066 18.7933 30.8182 18.8204C30.8208 18.8268 30.795 18.8448 30.7821 18.8564V18.8577Z" fill="#0B090A"/>
</g>
<defs>
<clipPath id="clip0_331_260">
<rect width="60" height="94" fill="white"/>
</clipPath>
</defs>
</svg>
