<svg width="41" height="90" viewBox="0 0 41 90" fill="none" xmlns="http://www.w3.org/2000/svg">
<g id="Isolation_Mode" clip-path="url(#clip0_331_250)">
<path id="Vector" d="M22.6507 88.5851C22.6471 89.0556 22.64 89.5296 22.6364 90H20.4928C20.0605 88.5781 20.1355 87.0995 20.0248 85.6422C19.8462 83.3006 19.4567 80.9979 18.7136 78.7589C19.5746 77.6305 19.4853 76.2333 19.8176 74.9564C20.3142 73.0569 19.9212 71.0054 20.8251 69.1766C20.9573 71.2777 21.2073 73.3611 21.9183 75.3561C22.3113 76.4597 22.765 77.5491 23.9797 78.055C21.9076 81.3622 22.4721 84.9984 22.6507 88.5851Z" fill="#9A987B"/>
<path id="Vector_2" d="M20.8251 69.1731C19.9212 71.0018 20.3142 73.0534 19.8176 74.9528C19.4818 76.2298 19.5711 77.6269 18.7136 78.7553C5.20537 68.4373 -3.5048 52.5377 1.36475 31.6012C3.87991 20.7986 9.01384 11.5277 17.624 4.27645C18.7279 3.34617 19.6497 2.28148 19.8462 0.77818C19.8926 0.410313 19.9962 0.0848923 20.425 0C20.5893 0.647304 20.7536 1.29107 20.9216 1.93837C20.3642 2.70948 20.5214 3.60085 20.4928 4.46038C20.4928 8.11429 20.4928 11.7682 20.4893 15.4186C20.4893 15.6485 20.4893 15.8784 20.4893 16.1083C20.4893 32.5138 20.4893 48.9192 20.4964 65.3282C20.4964 66.2584 20.3249 67.2206 20.8501 68.0872L20.8251 69.1695V69.1731Z" fill="#4C9345"/>
<path id="Vector_3" d="M20.493 4.46036C20.518 3.60083 20.3643 2.70946 20.9217 1.93835C21.5826 2.90754 22.2436 3.87319 22.9045 4.84238C23.3761 5.91061 24.2085 6.6711 25.0946 7.38561C25.7877 8.11781 26.4772 8.84647 27.1703 9.57866C27.7776 10.2543 28.385 10.9299 28.9923 11.609L28.9709 11.5913C29.4604 12.2068 29.9498 12.8223 30.4393 13.4342C32.6793 16.6742 34.6943 20.0416 36.3949 23.593C36.6593 24.1801 36.9201 24.7673 37.1845 25.3545C37.4131 26.3414 37.7561 27.2858 38.2527 28.1736C38.3456 28.9306 38.5778 29.6451 38.9565 30.3101C39.053 30.6638 39.1459 31.0175 39.2423 31.3677C40.0855 34.4839 40.675 37.6462 40.9251 40.865C40.9501 41.2187 40.9751 41.5724 41.0037 41.9262C41.0037 43.2208 41.0037 44.5189 41.0037 45.8135C40.9537 46.758 40.9036 47.6988 40.8572 48.6433C40.5214 50.5286 40.182 52.4139 39.8461 54.2992C39.7604 54.6211 39.6782 54.9465 39.5925 55.2684C39.2066 56.4781 38.8208 57.6878 38.4385 58.894C38.2741 59.3574 38.1134 59.8243 37.949 60.2877C37.8454 60.5282 37.7382 60.7687 37.6346 61.0093C36.67 62.8557 35.7054 64.7021 34.7372 66.5485C32.1684 70.3226 29.2317 73.7785 25.8055 76.8204C25.5126 77.0468 25.2196 77.2732 24.9231 77.496C24.6122 77.6835 24.2978 77.8675 23.987 78.0549C22.7723 77.5491 22.3186 76.4597 21.9256 75.3561C21.2146 73.3611 20.9645 71.2742 20.8324 69.1766C20.8395 68.8158 20.8466 68.455 20.8574 68.0907C21.086 63.7576 21.4611 59.4246 21.5076 55.0916C21.5612 50.0688 21.2718 45.0424 21.2325 40.0161C21.1789 32.8462 21.2218 25.6764 21.2039 18.5065C21.2039 17.6611 21.4647 16.699 20.4965 16.1154C20.4965 15.8855 20.4965 15.6555 20.4965 15.4256C21.5183 14.7748 21.2932 13.7313 21.1467 12.8612C20.7895 10.753 20.8824 8.64131 20.8538 6.52608C20.8431 5.82218 20.8895 5.10767 20.5001 4.46744L20.493 4.46036Z" fill="#499C49"/>
<path id="Vector_4" d="M20.4893 16.1119C21.4575 16.6955 21.1932 17.6576 21.1967 18.503C21.2146 25.6729 21.1717 32.8427 21.2253 40.0126C21.2646 45.0389 21.554 50.0653 21.5004 55.0881C21.454 59.4246 21.0788 63.7541 20.8502 68.0872C20.325 67.2206 20.4965 66.2549 20.4965 65.3282C20.4893 48.9227 20.4893 32.5173 20.4893 16.1083V16.1119Z" fill="#57A851"/>
<path id="Vector_5" d="M20.4928 4.46039C20.8823 5.10062 20.8358 5.81513 20.8465 6.51903C20.8751 8.63426 20.7822 10.746 21.1395 12.8541C21.286 13.7243 21.5075 14.7677 20.4893 15.4186C20.4893 11.7647 20.4893 8.11076 20.4928 4.46039Z" fill="#57A851"/>
</g>
<defs>
<clipPath id="clip0_331_250">
<rect width="41" height="90" fill="white"/>
</clipPath>
</defs>
</svg>
