<svg width="63" height="71" viewBox="0 0 63 71" fill="none" xmlns="http://www.w3.org/2000/svg">
<g id="Layer_1" clip-path="url(#clip0_330_192)">
<path id="Vector" d="M30.1122 71C30.1011 70.9404 30.1095 70.8405 30.0775 70.8266C26.7734 69.3493 23.8426 67.2199 20.694 65.4706C20.351 65.2806 20.0067 65.0836 19.6916 64.8533C19.2223 64.5107 19.2515 64.2166 19.8013 64.0335C21.1216 63.5924 22.3974 63.0569 23.5886 62.3356C23.9704 62.1053 24.2841 62.244 24.6187 62.4451C26.6193 63.6479 28.6351 64.827 30.6245 66.0491C31.184 66.3931 31.6421 66.4139 32.2211 66.0768C40.5953 61.2105 48.9752 56.3567 57.3703 51.5251C58.0477 51.1352 58.2754 50.6678 58.274 49.9131C58.256 40.2998 58.2532 30.6878 58.2768 21.0745C58.2782 20.2505 57.9922 19.7858 57.2772 19.3765C48.9321 14.599 40.6023 9.79511 32.2794 4.97873C31.6893 4.63748 31.2229 4.61251 30.6204 4.96208C22.2391 9.81592 13.8482 14.6517 5.44756 19.4723C4.84643 19.8177 4.6118 20.2366 4.61319 20.9136C4.62569 30.6185 4.62569 40.3234 4.61319 50.0296C4.61319 50.7038 4.82421 51.1352 5.43646 51.4779C7.59666 52.6834 9.72494 53.943 11.8685 55.1776C12.8472 55.7408 13.8843 56.0848 15.0338 56.0529C16.9525 56.0002 18.3449 54.6269 18.3866 52.707C18.4032 51.9454 18.3908 51.1824 18.3908 50.4195C18.3908 41.5455 18.3908 32.6729 18.3908 23.799C18.3908 22.3785 18.506 22.2675 19.9401 22.2661C20.7037 22.2661 21.4659 22.2564 22.2294 22.2716C23.0194 22.2883 23.2831 22.5422 23.2831 23.3121C23.2873 33.2486 23.3151 43.1852 23.2707 53.1203C23.254 57.0198 21.3506 59.704 18.1214 60.5474C16.0903 61.0774 14.0454 61.0385 12.0462 60.3088C10.8273 59.8636 9.66246 59.3045 8.53932 58.6525C6.74008 57.608 4.93806 56.5662 3.12076 55.5563C1.76994 54.8058 0.778687 53.7723 0.277508 52.2936C0.234471 52.1659 0.258072 51.9357 -0.00292969 52.0023V18.9978C0.265014 19.1144 0.248354 18.8647 0.290003 18.7454C0.80923 17.243 1.8574 16.2415 3.21517 15.4632C8.44908 12.4613 13.6469 9.3956 18.8905 6.41033C22.5446 4.33091 26.0792 2.03924 29.8762 0.215064C29.9692 0.170674 30.0178 0.106862 29.9706 0.00143433H33.0235C33.3414 0.536896 33.9773 0.506377 34.4438 0.786593C36.3804 1.95323 38.3518 3.063 40.3093 4.19635C46.8608 7.98758 53.408 11.7844 59.965 15.5687C61.2325 16.2997 62.1793 17.2846 62.6847 18.6732C62.7347 18.8092 62.7041 19.0741 62.9971 18.9992V52.0036C62.8388 51.9468 62.793 52.0661 62.7611 52.1715C62.2529 53.8181 61.1034 54.8668 59.6443 55.7061C52.482 59.8233 45.3489 63.9891 38.1852 68.1036C36.5304 69.0538 34.9838 70.2177 33.1262 70.792C33.0277 70.8225 32.9819 70.896 33.0235 71.0028H30.1095L30.1122 71Z" fill="#529C42"/>
<path id="Vector_2" d="M39.3627 50.3043C36.5486 50.2807 33.7692 50.0282 31.1481 48.9018C27.7315 47.4341 25.9281 44.8373 25.7809 41.1126C25.742 40.1166 25.9725 39.8753 26.9748 39.8669C27.8772 39.8586 28.7782 39.8725 29.6806 39.8642C30.2818 39.8586 30.658 40.0875 30.6899 40.7367C30.6969 40.8727 30.751 41.0072 30.7746 41.1432C31.1411 43.3558 32.4503 44.7166 34.6133 45.1855C37.7675 45.8694 40.9426 45.8694 44.1093 45.2271C44.7466 45.0981 45.3463 44.8442 45.8947 44.4877C47.1331 43.6831 47.7259 42.0698 47.308 40.6535C47.1247 40.0306 46.6749 39.6491 46.1279 39.3592C45.1769 38.8557 44.1413 38.6171 43.0986 38.402C40.4456 37.8541 37.7287 37.7625 35.0631 37.302C33.8317 37.0897 32.6169 36.8151 31.4424 36.3739C27.6801 34.9618 26.0655 32.1027 26.8443 28.1617C27.4135 25.2777 29.2905 23.5256 31.9103 22.4727C34.7466 21.3325 37.7203 21.2395 40.7191 21.4379C43.0459 21.5919 45.3158 21.9983 47.3621 23.1955C50.1082 24.8019 51.248 27.3529 51.5007 30.3937C51.5479 30.9694 51.2452 31.319 50.6385 31.3245C49.6209 31.3328 48.6033 31.3217 47.587 31.3301C47.0997 31.3342 46.8026 31.1095 46.6749 30.6476C46.6194 30.4464 46.568 30.2453 46.5139 30.0455C45.978 28.0424 44.6799 26.8105 42.6696 26.3847C40.1318 25.8464 37.5759 25.8353 35.0256 26.3306C34.3634 26.4596 33.7373 26.6982 33.1681 27.0699C32.0477 27.7996 31.5438 29.2062 31.9422 30.4783C32.1671 31.1983 32.7557 31.5201 33.393 31.7601C34.7868 32.2845 36.2529 32.5009 37.7148 32.7311C40.3165 33.1418 42.9473 33.3679 45.5185 33.9699C46.4431 34.1863 47.3524 34.4485 48.234 34.8022C51.3341 36.0493 52.7543 38.2855 52.5697 41.6273C52.3517 45.5614 50.0221 48.2748 45.8114 49.5025C43.7053 50.117 41.5507 50.3237 39.3655 50.3029L39.3627 50.3043Z" fill="#529C42"/>
</g>
<defs>
<clipPath id="clip0_330_192">
<rect width="63" height="71" fill="white"/>
</clipPath>
</defs>
</svg>
