<svg width="91" height="97" viewBox="0 0 91 97" fill="none" xmlns="http://www.w3.org/2000/svg">
<g id="Layer_1" clip-path="url(#clip0_332_441)">
<path id="Vector" d="M29.3757 67.8702V40.4407C29.6565 40.3304 29.8216 40.5147 29.9984 40.6029C33.9086 42.5474 37.8122 44.5047 41.725 46.4414C42.1215 46.6374 42.2788 46.8554 42.2788 47.3175C42.2645 63.5569 42.2671 79.7962 42.2619 96.0356C42.2619 96.2329 42.388 96.5081 42.1462 96.6171C41.9616 96.7002 41.7978 96.4899 41.6366 96.3925C38.4024 94.4248 35.2072 92.3882 31.9236 90.5048C29.8294 89.3041 28.458 87.5505 27.3816 85.488C22.1754 75.5037 16.977 65.5156 11.7747 55.5287C11.7071 55.3989 11.6265 55.2769 11.464 55.0017V80.4336C11.2041 80.5647 11.0702 80.4115 10.9285 80.3362C7.43818 78.4736 3.95177 76.6044 0.460174 74.7444C0.17419 74.5912 0 74.4472 0 74.0681C0.0142992 57.8508 0.0142992 41.6336 0.018199 25.415C0.018199 25.3942 0.0259985 25.3721 0.0311982 25.3384C0.267785 25.2527 0.428976 25.4383 0.604465 25.5266C4.00117 27.2478 7.39008 28.9845 10.7894 30.6992C11.633 31.1249 12.2167 31.7064 12.6314 32.5916C18.0781 44.1932 23.5599 55.7792 29.0364 67.3665C29.1144 67.5301 29.1404 67.7365 29.3744 67.8689L29.3757 67.8702Z" fill="#4D77CE"/>
<path id="Vector_2" d="M49.0111 97V96.3562C49.0111 89.6533 49.0176 82.9504 48.9981 76.2475C48.9968 75.7413 49.1488 75.4894 49.6038 75.2649C55.551 72.3171 61.4864 69.346 67.4258 66.3813C68.094 66.0478 68.0966 66.0503 68.0966 66.7876C68.1005 73.4905 68.1018 80.1934 68.1135 86.8963C68.1135 87.2857 68.0758 87.5609 67.6559 87.7686C61.5488 90.7865 55.4535 93.8264 49.3542 96.8598C49.2788 96.8975 49.1969 96.9234 49.0098 96.9987L49.0111 97Z" fill="#4DABCE"/>
<path id="Vector_3" d="M68.0785 37.3138C68.0785 37.5929 68.0785 37.7811 68.0785 37.9693C68.0837 44.6306 68.0849 51.2907 68.1005 57.9521C68.1005 58.3623 68.0135 58.5972 67.6079 58.7971C61.5918 61.7604 55.5862 64.7458 49.5792 67.7248C49.4284 67.8001 49.2711 67.8637 49.1073 67.9363C48.9591 67.765 49.015 67.5859 49.015 67.4262C49.0111 60.722 49.015 54.0178 49.0046 47.3136C49.0046 46.9307 49.0787 46.6958 49.4609 46.5076C55.5329 43.5105 61.597 40.4965 67.6625 37.4864C67.7587 37.4384 67.8601 37.4046 68.0797 37.3138H68.0785Z" fill="#4DABCE"/>
<path id="Vector_4" d="M74.7248 84.1926C74.7248 83.9031 74.7248 83.6942 74.7248 83.4839C74.7222 76.8017 74.7261 70.1196 74.7053 63.4388C74.704 62.9326 74.8548 62.6833 75.3111 62.4549C80.3041 59.9627 85.2854 57.4433 90.2706 54.9329C90.4786 54.8278 90.6918 54.7356 90.9063 54.6344C91.0454 54.8706 90.9843 55.0887 90.9843 55.2951C90.9882 62.0201 90.983 68.745 90.9986 75.47C90.9986 75.9412 90.8725 76.193 90.4331 76.4097C85.4089 78.8928 80.3977 81.4019 75.3826 83.9005C75.1941 83.994 74.9978 84.0706 74.7248 84.1913V84.1926Z" fill="#4DABCE"/>
<path id="Vector_5" d="M74.7769 55.1756C74.6638 54.9745 74.7171 54.7551 74.7171 54.5474C74.7106 47.9094 74.7132 41.2727 74.6924 34.6347C74.6911 34.1583 74.8276 33.9195 75.2644 33.704C80.2522 31.2495 85.227 28.769 90.2057 26.2963C90.7265 26.0376 90.9874 26.1881 90.9883 26.748C90.9883 33.2991 90.987 39.8501 90.9935 46.4011C90.9935 46.7879 90.9623 47.067 90.5411 47.2786C85.4402 49.8447 80.351 52.4356 75.2579 55.0173C75.1084 55.0926 74.9706 55.2159 74.7756 55.1769L74.7769 55.1756Z" fill="#4DABCE"/>
<path id="Vector_6" d="M63.0166 31.9699C62.884 32.1931 62.6812 32.2308 62.5148 32.3151C57.0031 35.0799 51.4875 37.8395 45.9771 40.6042C45.6795 40.7535 45.4325 40.8586 45.0776 40.6795C39.7882 38.0056 34.4897 35.3512 29.1951 32.689C29.0833 32.6332 28.9819 32.5553 28.8181 32.4514C29.9192 31.8725 30.9682 31.3196 32.0198 30.7692C36.5826 28.3835 41.1466 26.0003 45.7067 23.6107C45.9472 23.4848 46.1474 23.4173 46.4269 23.5588C51.9269 26.3456 57.4321 29.1195 62.9373 31.8985C62.9555 31.9076 62.9698 31.927 63.0179 31.9699H63.0166Z" fill="#4DABCE"/>
<path id="Vector_7" d="M4.66797 20.3371C4.90586 20.2099 5.07355 20.1152 5.24384 20.0295C10.7984 17.2583 16.3556 14.4922 21.9037 11.7106C22.2703 11.5263 22.5445 11.5146 22.9189 11.7041C27.934 14.2482 32.9583 16.7715 37.9786 19.3052C38.1593 19.3961 38.4543 19.4298 38.4556 19.6661C38.4556 19.866 38.1749 19.901 38.0098 19.9867C32.5852 22.8215 27.158 25.6499 21.7334 28.4847C21.45 28.6327 21.2069 28.695 20.8858 28.534C15.5379 25.8368 10.1836 23.1512 4.83176 20.463C4.79406 20.4436 4.76416 20.4111 4.66797 20.3358V20.3371Z" fill="#4DABCE"/>
<path id="Vector_8" d="M53.6843 19.5869C55.5289 18.6121 57.3033 17.671 59.0816 16.7352C62.2001 15.0919 65.32 13.4525 68.4372 11.8092C68.6699 11.6872 68.8675 11.586 69.156 11.7314C74.8367 14.5844 80.5226 17.4244 86.1968 20.2632C86.2722 20.5267 86.0447 20.5098 85.9459 20.5604C81.0413 23.0318 76.1314 25.4928 71.2268 27.9642C70.8875 28.1356 70.6055 28.1498 70.2558 27.9733C64.8143 25.2215 59.3676 22.4815 53.9222 19.7388C53.865 19.7102 53.813 19.67 53.6843 19.5895V19.5869Z" fill="#4DABCE"/>
<path id="Vector_9" d="M61.3384 7.81013C59.0544 9.03026 56.8445 10.2114 54.6346 11.3913C52.0023 12.7958 49.3673 14.1937 46.7402 15.606C46.4126 15.7825 46.1383 15.8383 45.777 15.6553C40.6474 13.0567 35.5101 10.4736 30.3754 7.88542C30.2818 7.83869 30.1947 7.77768 30.0479 7.68812C30.2376 7.58428 30.3767 7.5025 30.5197 7.43111C35.3762 5.00903 40.2328 2.58955 45.0893 0.166172C45.3623 0.0298818 45.5924 -0.0830447 45.9264 0.0856961C51.0235 2.65185 56.1296 5.20244 61.3397 7.81143L61.3384 7.81013Z" fill="#4DABCE"/>
</g>
<defs>
<clipPath id="clip0_332_441">
<rect width="91" height="97" fill="white"/>
</clipPath>
</defs>
</svg>
