<svg width="57" height="63" viewBox="0 0 57 63" fill="none" xmlns="http://www.w3.org/2000/svg">
<g id="Group 59">
<path id="Vector" d="M18.0147 15.9751C20.9959 15.9751 23.9771 15.9604 26.9583 15.9848C27.5992 15.9897 27.9572 15.909 27.9594 15.0236C27.9594 14.0819 27.5108 14.1014 26.9141 14.1014C23.0865 14.1137 19.2589 14.0892 15.4313 14.1235C14.6865 14.1308 14.3838 13.9449 14.4235 13.0497C14.5208 10.9364 14.3683 8.81817 14.5318 6.70241C14.7396 4.03386 16.0279 2.37795 18.2489 1.48762C20.3462 0.648652 22.5362 0.340461 24.7351 0.152122C28.1981 -0.146286 31.6544 -0.0337716 35.0644 0.741599C39.1947 1.68085 41.3781 4.71384 41.3781 9.35628C41.3781 13.7566 41.3848 18.1544 41.3781 22.5547C41.3715 26.9305 38.4389 30.2008 34.4787 30.2203C30.282 30.2399 26.081 30.3769 21.8931 30.1861C16.5628 29.9464 12.3948 34.8872 12.7639 40.2855C12.8744 41.9047 12.7263 43.5459 12.8014 45.1701C12.8456 46.1313 12.5296 46.3466 11.7318 46.3001C10.5584 46.2316 9.37603 46.2683 8.20035 46.283C5.50422 46.3197 3.56832 44.9279 2.24677 42.4061C0.982689 39.992 0.626889 37.2818 0.23794 34.5888C-0.314545 30.7731 0.156172 27.0333 1.02247 23.3447C2.13407 18.6094 5.28102 15.9799 9.73404 15.9726C12.4943 15.9702 15.2545 15.9726 18.0147 15.9726V15.9751ZM20.3484 4.62823C18.9495 4.62334 17.8556 5.84388 17.8423 7.42152C17.829 8.99672 18.9031 10.2515 20.2931 10.2833C21.7119 10.3175 22.8964 9.00651 22.881 7.41908C22.8655 5.87323 21.7384 4.63068 20.3484 4.62579V4.62823Z" fill="#37678F"/>
<path id="Vector_2" d="M39.3091 46.3225C36.0444 46.3225 32.7796 46.3372 29.5149 46.3127C28.854 46.3078 28.528 46.4329 28.5147 47.3012C28.5015 48.2063 28.8782 48.2701 29.5127 48.2652C33.2907 48.2431 37.0709 48.2873 40.849 48.2259C41.7918 48.2112 42.0341 48.5424 41.9813 49.5358C41.9086 50.9192 41.9328 52.3125 41.9703 53.7008C42.0386 56.2665 41.0208 58.1822 39.1637 59.5804C36.4673 61.6114 33.3678 62.3055 30.2154 62.6244C26.6555 62.985 23.1859 62.335 19.8969 60.7553C16.7643 59.2517 14.9249 56.8233 15.0769 52.727C15.2377 48.4443 15.1099 44.1517 15.1121 39.8616C15.1143 35.4488 18.1015 32.1031 22.0602 32.0908C26.2413 32.0786 30.4247 32.0957 34.6059 32.0859C40.0097 32.0737 43.6599 28.0215 43.6731 22.0315C43.6775 20.2753 43.6775 18.519 43.6753 16.7627C43.6753 16.3384 43.6555 15.9214 44.2106 15.9312C46.006 15.9631 47.8124 15.8478 49.5946 16.0391C52.3439 16.3359 53.8771 18.4332 54.7186 21.1117C56.8599 27.916 57.2586 34.7179 54.5138 41.5075C53.2008 44.7551 51.249 46.5555 47.8873 46.3544C45.0345 46.1851 42.1663 46.32 39.3047 46.32L39.3091 46.3225ZM36.0532 52.0991C34.6697 52.1211 33.5815 53.3623 33.5859 54.915C33.5903 56.4824 34.7931 57.8094 36.1721 57.7652C37.5842 57.7186 38.6681 56.4039 38.6284 54.785C38.5888 53.2396 37.4719 52.0745 36.0532 52.0991Z" fill="#F2BB32"/>
</g>
</svg>
