<svg width="63" height="54" viewBox="0 0 63 54" fill="none" xmlns="http://www.w3.org/2000/svg">
<g id="Layer_1" clip-path="url(#clip0_330_195)">
<path id="Vector" d="M42.265 0H45.6726C46.259 0.220933 46.8586 0.406546 47.3977 0.736442C49.0872 1.76821 49.9649 3.33353 50.4529 5.13706C50.9084 6.8196 50.9796 8.53521 50.8828 10.2711C50.7658 12.3647 50.4025 14.4147 49.8897 16.4445C49.8154 16.739 49.8487 16.8856 50.1911 16.981C52.202 17.5424 54.1642 18.2322 56.038 19.146C58.0234 20.1139 59.874 21.2606 61.3132 22.9417C62.2869 24.0787 62.9198 25.3689 62.9926 26.8568C63.067 28.3786 62.5209 29.7282 61.5898 30.9381C60.2938 32.6214 58.5571 33.7779 56.6802 34.7586C54.6158 35.8377 52.4267 36.617 50.1802 37.2504C49.9006 37.3294 49.7999 37.4376 49.8719 37.7209C50.4018 39.7859 50.7674 41.8727 50.8844 44.0047C50.9928 45.9841 50.8774 47.9311 50.2252 49.8181C49.7 51.3383 48.8331 52.6346 47.3838 53.4928C47.0786 53.6739 46.7587 53.8324 46.4457 54.0015H41.3339C41.2565 53.9617 41.1829 53.9091 41.1 53.8828C39.4438 53.3605 37.9356 52.5542 36.4979 51.6178C34.7929 50.5072 33.2228 49.2342 31.7595 47.8379C31.5542 47.6425 31.4396 47.6365 31.2366 47.8372C30.8307 48.2377 30.4 48.6157 29.967 48.9892C28.0908 50.6041 26.0876 52.0424 23.8304 53.1283C23.127 53.4665 22.3756 53.6889 21.6622 54.0023H16.5504C16.2374 53.8332 15.9167 53.6754 15.6123 53.4928C13.9027 52.4662 13.0281 50.8829 12.537 49.0651C12.0823 47.381 12.018 45.6662 12.1156 43.9303C12.2326 41.8495 12.5943 39.8115 13.1056 37.7945C13.1877 37.4721 13.1288 37.3369 12.7802 37.2392C10.7701 36.6763 8.80715 35.9857 6.93564 35.0704C4.96343 34.1063 3.12446 32.9648 1.69216 31.295C0.728522 30.1671 0.0948732 28.8911 0.00888908 27.4182C-0.0809682 25.8814 0.464372 24.519 1.40168 23.2971C2.69531 21.6116 4.43203 20.4536 6.30742 19.4721C8.37104 18.3923 10.5601 17.6115 12.8066 16.9787C13.1056 16.8946 13.197 16.7804 13.1195 16.4798C12.5928 14.4275 12.2303 12.3519 12.1133 10.2335C12.0041 8.26769 12.1179 6.33491 12.757 4.45548C13.2102 3.12312 13.9329 1.95834 15.091 1.07761C15.7618 0.568113 16.5357 0.267524 17.3273 0C18.4629 0 19.5985 0 20.7349 0C20.8046 0.027053 20.872 0.0631236 20.9441 0.0804075C22.3942 0.428339 23.7444 1.00472 25.0365 1.72538C27.3201 2.99987 29.3411 4.60276 31.225 6.37548C31.4419 6.57913 31.562 6.58364 31.7758 6.37548C32.6395 5.53233 33.5667 4.75606 34.5249 4.01586C36.1238 2.78195 37.8132 1.69006 39.6832 0.870956C40.5175 0.504989 41.3967 0.27053 42.265 0ZM31.5077 36.8642C32.8099 36.8642 34.1128 36.8755 35.415 36.8589C35.9286 36.8522 36.4414 36.7748 36.9557 36.7485C37.1765 36.7372 37.3004 36.635 37.4174 36.4674C39.4469 33.5487 41.2472 30.5015 42.846 27.3415C42.9281 27.1785 42.9304 27.0507 42.8483 26.8869C41.251 23.7262 39.4493 20.6812 37.4205 17.7618C37.3043 17.595 37.1796 17.5018 36.9611 17.4755C35.7039 17.3267 34.4382 17.3432 33.1778 17.2981C30.9082 17.217 28.6393 17.3297 26.3719 17.4304C25.9606 17.4484 25.6825 17.5995 25.4377 17.9572C23.4911 20.8082 21.7358 23.7638 20.1826 26.8335C20.0804 27.0349 20.078 27.186 20.1803 27.3889C21.7334 30.4586 23.4895 33.4134 25.4346 36.266C25.6887 36.6387 25.9807 36.7823 26.4052 36.7981C28.1055 36.8619 29.8059 36.9514 31.5085 36.8649L31.5077 36.8642ZM60.238 27.1048C60.2466 26.5788 60.1079 26.0918 59.8654 25.6259C59.2031 24.3522 58.1186 23.4715 56.9288 22.705C54.6057 21.2095 52.0285 20.2717 49.3715 19.5105C49.0586 19.421 49.0005 19.5555 48.9269 19.7825C48.136 22.2173 47.1708 24.5874 46.0747 26.9072C45.9941 27.0778 46.0282 27.2078 46.1018 27.3648C47.1623 29.6313 48.1104 31.9405 48.8866 34.3144C48.9935 34.6421 49.2225 34.7561 49.5737 34.6564C51.2206 34.1852 52.8333 33.6231 54.3841 32.9069C56.0093 32.1562 57.5609 31.2868 58.8189 30.01C59.6168 29.1999 60.2404 28.2914 60.2396 27.1056L60.238 27.1048ZM2.76348 27.1882C2.74954 27.6286 2.88742 28.1291 3.13995 28.6055C3.87507 29.9942 5.0897 30.9155 6.40502 31.7271C8.61117 33.0873 11.0404 33.9522 13.5247 34.6917C13.8949 34.8022 14.0003 34.6849 14.1041 34.3625C14.8779 31.9623 15.8346 29.6298 16.9121 27.3423C16.9803 27.1973 17.0059 27.0733 16.9323 26.9177C15.8276 24.5882 14.8601 22.206 14.0692 19.7577C13.9848 19.4954 13.8794 19.4383 13.6052 19.5165C11.5594 20.0989 9.56164 20.803 7.67852 21.7769C6.2284 22.5269 4.84879 23.382 3.79761 24.6438C3.20269 25.3577 2.75883 26.1362 2.76503 27.1875L2.76348 27.1882ZM14.8268 45.3881C14.7989 46.4417 14.9306 47.7808 15.4093 49.0681C16.0035 50.6642 17.0903 51.826 19.284 51.6862C20.2934 51.6223 21.2338 51.3428 22.1424 50.946C24.849 49.7632 27.1109 47.9747 29.2551 46.0239C29.534 45.7699 29.5076 45.6031 29.2729 45.3573C27.5207 43.5177 25.9327 41.5496 24.4315 39.5139C24.3222 39.3651 24.2022 39.2787 23.9954 39.2591C22.2912 39.0991 20.5924 38.8879 18.906 38.6023C18.0315 38.4543 17.1639 38.2679 16.2916 38.1049C16.0848 38.0665 15.864 37.9726 15.7827 38.3063C15.242 40.5359 14.8245 42.7813 14.8268 45.3889V45.3881ZM14.8276 8.85835C14.8206 11.4299 15.242 13.6745 15.7788 15.9056C15.8424 16.1694 15.9919 16.1822 16.2018 16.1401C16.593 16.062 16.9834 15.9815 17.3738 15.9019C19.3158 15.5059 21.2795 15.2331 23.2517 15.0452C23.9419 14.9791 24.4051 14.7957 24.8219 14.2148C26.1628 12.3467 27.6446 10.5815 29.2326 8.90193C29.5897 8.52469 29.5804 8.51868 29.204 8.16399C28.5285 7.52749 27.822 6.92556 27.0916 6.34843C25.4253 5.03261 23.6646 3.86256 21.6575 3.07878C20.5769 2.65645 19.456 2.41147 18.2941 2.56853C16.7425 2.77819 15.9128 3.80545 15.414 5.14232C14.9345 6.42884 14.7982 7.76796 14.8276 8.8576V8.85835ZM48.1716 45.319C48.1863 42.7978 47.7533 40.5419 47.218 38.2987C47.1599 38.0538 47.0097 38.0448 46.8168 38.0823C46.438 38.156 46.0607 38.2356 45.6819 38.3108C43.6121 38.7218 41.5245 39.0217 39.4206 39.2065C38.9767 39.2456 38.6003 39.3313 38.3818 39.7619C38.2803 39.961 38.1177 40.1308 37.979 40.3112C36.659 42.0403 35.2802 43.7229 33.7797 45.3092C33.4118 45.6985 33.418 45.7038 33.813 46.0742C34.6109 46.8219 35.4467 47.5276 36.3182 48.1934C37.9039 49.4055 39.5778 50.4756 41.4734 51.1902C42.5121 51.5818 43.5835 51.8012 44.6904 51.6569C46.2443 51.4548 47.0794 50.4328 47.5813 49.0966C48.0647 47.8109 48.201 46.4725 48.1716 45.319ZM48.1732 9.12512C48.1639 8.4751 48.167 7.82658 48.074 7.17956C47.9299 6.18311 47.713 5.2107 47.2049 4.32171C46.5937 3.25162 45.6897 2.61738 44.3984 2.54223C43.1257 2.46783 41.949 2.79998 40.8103 3.30121C38.12 4.48629 35.8712 6.26878 33.7379 8.21058C33.4768 8.44804 33.4799 8.6066 33.7116 8.84933C35.4723 10.6972 37.0711 12.6721 38.5762 14.7198C38.6878 14.8724 38.8156 14.9468 39.0178 14.9663C40.3881 15.0963 41.7553 15.2564 43.1156 15.466C44.3356 15.6547 45.5533 15.8576 46.7571 16.1333C47.0073 16.1905 47.1576 16.1521 47.2281 15.8636C47.7688 13.646 48.1778 11.4134 48.1739 9.12437L48.1732 9.12512ZM27.846 14.6845C30.3102 14.6124 32.6906 14.6124 35.0989 14.6838C35.0695 14.6146 35.0594 14.565 35.0308 14.5282C33.9587 13.1688 32.837 11.8492 31.6518 10.5807C31.469 10.3846 31.407 10.5349 31.3017 10.6431C30.5425 11.4261 29.8399 12.2565 29.1366 13.0854C28.7074 13.5919 28.3015 14.1171 27.8453 14.6838L27.846 14.6845ZM27.8848 39.5342C27.9382 39.6296 27.9607 39.6875 27.9979 39.7348C29.0583 41.0709 30.1606 42.3732 31.3303 43.6222C31.486 43.7882 31.5511 43.7439 31.6828 43.6049C32.5721 42.6663 33.4079 41.6841 34.2337 40.6937C34.5365 40.33 34.8208 39.952 35.1408 39.5462C32.6906 39.6063 30.3148 39.6206 27.8848 39.5349V39.5342ZM18.614 30.2798C18.5481 30.3655 18.5187 30.3918 18.5048 30.4248C17.8448 31.9969 17.2266 33.5848 16.6859 35.1997C16.61 35.4274 16.6976 35.4837 16.9028 35.5206C17.9772 35.7107 19.0486 35.9218 20.1253 36.1007C20.7923 36.2119 21.4608 36.3359 22.2307 36.3584C20.9255 34.3513 19.7364 32.3584 18.614 30.2798ZM40.7785 36.3412C40.9768 36.3412 41.1023 36.3547 41.2247 36.3389C42.8584 36.1262 44.482 35.855 46.0956 35.5236C46.3388 35.4732 46.3853 35.3906 46.3016 35.1674C45.8988 34.0868 45.5177 32.9979 45.111 31.918C44.9073 31.3769 44.6633 30.8502 44.4046 30.2377C43.2604 32.3644 42.0776 34.352 40.7793 36.3412H40.7785ZM22.192 17.9279C22.0255 17.8324 21.8946 17.8707 21.7737 17.8865C20.1392 18.0984 18.5164 18.3697 16.9028 18.7019C16.658 18.7522 16.6147 18.8356 16.6976 19.0588C17.1004 20.1394 17.4807 21.2283 17.8882 22.3082C18.0919 22.8492 18.3351 23.376 18.5923 23.9825C19.7403 21.8611 20.9216 19.8719 22.1912 17.9286L22.192 17.9279ZM44.3782 23.9276C44.4317 23.8652 44.465 23.8404 44.4789 23.8081C45.173 22.2323 45.7679 20.6211 46.3226 18.9949C46.4101 18.7372 46.235 18.7364 46.0654 18.7004C45.008 18.4772 43.946 18.2788 42.877 18.121C42.2069 18.0218 41.54 17.8873 40.77 17.8662C42.0784 19.8734 43.2635 21.8693 44.379 23.9276H44.3782Z" fill="#62DAFA"/>
<path id="Vector_2" d="M31.5119 32.5357C28.497 32.6349 25.8966 30.0806 25.8904 27.1236C25.8842 24.147 28.4939 21.6747 31.4879 21.6679C34.5012 21.6619 37.1032 24.1425 37.1086 27.1003C37.114 30.0806 34.5027 32.6251 31.5119 32.535V32.5357Z" fill="#62DAFA"/>
</g>
<defs>
<clipPath id="clip0_330_195">
<rect width="63" height="54" fill="white"/>
</clipPath>
</defs>
</svg>
