<svg width="93" height="51" viewBox="0 0 93 51" fill="none" xmlns="http://www.w3.org/2000/svg">
<g id="Layer_1" clip-path="url(#clip0_332_419)">
<path id="Vector" d="M0 31.6389C0.0885344 31.1194 0.171703 30.5985 0.265603 30.0797C1.09327 25.5058 4.62928 21.9259 9.13111 21.0662C12.3593 20.4499 15.4392 20.9653 18.4212 22.2627C20.9947 23.3821 23.2255 25.0136 25.1283 27.0902C26.6408 28.7414 27.5959 30.7219 28.217 32.8749C29.0674 35.8221 29.2626 38.8266 28.9829 41.8747C28.82 43.6548 28.5027 45.3967 27.9152 47.0888C27.561 48.11 26.9232 48.8027 25.9433 49.2193C24.245 49.9419 22.4663 50.2869 20.6453 50.4423C19.0054 50.5821 17.3662 50.5848 15.7289 50.3857C12.3606 49.976 9.21227 48.9629 6.5891 46.6947C4.48842 44.8778 2.87737 42.6485 1.69691 40.109C0.802175 38.1844 0.222007 36.1691 0.0583522 34.0386C0.0543279 33.9875 0.0201215 33.9384 0.000670715 33.888C0.000670715 33.138 0.000670715 32.3888 0.000670715 31.6389H0Z" fill="#3499CC"/>
<path id="Vector_2" d="M59.2758 0.0661138C60.2838 0.0122552 61.2926 -0.017742 62.302 0.0122552C62.6173 0.152015 62.9587 0.102247 63.2866 0.134289C65.6066 0.361313 67.8361 0.937396 69.9589 1.91162C73.5573 3.56215 76.3857 6.11259 78.4066 9.55886C79.7768 11.8959 80.6186 14.4334 80.9989 17.1277C81.6582 21.797 80.9989 26.3062 79.4053 30.7014C79.2087 31.2441 78.9887 31.7772 78.7795 32.3151C78.6131 32.3274 78.4448 32.3588 78.2798 32.3472C77.9713 32.326 77.8049 32.4699 77.6641 32.7412C77.2985 33.4469 76.8418 34.0904 76.2596 34.6317C75.6747 35.1758 75.0201 35.5821 74.169 35.6639C74.2441 35.443 74.3105 35.2555 74.3715 35.066C74.5768 34.4299 74.778 33.7905 74.7109 33.108C74.662 32.6097 74.3682 32.3417 73.8739 32.3083C73.2347 32.2647 72.6766 32.4522 72.2487 32.9464C71.6659 33.6193 71.3285 34.4109 71.2185 35.3005C71.1266 36.0423 71.4251 36.5897 72.0649 36.9238C72.3151 37.0547 72.2521 37.1392 72.1313 37.3124C71.4452 38.3003 70.6471 39.1859 69.7812 40.0094C69.3841 40.3878 69.0186 40.8105 68.5135 41.0559C67.816 41.3954 67.317 41.1227 67.2291 40.3489C67.2117 40.1928 67.2096 40.0312 67.2231 39.8744C67.3317 38.59 67.7201 37.3697 68.0755 36.1432C68.4243 34.9392 68.7778 33.7359 69.148 32.5388C69.2218 32.2995 69.1339 32.3063 68.9595 32.2961C68.649 32.2776 68.3767 32.3451 68.103 32.5088C67.4491 32.8987 66.775 33.2539 66.1171 33.6364C65.936 33.7421 65.8555 33.7407 65.7488 33.5314C65.4497 32.943 64.9876 32.5347 64.345 32.3608C63.6951 32.1849 63.0465 32.2408 62.4382 32.4876C59.5467 33.6623 57.6687 35.743 57.002 38.8791C56.9759 39.0018 56.9685 39.119 56.8699 39.2152C56.2106 39.8608 55.5707 40.5316 54.7907 41.03C53.9811 41.5468 53.0951 41.6811 52.1897 41.3688C51.1594 41.0136 50.7262 40.1458 50.4887 39.1415C50.4438 38.9507 50.5793 38.95 50.6946 38.9104C51.4123 38.667 52.1333 38.4325 52.8242 38.1162C53.8168 37.6615 54.7719 37.1433 55.4742 36.2652C56.0711 35.5187 56.2884 34.6658 55.9329 33.7509C55.6036 32.9028 54.9061 32.5013 54.0455 32.3738C52.7463 32.1808 51.584 32.5503 50.5625 33.346C48.7851 34.7306 47.6818 36.5325 47.4269 38.8245C47.4061 39.0106 47.3344 39.1354 47.2042 39.2554C46.7743 39.6515 46.3591 40.0646 45.9238 40.4546C45.4034 40.9209 44.852 41.3416 44.1679 41.5413C43.3463 41.7813 42.7051 41.4841 42.3704 40.6898C42.2785 40.4723 42.2114 40.2453 42.1705 40.0087C42.0203 39.147 42.1524 38.288 42.1813 37.4276C42.1853 37.2967 42.2684 37.2238 42.3415 37.1413C43.1531 36.2189 43.9325 35.2712 44.6307 34.2554C46.0392 32.2047 47.0332 29.9951 47.162 27.4522C47.1995 26.7125 47.221 25.9735 46.9198 25.2774C46.7059 24.7831 46.4644 24.6849 45.9641 24.8704C45.0009 25.2276 44.0438 25.6019 43.0773 25.951C42.8882 26.0191 42.7869 26.1275 42.7064 26.3014C42.3221 27.129 41.919 27.9478 41.5702 28.7925C40.3247 31.812 39.2925 34.8935 38.9196 38.1653C38.8022 39.1927 38.7586 40.2228 39.0182 41.2434C39.491 43.1032 40.9324 44.0004 42.7768 43.5791C43.7226 43.363 44.5314 42.8707 45.3095 42.311C46.0546 41.7745 46.7421 41.1643 47.4242 40.55C47.5121 40.6332 47.5148 40.7246 47.5356 40.8105C47.7784 41.814 48.3109 42.6158 49.1902 43.1428C50.3767 43.8545 51.639 43.8041 52.914 43.4455C54.0281 43.1319 54.9248 42.4378 55.7887 41.6954C56.1764 41.362 56.5493 41.0109 56.9571 40.6421C57.0389 41.1336 57.1382 41.5727 57.3374 41.979C58.1154 43.5654 59.3603 44.1074 60.9807 43.3643C61.7306 43.0207 62.3027 42.4481 62.848 41.8447C63.3343 41.3068 63.7662 40.7225 64.2431 40.0524C64.2277 40.8309 64.2612 41.5052 64.4336 42.1665C64.7669 43.4407 65.716 43.9697 66.9367 43.5525C67.3753 43.4025 67.7784 43.1796 68.1346 42.8851C70.1051 41.255 71.9972 39.5472 73.3192 37.2954C73.3822 37.1883 73.452 37.1188 73.5714 37.099C74.1918 36.9988 74.776 36.7806 75.3494 36.5291C75.3676 36.5461 75.3863 36.5632 75.4044 36.5809C74.6003 37.9294 73.845 39.299 73.5747 40.8814C73.1381 41.3675 72.6994 41.8508 72.2662 42.3397C69.0326 45.9829 64.9916 48.258 60.3851 49.5642C58.1778 50.1901 55.9309 50.6039 53.6451 50.8064C51.9516 50.9563 50.256 51.0375 48.5584 50.9843C44.7514 50.8643 40.9941 50.4021 37.3615 49.1647C36.7263 48.9486 36.114 48.6752 35.5083 48.3807C34.4251 47.8544 33.7758 46.9374 33.2775 45.8875C32.1749 43.5634 31.6343 41.0743 31.2499 38.545C30.8495 35.9107 30.7536 33.2573 30.8643 30.5992C31.0306 26.5945 31.7168 22.6894 33.1293 18.933C34.5606 15.1247 36.7176 11.8127 39.6916 9.06459C43.1511 5.86784 47.0231 3.35012 51.4445 1.7555C53.7336 0.929897 56.0798 0.340861 58.5098 0.140425C58.7653 0.119291 59.0209 0.0920204 59.2764 0.0674773L59.2758 0.0661138ZM64.4644 23.888C63.9285 23.7612 63.4899 23.9241 63.1243 24.402C62.8426 24.7708 62.4798 25.0749 62.0981 25.4628C62.0981 24.4559 62.0834 23.5301 62.1062 22.6049C62.1142 22.2865 61.96 22.2879 61.7413 22.2981C61.5455 22.307 61.3557 22.2429 61.3597 22.5872C61.3778 24.2779 61.3771 25.9694 61.3597 27.6601C61.3563 27.9867 61.518 27.9655 61.7299 27.9621C61.9325 27.9587 62.1323 28.0065 62.1055 27.6669C62.0747 27.2838 62.1028 26.8959 62.0975 26.51C62.0928 26.2196 62.3222 26.0757 62.5039 25.9755C62.6381 25.9012 62.7018 26.163 62.7802 26.2816C63.0962 26.7623 63.398 27.2531 63.7072 27.7385C63.7716 27.8401 63.8192 27.9635 63.9755 27.9601C64.2062 27.9546 64.4369 27.9587 64.675 27.9587C64.665 27.7937 64.5684 27.7065 64.5033 27.6069C64.0861 26.9627 63.677 26.3123 63.2363 25.6844C63.0666 25.4431 63.1082 25.3156 63.3027 25.1247C63.7092 24.7252 64.0855 24.2943 64.4637 23.888H64.4644ZM53.3359 28.0262C53.4365 28.0262 53.5378 28.0344 53.6371 28.0249C54.0489 27.9853 54.4218 27.8531 54.7062 27.5313C55.2501 26.917 55.061 26.0485 54.3004 25.7621C53.8215 25.5821 53.3185 25.4676 52.8322 25.3067C52.4734 25.1881 52.3647 24.8854 52.5666 24.6304C52.8577 24.2636 53.8376 24.2984 54.0207 24.7286C54.179 25.1001 54.3896 25.0108 54.6552 24.974C54.8584 24.9461 54.8544 24.8574 54.8108 24.7013C54.7048 24.3223 54.4667 24.0782 54.1113 23.9343C53.6921 23.7646 53.2581 23.7673 52.8262 23.8287C52.5619 23.8662 52.3124 23.9718 52.1078 24.1661C51.5391 24.7074 51.6672 25.5808 52.3721 25.9162C52.8597 26.148 53.399 26.2141 53.902 26.3948C54.2937 26.5352 54.3816 26.8972 54.1072 27.1945C53.7175 27.6165 52.6773 27.4904 52.4841 26.9518C52.3486 26.5741 52.1689 26.5904 51.865 26.6511C51.6578 26.6927 51.6403 26.752 51.6913 26.9361C51.8939 27.6703 52.4224 28.0276 53.3352 28.0262H53.3359ZM57.3897 28.0283C58.2234 28.0283 58.8445 27.5722 59.0383 26.8147C59.0598 26.7309 59.1208 26.6041 59.037 26.5652C58.8673 26.4868 58.6761 26.4521 58.4857 26.4636C58.3019 26.4752 58.3515 26.6484 58.3153 26.752C58.1704 27.1652 57.9088 27.3901 57.5212 27.4242C57.0651 27.4645 56.6875 27.3152 56.497 26.8836C56.2139 26.2434 56.2207 25.5774 56.507 24.9392C56.6734 24.5684 57 24.4054 57.4051 24.4C57.7472 24.3952 58.0651 24.5009 58.1751 24.8268C58.3066 25.2147 58.5212 25.171 58.817 25.1104C59.0115 25.0708 59.0276 24.9999 58.9746 24.8383C58.8411 24.4293 58.5923 24.1252 58.2053 23.9446C57.0497 23.4039 55.7605 24.1286 55.5996 25.409C55.5841 25.5324 55.5647 25.6564 55.56 25.7805C55.505 27.2688 56.3038 28.0651 57.3904 28.029L57.3897 28.0283ZM67.7985 22.4542C67.2687 22.6349 66.9494 22.9062 67.0742 23.4816C67.0762 23.4926 67.0735 23.5041 67.0742 23.5157C67.101 23.7509 67.0628 23.92 66.765 23.8709C66.5738 23.8396 66.5772 23.9868 66.5906 24.113C66.6033 24.2295 66.5161 24.4375 66.7435 24.4068C67.0976 24.3597 67.0735 24.5731 67.0768 24.8145C67.0903 25.6653 67.0286 26.5168 67.1124 27.3663C67.1439 27.6847 67.3176 27.8865 67.6107 27.9819C67.8723 28.0671 68.1419 28.0317 68.4075 28.0092C68.5786 27.9949 68.6081 27.8619 68.5457 27.7365C68.48 27.6035 68.6342 27.3349 68.3069 27.3506C67.8589 27.3717 67.8019 27.3117 67.7985 26.8638C67.7932 26.1828 67.8146 25.5003 67.7891 24.8206C67.7771 24.4968 67.8569 24.3509 68.1882 24.4143C68.4498 24.4647 68.5028 24.3366 68.5008 24.0925C68.4981 23.7666 68.2734 23.8641 68.1258 23.8757C67.8602 23.8968 67.7737 23.8062 67.7912 23.5355C67.814 23.1858 67.7965 22.834 67.7965 22.4549L67.7985 22.4542ZM60.3932 25.893C60.3932 25.3149 60.3724 24.7354 60.4012 24.1586C60.4187 23.8157 60.2215 23.8641 60.0223 23.8689C59.8325 23.873 59.6299 23.8021 59.6359 24.1498C59.6561 25.3285 59.654 26.5086 59.6359 27.6874C59.6312 28.0058 59.809 27.9696 59.9968 27.958C60.1738 27.9471 60.412 28.0583 60.3992 27.6956C60.3777 27.0956 60.3932 26.4936 60.3932 25.893ZM65.9755 25.9148C65.9755 25.3142 65.9608 24.7136 65.9816 24.1143C65.9923 23.8014 65.7971 23.8634 65.6321 23.8716C65.4691 23.8798 65.2431 23.7666 65.2465 24.1123C65.2599 25.3128 65.2599 26.5134 65.2465 27.714C65.2431 28.0235 65.4309 27.9655 65.5972 27.9567C65.7602 27.9478 65.9916 28.0624 65.9816 27.716C65.9635 27.1161 65.9762 26.5155 65.9762 25.9155L65.9755 25.9148ZM60.3764 22.7044C60.4777 22.3745 60.3362 22.294 60.0129 22.2879C59.6916 22.2818 59.6265 22.3949 59.6353 22.6908C59.6426 22.9669 59.6346 23.1524 60.0082 23.134C60.3221 23.1183 60.475 23.0556 60.3771 22.7044H60.3764ZM65.9601 22.7133C66.0433 22.4167 65.9635 22.2879 65.612 22.2865C65.2787 22.2845 65.2424 22.4154 65.2431 22.6963C65.2431 22.9785 65.2518 23.1469 65.6167 23.1353C65.9366 23.1258 66.0426 23.0331 65.9601 22.7133Z" fill="#F79839"/>
<path id="Vector_3" d="M73.5747 40.8814C73.845 39.2984 74.6009 37.9287 75.4044 36.5809C75.4084 36.5557 75.4125 36.5305 75.4165 36.5052L75.3501 36.5298C74.7766 36.7813 74.1924 36.9995 73.572 37.0997C73.4533 37.1188 73.3829 37.189 73.3198 37.2961C71.9978 39.5479 70.1058 41.255 68.1352 42.8858C67.779 43.1803 67.3759 43.4032 66.9373 43.5532C65.7166 43.9704 64.7675 43.4414 64.4342 42.1672C64.2611 41.5059 64.2283 40.8316 64.2437 40.0531C63.7675 40.7239 63.3356 41.3075 62.8486 41.8454C62.3027 42.4488 61.7312 43.0214 60.9813 43.365C59.3609 44.1075 58.1161 43.5662 57.338 41.9797C57.1388 41.5741 57.0396 41.1343 56.9577 40.6428C56.5499 41.0116 56.177 41.3627 55.7893 41.6961C54.9255 42.4385 54.0294 43.1326 52.9147 43.4462C51.6396 43.8048 50.3773 43.8552 49.1908 43.1435C48.3115 42.6165 47.779 41.8147 47.5362 40.8112C47.5154 40.7253 47.5127 40.6339 47.4249 40.5508C46.7421 41.165 46.0553 41.7759 45.3101 42.3117C44.5321 42.8715 43.7232 43.3637 42.7775 43.5798C40.933 44.0011 39.4916 43.1039 39.0188 41.2441C38.7592 40.2242 38.8035 39.1934 38.9202 38.166C39.2938 34.8936 40.3253 31.812 41.5709 28.7932C41.9196 27.9479 42.3227 27.1297 42.707 26.3021C42.7875 26.1289 42.8888 26.0205 43.078 25.9517C44.0438 25.6019 45.0016 25.2283 45.9647 24.8711C46.4651 24.685 46.7065 24.7838 46.9205 25.2781C47.2223 25.9749 47.2002 26.7132 47.1626 27.4529C47.0338 29.9965 46.0405 32.2054 44.6313 34.2561C43.9338 35.2719 43.1544 36.2196 42.3422 37.142C42.2691 37.2245 42.1866 37.2974 42.1819 37.4283C42.1537 38.2887 42.0209 39.1477 42.1711 40.0094C42.2127 40.246 42.2791 40.4724 42.371 40.6905C42.7064 41.4854 43.3476 41.782 44.1685 41.542C44.8527 41.3423 45.404 40.9216 45.9245 40.4553C46.3598 40.0654 46.7743 39.6515 47.2049 39.2561C47.335 39.1361 47.4074 39.0114 47.4275 38.8252C47.6824 36.5339 48.7857 34.7313 50.5631 33.3467C51.5846 32.5511 52.747 32.1815 54.0462 32.3745C54.9067 32.5027 55.6042 32.9035 55.9335 33.7516C56.289 34.6665 56.0717 35.5194 55.4748 36.2659C54.7725 37.144 53.8181 37.6622 52.8248 38.1169C52.1339 38.4332 51.4129 38.6678 50.6953 38.9111C50.5799 38.95 50.4437 38.9514 50.4894 39.1423C50.7268 40.1465 51.1601 41.0144 52.1903 41.3696C53.0957 41.6818 53.9818 41.5475 54.7913 41.0307C55.5714 40.5324 56.2119 39.8615 56.8705 39.2159C56.9691 39.1198 56.9765 39.0018 57.0027 38.8798C57.6694 35.7437 59.5474 33.663 62.4388 32.4883C63.0471 32.2415 63.6957 32.1856 64.3457 32.3615C64.9882 32.5354 65.4503 32.9437 65.7495 33.5321C65.8561 33.7414 65.9359 33.7428 66.1177 33.6371C66.7757 33.2546 67.4497 32.8994 68.1037 32.5095C68.3773 32.3465 68.6496 32.2784 68.9602 32.2968C69.1346 32.307 69.2231 32.3009 69.1486 32.5395C68.7777 33.7366 68.4249 34.9399 68.0762 36.1439C67.7207 37.3704 67.333 38.59 67.2237 39.8751C67.2103 40.0319 67.2116 40.1935 67.2297 40.3496C67.3176 41.1234 67.8166 41.3961 68.5141 41.0566C69.0185 40.8112 69.3841 40.3885 69.7818 40.0101C70.647 39.1866 71.4458 38.3003 72.132 37.3131C72.252 37.1399 72.3158 37.0554 72.0656 36.9245C71.4257 36.5905 71.1272 36.0423 71.2191 35.3013C71.3291 34.4116 71.6672 33.62 72.2494 32.9472C72.6773 32.4529 73.2353 32.2654 73.8745 32.309C74.3688 32.3424 74.6619 32.6111 74.7116 33.1087C74.7793 33.7912 74.5781 34.4307 74.3722 35.0667C74.3111 35.2563 74.2447 35.4437 74.1696 35.6646C75.0207 35.5835 75.6754 35.1772 76.2602 34.6325C76.8417 34.0911 77.2985 33.4476 77.6647 32.7419C77.8056 32.4706 77.9719 32.3268 78.2804 32.3479C78.4454 32.3595 78.6138 32.3281 78.7801 32.3159C78.978 32.3002 79.0477 32.3431 78.9652 32.5729C78.2684 34.5152 77.5473 36.4493 76.9316 38.4203C76.7586 38.9739 76.6412 39.5384 76.6975 40.1247C76.778 40.9619 77.4575 41.3361 78.1973 40.951C78.6413 40.7198 78.9753 40.3462 79.3415 40.0163C79.6587 39.7306 79.9485 39.4136 80.2651 39.1266C80.3804 39.0223 80.4053 38.8975 80.4227 38.7666C80.6903 36.7493 81.4187 34.8806 82.2095 33.0317C82.2698 32.8913 82.3651 32.8681 82.4905 32.8435C83.4423 32.6601 84.3933 32.4699 85.4041 32.2702C84.946 33.6732 84.4322 35.0217 84.1385 36.4759C84.7696 35.8085 85.3592 35.1588 85.9776 34.5391C86.7328 33.7823 87.5189 33.061 88.4941 32.5933C88.7375 32.4767 88.9917 32.3936 89.252 32.3438C90.3211 32.1413 91.1333 32.8129 91.1857 33.9384C91.2158 34.5936 91.0428 35.2174 90.8785 35.8412C90.5304 37.1638 89.9515 38.4046 89.5531 39.7095C89.4317 40.1069 89.2815 40.5037 89.3546 40.9346C89.4391 41.4323 89.7409 41.6198 90.2225 41.4725C90.6947 41.328 91.0643 41.0144 91.4204 40.6885C91.6941 40.439 91.9509 40.1697 92.2065 39.9004C92.4607 39.6318 92.7028 39.3522 92.9986 39.023C92.9986 39.535 92.9986 39.9917 92.9986 40.4492C92.9986 40.5276 92.9423 40.5692 92.8967 40.6169C91.9583 41.5904 90.9811 42.5149 89.7798 43.1544C89.2929 43.4141 88.7825 43.5941 88.2318 43.6671C87.0453 43.8232 86.113 43.0378 86.0225 41.8141C85.9454 40.7696 86.2163 39.7892 86.5389 38.8225C86.8528 37.8817 87.209 36.9559 87.5417 36.0219C87.6362 35.756 87.7261 35.4853 87.7221 35.1976C87.7174 34.8486 87.5417 34.717 87.2237 34.8418C87.0608 34.9058 86.8984 34.9938 86.7623 35.1049C85.6844 35.9844 84.7951 37.0486 83.952 38.1496C83.4483 38.8075 83.4597 39.6372 83.3524 40.4171C83.2437 41.2046 83.239 42.0009 83.2363 42.7951C83.2363 42.9942 83.174 43.061 82.9828 43.1033C82.1887 43.2785 81.3972 43.4673 80.6098 43.6732C80.4093 43.7257 80.3945 43.665 80.3818 43.4939C80.3127 42.5599 80.2362 41.6259 80.2657 40.6271C79.5729 41.2932 78.9176 41.902 78.202 42.4385C77.6627 42.8421 77.102 43.2035 76.4829 43.4728C74.6525 44.269 73.6833 42.9594 73.57 41.6648C73.5472 41.4064 73.5713 41.1432 73.5733 40.8828L73.5747 40.8814ZM64.9433 35.1179C64.9708 34.9092 64.9372 34.7061 64.9124 34.5043C64.7917 33.5198 63.9835 33.0706 63.0995 33.4987C62.7212 33.6821 62.408 33.9534 62.1517 34.2889C61.2483 35.4703 60.6668 36.8045 60.3388 38.258C60.2134 38.8143 60.1564 39.3788 60.2087 39.9474C60.3093 41.0294 61.1933 41.5175 62.1403 41.0178C62.471 40.8432 62.7534 40.5992 62.9781 40.2985C64.123 38.7639 64.7957 37.0418 64.9426 35.1172L64.9433 35.1179ZM42.5628 35.2801C43.2503 34.5868 43.8137 33.8178 44.2926 32.986C45.2048 31.403 45.96 29.7579 46.172 27.9076C46.2236 27.4556 46.2451 26.9995 46.0646 26.5666C45.9218 26.2251 45.6683 26.1794 45.4208 26.4494C45.1907 26.7009 45.0344 27.0036 44.8922 27.3118C44.0753 29.0809 43.5575 30.951 43.1108 32.8435C42.9197 33.6535 42.7446 34.4682 42.5622 35.2801H42.5628ZM50.3532 37.5885C50.3532 37.6369 50.3592 37.6833 50.3525 37.7276C50.3036 38.0358 50.4028 38.0855 50.6906 37.984C51.2184 37.7965 51.7208 37.5654 52.193 37.2633C53.246 36.5911 53.8255 35.2753 53.58 34.1143C53.4606 33.5471 53.0877 33.2901 52.5297 33.3958C52.1239 33.4728 51.8294 33.7298 51.5705 34.0352C50.706 35.0579 50.429 36.2891 50.3525 37.5885H50.3532Z" fill="#030202"/>
<path id="Vector_4" d="M64.4645 23.888C64.0862 24.2943 63.7099 24.7259 63.3035 25.1247C63.109 25.3156 63.0674 25.4431 63.2371 25.6844C63.6777 26.3116 64.0862 26.9627 64.504 27.6069C64.5691 27.7072 64.6657 27.7937 64.6758 27.9587C64.4376 27.9587 64.2062 27.9546 63.9762 27.9601C63.8199 27.9635 63.773 27.8401 63.7079 27.7385C63.3987 27.2531 63.0969 26.7623 62.781 26.2816C62.7025 26.163 62.6395 25.9019 62.5046 25.9755C62.3229 26.0757 62.0935 26.2196 62.0982 26.51C62.1042 26.8959 62.0761 27.2838 62.1062 27.6669C62.1331 28.0065 61.9339 27.9587 61.7306 27.9621C61.5187 27.9655 61.357 27.9867 61.3604 27.6601C61.3778 25.9694 61.3785 24.2779 61.3604 22.5872C61.357 22.2429 61.5462 22.307 61.742 22.2981C61.9607 22.2879 62.115 22.2865 62.1069 22.6049C62.0841 23.5301 62.0989 24.4566 62.0989 25.4628C62.4798 25.0749 62.8434 24.7708 63.1251 24.402C63.4906 23.9241 63.9292 23.7612 64.4651 23.888H64.4645Z" fill="#FEFAF7"/>
<path id="Vector_5" d="M53.3353 28.0263C52.4225 28.027 51.8939 27.6697 51.6914 26.9361C51.6404 26.7521 51.6578 26.6928 51.8651 26.6512C52.1689 26.5905 52.3487 26.5741 52.4842 26.9518C52.6773 27.4904 53.7176 27.6165 54.1073 27.1945C54.3816 26.8973 54.2937 26.5353 53.902 26.3948C53.3983 26.2142 52.8591 26.148 52.3721 25.9162C51.6672 25.5815 51.5398 24.7082 52.1079 24.1662C52.3125 23.9719 52.562 23.8662 52.8262 23.8287C53.2582 23.7673 53.6928 23.7646 54.1113 23.9344C54.4668 24.0782 54.7056 24.323 54.8109 24.7014C54.8545 24.8575 54.8585 24.9461 54.6553 24.9741C54.389 25.0109 54.1784 25.1002 54.0208 24.7286C53.8377 24.2984 52.8571 24.2637 52.5667 24.6305C52.3648 24.8854 52.4734 25.1881 52.8323 25.3068C53.3185 25.4676 53.8216 25.5822 54.3005 25.7622C55.061 26.0485 55.2502 26.9164 54.7062 27.5313C54.4212 27.8531 54.0483 27.9854 53.6371 28.0249C53.5372 28.0345 53.4366 28.0263 53.336 28.0263H53.3353Z" fill="#FEFAF7"/>
<path id="Vector_6" d="M57.389 28.0276C56.3024 28.0637 55.5036 27.2668 55.5586 25.7792C55.5633 25.6551 55.5827 25.531 55.5982 25.4076C55.7598 24.1273 57.0482 23.4033 58.2039 23.9432C58.5909 24.1239 58.8397 24.428 58.9732 24.837C59.0255 24.9979 59.0094 25.0695 58.8156 25.109C58.5198 25.1697 58.3045 25.2133 58.1737 24.8254C58.0637 24.5002 57.7458 24.3939 57.4037 24.3986C56.9986 24.4041 56.6713 24.5677 56.5056 24.9379C56.2192 25.576 56.2125 26.2421 56.4956 26.8823C56.6867 27.3138 57.0637 27.4631 57.5198 27.4229C57.9081 27.3888 58.1697 27.1645 58.3139 26.7507C58.3501 26.6471 58.3005 26.4739 58.4842 26.4623C58.6754 26.4507 58.8659 26.4855 59.0356 26.5639C59.1201 26.6028 59.0584 26.7296 59.0369 26.8134C58.8437 27.5708 58.222 28.0276 57.3883 28.0269L57.389 28.0276Z" fill="#FEFAF7"/>
<path id="Vector_7" d="M67.7978 22.4536C67.7978 22.8326 67.8152 23.1851 67.7924 23.5341C67.7743 23.8055 67.8615 23.8955 68.1271 23.8743C68.2747 23.8627 68.4987 23.7653 68.502 24.0911C68.5041 24.3352 68.4517 24.4634 68.1895 24.4129C67.8588 24.3495 67.7783 24.4954 67.7904 24.8192C67.8159 25.4996 67.7944 26.1814 67.7998 26.8625C67.8032 27.3104 67.8602 27.3711 68.3082 27.3492C68.6355 27.3336 68.4813 27.6022 68.547 27.7351C68.6087 27.8599 68.5798 27.9935 68.4088 28.0078C68.1432 28.0303 67.8736 28.0658 67.612 27.9805C67.3182 27.8851 67.1445 27.6833 67.1137 27.3649C67.0298 26.5155 67.0915 25.6633 67.0781 24.8131C67.0741 24.5718 67.0989 24.3584 66.7448 24.4054C66.5167 24.4361 66.6039 24.2275 66.5918 24.1116C66.5784 23.9855 66.5751 23.8382 66.7662 23.8696C67.064 23.918 67.1029 23.7496 67.0754 23.5144C67.0741 23.5035 67.0774 23.4912 67.0754 23.4803C66.9507 22.9042 67.2699 22.6335 67.7998 22.4529L67.7978 22.4536Z" fill="#FEFAF7"/>
<path id="Vector_8" d="M60.3926 25.8923C60.3926 26.4937 60.3772 27.095 60.3987 27.6949C60.4114 28.0576 60.1733 27.9465 59.9962 27.9574C59.8091 27.969 59.6307 28.0051 59.6354 27.6867C59.6528 26.508 59.6548 25.3279 59.6354 24.1491C59.6293 23.8007 59.8319 23.8723 60.0217 23.8682C60.2216 23.8634 60.4181 23.8157 60.4007 24.158C60.3718 24.7347 60.3926 25.3142 60.3926 25.8923Z" fill="#FEFAF7"/>
<path id="Vector_9" d="M65.9749 25.9149C65.9749 26.5155 65.9615 27.1161 65.9803 27.7154C65.991 28.0617 65.7589 27.9479 65.596 27.956C65.4296 27.9649 65.2418 28.0228 65.2452 27.7133C65.2593 26.5128 65.2593 25.3122 65.2452 24.1116C65.2411 23.766 65.4678 23.8791 65.6308 23.871C65.7958 23.8628 65.991 23.8007 65.9803 24.1137C65.9601 24.7136 65.9742 25.3142 65.9742 25.9142L65.9749 25.9149Z" fill="#FEFAF7"/>
<path id="Vector_10" d="M60.3758 22.7044C60.4737 23.0549 60.3208 23.1183 60.0069 23.1339C59.6333 23.1524 59.642 22.9669 59.6339 22.6908C59.6259 22.3949 59.6903 22.2818 60.0116 22.2879C60.3348 22.294 60.477 22.3738 60.3751 22.7044H60.3758Z" fill="#FEFAF7"/>
<path id="Vector_11" d="M65.9594 22.7126C66.0419 23.0324 65.936 23.1244 65.616 23.1346C65.2512 23.1462 65.2431 22.9778 65.2424 22.6956C65.2424 22.4147 65.2787 22.2838 65.6113 22.2859C65.9628 22.2879 66.0426 22.4161 65.9594 22.7126Z" fill="#FEFAF7"/>
<path id="Vector_12" d="M64.9426 35.1172C64.7957 37.0418 64.123 38.7632 62.9781 40.2985C62.7534 40.5992 62.471 40.8439 62.1404 41.0178C61.1927 41.5175 60.3093 41.0294 60.2087 39.9474C60.1557 39.3788 60.2127 38.8143 60.3388 38.258C60.6668 36.8045 61.2483 35.4703 62.1518 34.2889C62.408 33.9534 62.7212 33.6821 63.0995 33.4987C63.9828 33.0706 64.7917 33.5191 64.9124 34.5043C64.9373 34.7061 64.9708 34.9092 64.9433 35.1179L64.9426 35.1172Z" fill="#F79839"/>
<path id="Vector_13" d="M42.563 35.2801C42.7454 34.4675 42.9198 33.6535 43.1116 32.8435C43.5583 30.951 44.0754 29.0809 44.8931 27.3118C45.0352 27.0036 45.1915 26.7009 45.4216 26.4494C45.6691 26.1794 45.9226 26.2251 46.0655 26.5666C46.2459 26.9995 46.2244 27.4556 46.1728 27.9076C45.9608 29.7579 45.2056 31.403 44.2934 32.986C43.8139 33.8178 43.2511 34.5875 42.5637 35.2801H42.563Z" fill="#F79839"/>
<path id="Vector_14" d="M50.3533 37.5885C50.4291 36.2891 50.7061 35.0579 51.5713 34.0352C51.8295 33.7298 52.1246 33.4728 52.5304 33.3958C53.0884 33.2901 53.4607 33.5471 53.5807 34.1143C53.8256 35.2754 53.2461 36.5911 52.1937 37.2633C51.7215 37.5647 51.2185 37.7965 50.6913 37.984C50.4036 38.0862 50.3043 38.0365 50.3533 37.7276C50.36 37.6833 50.3539 37.6369 50.3539 37.5885H50.3533Z" fill="#F79839"/>
<path id="Vector_15" d="M75.3495 36.5291L75.4159 36.5045C75.4119 36.5297 75.4079 36.555 75.4039 36.5802C75.3858 36.5631 75.3677 36.5461 75.3489 36.5291H75.3495Z" fill="#F79839"/>
</g>
<defs>
<clipPath id="clip0_332_419">
<rect width="93" height="51" fill="white"/>
</clipPath>
</defs>
</svg>
