<svg width="48" height="72" viewBox="0 0 48 72" fill="none" xmlns="http://www.w3.org/2000/svg">
<g id="Layer_1" clip-path="url(#clip0_292_4142)">
<path id="Vector" d="M12.2438 0.551208L0.887695 20.2214H23.5998L12.2438 0.551208Z" fill="#1A1A1A"/>
<path id="Vector_2" d="M34.9816 0.551208L23.6255 20.2214H46.3376L34.9816 0.551208Z" fill="#5F5F5F"/>
<path id="Vector_3" d="M24.0624 52.1965L12.7063 71.8667H35.4185L24.0624 52.1965Z" fill="#343434"/>
<path id="Vector_4" d="M35.6239 32.2836L24.2678 51.9538H46.98L35.6239 32.2836Z" fill="#303030"/>
<path id="Vector_5" d="M12.7577 71.6239L24.1138 51.9537H1.40161L12.7577 71.6239Z" fill="#606060"/>
<path id="Vector_6" d="M12.2438 40.02L23.5998 20.3499H0.887695L12.2438 40.02Z" fill="#303030"/>
<path id="Vector_7" d="M35.8807 71.7524L47.2368 52.0822H24.5247L35.8807 71.7524Z" fill="#1A1A1A"/>
<path id="Vector_8" d="M23.6769 19.8501L35.033 0.179932H12.3208L23.6769 19.8501Z" fill="#343434"/>
</g>
<defs>
<clipPath id="clip0_292_4142">
<rect width="46.3492" height="71.6868" fill="white" transform="translate(0.887695 0.179932)"/>
</clipPath>
</defs>
</svg>
