<svg width="89" height="59" viewBox="0 0 89 59" fill="none" xmlns="http://www.w3.org/2000/svg">
<g id="Isolation_Mode" clip-path="url(#clip0_292_4135)">
<path id="Vector" d="M40.9576 0.440292C41.0691 0.426883 41.1817 0.413475 41.2933 0.400066C43.2228 0.133012 45.1578 -0.0457693 47.1085 0.0112172C47.8826 0.0335648 48.6566 0.0804948 49.4295 0.117368C49.8801 0.179942 50.3296 0.242515 50.7801 0.305089C52.587 0.640303 54.3703 1.06044 56.1136 1.65042C57.4508 2.10296 58.719 2.72087 60.0205 3.25833C60.3852 3.47398 60.7433 3.70305 61.1169 3.90082C62.2969 4.52767 63.3386 5.3713 64.4807 6.05625C64.6145 6.26744 64.8119 6.39482 65.035 6.49203C65.5157 6.98591 66.0444 7.42393 66.5931 7.83848C66.9277 8.18263 67.2667 8.52455 67.5969 8.87317C67.7586 9.04413 67.8869 9.07095 68.0341 8.85082C69.0178 7.38929 69.9959 5.9244 70.6138 4.25727C70.6406 4.24721 70.6484 4.22822 70.6383 4.2014C70.6673 4.14553 70.6975 4.08966 70.7265 4.03379C70.751 4.01591 70.7577 3.99245 70.7454 3.96451C70.7733 3.91311 70.8012 3.86171 70.8291 3.81032C70.8681 3.7321 70.906 3.65388 70.9451 3.57678C71.3008 3.72204 71.1704 4.14665 71.3968 4.36565C71.389 4.49304 71.4258 4.60589 71.5072 4.70422C71.5328 4.76344 71.5596 4.82155 71.5853 4.88077C71.5875 5.05731 71.6154 5.22604 71.7224 5.37353C71.7113 5.47745 71.7314 5.57019 71.8184 5.63835C71.8061 5.6674 71.8128 5.69087 71.8373 5.70986C71.8451 5.74562 71.8529 5.78138 71.8607 5.81713C71.8964 5.92999 71.9321 6.04396 71.9678 6.15682C71.9912 6.21045 72.0147 6.26409 72.0381 6.31884C72.0515 6.37471 72.066 6.43169 72.0793 6.48756C72.5556 8.14576 73.0385 9.80172 73.5058 11.4621C73.8973 12.8511 74.2709 14.2455 74.6524 15.6378C74.6702 15.7149 74.6869 15.792 74.7048 15.868C74.6568 15.9585 74.678 16.0311 74.7606 16.0881C74.7751 16.1641 74.7884 16.239 74.8029 16.3149C74.7628 16.4066 74.7817 16.4803 74.8654 16.5373C74.881 16.6122 74.8966 16.6881 74.9111 16.763C74.8721 16.8524 74.8888 16.9273 74.968 16.9865C74.9892 17.0993 75.0104 17.2122 75.0316 17.3239C75.316 18.905 75.6004 20.4872 75.887 22.0683C75.9104 22.1968 75.9394 22.3153 76.0956 22.3633C77.4987 22.7924 78.7913 23.4706 80.0862 24.1455C80.1475 24.1869 80.2089 24.2282 80.2691 24.2696C80.3204 24.302 80.3717 24.3333 80.423 24.3657L80.4453 24.3903L80.4788 24.3891C81.0855 24.8428 81.6911 25.2964 82.2979 25.7501C82.2923 25.778 82.3001 25.8004 82.3246 25.816C82.3246 25.8887 82.3581 25.9211 82.4306 25.911C82.57 26.0328 82.7105 26.1546 82.8499 26.2753C83.411 26.8407 83.972 27.4061 84.533 27.9726C84.5898 28.1547 84.7192 28.2799 84.8631 28.3938C84.9021 28.4408 84.9412 28.4866 84.9802 28.5335C85.017 28.6676 85.094 28.7693 85.2211 28.8318C86.1925 30.2465 87.0179 31.7437 87.7194 33.3103C87.7551 33.4176 87.7919 33.5249 87.8276 33.6321C87.9336 34.1483 88.0942 34.6467 88.3217 35.1238C88.3418 35.2222 88.3607 35.3216 88.3808 35.4199C88.7567 36.925 88.876 38.4637 89.002 40.0023C88.9563 41.503 88.7567 42.9857 88.5146 44.4651C88.2893 45.2127 88.0652 45.9613 87.8399 46.7088C87.8098 46.7971 87.7796 46.8854 87.7495 46.9737C87.6514 47.0474 87.5912 47.1379 87.6179 47.2675C87.5878 47.3558 87.5577 47.4441 87.5276 47.5324C87.3279 47.7402 87.203 47.9827 87.1841 48.2743C87.0658 48.4184 86.9844 48.5793 86.9532 48.7648C86.7859 48.8944 86.6833 49.0598 86.6721 49.2755C86.5015 49.4554 86.3911 49.6699 86.3141 49.9023C86.2026 49.9571 86.1357 50.042 86.1345 50.1705C86.0799 50.2621 86.0264 50.3537 85.9717 50.4442C85.8602 50.5057 85.7877 50.5951 85.7765 50.7258C85.7342 50.7918 85.6918 50.8566 85.6483 50.9225C85.452 51.165 85.2501 51.403 85.0605 51.651C84.2407 52.7248 83.2648 53.6523 82.3112 54.5998C81.9019 54.9037 81.4915 55.2088 81.0822 55.5127C80.7108 55.7675 80.3394 56.0222 79.968 56.277C79.8955 56.3194 79.8219 56.363 79.7494 56.4055C79.6958 56.4412 79.6412 56.477 79.5876 56.5116C79.0144 56.801 78.4422 57.0893 77.8689 57.3787C77.4786 57.4603 77.1139 57.6022 76.7927 57.8447C76.6666 57.8748 76.5406 57.905 76.4135 57.9352C75.2401 58.2838 74.0579 58.5967 72.85 58.7989C72.7753 58.8101 72.7006 58.8224 72.6258 58.8336C72.3582 58.7799 72.105 58.8704 71.8485 58.9151C71.6946 58.9017 71.5406 58.8849 71.399 58.9688C70.5435 58.9788 69.6881 58.9889 68.8326 59C68.1623 59 67.4932 59 66.8229 59C66.0064 59 65.19 59 64.3725 59C63.7022 59 63.033 59 62.3627 59C61.5463 59 60.7299 59 59.9135 59C59.2432 59 58.574 59 57.9037 59C57.0873 59 56.2708 59 55.4544 59C54.7841 59 54.1149 59 53.4446 59C52.6282 59 51.8118 59 50.9943 59C50.324 59 49.6548 59 48.9845 59C48.1681 59 47.3517 59 46.5341 59C45.8638 59 45.1946 59 44.5243 59C43.7079 59 42.8915 59 42.0751 59C41.4048 59 40.7356 59 40.0653 59C39.2489 59 38.4325 59 37.6161 59C36.9458 59 36.2766 59 35.6063 59C34.7899 59 33.9734 59 33.1559 59C32.4856 59 31.8164 59 31.1461 59C30.3297 59 29.5133 59 28.6958 59C28.0255 59 27.3563 59 26.686 59C25.8696 59 25.0531 59 24.2367 59C23.5664 59 22.8972 59 22.2269 59C21.444 58.9889 20.661 58.9788 19.877 58.9676C19.7732 58.8928 19.6584 58.9017 19.5424 58.9241C19.249 58.8715 18.9591 58.7944 18.6568 58.8358C18.5821 58.8246 18.5074 58.8123 18.4326 58.8011C17.392 58.5855 16.3526 58.3698 15.312 58.1542C15.2384 58.1374 15.1647 58.1207 15.0911 58.1039C14.9294 57.9665 14.7387 57.9184 14.5324 57.9195C13.3089 57.4983 12.1601 56.9038 10.9745 56.3932C10.7938 56.268 10.6198 56.1306 10.4302 56.0189C8.72937 55.0099 7.20027 53.7863 5.82955 52.3594C4.78561 51.2722 3.92459 50.0442 3.06245 48.8162C2.75685 48.2642 2.45126 47.7111 2.14566 47.1591C2.09993 46.9334 2.04082 46.7144 1.85456 46.558L1.3259 45.2574C1.31698 45.0194 1.25006 44.8037 1.0783 44.6294C1.06157 44.5769 1.04373 44.5255 1.027 44.473C0.826242 43.7254 0.626601 42.979 0.425844 42.2315C0.325465 41.6359 0.225087 41.0415 0.124708 40.4459C0.145899 40.409 0.142553 40.3744 0.113555 40.3431C0.132516 40.2236 0.122478 40.1085 0.0499821 40.0068C0.00871543 38.4112 -0.0749333 36.8144 0.123593 35.2233C0.208357 34.5428 0.314312 33.8657 0.411345 33.1863C0.42919 33.1081 0.447035 33.031 0.46488 32.9528C0.751516 32.0376 1.02365 31.118 1.32925 30.2096C1.76645 28.9078 2.4691 27.729 3.07249 26.5032H3.07026C3.22083 26.4373 3.27213 26.3066 3.29221 26.1557C3.88109 25.3948 4.39525 24.5769 5.04214 23.8606C5.54961 23.2986 6.0515 22.7321 6.55674 22.1667C7.95757 21.0068 9.38741 19.8839 10.9656 18.9676C12.6218 18.1687 14.316 17.4681 16.0905 16.9708C16.1663 16.9563 16.241 16.9407 16.3169 16.9261C17.6039 16.677 18.8988 16.4803 20.2071 16.3753C20.8439 16.3797 21.4808 16.4457 22.1154 16.3384C22.8549 16.458 23.5988 16.5284 24.3483 16.5418C24.4486 16.6289 24.5669 16.6345 24.6895 16.6189C24.7609 16.6267 24.8334 16.6345 24.9048 16.6434C25.1758 16.7619 25.4636 16.782 25.7536 16.7898C25.8249 16.8736 25.9175 16.8848 26.019 16.8647C26.1339 16.8949 26.2488 16.925 26.3648 16.9552C28.4158 17.5351 30.3832 18.3206 32.2391 19.39C32.0986 19.2 31.9268 19.0615 31.7696 18.9106C31.2008 18.3642 30.4513 18.0949 29.8289 17.6323C28.8396 16.8982 27.7388 16.392 26.5778 16.0065C26.1896 15.7965 25.7803 15.6423 25.3442 15.5663C25.2918 15.4825 25.2182 15.4579 25.1256 15.4903C24.9438 15.4154 24.7609 15.3417 24.5579 15.3607C24.375 15.1786 24.1442 15.1618 23.9055 15.1774C23.8263 15.1596 23.7482 15.1428 23.669 15.1249C23.3969 14.9562 23.098 14.9204 22.7857 14.9517C22.6708 14.9339 22.5559 14.916 22.4411 14.8981C21.9738 14.716 21.4774 14.7294 20.99 14.6847C20.6789 14.6556 20.5941 14.5495 20.767 14.2712C20.9889 13.9137 21.2031 13.5505 21.4194 13.1896C21.4507 13.1751 21.4663 13.1494 21.4663 13.1148C21.4997 13.0678 21.5332 13.0209 21.5678 12.9728C21.8433 12.7505 21.918 12.3885 22.1477 12.1337C22.518 11.8029 22.8247 11.4219 23.0523 10.9783C23.2486 10.8755 23.3579 10.6979 23.4594 10.5124C23.582 10.4856 23.6512 10.4107 23.6612 10.2833C23.9345 10.0632 24.1531 9.79501 24.3527 9.50896C24.6594 9.29554 24.8959 9.01508 25.1212 8.72233C25.6052 8.26979 26.0904 7.81836 26.5744 7.36582C26.9748 7.14458 27.305 6.83842 27.615 6.50656C28.002 6.1881 28.4682 5.97021 28.8084 5.59142C29.549 5.10871 30.2907 4.62489 31.0312 4.14218L31.0368 4.13771C31.7941 3.75668 32.5615 3.39465 33.2708 2.92423C34.124 2.57226 34.9772 2.22028 35.8304 1.86831C37.5157 1.30626 39.2266 0.834728 40.9598 0.442527L40.9576 0.440292ZM63.4858 15.0031C63.3542 15.002 63.2806 15.0813 63.2226 15.1864C63.1211 15.2668 63.0196 15.3462 62.9192 15.4266C62.6895 15.4836 62.5066 15.6099 62.3683 15.8009C61.0634 16.5239 59.7573 17.2468 58.4524 17.9698C58.3944 18.0044 58.3375 18.0402 58.2795 18.0748L58.0185 18.1586C56.8753 18.5653 55.7645 19.0615 54.5901 19.3833C54.1339 19.5084 53.6476 19.5498 53.235 19.8135C53.158 19.828 53.0822 19.8414 53.0052 19.8559C52.9171 19.809 52.8435 19.8313 52.781 19.9051C52.6695 19.9185 52.558 19.933 52.4464 19.9464C52.1386 19.9554 51.8352 19.9867 51.5553 20.1297C51.4438 20.1408 51.3322 20.1531 51.2207 20.1643C50.9463 20.1945 50.672 20.2247 50.3976 20.2548C49.4083 20.3621 48.419 20.4682 47.4308 20.5755C47.2056 20.5811 46.9791 20.5867 46.7539 20.5923C45.6765 20.6291 44.5968 20.6336 43.5272 20.7945C43.4135 20.7979 43.3008 20.8023 43.1871 20.8057C43.0789 20.8102 42.9696 20.8146 42.8614 20.8191C42.7075 20.8068 42.5525 20.79 42.4097 20.8716C42.1911 20.8817 41.9725 20.8861 41.7539 20.9029C38.6399 21.1532 35.7055 22.0058 33.002 23.5902C32.2068 24.0562 31.4272 24.5612 30.7803 25.2361C30.3587 25.5088 30.0096 25.8596 29.6929 26.2462C29.2434 26.5904 28.8898 27.0195 28.5798 27.4888C28.5374 27.5502 28.4961 27.6117 28.4537 27.6731C28.3366 27.7234 28.263 27.8072 28.2519 27.9391L28.1214 28.1268C28.0065 28.1759 27.9362 28.2564 27.9396 28.3882C27.9095 28.4039 27.895 28.4296 27.8961 28.4642C26.8198 29.9191 26.1395 31.5504 25.7379 33.307C25.7134 33.4399 25.6878 33.5718 25.6632 33.7048C25.5807 33.7774 25.5662 33.8679 25.5907 33.9696C25.4725 34.2824 25.4368 34.6076 25.4379 34.9395C25.1814 36.268 25.1535 37.5955 25.4402 38.9229C25.4714 39.2123 25.3788 39.5207 25.5796 39.7822C25.6643 40.5811 25.951 41.3231 26.2577 42.0538C26.6525 42.9902 27.1209 43.8863 27.8727 44.5992C28.0377 44.8842 28.263 45.1099 28.5441 45.2808C29.0393 45.8585 29.7074 46.187 30.3576 46.5401C30.4892 46.6116 30.6219 46.6776 30.7803 46.6429C32.3529 46.2943 33.9422 46.0183 35.4903 45.5635C35.613 45.5859 35.7245 45.5557 35.826 45.4853C35.9096 45.5322 35.981 45.5211 36.0412 45.444C36.2755 45.4216 36.5063 45.387 36.7182 45.2752C36.8733 45.3322 37.0049 45.3032 37.1075 45.1691L37.2815 45.1434C37.4042 45.216 37.4889 45.1613 37.5614 45.0618C37.6172 45.0506 37.6718 45.0395 37.7276 45.0272C37.9942 45.1054 38.2295 44.9646 38.4704 44.902C39.7117 44.5791 40.9799 44.3556 42.1766 43.8729C42.4967 43.8897 42.7822 43.7601 43.0722 43.6539C43.1458 43.6249 43.2194 43.5958 43.2941 43.5668C43.3689 43.5478 43.4436 43.5299 43.5172 43.5109C43.7269 43.531 43.9109 43.474 44.0726 43.3388C44.2031 43.3533 44.3169 43.3198 44.4117 43.2271C45.9542 42.8304 47.4587 42.3265 48.8796 41.5968C49.6236 41.3376 50.3385 41.0191 50.9987 40.5867C51.3757 40.4627 51.7427 40.3208 52.0237 40.0213C52.1475 40.0157 52.2446 39.9576 52.3271 39.8705C52.5345 39.8481 52.6996 39.7554 52.8156 39.5799C52.9126 39.5252 53.0097 39.4716 53.1067 39.4168C53.235 39.4235 53.3197 39.3676 53.3521 39.2403L53.3487 39.2447C54.1685 38.876 54.8912 38.3598 55.5827 37.7933C55.7266 37.7106 55.8783 37.6391 56.0121 37.543C58.3766 35.8501 60.5425 33.9305 62.4664 31.7482C63.8561 30.1705 65.132 28.5056 66.1113 26.6317C66.8518 25.6048 67.2623 24.4003 67.9147 23.312C67.8701 23.6628 67.8244 24.0126 67.7798 24.3623C67.5389 25.1087 67.298 25.8551 67.0571 26.6016C66.95 26.7099 66.9154 26.8474 66.9087 26.9938C66.563 27.577 66.3232 28.2061 66.0968 28.8419C65.8079 29.3213 65.5525 29.8174 65.3495 30.3392C65.3138 30.3939 65.2793 30.4476 65.2436 30.5023C65.112 30.6118 65.0428 30.756 65.0093 30.9214C64.7841 31.1985 64.6023 31.5002 64.4785 31.8365C64.1238 32.2477 63.8416 32.7069 63.5829 33.1829C63.5026 33.2813 63.4156 33.3762 63.3408 33.4802C61.4548 36.1161 59.309 38.5095 56.8374 40.6113C55.7076 41.5722 54.4886 42.4125 53.3253 43.3265C52.6193 43.6975 51.9289 44.0942 51.2932 44.5791C51.2542 44.5691 51.2274 44.5813 51.2107 44.6182C50.6162 44.8272 50.0831 45.159 49.5355 45.463C49.4797 45.4965 49.4228 45.5311 49.367 45.5646C49.222 45.5702 49.0882 45.6015 48.9878 45.7177C48.9432 45.7457 48.8986 45.7725 48.854 45.8004V45.7937C48.1134 46.0328 47.3874 46.3144 46.6981 46.6831C46.6735 46.6664 46.6546 46.6708 46.6401 46.6965C45.8739 46.8787 45.1311 47.1301 44.4095 47.4441C44.1139 47.5346 43.8172 47.624 43.5217 47.7145L43.4157 47.7458C43.341 47.7704 43.2663 47.7961 43.1915 47.8206C42.9506 47.7804 42.7465 47.8508 42.5748 48.0229C42.4342 48.0139 42.3015 48.0352 42.19 48.1313C41.958 48.0866 41.7539 48.1983 41.5464 48.262C40.1478 48.6933 38.7492 49.1224 37.3595 49.5794C36.3658 49.9057 35.3631 50.2141 34.2657 50.7225C35.1267 50.6376 35.8271 50.5873 36.5219 50.4956C37.7722 50.3303 39.0347 50.432 40.2861 50.3079C40.5125 50.3828 40.7434 50.3582 40.9743 50.3347C41.1483 50.4152 41.3256 50.4018 41.5041 50.3515C41.697 50.3515 41.8888 50.3515 42.0818 50.3515C43.0443 50.3861 44.0046 50.5213 44.9716 50.4241C45.3407 50.5426 45.7188 50.4811 46.0936 50.4822C48.728 50.604 51.3623 50.6621 53.9967 50.4755C54.1852 50.4923 54.3759 50.5191 54.5555 50.4286C54.6748 50.4889 54.7908 50.5091 54.8979 50.404C55.0462 50.3962 55.1957 50.3873 55.344 50.3794C56.1705 50.3671 56.9891 50.2811 57.7977 50.109C58.5539 50.0621 59.2956 49.937 60.0216 49.7168C61.5742 49.4509 63.0821 49.0375 64.4885 48.3067C66.176 47.6832 67.6448 46.7133 68.9386 45.4697C69.3524 45.2183 69.6881 44.8897 69.9324 44.4696C71.1336 43.2293 72.0827 41.8248 72.7307 40.2191C73.6252 38.6994 74.1025 37.0368 74.4148 35.316C74.4884 35.211 74.5051 35.0937 74.4873 34.9685C74.5676 34.9082 74.5754 34.8344 74.5263 34.7495C74.5486 34.6355 74.571 34.5216 74.5933 34.4076C74.6791 34.3484 74.6869 34.2757 74.6334 34.1908C74.7271 34.0165 74.7371 33.8277 74.7249 33.6355C74.7293 33.5997 74.7327 33.5628 74.7371 33.5271C74.7416 33.4533 74.7449 33.3796 74.7494 33.3047C74.9836 32.536 74.9881 31.7426 75.0026 30.9504C75.074 30.8051 75.0572 30.6543 75.0305 30.5034C75.0349 30.4688 75.0383 30.4353 75.0427 30.4007L75.0595 29.8319C75.2022 28.3793 75.0996 26.9323 74.9513 25.4864C74.9635 25.2216 74.9836 24.9568 74.8754 24.7042C74.8665 23.8338 74.7806 22.9723 74.5676 22.1264C74.5453 21.7488 74.5743 21.3644 74.3847 21.0146C74.5275 20.8694 74.3669 20.847 74.2944 20.7889C74.2944 20.6403 74.2966 20.4917 74.2977 20.3442C74.3713 20.2615 74.3613 20.19 74.2676 20.1297C74.2509 20.0537 74.2341 19.9777 74.2163 19.9028C74.0267 18.3866 73.7445 16.8893 73.2671 15.4344C73.2549 15.3596 73.2426 15.2847 73.2303 15.2098C73.2672 15.1182 73.246 15.0445 73.1657 14.9875C73.1523 14.9126 73.1378 14.8378 73.1244 14.764C73.1567 14.6713 73.1378 14.5953 73.053 14.5416C73.0374 14.4668 73.0207 14.3919 73.005 14.3171C73.0407 14.2265 73.0151 14.1539 72.9392 14.0958C72.9247 14.021 72.9102 13.9461 72.8958 13.8712C72.5333 12.3985 72.1529 10.9314 71.6165 9.51008C71.5986 9.43633 71.5808 9.36259 71.5629 9.28884C71.3377 8.54466 71.1157 7.79825 70.8837 7.05631C70.8079 6.81384 70.6651 6.8049 70.5558 7.02949C70.035 8.10106 69.3312 9.05754 68.691 10.0542C68.4679 10.242 68.3006 10.4755 68.1523 10.7236C67.5924 11.3214 67.0325 11.9203 66.4726 12.5181C66.2797 12.613 66.1447 12.7695 66.0265 12.9416C65.3517 13.5036 64.6759 14.0656 64.0011 14.6288C63.8015 14.7171 63.6264 14.8389 63.4847 15.0065L63.4858 15.0031ZM25.7603 51.4678C25.8294 51.9561 26.067 52.3416 26.4685 52.6265C27.1276 53.3047 28.1593 53.5126 28.9969 53.1371C29.046 53.1204 29.095 53.1025 29.1441 53.0857C29.2021 53.0533 29.2601 53.0209 29.3192 52.9885C30.0966 52.631 30.5438 52.0298 30.6509 51.1773C30.845 50.2543 30.5316 49.4967 29.8791 48.8643C29.0939 48.1033 27.7946 47.9882 26.8388 48.5737C25.9197 49.1369 25.4335 50.2398 25.6922 51.1728C25.6944 51.2108 25.6978 51.2488 25.7 51.2868C25.7212 51.3471 25.7424 51.4074 25.7636 51.4667L25.7603 51.4678Z" fill="#6CB13F"/>
</g>
<defs>
<clipPath id="clip0_292_4135">
<rect width="89" height="59" fill="white"/>
</clipPath>
</defs>
</svg>
