<svg width="80" height="87" viewBox="0 0 80 87" fill="none" xmlns="http://www.w3.org/2000/svg">
<g id="Layer_1" clip-path="url(#clip0_331_239)">
<path id="Vector" d="M54.4885 87C49.9942 87 45.501 87 41.0067 87C39.7456 86.9397 38.471 87.0904 37.2265 86.7665C36.5841 86.5997 35.9478 86.4103 35.3095 86.2306C34.7998 85.968 34.2902 85.7055 33.7796 85.4418C33.6695 85.3762 33.5595 85.3095 33.4484 85.2438C33.0405 84.9156 32.6326 84.5874 32.2237 84.2603C32.1739 84.1796 32.124 84.1 32.0742 84.0193C32.2351 83.9364 32.3285 84.0677 32.4406 84.143C33.8252 85.0674 35.3551 85.6108 36.9774 85.7722C38.3257 85.9067 39.6896 85.8938 41.0472 85.897C44.3426 85.9056 47.637 85.8863 50.9325 85.8787C55.5534 85.869 60.1732 85.8443 64.7941 85.8959C67.0838 85.9207 69.3735 85.882 71.6632 85.8647C72.698 85.8572 73.737 85.882 74.7604 85.6915C77.7216 85.1395 79.4425 82.3492 78.7544 79.2943C78.6153 78.6788 78.2946 78.1515 78.1171 77.5607C78.4191 77.7082 78.5904 78.0073 78.8364 78.2204C79.0107 78.4894 79.1841 78.7573 79.3585 79.0263C79.5681 79.5149 79.7996 79.9948 79.8971 80.5264C80.0632 81.0924 79.9376 81.6778 80.0009 82.2513C79.9625 82.8076 79.784 83.3295 79.6294 83.8568C79.0969 85.006 78.2759 85.8615 77.184 86.4404C75.6987 87.1227 74.121 86.9849 72.562 86.986C66.6406 86.9903 60.7202 86.9838 54.7988 86.9828C54.696 86.9828 54.5923 86.9935 54.4895 86.9989L54.4885 87Z" fill="#037FAF"/>
<path id="Vector_2" d="M33.9644 0.209852C34.4512 0.199091 34.9224 0.394935 35.4134 0.323915C35.8856 0.479945 36.3755 0.510075 36.8665 0.531596C37.3792 0.638127 37.8878 0.768331 38.4161 0.765102C38.8894 0.929741 39.3793 1.00507 39.8723 1.06963C40.383 1.21597 40.8968 1.35263 41.4251 1.41182C41.6036 1.58184 41.8558 1.49898 42.052 1.60766C42.3644 1.68406 42.6758 1.75939 42.9882 1.83579C43.5383 2.00581 44.0895 2.17583 44.6396 2.34584C45.1544 2.51048 45.6682 2.67512 46.183 2.83868C47.2189 3.27019 48.2537 3.70169 49.2895 4.13319C49.6684 4.35056 50.0327 4.59913 50.4479 4.74117C51.1028 5.13501 51.7577 5.52885 52.4127 5.92269C52.6244 6.06688 52.8372 6.21 53.0489 6.35419C53.3541 6.60922 53.6582 6.86317 53.9634 7.1182C54.2758 7.43672 54.5882 7.75523 54.9017 8.07375C55.0138 8.25883 55.2494 8.32555 55.322 8.54829C55.3189 8.73123 55.3365 8.89801 55.568 8.90662C55.5794 8.87542 55.6002 8.86143 55.6324 8.86573C55.4507 9.07019 55.6147 9.23913 55.7009 9.39731C56.5302 10.9296 56.7689 12.6008 56.6402 14.3085C56.5291 15.7848 56.5675 17.2601 56.5271 18.7354C56.4762 20.5615 56.5354 22.3919 56.5426 24.2191C56.5748 32.155 56.5582 40.0921 56.5582 48.0281C56.5582 49.2774 56.0641 49.8327 54.8549 50.0005C52.3317 50.3503 49.931 51.0863 47.6942 52.3819C44.8295 54.0401 42.6125 56.3709 40.9061 59.2504C40.356 60.1801 39.6585 60.8139 38.5168 60.8225C37.6117 60.829 36.7056 60.9011 35.8036 61.0593C33.3396 61.4929 31.0748 62.3732 29.0975 64.0045C26.4279 66.2072 24.9157 69.1018 24.2763 72.528C24.0324 73.8333 23.9556 75.1568 23.9649 76.4879C23.9711 77.3509 23.6058 77.7835 22.8907 77.6996C21.2746 77.5102 19.6585 77.3122 18.0539 77.0475C16.0724 76.7204 14.1107 76.2813 12.1854 75.6906C9.65385 74.9136 7.21781 73.9032 4.92189 72.5366C4.58664 72.3375 4.31782 71.9415 3.85282 72.0136C3.85074 71.9921 3.86009 71.9781 3.88084 71.9717C3.88084 71.8339 3.79262 71.8221 3.69194 71.8296L3.69713 71.835C3.70958 71.6661 3.61098 71.6155 3.4719 71.6112C3.20515 71.3583 2.93736 71.1054 2.67061 70.8536C1.76242 69.9304 1.06804 68.8565 0.581244 67.6373C0.440084 67.0982 0.299963 66.5591 0.158804 66.0199L0.05501 64.8395C0.0477444 64.804 0.0415168 64.7685 0.0342512 64.7319L0.00311313 64.4188C0.00311313 63.8764 0.00311313 63.333 0.00311313 62.7907C0.0560479 62.2569 0.0560479 61.7232 0.00311313 61.1895C0.134931 60.6536 0.0612376 60.1102 0.0560479 59.5689C0.0560479 59.033 0.0560479 58.4972 0.0560479 57.9613V56.3439C0.0560479 55.7736 0.0560479 55.2022 0.0560479 54.6319C0.0560479 54.1628 0.0560479 53.6936 0.0560479 53.2244C0.227307 52.1333 0.1204 51.0411 0.0726549 49.9489C0.202397 49.6519 0.112096 49.3377 0.139083 49.0332C0.151538 48.9277 0.174373 48.8222 0.174373 48.7157C0.176449 42.2001 0.176449 35.6845 0.174373 29.169C0.174373 29.0108 0.204473 28.8429 0.0830343 28.7095C0.101717 28.1983 0.134931 27.6872 0.134931 27.1761C0.133893 26.2227 0.173335 25.2671 0.0633135 24.3159C0.0601996 24.2761 0.0581238 24.2373 0.05501 24.1975C0.05501 23.6272 0.05501 23.0558 0.05501 22.4855C0.05501 21.9464 0.05501 21.4073 0.05501 20.8682C0.05501 20.2979 0.05501 19.7265 0.05501 19.1562C0.05501 18.6526 0.05501 18.1479 0.05501 17.6443C0.05501 17.1084 0.05501 16.5725 0.05501 16.0366C0.0882239 15.4943 0.0664273 14.9552 0.0020752 14.4161C0.05501 13.8824 0.05501 13.3486 0.0020752 12.8149C0.0664273 12.2704 0.129741 11.727 0.194093 11.1825C0.360163 10.6499 0.525195 10.1161 0.691265 9.58347C0.828273 9.31768 0.966318 9.05082 1.10333 8.78503L1.63579 7.97583C1.76761 7.83701 1.9098 7.70681 2.02709 7.55724C2.31667 7.1903 2.61145 6.74696 2.95397 6.53174C3.38679 6.26058 3.78328 5.93022 4.22336 5.67197C4.71431 5.36744 5.20525 5.06291 5.69723 4.75946C5.78131 4.75946 5.85396 4.74117 5.88614 4.64755C6.33141 4.42373 6.77773 4.19991 7.223 3.97716C7.77311 3.73074 8.32218 3.48432 8.87228 3.2379C8.90757 3.2293 8.94182 3.22176 8.97711 3.21315C9.46702 3.01839 9.95589 2.82362 10.4458 2.62993C10.9606 2.46959 11.4744 2.31033 11.9892 2.15C13.0282 1.87345 14.0661 1.5969 15.1051 1.32035C15.5877 1.23857 16.0693 1.15679 16.552 1.07501C16.5966 1.05672 16.6402 1.03735 16.6848 1.01905L16.6962 1.02443C17.2038 0.94911 17.7207 0.930817 18.2127 0.759722C18.7358 0.731744 19.2579 0.698386 19.7633 0.538052C20.2574 0.577867 20.7349 0.445511 21.2196 0.391707C21.7707 0.332524 22.3219 0.274416 22.873 0.215232C24.2576 0.150668 25.6422 0.0581266 27.0279 0.0269206C28.454 -0.00536136 29.8822 1.89759e-05 31.3094 0.0312249C32.1958 0.0505941 33.0811 0.150668 33.9675 0.215232L33.9644 0.209852ZM9.82199 13.0086C9.79708 13.1377 9.85728 13.2055 9.97353 13.2324C10.1012 13.3809 10.2424 13.5068 10.4354 13.5542C10.9232 13.849 11.4318 14.089 11.9923 14.1923C12.9991 14.6087 14.0412 14.9046 15.0968 15.1521C15.5929 15.3888 16.141 15.4201 16.6558 15.5825C17.1727 15.6901 17.6896 15.7978 18.2064 15.9054C19.2309 16.1668 20.2678 16.3541 21.3203 16.4434C21.8268 16.594 22.3509 16.6134 22.8709 16.6586C23.3899 16.7124 23.9037 16.8415 24.431 16.7737C24.9385 16.9524 25.4616 16.8867 25.9806 16.8738C27.5365 17.074 29.0923 17.0395 30.6492 16.8738C31.1692 16.8921 31.6913 16.9384 32.1999 16.7662C32.8144 16.8222 33.4143 16.7017 34.0153 16.6037C34.447 16.5499 34.8778 16.4972 35.3096 16.4434C36.4056 16.3024 37.4996 16.1442 38.5718 15.8548C39.0544 15.7945 39.5246 15.6826 39.9855 15.5244C40.5833 15.4265 41.177 15.3146 41.7375 15.066C42.7298 14.8637 43.6857 14.5323 44.6375 14.1858C45.2167 14.005 45.7865 13.8006 46.2982 13.453C46.6034 13.2744 46.9158 13.1054 47.1369 12.8095C48.2744 11.8658 48.3139 9.8428 47.5354 9.09171C47.3029 8.47835 46.7653 8.20503 46.2671 7.90265C45.4461 7.40443 44.541 7.10529 43.6546 6.75987C41.1023 5.76558 38.4545 5.20173 35.759 4.852C34.3318 4.66692 32.8974 4.58622 31.4599 4.50981C28.317 4.34195 25.1886 4.42911 22.0562 4.72503C19.7966 4.93809 17.5702 5.31041 15.3843 5.9313C13.625 6.43167 11.9082 7.07301 10.2693 7.90373C8.63252 8.73338 8.0274 10.5369 8.84633 12.0584C9.0643 12.4641 9.25839 12.9817 9.84483 13.0043L9.82199 13.0097V13.0086ZM38.0238 51.3908C36.7315 50.0931 35.5234 48.8696 34.3007 47.6622C34.0723 47.4373 34.0557 47.2867 34.281 47.0596C34.7148 46.6206 35.0314 46.0923 35.322 45.5435C36.3236 43.655 36.4627 41.618 36.114 39.5659C35.6905 37.0802 34.4429 35.139 32.1646 34.0446C30.5309 33.2602 28.8131 33.1515 27.0704 33.4969C25.227 33.8628 23.6951 34.7957 22.5824 36.3894C21.6877 37.671 21.2393 39.115 21.0857 40.6947C20.9175 42.4315 21.177 44.065 21.9389 45.6037C23.4283 48.6113 26.7352 49.993 29.9922 49.4291C30.3077 49.3743 30.4676 49.4528 30.6555 49.6573C31.1194 50.163 31.5938 50.6569 32.0629 51.1573C32.1843 51.2875 32.3016 51.3951 32.5019 51.394C34.309 51.3876 36.1171 51.3897 38.0258 51.3897L38.0238 51.3908ZM19.2444 37.9152C19.2444 36.6197 19.2361 35.3854 19.2506 34.1501C19.2537 33.8832 19.1011 33.894 18.9372 33.8445C17.5183 33.4183 16.0683 33.2871 14.5986 33.3376C13.105 33.3893 11.7318 33.7788 10.5195 34.7451C8.61799 36.2602 8.37303 39.5864 10.0327 41.3726C10.8724 42.2765 11.9207 42.7791 13.0136 43.2224C13.5254 43.4301 14.0485 43.6152 14.4823 43.9821C15.1643 44.5589 15.048 45.5822 14.2519 45.8717C13.8814 46.0062 13.4818 46.0783 13.0832 46.0159C12.1657 45.8717 11.2658 45.6629 10.4437 45.1884C10.0192 44.943 9.59053 44.7031 9.12242 44.4362C9.12242 45.8071 9.1245 47.1124 9.12035 48.4187C9.12035 48.6468 9.19819 48.7512 9.42239 48.8319C11.8802 49.7208 14.363 49.8585 16.8488 49.0245C19.3503 48.1852 20.5968 45.7296 19.8682 43.188C19.4758 41.8203 18.4919 40.9906 17.347 40.3568C16.4544 39.8629 15.5088 39.4734 14.5986 39.0117C13.9872 38.7018 13.7527 38.2617 13.8565 37.7474C13.9384 37.3395 14.4585 36.9274 15.0065 36.894C15.6946 36.8521 16.3797 36.8758 17.0585 37.0479C17.8079 37.2373 18.5043 37.5655 19.2433 37.9163L19.2444 37.9152ZM38.4192 41.4566C38.4192 43.91 38.4213 46.3624 38.4161 48.8158C38.4161 49.088 38.4037 49.2624 38.7763 49.2602C41.7801 49.2408 44.7839 49.2419 47.7876 49.2602C48.1405 49.2624 48.1706 49.1203 48.1665 48.8255C48.153 47.8947 48.1478 46.9628 48.1686 46.032C48.1758 45.6909 48.0949 45.5801 47.7472 45.5854C46.3491 45.608 44.9499 45.5736 43.5529 45.607C43.0827 45.6188 42.9581 45.4897 42.9612 44.9968C42.983 41.3619 42.9664 37.7269 42.982 34.092C42.9841 33.6745 42.8958 33.5389 42.4713 33.5496C41.2808 33.5819 40.0893 33.5776 38.8977 33.5518C38.5209 33.5432 38.4057 33.6303 38.4088 34.0435C38.4296 36.5142 38.4192 38.9859 38.4192 41.4566Z" fill="#01A9EA"/>
<path id="Vector_3" d="M31.6602 83.6481C31.6363 83.6502 31.6114 83.6481 31.5876 83.6416C31.3135 83.2779 30.9908 82.9648 30.6513 82.6688C30.4697 82.4612 30.287 82.2524 30.1054 82.0447C29.8013 81.6132 29.4972 81.1806 29.192 80.7491C29.1546 80.6781 29.1173 80.606 29.0799 80.535C28.8381 79.9959 28.5962 79.4557 28.3534 78.9166C28.2132 78.3807 28.0721 77.8448 27.932 77.309C27.8624 76.8054 27.7939 76.3007 27.7244 75.7971C27.7285 75.3645 27.7327 74.9319 27.7379 74.4993L27.7669 74.466L27.7534 74.4262C27.7711 74.3465 27.7898 74.2669 27.8074 74.1873C27.9008 73.6266 27.9942 73.0649 28.0876 72.5043L28.0856 72.4989L28.1395 72.3623C28.317 71.8608 28.4945 71.3583 28.673 70.8569C28.8433 70.533 29.0145 70.2091 29.1847 69.8852C29.2937 69.7108 29.4027 69.5376 29.5127 69.3633C30.2746 68.3055 31.1734 67.393 32.2062 66.6225C32.5186 66.4235 32.83 66.2233 33.1424 66.0242C33.3479 65.9188 33.5534 65.8133 33.7579 65.7079C34.2737 65.5196 34.7906 65.3313 35.3065 65.1429C35.8265 65.0353 36.3455 64.9277 36.8655 64.8201C37.3824 64.7846 37.8993 64.748 38.4162 64.7125C38.9673 64.7308 39.4364 65.0741 39.9751 65.1429C40.5263 65.3313 41.0753 65.3399 41.6234 65.1311C42.0033 64.9901 42.3198 64.7631 42.5399 64.4048C42.7651 64.1519 42.9872 63.8969 43.0858 63.5568C43.4761 62.7681 43.8664 61.9804 44.2566 61.1916C44.3843 60.9796 44.513 60.7677 44.6407 60.5557C44.869 60.2296 45.0963 59.9036 45.3247 59.5775C45.6174 59.2299 45.9101 58.8835 46.2028 58.5359C46.3854 58.3465 46.5671 58.1571 46.7497 57.9688C47.0819 57.6772 47.414 57.3867 47.7462 57.095C48.0669 56.8486 48.3876 56.6033 48.7083 56.3569C48.9055 56.303 49.0778 56.2073 49.2013 56.033C49.2418 55.9974 49.2833 55.9619 49.3238 55.9264L49.328 55.9501C50.0452 55.581 50.7624 55.213 51.4807 54.8439C51.8086 54.788 52.1138 54.6631 52.4086 54.5071C52.9286 54.3608 53.4486 54.2155 53.9686 54.0691C54.4512 53.997 54.9349 53.926 55.4175 53.8539C55.4622 53.8346 55.5058 53.8163 55.5504 53.7969L55.5546 53.8023C56.2687 53.7829 56.9828 53.7646 57.6969 53.7452C58.0082 53.7549 58.3196 53.7657 58.631 53.7754C59.1458 53.8528 59.6606 53.9314 60.1755 54.0089C60.6955 54.1455 61.2155 54.2833 61.7344 54.4199C62.7869 54.8751 63.8601 55.2829 64.8514 55.8812C65.116 56.0405 65.3807 56.1987 65.6454 56.3579C65.8934 56.5441 66.1415 56.7292 66.3896 56.9153C67.4026 57.7364 68.3181 58.6661 69.2003 59.6324C69.2045 59.7798 69.2387 59.8993 69.4172 59.8853L69.4141 59.882C69.4017 60.0392 69.4691 60.1156 69.6238 60.1005L69.6207 60.093C69.5958 60.2425 69.6373 60.3663 69.7286 60.489C70.478 61.4994 71.0375 62.6217 71.4983 63.7989C72.2415 65.6971 72.5964 67.6792 72.611 69.7184C72.6213 71.1216 72.3577 72.5 72.0847 73.8698C71.8865 74.8641 72.1397 75.2235 73.1403 75.3591C73.5202 75.3559 73.899 75.3537 74.2789 75.3505C74.774 75.3462 75.2432 75.4979 75.7186 75.6131C75.7736 75.7131 75.868 75.6852 75.9521 75.6895C76.4129 75.9703 76.8634 76.2662 77.2775 76.6181C77.481 76.8473 77.6844 77.0765 77.8878 77.3057C77.9636 77.3897 78.0383 77.4747 78.1141 77.5586C78.2916 78.1494 78.6123 78.6766 78.7514 79.2921C79.4406 82.3471 77.7187 85.1363 74.7574 85.6894C73.7351 85.8798 72.695 85.8551 71.6602 85.8626C69.3705 85.8798 67.0808 85.9186 64.7912 85.8938C60.1703 85.8432 55.5504 85.8669 50.9295 85.8766C47.6341 85.8841 44.3397 85.9035 41.0442 85.8949C39.6866 85.8917 38.3227 85.9046 36.9745 85.7701C35.3522 85.6076 33.8222 85.0642 32.4376 84.1409C32.3255 84.0656 32.2321 83.9343 32.0712 84.0172L32.0775 84.0042C32.064 83.8762 31.9809 83.8557 31.8782 83.8654L31.8834 83.8708C31.8958 83.7008 31.7972 83.6513 31.6571 83.647L31.6602 83.6481Z" fill="#01A9EA"/>
<path id="Vector_4" d="M38.0238 51.3908C36.115 51.3908 34.3069 51.3876 32.4999 51.3951C32.3006 51.3951 32.1833 51.2886 32.0608 51.1584C31.5917 50.658 31.1173 50.163 30.6534 49.6583C30.4655 49.4539 30.3057 49.3753 29.9901 49.4302C26.7341 49.994 23.4262 48.6124 21.9368 45.6048C21.1749 44.066 20.9144 42.4325 21.0836 40.6958C21.2372 39.115 21.6856 37.672 22.5803 36.3904C23.693 34.7978 25.225 33.8638 27.0683 33.4979C28.811 33.1525 30.5288 33.2612 32.1625 34.0457C34.4408 35.139 35.6884 37.0813 36.1119 39.567C36.4617 41.619 36.3216 43.656 35.3199 45.5445C35.0293 46.0933 34.7127 46.6217 34.2789 47.0607C34.0537 47.2877 34.0703 47.4384 34.2986 47.6633C35.5223 48.8696 36.7295 50.0941 38.0217 51.3919L38.0238 51.3908ZM31.409 41.5039C31.4007 40.7539 31.3613 40.0049 31.0935 39.2969C30.7406 38.365 30.2382 37.5752 29.1805 37.4224C28.0596 37.2599 27.0777 37.5784 26.539 38.6469C25.6142 40.4805 25.5727 42.4056 26.5452 44.2177C27.469 45.9384 29.6632 45.9297 30.7291 44.3038C31.2876 43.4526 31.3965 42.4928 31.41 41.5039H31.409Z" fill="#FDFDFE"/>
<path id="Vector_5" d="M3.85071 72.0115C4.3157 71.9404 4.58453 72.3353 4.91978 72.5344C7.2157 73.901 9.65277 74.9115 12.1833 75.6884C14.1086 76.2791 16.0703 76.7192 18.0518 77.0453C19.6574 77.31 21.2735 77.5091 22.8885 77.6974C23.6037 77.7813 23.969 77.3487 23.9628 76.4857C23.9535 75.1546 24.0313 73.8311 24.2742 72.5258C24.9136 69.1007 26.4258 66.205 29.0954 64.0023C31.0727 62.371 33.3374 61.4907 35.8015 61.0571C36.7035 60.8978 37.6096 60.8268 38.5147 60.8204C39.6564 60.8118 40.3529 60.1769 40.904 59.2482C42.6104 56.3676 44.8274 54.0368 47.6921 52.3797C49.9289 51.0852 52.3296 50.3492 54.8528 49.9984C56.062 49.8305 56.5571 49.2742 56.5561 48.0259C56.5561 40.0899 56.5727 32.1529 56.5405 24.2169C56.5333 22.3886 56.4741 20.5593 56.525 18.7332C56.5654 17.2579 56.527 15.7837 56.6381 14.3063C56.7668 12.5986 56.5281 10.9264 55.6988 9.39512C55.6136 9.23694 55.4496 9.068 55.6302 8.86462C55.6977 8.91305 55.7662 8.96147 55.8337 9.00882L55.8524 9.03895C55.8804 9.07446 55.9084 9.10997 55.9354 9.14655C55.9624 9.25631 56.0382 9.3198 56.1316 9.36715C56.1721 9.42956 56.2115 9.4909 56.252 9.55331L56.2644 9.57375C56.5353 10.0408 56.8062 10.5078 57.0771 10.9748C57.0782 11.0641 57.1 11.1427 57.184 11.1879L57.6117 12.7998C57.731 13.1506 57.62 13.5391 57.7819 13.8823V15.2575C57.6708 15.6557 57.6978 16.0614 57.7155 16.467C57.6885 17.6421 57.6615 18.8182 57.6355 19.9933C57.5473 20.9004 57.6054 21.8108 57.6034 22.719C57.6034 23.1031 57.5068 23.5002 57.6781 23.8747C57.5421 24.9454 57.6978 26.0139 57.6978 27.0846C57.6978 31.3942 57.6957 35.705 57.6978 40.0146C57.6999 42.7683 57.7092 45.5219 57.7155 48.2756C57.6573 48.8136 57.7632 49.3613 57.6231 49.894C57.5515 50.2577 57.3418 50.5289 57.0761 50.7613C56.7606 50.8797 56.445 50.998 56.1295 51.1164C54.8352 51.2886 53.5554 51.5339 52.314 51.9622C51.8958 52.1161 51.4775 52.2699 51.0592 52.4238C50.5921 52.5723 50.1562 52.7951 49.7244 53.0264C49.604 53.0651 49.4784 53.0931 49.4026 53.2147C48.8079 53.4633 48.2723 53.8173 47.7471 54.1929L47.2178 54.5706C46.8223 54.8493 46.4206 55.1194 46.0895 55.4831C45.7937 55.7069 45.5 55.9329 45.2737 56.2374C44.9789 56.4408 44.734 56.6947 44.5378 57.0003C44.241 57.2338 44.0189 57.5362 43.8009 57.8429C43.4999 58.1808 43.2103 58.5283 42.9799 58.9243C42.8231 59.1256 42.6363 59.3053 42.5502 59.5571C42.2077 60.0951 41.8651 60.6342 41.5226 61.1722C41.0296 61.65 40.4567 61.9341 39.7737 61.9492C39.4249 61.9362 39.0741 61.8943 38.7378 62.0331C37.9656 61.9825 37.2131 62.1428 36.4585 62.2709C35.5306 62.4484 34.6172 62.6809 33.7485 63.0715C33.1153 63.2942 32.5081 63.5751 31.9487 63.9582C31.7691 64.0195 31.5968 64.0959 31.465 64.2455C31.1225 64.4402 30.7841 64.6415 30.4997 64.9255C30.096 65.2021 29.7005 65.4905 29.3985 65.8919C29.2563 66.0393 29.1141 66.1867 28.9729 66.3341C28.538 66.6828 28.2235 67.139 27.9194 67.6039C27.716 67.8352 27.5333 68.0817 27.4243 68.3776C27.2126 68.5702 27.0777 68.8102 27.004 69.0899C26.6303 69.6678 26.3656 70.3005 26.1477 70.9558C25.7564 71.8522 25.5737 72.811 25.3786 73.7654C25.3391 74.0291 25.3007 74.2938 25.2582 74.5563C25.0744 75.6894 25.172 76.8398 25.0568 77.9782C25.0039 78.5023 24.7392 78.7961 24.2358 78.8079C23.9431 78.8154 23.6535 78.795 23.3598 78.7552C22.5419 78.6433 21.7198 78.5701 20.8999 78.4808C20.5708 78.3183 20.2055 78.3635 19.8609 78.2892C19.345 78.2107 18.8302 78.131 18.3144 78.0525C17.8774 77.876 17.4103 77.8502 16.9578 77.7523C16.2364 77.5801 15.515 77.4079 14.7926 77.2358C14.7542 77.2282 14.7158 77.2218 14.6785 77.2142C14.227 77.1174 13.8045 76.9 13.3374 76.8742C12.9825 76.6547 12.5694 76.6138 12.1895 76.4717C11.6404 76.2824 11.0903 76.0919 10.5412 75.9025C10.3918 75.768 10.2184 75.6937 10.0192 75.6927C9.70259 75.4861 9.35281 75.3623 8.9968 75.2536C8.44046 74.9728 7.88309 74.6919 7.32676 74.4111C7.04963 74.2647 6.77354 74.1184 6.49641 73.972C6.25665 73.8246 6.01792 73.6772 5.77816 73.5287C5.10765 73.0617 4.4361 72.5958 3.85278 72.0082L3.85071 72.0115Z" fill="#037FAF"/>
<path id="Vector_6" d="M19.2444 37.9152C18.5054 37.5633 17.8089 37.2362 17.0595 37.0468C16.3797 36.8747 15.6946 36.851 15.0075 36.893C14.4595 36.9263 13.9395 37.3385 13.8575 37.7463C13.7537 38.2606 13.9893 38.7008 14.5996 39.0107C15.5088 39.4734 16.4554 39.8618 17.3481 40.3557C18.4929 40.9895 19.4769 41.8192 19.8692 43.1869C20.5979 45.7285 19.3513 48.1841 16.8499 49.0235C14.364 49.8574 11.8813 49.7197 9.42343 48.8308C9.19923 48.7501 9.12035 48.6458 9.12139 48.4176C9.12554 47.1113 9.12346 45.806 9.12346 44.4351C9.59261 44.702 10.0202 44.9419 10.4448 45.1873C11.2668 45.6629 12.1667 45.8706 13.0842 46.0148C13.4828 46.0772 13.8824 46.0051 14.2529 45.8706C15.048 45.5822 15.1653 44.5578 14.4834 43.981C14.0495 43.6141 13.5264 43.429 13.0147 43.2213C11.9217 42.778 10.8734 42.2754 10.0337 41.3715C8.37407 39.5864 8.62007 36.2592 10.5205 34.7441C11.7328 33.7788 13.106 33.3882 14.5996 33.3366C16.0693 33.286 17.5193 33.4173 18.9382 33.8434C19.1022 33.8929 19.2548 33.8821 19.2516 34.149C19.2361 35.3832 19.2454 36.6186 19.2454 37.9141L19.2444 37.9152Z" fill="#FCFDFE"/>
<path id="Vector_7" d="M38.4191 41.4555C38.4191 38.9848 38.4295 36.5131 38.4088 34.0425C38.4056 33.6282 38.5209 33.5421 38.8976 33.5507C40.0881 33.5765 41.2807 33.5819 42.4712 33.5486C42.8958 33.5367 42.984 33.6723 42.9819 34.0909C42.9663 37.7258 42.9819 41.3608 42.9611 44.9958C42.958 45.4886 43.0826 45.6166 43.5528 45.6059C44.9509 45.5725 46.349 45.607 47.7471 45.5844C48.0958 45.579 48.1768 45.6898 48.1685 46.0309C48.1477 46.9617 48.1529 47.8936 48.1664 48.8244C48.1705 49.1192 48.1404 49.2613 47.7875 49.2591C44.7838 49.2419 41.78 49.2408 38.7762 49.2591C38.4025 49.2613 38.415 49.088 38.416 48.8147C38.4222 46.3613 38.4191 43.9089 38.4191 41.4555Z" fill="#FEFEFE"/>
<path id="Vector_8" d="M9.84381 13.0032C9.25634 12.9795 9.06328 12.4619 8.84532 12.0573C8.02638 10.5358 8.6315 8.73228 10.2683 7.90264C11.9072 7.07191 13.624 6.43058 15.3833 5.93021C17.5692 5.30932 19.7955 4.937 22.0551 4.72394C25.1876 4.42802 28.317 4.33978 31.4588 4.50872C32.8964 4.5862 34.3308 4.66583 35.758 4.85091C38.4535 5.20063 41.1023 5.76557 43.6536 6.75878C44.5389 7.10419 45.445 7.40227 46.266 7.90156C46.7643 8.20394 47.3019 8.47726 47.5344 9.09061C47.1701 8.93889 46.8566 8.66449 46.4529 8.60531C45.3298 8.07588 44.186 7.60457 42.9789 7.32264C42.5907 7.09236 42.1496 7.03963 41.7271 6.92019C41.1853 6.78353 40.6539 6.59844 40.0934 6.55002C39.6502 6.38215 39.1842 6.33373 38.7223 6.26594C38.5884 6.25625 38.4535 6.24657 38.3196 6.23796C37.1104 6.06471 35.9147 5.76987 34.6827 5.81184C34.5259 5.67087 34.3422 5.70961 34.1616 5.72791C32.4698 5.59985 30.7748 5.54928 29.0789 5.58694C28.947 5.59017 28.8142 5.5934 28.6824 5.5977C28.425 5.59985 28.1665 5.59017 27.9091 5.60416C27.2282 5.64074 26.5401 5.51377 25.8644 5.69455C25.2748 5.72252 24.679 5.62245 24.0968 5.79785C23.6868 5.84843 23.2623 5.73436 22.8658 5.92052C22.2347 5.89685 21.6161 5.98078 21.0047 6.13681L19.9772 6.26594C19.8921 6.24765 19.8153 6.25841 19.7582 6.33481C19.124 6.36816 18.521 6.57262 17.9034 6.69529C17.592 6.77922 17.2796 6.86208 16.9682 6.94601C15.7974 7.23763 14.6609 7.63792 13.5451 8.10494C12.9888 8.33844 12.3909 8.46757 11.8834 8.82375C11.4142 8.97547 11.0063 9.23803 10.6389 9.57162C10.5693 9.64264 10.4998 9.71366 10.4313 9.78468C9.97563 10.1785 9.73068 10.6843 9.68916 11.2966C9.54904 11.5451 9.60197 11.8045 9.64557 12.0649C9.69746 12.3102 9.67774 12.5738 9.81475 12.7977V12.803C9.82513 12.8698 9.83447 12.9365 9.84381 13.0032Z" fill="#037FAF"/>
<path id="Vector_9" d="M73.1413 75.3624C72.1407 75.2268 71.8874 74.8674 72.0857 73.8731C72.3587 72.5022 72.6223 71.1248 72.6119 69.7216C72.5963 67.6825 72.2424 65.7003 71.4992 63.8022C71.0374 62.6249 70.479 61.5026 69.7296 60.4922C69.6382 60.3695 69.5967 60.2458 69.6216 60.0962C69.742 60.2199 69.8686 60.3383 69.9828 60.4685C70.6814 61.2573 71.2128 62.1709 71.7805 63.0575C72.2217 64.0335 72.6794 65.002 73.0188 66.0242C73.1693 66.6656 73.3198 67.3069 73.4703 67.9483C73.5128 68.242 73.5554 68.5358 73.598 68.8296C73.6934 69.7141 73.7132 70.6018 73.7018 71.4907C73.6945 71.6413 73.6862 71.7909 73.6789 71.9415C73.598 72.6141 73.516 73.2866 73.435 73.9592C73.2918 74.4176 73.2015 74.8867 73.1444 75.3645L73.1413 75.3624Z" fill="#037FAF"/>
<path id="Vector_10" d="M31.409 41.5039C31.3955 42.4928 31.2865 43.4516 30.7281 44.3038C29.6621 45.9298 27.4679 45.9384 26.5441 44.2178C25.5716 42.4057 25.6131 40.4806 26.5379 38.647C27.0776 37.5784 28.0585 37.2599 29.1795 37.4224C30.2382 37.5752 30.7395 38.365 31.0924 39.2969C31.3612 40.005 31.3996 40.7528 31.4079 41.5039H31.409Z" fill="#01A9EA"/>
</g>
<defs>
<clipPath id="clip0_331_239">
<rect width="80" height="87" fill="white"/>
</clipPath>
</defs>
</svg>
