<svg width="75" height="83" viewBox="0 0 75 83" fill="none" xmlns="http://www.w3.org/2000/svg">
<g id="Layer_1" clip-path="url(#clip0_332_357)">
<path id="Vector" d="M49.6785 83C49.6622 82.9221 49.6634 82.9221 49.5742 82.8714C48.7816 82.4264 47.9889 81.9814 47.1975 81.5364C40.0709 77.525 32.9444 73.5124 25.8154 69.506C25.6508 69.4133 25.593 69.3144 25.593 69.1289C25.598 60.3831 25.5968 51.6372 25.5968 42.8913C25.5968 42.8715 25.5968 42.8505 25.5968 42.8307C25.5968 42.6708 25.6676 42.6305 25.8091 42.7096C30.2448 45.2054 34.6805 47.7025 39.1162 50.1983C42.5997 52.1588 46.0832 54.1182 49.5692 56.0738C49.7124 56.1541 49.7652 56.2382 49.7652 56.4026C49.7614 65.1819 49.7614 73.9611 49.7614 82.7416C49.7614 82.8282 49.7614 82.9147 49.7614 83.0012H49.6785V83Z" fill="#803CF2"/>
<path id="Vector_2" d="M0.105525 -0.000416789C0.0615574 0.102185 0.164567 0.100949 0.208535 0.126908C0.891918 0.515065 1.57781 0.898277 2.26245 1.28396C9.5146 5.36579 16.7667 9.44761 24.0214 13.5245C24.147 13.595 24.1897 13.6716 24.1897 13.81C24.1872 22.5695 24.1872 31.329 24.1872 40.0885C24.1872 40.3122 24.1872 40.3122 23.9674 40.1886C16.0834 35.7533 8.2006 31.3179 0.315313 26.8838C0.222353 26.8318 0.139443 26.7527 0.0238708 26.7465C0.0226146 17.8931 0.0226146 9.0372 0.0288957 0.182536C0.0288957 0.129381 -0.072858 -0.00536146 0.105525 -0.000416789Z" fill="#803CF2"/>
<path id="Vector_3" d="M74.9999 41.0544C74.9246 41.0482 74.8743 41.1014 74.8165 41.1335C66.9664 45.5751 59.1176 50.0166 51.2674 54.4582C51.1226 54.5397 51.0501 54.4977 51.0501 54.3321C51.0501 45.6121 51.0501 36.8922 51.0476 28.1735C51.0476 28.0351 51.069 27.9424 51.2097 27.8645C59.1176 23.4279 67.0229 18.9863 74.9283 14.5448C74.9522 14.5312 74.9773 14.5201 75.0012 14.5077V41.0532L74.9999 41.0544Z" fill="#803CF2"/>
<path id="Vector_4" d="M49.76 54.7177C48.7914 54.1726 47.8643 53.6497 46.936 53.1268C39.9049 49.1673 32.8751 45.2066 25.8416 41.2509C25.6582 41.1471 25.5903 41.0383 25.5916 40.8281C25.5979 32.1292 25.5966 23.4303 25.5966 14.7314C25.5966 14.7116 25.5966 14.6906 25.5966 14.6708C25.5966 14.4986 25.6715 14.4545 25.8215 14.5385C33.7407 18.9949 41.6599 23.4526 49.5816 27.9052C49.7223 27.9843 49.7637 28.0696 49.7637 28.2217C49.76 36.975 49.76 45.7271 49.76 54.4804V54.7165V54.7177Z" fill="#803CF2"/>
</g>
<defs>
<clipPath id="clip0_332_357">
<rect width="75" height="83" fill="white"/>
</clipPath>
</defs>
</svg>
