<svg width="93" height="73" viewBox="0 0 93 73" fill="none" xmlns="http://www.w3.org/2000/svg">
<g id="Layer_1" clip-path="url(#clip0_316_8)">
<path id="Vector" d="M0 50.726V22.4613C0.467017 22.5156 0.352534 22.0773 0.443394 21.8564C1.61911 19.0024 3.63074 17.1952 6.67089 17.0135C9.59838 16.8394 12.5404 16.9105 15.4752 16.9349C16.2802 16.9424 16.7672 16.7027 17.2469 15.9929C23.1891 7.19494 31.3065 1.9626 41.6099 0.355814C41.8026 0.325851 42.2187 0.513122 42.1406 0H50.8594C50.7831 0.410123 51.1084 0.320233 51.2992 0.352069C51.8643 0.451322 52.4404 0.492522 53.0019 0.60863C62.6875 2.61243 70.336 7.80919 75.9257 16.2045C76.2764 16.7326 76.6399 16.9368 77.2523 16.9311C79.9453 16.9012 82.6402 16.9087 85.3333 16.9199C88.8277 16.9349 91.3227 18.6971 92.6184 22.0343C92.6893 22.2178 92.6184 22.5642 93 22.4613V50.726C92.5221 50.608 92.6166 51.0743 92.5293 51.2747C91.1483 54.4939 88.7551 56.1175 85.3515 56.1438C82.5984 56.1644 79.8436 56.1587 77.0905 56.1381C76.5926 56.1344 76.2746 56.2711 75.9766 56.7168C70.0035 65.659 61.8316 71.0074 51.3973 72.6554C51.2174 72.6835 50.7831 72.4756 50.8613 72.9981H42.1424C42.2187 72.588 41.8916 72.6779 41.7026 72.6461C41.1375 72.5468 40.5614 72.5056 39.9999 72.3895C30.3507 70.3857 22.7112 65.2264 17.1343 56.8629C16.7835 56.3348 16.4346 56.1269 15.8204 56.1344C13.1873 56.1681 10.5524 56.1325 7.9193 56.1531C4.32309 56.1812 1.79356 54.552 0.401598 51.1043C0.332545 50.9339 0.392512 50.5593 0.00181719 50.726H0ZM51.7571 68.6872C52.0242 68.8276 52.3005 68.734 52.5567 68.6797C60.0871 67.0935 66.331 63.2844 71.2356 57.1719C71.3628 57.0146 71.6099 56.861 71.5063 56.6288C71.3809 56.3479 71.0775 56.4752 70.8558 56.4752C68.3462 56.4659 65.8349 56.4827 63.3253 56.4565C62.8038 56.4509 62.5094 56.6625 62.2187 57.082C60.0326 60.2375 57.5158 63.0953 54.7864 65.7582C53.7815 66.7395 52.7766 67.719 51.7698 68.6984C51.7244 68.7227 51.6045 68.7209 51.7335 68.807C51.7408 68.7677 51.748 68.7265 51.7553 68.6872H51.7571ZM41.2429 68.6853C41.2629 68.719 41.2829 68.7527 41.3028 68.7845C41.3028 68.7658 41.3083 68.7358 41.2992 68.7284C41.2792 68.7134 41.2501 68.7078 41.2247 68.6984C41.1811 68.4194 40.9449 68.3032 40.7704 68.1441C37.0415 64.7601 33.5762 61.1233 30.705 56.9247C30.4361 56.5333 30.1181 56.4584 29.7019 56.4621C27.7085 56.4734 25.7132 56.4677 23.7197 56.4659C22.982 56.4659 22.2424 56.4659 21.5191 56.4659C21.4773 56.8554 21.6609 56.9921 21.7899 57.1532C25.6968 62.0709 30.576 65.5466 36.4201 67.571C37.9847 68.1122 39.5565 68.674 41.2429 68.6815V68.6853ZM51.3773 4.34094L51.381 4.29412L51.3846 4.32783C55.2298 7.94964 58.8314 11.7999 61.8262 16.2158C62.1006 16.6203 62.4458 16.6371 62.8492 16.6353C65.2679 16.6296 67.6866 16.6315 70.1034 16.6315C70.5977 16.6315 71.0938 16.6315 71.7207 16.6315C71.5027 16.2944 71.4009 16.109 71.2719 15.9461C66.7435 10.2231 60.9666 6.52638 54.0359 4.73233C53.1745 4.50948 52.3077 4.14805 51.3791 4.34281L51.3773 4.34094ZM46.4037 52.7841C59.3275 52.7841 72.2514 52.7841 85.1752 52.7841C88.1063 52.7841 89.7363 51.1137 89.7381 48.1136C89.74 40.4411 89.7381 32.7686 89.7381 25.0961C89.7381 21.8919 88.1608 20.2702 85.0462 20.2702C72.7275 20.2702 60.4088 20.2702 48.09 20.2702C34.6211 20.2702 21.1521 20.2683 7.68307 20.2721C4.93548 20.2721 3.26185 21.9968 3.26003 24.8096C3.2564 32.6076 3.2564 40.4037 3.26367 48.2016C3.26367 48.666 3.27457 49.1455 3.38179 49.5912C3.86152 51.5912 5.45701 52.7841 7.63037 52.786C20.5542 52.7897 33.478 52.786 46.4019 52.786L46.4037 52.7841ZM21.1702 16.6315C24.4393 16.6315 27.4014 16.6203 30.3616 16.6427C30.8395 16.6465 31.0594 16.3768 31.2938 16.0379C33.7724 12.446 36.649 9.20997 39.7255 6.15933C40.3634 5.52823 41.0103 4.90649 41.6536 4.28101C33.3018 5.60127 26.5782 9.69313 21.1702 16.6315ZM34.7446 56.4677C37.7611 60.3967 41.0048 63.6758 44.7083 66.7901C44.7083 63.3762 44.701 60.2281 44.7155 57.0801C44.7173 56.5595 44.4793 56.4584 44.0486 56.464C42.8983 56.479 41.7481 56.4677 40.5978 56.4677C38.7297 56.4677 36.8616 56.4677 34.7446 56.4677ZM58.2336 56.4734C54.919 56.4734 51.8389 56.4734 48.7606 56.4734C48.1718 56.4734 48.2917 56.9247 48.2899 57.273C48.2827 59.8292 48.2863 62.3874 48.2863 64.9455C48.2863 65.4886 48.2863 66.0335 48.2863 66.8276C51.9806 63.629 55.2534 60.3929 58.2336 56.4752V56.4734ZM35.3479 16.506C35.5805 16.5753 35.6605 16.6221 35.7404 16.6221C38.5207 16.6278 41.2992 16.6128 44.0795 16.6427C44.7337 16.6502 44.7155 16.272 44.7137 15.8075C44.7083 12.9423 44.7137 10.0789 44.7046 7.21367C44.7046 7.01891 44.8027 6.77545 44.4975 6.59006C41.212 9.59388 38.1209 12.8018 35.3461 16.506H35.3479ZM57.7466 16.6278C54.8809 12.8093 51.7898 9.58077 48.2917 6.40466C48.2917 9.81673 48.2917 12.9779 48.2917 16.1409C48.2917 16.4986 48.4589 16.6315 48.7933 16.6315C51.6881 16.6278 54.5828 16.6296 57.7466 16.6296V16.6278Z" fill="#1570B7"/>
<path id="Vector_2" d="M46.4037 52.7841C33.4799 52.7841 20.5561 52.7841 7.63224 52.7841C5.45889 52.7841 3.8634 51.5912 3.38366 49.5893C3.27645 49.1436 3.26554 48.6642 3.26554 48.1997C3.25827 40.4018 3.25827 32.6057 3.26191 24.8078C3.26191 21.9968 4.93736 20.2721 7.68494 20.2702C21.1539 20.2646 34.6229 20.2683 48.0919 20.2683C60.4106 20.2683 72.7293 20.2683 85.048 20.2683C88.1627 20.2683 89.74 21.8919 89.74 25.0943C89.74 32.7668 89.74 40.4392 89.74 48.1117C89.74 51.1118 88.1082 52.7823 85.1771 52.7823C72.2532 52.7823 59.3294 52.7823 46.4056 52.7823L46.4037 52.7841ZM25.4643 37.4298C25.4116 37.4261 25.3589 37.4223 25.3044 37.4204C25.2281 37.0908 25.1427 36.7631 25.0772 36.4316C24.5666 33.8379 24.0469 31.248 23.5635 28.6506C23.4509 28.04 23.2619 27.7329 22.5786 27.7891C21.6755 27.8621 20.7632 27.834 19.8565 27.7966C19.3604 27.776 19.1659 27.9726 19.0769 28.4595C18.7916 30.0195 18.4736 31.572 18.161 33.1263C17.8703 34.572 17.5704 36.0159 17.2761 37.4598C17.1034 37.3249 17.0743 37.2126 17.0598 37.1002C16.6927 34.2911 16.3311 31.4802 15.9586 28.673C15.9041 28.2685 15.9731 27.7816 15.299 27.7966C13.7562 27.8303 12.2116 27.8153 10.6688 27.8022C10.249 27.7985 10.1799 27.9539 10.2454 28.3678C11.0867 33.8117 11.9117 39.2576 12.7276 44.7053C12.7894 45.1154 12.9348 45.2896 13.3637 45.2858C15.3607 45.2671 17.3596 45.269 19.3567 45.2858C19.7601 45.2896 19.9419 45.1734 20.0073 44.7334C20.149 43.7802 20.3289 42.8307 20.5434 41.8925C20.7723 40.8887 20.8232 39.8362 21.2212 38.8306C21.5828 39.0834 21.5592 39.413 21.6155 39.7033C21.9299 41.3213 22.2551 42.9374 22.5368 44.5611C22.6349 45.1229 22.8603 45.3083 23.4272 45.297C25.3026 45.2558 27.1815 45.2521 29.0569 45.2989C29.6493 45.3139 29.8292 45.0854 29.9037 44.5423C30.1254 42.9393 30.3798 41.3419 30.6233 39.7426C31.1866 36.0515 31.7445 32.3585 32.3187 28.6693C32.4114 28.07 32.3442 27.7648 31.6264 27.7929C30.2053 27.8509 28.7825 27.8228 27.3596 27.8022C26.9181 27.7966 26.7309 27.9221 26.6745 28.4127C26.4674 30.2068 26.2093 31.9933 25.9677 33.7836C25.8023 35.0009 25.6315 36.2182 25.4643 37.4354V37.4298ZM59.4875 35.9447C61.4428 34.7743 62.1515 33.248 61.8426 31.0008C61.5954 29.1955 60.6941 28.2311 58.9369 27.9258C58.5207 27.8528 58.0937 27.8134 57.6721 27.8116C54.8573 27.8003 52.0425 27.8153 49.2258 27.7966C48.7388 27.7928 48.5353 27.9071 48.5371 28.467C48.5553 33.8642 48.5517 39.2594 48.5444 44.6566C48.5444 45.0592 48.608 45.2896 49.0823 45.2858C52.3205 45.2633 55.5606 45.2989 58.7988 45.2409C60.1217 45.2184 61.2702 44.6959 62.017 43.4655C63.7306 40.649 62.584 37.0983 59.4857 35.9466L59.4875 35.9447ZM80.1198 35.9485C82.1823 34.3323 82.8184 32.5626 82.2314 30.3229C81.7226 28.3771 80.227 27.776 78.5352 27.5475C75.5914 27.1486 72.6875 27.3996 69.8218 28.2236C69.3058 28.3715 69.1077 28.5607 69.2367 29.1187C69.413 29.8753 69.6056 30.6375 69.6656 31.409C69.7273 32.2237 70.0762 32.2593 70.7322 32.1188C72.4549 31.7499 74.1976 31.6394 75.9639 31.7124C76.8216 31.748 77.0415 32.0195 77.0452 32.9035C77.0506 33.8211 76.7635 34.1039 75.9276 34.0889C75.3279 34.0777 74.7264 34.2087 74.1249 34.278C72.9244 34.4129 72.3241 35.1158 72.3241 36.3867C72.3241 36.9167 72.3495 37.4485 72.3168 37.9766C72.2896 38.413 72.4295 38.5796 72.862 38.6134C74.0068 38.7014 75.1462 38.8961 76.291 38.9336C77.365 38.9692 76.9252 39.7463 77.0015 40.2688C77.0797 40.81 77.027 41.1752 76.2947 41.2127C74.2921 41.3157 72.2968 41.3531 70.3506 40.8007C69.6219 40.5947 69.482 40.9074 69.3948 41.5142C69.2621 42.4374 69.1277 43.3644 68.9096 44.2689C68.7661 44.8644 68.9696 45.018 69.4875 45.1248C72.3895 45.7222 75.3025 45.8607 78.239 45.475C81.3628 45.0648 82.8892 43.2408 82.8293 39.9917C82.7929 38.0815 81.8716 36.78 80.1198 35.9522V35.9485ZM33.9796 36.5496C33.9796 39.1995 33.9796 41.8494 33.9796 44.4993C33.9796 44.8944 33.8742 45.2933 34.5266 45.2896C38.1864 45.2633 41.8481 45.2708 45.5097 45.2858C45.9549 45.2858 46.0857 45.1191 46.0767 44.6865C46.0567 43.7521 46.0385 42.8138 46.0821 41.8812C46.1112 41.2726 45.9276 41.0647 45.3207 41.0816C43.8997 41.1228 42.4768 41.0947 41.0558 41.0947C39.3367 41.0947 39.3585 41.0947 39.4039 39.2894C39.4167 38.7875 39.5657 38.662 40.0272 38.6714C41.4192 38.6976 42.8112 38.6602 44.2013 38.6901C44.7192 38.7014 44.8846 38.5272 44.8628 37.9972C44.8264 37.0627 44.8319 36.1264 44.8628 35.1919C44.8773 34.7368 44.7247 34.602 44.2958 34.6132C43.2982 34.6395 42.2987 34.6207 41.3011 34.6207C39.3494 34.6207 39.3749 34.6207 39.4021 32.6132C39.4094 32.0308 39.6311 31.969 40.0981 31.9783C41.5809 32.0027 43.0638 31.9615 44.5448 32.0008C45.0681 32.0139 45.3098 31.8735 45.3752 31.3192C45.4806 30.424 45.5933 29.5214 45.8004 28.6468C45.984 27.8752 45.695 27.7854 45.0427 27.791C41.6536 27.8191 38.2664 27.8209 34.8773 27.791C34.2013 27.7854 33.9487 27.9221 33.9633 28.6936C34.0142 31.3117 33.9833 33.9316 33.9833 36.5496H33.9796Z" fill="#FCFDFD"/>
<path id="Vector_3" d="M21.1702 16.6315C26.5781 9.69313 33.3017 5.60126 41.6535 4.28101C41.0102 4.90649 40.3633 5.52636 39.7255 6.15933C36.649 9.20997 33.7724 12.4441 31.2937 16.0379C31.0593 16.3768 30.8394 16.6465 30.3615 16.6427C27.3995 16.6221 24.4375 16.6315 21.1702 16.6315Z" fill="#B8DCF9"/>
<path id="Vector_4" d="M51.3774 4.3428C52.3078 4.14616 53.1746 4.5076 54.036 4.73232C60.9667 6.52637 66.7436 10.225 71.272 15.9461C71.401 16.109 71.5028 16.2963 71.7208 16.6315C71.0939 16.6315 70.5996 16.6315 70.1036 16.6315C67.6849 16.6315 65.2662 16.6278 62.8493 16.6352C62.4459 16.6352 62.1007 16.6203 61.8263 16.2158C58.8334 11.7999 55.2299 7.9515 51.3847 4.32782L51.3774 4.3428Z" fill="#B8DCF9"/>
<path id="Vector_5" d="M41.2429 68.6834C39.5566 68.6759 37.9847 68.1141 36.4201 67.5729C30.5761 65.5504 25.6969 62.0728 21.79 57.155C21.6628 56.994 21.4774 56.8554 21.5192 56.4677C22.2443 56.4677 22.982 56.4677 23.7198 56.4677C25.7133 56.4677 27.7085 56.4734 29.702 56.464C30.1181 56.4621 30.4361 56.5352 30.7051 56.9266C33.5762 61.1252 37.0434 64.7601 40.7705 68.1459C40.9449 68.3051 41.1812 68.4212 41.2248 68.7003L41.2429 68.6853V68.6834Z" fill="#B8DCF9"/>
<path id="Vector_6" d="M51.7716 68.6965C52.7765 67.7171 53.7832 66.7358 54.7863 65.7564C57.5157 63.0934 60.0326 60.2356 62.2186 57.0801C62.5094 56.6606 62.8038 56.449 63.3253 56.4546C65.8348 56.4809 68.3462 56.4621 70.8557 56.4734C71.0774 56.4734 71.3809 56.346 71.5063 56.6269C71.6098 56.8592 71.3627 57.0127 71.2355 57.17C66.3309 63.2844 60.0871 67.0935 52.5566 68.6778C52.3022 68.7321 52.0242 68.8257 51.7571 68.6853L51.7698 68.6965H51.7716Z" fill="#B8DCF9"/>
<path id="Vector_7" d="M34.7463 56.4677C36.8652 56.4677 38.7332 56.4677 40.5995 56.4677C41.7498 56.4677 42.9001 56.479 44.0503 56.464C44.481 56.4584 44.7209 56.5595 44.7172 57.0801C44.7027 60.2281 44.71 63.3762 44.71 66.7901C41.0065 63.6758 37.7629 60.3967 34.7463 56.4677Z" fill="#B8DCF9"/>
<path id="Vector_8" d="M58.2353 56.4734C55.2551 60.3911 51.9824 63.6271 48.288 66.8257C48.288 66.0317 48.288 65.4886 48.288 64.9436C48.288 62.3855 48.2844 59.8293 48.2917 57.2711C48.2917 56.9228 48.1735 56.4715 48.7623 56.4715C51.8425 56.4715 54.9208 56.4715 58.2353 56.4715V56.4734Z" fill="#B8DCF9"/>
<path id="Vector_9" d="M35.3479 16.506C38.1209 12.8018 41.2138 9.59388 44.4993 6.59006C44.8045 6.77358 44.7064 7.01703 44.7064 7.21367C44.7137 10.0789 44.7082 12.9423 44.7155 15.8075C44.7155 16.272 44.7355 16.6502 44.0813 16.6428C41.3028 16.6128 38.5225 16.6278 35.7422 16.6222C35.6623 16.6222 35.5805 16.5772 35.3497 16.506H35.3479Z" fill="#B8DCF9"/>
<path id="Vector_10" d="M57.7466 16.6278C54.5828 16.6278 51.6881 16.6259 48.7933 16.6296C48.4589 16.6296 48.2917 16.4985 48.2917 16.139C48.2954 12.9778 48.2917 9.81484 48.2917 6.40277C51.7898 9.57888 54.8809 12.8074 57.7466 16.6259V16.6278Z" fill="#B8DCF9"/>
<path id="Vector_11" d="M51.3848 4.32787L51.3811 4.29413L51.3774 4.34099L51.3848 4.32787Z" fill="#B8DCF9"/>
<path id="Vector_12" d="M41.2246 68.7002C41.25 68.7096 41.2791 68.7134 41.2991 68.7302C41.3082 68.7377 41.3027 68.7658 41.3027 68.7864C41.2828 68.7527 41.2628 68.719 41.2428 68.6871L41.2246 68.7021V68.7002Z" fill="#B8DCF9"/>
<path id="Vector_13" d="M51.7571 68.6853C51.7499 68.7246 51.7426 68.7658 51.7353 68.8052C51.6045 68.719 51.7263 68.7209 51.7717 68.6965L51.759 68.6853H51.7571Z" fill="#B8DCF9"/>
<path id="Vector_14" d="M25.4643 37.4298C25.6333 36.2125 25.8041 34.9972 25.9677 33.778C26.2094 31.9877 26.4674 30.2012 26.6746 28.4071C26.7309 27.9165 26.9181 27.791 27.3596 27.7966C28.7825 27.8172 30.2054 27.8453 31.6264 27.7872C32.3442 27.7573 32.4114 28.0625 32.3188 28.6637C31.7445 32.3529 31.1866 36.0459 30.6233 39.737C30.3798 41.3363 30.1254 42.9337 29.9037 44.5367C29.8292 45.0798 29.6511 45.3083 29.0569 45.2933C27.1816 45.2465 25.3044 45.2502 23.4273 45.2914C22.8603 45.3045 22.635 45.1191 22.5368 44.5555C22.2552 42.9318 21.9299 41.3157 21.6155 39.6977C21.5592 39.4093 21.581 39.0778 21.2212 38.825C20.8232 39.8325 20.7723 40.8831 20.5434 41.8868C20.329 42.8251 20.1491 43.7745 20.0073 44.7277C19.9419 45.1697 19.7584 45.2839 19.3568 45.2802C17.3597 45.2652 15.3608 45.2615 13.3637 45.2802C12.9348 45.2839 12.7894 45.1098 12.7277 44.6997C11.9099 39.2519 11.0849 33.8061 10.2454 28.3622C10.1818 27.9483 10.2508 27.7947 10.6688 27.7966C12.2116 27.8097 13.7562 27.8247 15.299 27.791C15.9732 27.776 15.9041 28.2629 15.9586 28.6674C16.3311 31.4765 16.6928 34.2855 17.0598 37.0946C17.0744 37.2088 17.1016 37.3193 17.2761 37.4542C17.5723 36.0103 17.8703 34.5664 18.161 33.1207C18.4736 31.5664 18.7934 30.0139 19.0769 28.4539C19.166 27.967 19.3604 27.7704 19.8565 27.791C20.7633 27.8284 21.6755 27.8565 22.5786 27.7835C23.2619 27.7273 23.4509 28.0344 23.5635 28.6449C24.0469 31.2424 24.5666 33.8342 25.0773 36.426C25.1427 36.7575 25.2281 37.0852 25.3044 37.4148C25.3571 37.4186 25.4098 37.4223 25.4643 37.4242V37.4298Z" fill="#213848"/>
<path id="Vector_15" d="M59.4874 35.9448C62.5857 37.0983 63.7305 40.649 62.0187 43.4637C61.2719 44.6922 60.1234 45.2147 58.8005 45.239C55.5623 45.2971 52.3222 45.2615 49.084 45.2839C48.6097 45.2877 48.5461 45.0573 48.5461 44.6547C48.5534 39.2576 48.5588 33.8623 48.5388 28.4652C48.537 27.9052 48.7387 27.7929 49.2275 27.7947C52.0424 27.8135 54.8572 27.8003 57.6738 27.8097C58.0954 27.8097 58.5225 27.8509 58.9386 27.9239C60.6958 28.2292 61.5971 29.1936 61.8443 30.9989C62.1532 33.2481 61.4445 34.7724 59.4892 35.9429L59.4874 35.9448ZM55.1552 38.3193C54.9735 38.3193 54.79 38.3418 54.6119 38.3156C53.9377 38.2145 53.6742 38.428 53.6942 39.2014C53.7414 41.2127 53.7015 41.2146 55.8367 41.164C56.8452 41.1396 57.2068 40.7707 57.2177 39.7538C57.2286 38.7201 56.8797 38.3437 55.8821 38.3193C55.6404 38.3137 55.3987 38.3193 55.157 38.3193H55.1552ZM53.7142 32.8716C53.7342 34.4522 53.5525 34.2256 54.7682 34.235C56.3745 34.25 56.6707 34.0458 56.6853 32.9821C56.6998 31.8829 56.4 31.6338 55.0571 31.6338C54.163 31.6338 53.716 32.0458 53.716 32.8698L53.7142 32.8716Z" fill="#213849"/>
<path id="Vector_16" d="M80.1198 35.9466C81.8716 36.7744 82.7947 38.0759 82.8292 39.986C82.8892 43.2352 81.3646 45.0592 78.239 45.4693C75.3024 45.8551 72.3895 45.7165 69.4874 45.1191C68.9695 45.0124 68.766 44.8588 68.9096 44.2633C69.1276 43.3588 69.2621 42.4318 69.3948 41.5086C69.482 40.9018 69.6219 40.5872 70.3506 40.7951C72.2968 41.3456 74.2921 41.3082 76.2946 41.207C77.027 41.1696 77.0796 40.8063 77.0015 40.2632C76.927 39.7407 77.3668 38.9635 76.291 38.928C75.1462 38.8905 74.0068 38.6958 72.862 38.6077C72.4295 38.574 72.2895 38.4074 72.3168 37.971C72.3495 37.4429 72.3241 36.9111 72.3241 36.3811C72.3241 35.1101 72.9243 34.4073 74.1249 34.2724C74.7264 34.205 75.3279 34.0739 75.9275 34.0833C76.7635 34.0983 77.0506 33.8155 77.0451 32.8978C77.0397 32.0139 76.8216 31.7424 75.9639 31.7068C74.1976 31.6319 72.4549 31.7443 70.7322 32.1132C70.0762 32.2536 69.7273 32.2181 69.6655 31.4034C69.6056 30.6337 69.4148 29.8697 69.2367 29.1131C69.1058 28.5569 69.3057 28.3678 69.8218 28.218C72.6857 27.394 75.5914 27.143 78.5352 27.5419C80.227 27.7704 81.7207 28.3715 82.2314 30.3173C82.8183 32.557 82.1823 34.3267 80.1198 35.9429V35.9466Z" fill="#213849"/>
<path id="Vector_17" d="M33.9796 36.5478C33.9796 33.9297 34.0123 31.3098 33.9596 28.6918C33.945 27.9202 34.1976 27.7835 34.8736 27.7891C38.2627 27.821 41.6499 27.8191 45.039 27.7891C45.6913 27.7835 45.9803 27.8734 45.7967 28.6449C45.5896 29.5195 45.4769 30.4203 45.3715 31.3173C45.3061 31.8716 45.0644 32.0121 44.5411 31.999C43.06 31.9596 41.5754 32.0008 40.0944 31.9765C39.6274 31.969 39.4075 32.0289 39.3984 32.6113C39.3712 34.6189 39.3457 34.6189 41.2974 34.6189C42.295 34.6189 43.2945 34.6376 44.2921 34.6114C44.7228 34.6002 44.8736 34.735 44.8591 35.1901C44.83 36.1245 44.8227 37.0609 44.8591 37.9954C44.8809 38.5253 44.7155 38.6995 44.1976 38.6883C42.8056 38.6583 41.4137 38.6958 40.0235 38.6695C39.562 38.6602 39.4111 38.7875 39.4002 39.2875C39.3566 41.0928 39.3348 41.0928 41.0521 41.0928C42.4749 41.0928 43.896 41.1209 45.317 41.0797C45.9239 41.061 46.1075 41.2707 46.0784 41.8794C46.0348 42.812 46.053 43.7502 46.0729 44.6847C46.082 45.1173 45.9512 45.2858 45.506 45.2839C41.8443 45.269 38.1845 45.2615 34.5229 45.2877C33.8705 45.2914 33.9759 44.8925 33.9759 44.4974C33.9759 41.8475 33.9759 39.1976 33.9759 36.5478H33.9796Z" fill="#213849"/>
<path id="Vector_18" d="M55.1554 38.3175C55.3971 38.3175 55.6387 38.3118 55.8804 38.3175C56.8781 38.3418 57.227 38.7182 57.2161 39.752C57.2052 40.7688 56.8435 41.1378 55.835 41.1621C53.6998 41.2127 53.7416 41.2108 53.6925 39.1995C53.6744 38.4242 53.936 38.2126 54.6102 38.3137C54.7883 38.3399 54.9718 38.3175 55.1536 38.3175H55.1554Z" fill="#FCFDFD"/>
<path id="Vector_19" d="M53.7142 32.8697C53.7142 32.0445 54.1613 31.6325 55.0553 31.6338C56.4 31.6338 56.6999 31.8828 56.6835 32.9821C56.669 34.0439 56.3728 34.2481 54.7664 34.235C53.5507 34.2237 53.7324 34.4522 53.7124 32.8716L53.7142 32.8697Z" fill="#FCFDFD"/>
</g>
<defs>
<clipPath id="clip0_316_8">
<rect width="93" height="73" fill="white"/>
</clipPath>
</defs>
</svg>
