<svg width="160" height="160" viewBox="0 0 160 160" fill="none" xmlns="http://www.w3.org/2000/svg">
<circle cx="80" cy="80" r="70" fill="white"/>
<circle cx="80" cy="80" r="79.5" stroke="white" stroke-dasharray="11 11"/>
<g clip-path="url(#clip0_98_8288)">
<path d="M45 47.9002V55.3616C45 67.4791 54.6752 77.3056 66.6056 77.3056H69.6309L66.2739 73.7896C56.4176 73.6104 48.4589 65.4106 48.4589 55.3616V49.6551H61.4226L60.9904 46.1437H46.7317C45.7761 46.1437 45.003 46.93 45.003 47.8986L45 47.9002Z" fill="#E8A615"/>
<path d="M68.7651 98.4463V102.322H91.2351V98.4463C91.2351 98.1296 91.0662 97.8361 90.7938 97.6832L89.091 96.7084C86.1434 95.023 84.3203 91.8592 84.3203 88.422V84.3268H75.6784V88.422C75.6784 91.8592 73.8553 95.023 70.9077 96.7084L69.2049 97.6832C68.9325 97.8361 68.7636 98.1312 68.7636 98.4463H68.7651Z" fill="#E8A615"/>
<path d="M68.7649 98.4463V102.322H70.9258V98.4463C70.9258 98.1296 71.0947 97.8361 71.3671 97.6832L73.0699 96.7084C76.0175 95.023 77.8406 91.8592 77.8406 88.422V84.3268H75.6797V88.422C75.6797 91.8592 73.8567 95.023 70.9091 96.7084L69.2062 97.6832C68.9338 97.8361 68.7649 98.1312 68.7649 98.4463Z" fill="#B7791D"/>
<path d="M73.0868 80.9035V83.4493C73.0868 84.6605 74.0546 85.6445 75.2476 85.6445H84.7539C85.947 85.6445 86.9148 84.662 86.9148 83.4493V80.9035H73.0883H73.0868Z" fill="#E8A615"/>
<path d="M75.6798 85.6445H84.3218V86.9344H75.6798V85.6445Z" fill="#B7791D"/>
<path d="M65.3092 101.443V116.805H94.6909V101.443C94.6909 100.96 94.3014 100.566 93.8266 100.566H66.172C65.6972 100.566 65.3077 100.961 65.3077 101.443H65.3092Z" fill="#343B49"/>
<path d="M65.3091 101.443V116.805H67.0378V101.443C67.0378 100.96 67.4273 100.566 67.9021 100.566H66.1734C65.6986 100.566 65.3091 100.961 65.3091 101.443Z" fill="#262D38"/>
<path d="M96.4196 115.489H63.5805C63.1026 115.489 62.7161 115.883 62.7161 116.366V118.123C62.7161 118.606 63.1026 119 63.5805 119H96.4196C96.8974 119 97.2839 118.606 97.2839 118.123V116.368C97.2839 115.883 96.8959 115.49 96.4196 115.49V115.489Z" fill="#262D38"/>
<path d="M62.716 116.366V118.121C62.716 118.605 63.1056 118.998 63.5804 118.998H65.3091C64.8343 118.998 64.4447 118.603 64.4447 118.121V116.366C64.4447 115.883 64.8343 115.489 65.3091 115.489H63.5804C63.1056 115.489 62.716 115.884 62.716 116.366Z" fill="#171C23"/>
<path d="M89.5063 104.077H70.4937C70.0158 104.077 69.6293 104.471 69.6293 104.955V111.1C69.6293 111.583 70.0158 111.977 70.4937 111.977H89.5063C89.9841 111.977 90.3706 111.583 90.3706 111.1V104.955C90.3706 104.471 89.9841 104.077 89.5063 104.077Z" fill="#E8A615"/>
<path d="M73.0868 80.9035V83.4493C73.0868 84.6605 74.0546 85.6445 75.2476 85.6445H76.9763C75.7833 85.6445 74.8154 84.662 74.8154 83.4493V80.9035H73.0868Z" fill="#B7791D"/>
<path d="M89.0741 77.3056H93.3959C105.325 77.3056 115 67.4791 115 55.3616V47.9002C115 46.93 114.227 46.1453 113.271 46.1453H99.0126V49.6566H111.543V55.3616C111.543 65.4121 103.584 73.6104 93.7276 73.7896L89.0741 77.3056Z" fill="#E8A615"/>
<path d="M58.8266 42.6339V44.3888C58.8266 65.718 68.3071 83.0106 80.0001 83.0106C91.6931 83.0106 101.174 65.718 101.174 44.3888V42.6339H58.8266Z" fill="#E8A615"/>
<path d="M100.979 49.6551H102.707C102.794 48.5011 102.85 47.3286 102.881 46.1437H101.152C101.122 47.3286 101.065 48.5011 100.979 49.6551Z" fill="#B7791D"/>
<path d="M91.0784 77.3056H92.8071C93.7703 76.2258 94.6864 75.0054 95.5386 73.6629C94.9421 73.7371 94.341 73.7772 93.7277 73.7896C92.8984 75.0842 92.0127 76.2613 91.0784 77.3056Z" fill="#B7791D"/>
<path d="M73.0868 80.9035V81.7809C75.2553 83.1465 77.5805 83.888 80.0001 83.888C82.4196 83.888 84.7449 83.1465 86.9133 81.7809V80.9035C84.7449 82.2691 82.4196 83.0106 80.0001 83.0106C77.5805 83.0106 75.2553 82.2691 73.0868 80.9035Z" fill="#B7791D"/>
<path d="M58.8265 42.6339V44.3888C58.8265 65.0522 67.7241 81.9261 78.9104 82.9627C68.0391 81.9138 64.0111 65.0429 64.0111 44.3888V42.6339H58.8265Z" fill="#B7791D"/>
<path d="M56.6671 42.1952C56.6671 42.8007 56.909 43.3491 57.2986 43.7493C57.6912 44.1447 58.2314 44.3903 58.8279 44.3903H101.173C102.366 44.3903 103.334 43.4078 103.334 42.1952C103.334 41.5896 103.092 41.0412 102.703 40.6411C102.31 40.2456 101.77 40 101.173 40H58.8264C57.6334 40 56.6655 40.9825 56.6655 42.1952H56.6671Z" fill="#E8A615"/>
<path d="M58.8264 44.3888C58.8264 44.9774 58.8356 45.5613 58.8477 46.1437H101.151C101.164 45.5598 101.172 44.9758 101.172 44.3888H58.8264Z" fill="#B7791D"/>
<path d="M56.6671 42.1952C56.6671 42.8007 56.909 43.3491 57.2986 43.7493C57.6912 44.1447 58.2314 44.3903 58.8279 44.3903H63.5803C62.9838 44.3903 62.4436 44.1447 62.051 43.7493C61.6614 43.3491 61.4195 42.8007 61.4195 42.1952C61.4195 40.984 62.3873 40 63.5803 40H58.8279C57.6349 40 56.6671 40.9825 56.6671 42.1952Z" fill="#B7791D"/>
<path d="M69.6293 104.955V111.098C69.6293 111.582 70.0188 111.976 70.4936 111.976H87.6482C84.1573 111.906 72.6545 111.151 72.6545 104.076H70.4936C70.0188 104.076 69.6293 104.471 69.6293 104.953V104.955Z" fill="#B7791D"/>
<path d="M93.7185 105.393V101.802C93.7185 101.604 93.5602 101.443 93.3655 101.443H85.6168C85.6168 101.443 91.7737 102.101 93.7185 105.393Z" fill="#4E5868"/>
<path d="M57.5529 46.1437C57.5834 47.3286 57.6397 48.5011 57.7295 49.6551H61.4197L60.9875 46.1437H57.5529Z" fill="#B7791D"/>
<path d="M64.9241 73.7155C65.7717 75.0363 66.6741 76.2397 67.6252 77.3056H69.6309L68.1015 75.7083L66.2739 73.7896C65.8204 73.7803 65.3715 73.7541 64.9256 73.7155H64.9241Z" fill="#B7791D"/>
</g>
<defs>
<clipPath id="clip0_98_8288">
<rect width="70" height="79" fill="white" transform="matrix(-1 0 0 1 115 40)"/>
</clipPath>
</defs>
</svg>
