<svg width="51" height="51" viewBox="0 0 51 51" fill="none" xmlns="http://www.w3.org/2000/svg">
<path id="Vector" d="M30.1496 37.6649C31.6024 37.4649 32.9326 37.2315 34.2288 36.8153C38.4368 35.4666 40.7898 32.5063 41.4968 28.1442C41.8333 26.0645 41.9463 23.9761 41.4008 21.9025C41.0352 20.5106 40.4096 19.2559 39.4839 18.169C39.2203 17.8603 39.1972 17.6145 39.3078 17.2379C39.9079 15.1927 39.6953 13.1784 39.0332 11.1826C38.9166 10.8318 38.7101 10.7565 38.3979 10.7614C37.4321 10.775 36.5235 11.0443 35.6379 11.4024C34.4329 11.889 33.3092 12.5386 32.2353 13.2747C31.9766 13.4525 31.7518 13.4846 31.4482 13.4068C27.4892 12.3966 23.5254 12.3941 19.5664 13.4031C19.2396 13.4871 19.0064 13.4352 18.7258 13.2512C17.0397 12.1459 15.3086 11.1344 13.2799 10.8207C13.1001 10.7936 12.9179 10.7886 12.7381 10.7627C12.2838 10.6972 12.0445 10.8825 11.9036 11.3407C11.2865 13.3488 11.1055 15.3631 11.7396 17.4009C11.8234 17.6701 11.7736 17.8479 11.5975 18.0616C9.67326 20.4019 9.03671 23.1214 9.26995 26.1163C9.39629 27.7441 9.63317 29.3422 10.226 30.865C11.5379 34.2378 14.089 36.1249 17.4393 37.045C18.5144 37.3401 19.6114 37.5106 20.8018 37.6612C19.9199 38.6431 19.4437 39.7484 19.2773 40.9896C19.2408 41.2576 19.004 41.2749 18.8303 41.3453C15.933 42.5358 13.4816 41.722 11.8307 39.037C10.9816 37.6563 9.85183 36.6609 8.22767 36.3546C7.88146 36.2891 7.54375 36.3114 7.20847 36.4151C6.67033 36.5818 6.58651 36.8758 6.97767 37.3031C7.15502 37.497 7.35668 37.6835 7.57898 37.8156C8.87758 38.5875 9.80324 39.7336 10.2673 41.1304C11.2634 44.1278 14.1084 45.3936 17.166 45.1294C17.6896 45.0837 18.2168 45.0318 18.727 44.9169C19.0878 44.8354 19.1352 44.954 19.1339 45.2714C19.1327 46.6904 19.1582 48.1107 19.1582 49.5297C19.1582 50.6931 18.3954 51.2562 17.3008 50.8882C15.0231 50.1225 12.8876 49.0493 10.9548 47.6093C3.45602 42.027 -0.240544 34.4761 0.0121294 25.0431C0.336475 12.9326 9.29668 2.5054 21.0205 0.40217C34.7949 -2.07032 47.81 7.10211 50.5238 21.1924C52.9607 33.8438 45.8384 46.5249 33.8838 50.8215C32.5415 51.3044 31.7907 50.7746 31.7956 49.342C31.8029 47.0584 31.8199 44.7749 31.8259 42.4901C31.8308 40.7167 31.4664 39.0667 30.1496 37.6649Z" fill="white"/>
</svg>
