<svg xmlns="http://www.w3.org/2000/svg" width="81" height="72" viewBox="0 0 81 72" fill="none">
  <g clip-path="url(#clip0_95_8220)">
    <path d="M24.9656 3.24864C24.6875 3.53713 24.4378 3.84535 24.2376 4.19056C23.8866 4.80206 23.6765 5.50973 23.679 6.24946V10.006H26.0087V7.20864C25.3734 6.63535 24.9483 5.87713 24.9483 5.02028V3.36576L24.9656 3.24741V3.24864Z" fill="#616E7D"/>
    <path d="M55.0925 7.20863V10.006H57.4235V6.24945C57.4235 5.50972 57.2171 4.80205 56.8636 4.19054C56.6634 3.84657 56.415 3.54205 56.1381 3.25479L56.1505 3.36698V5.0215C56.1505 5.87835 55.7278 6.63534 55.0925 7.20986V7.20863Z" fill="#616E7D"/>
    <path d="M54.8379 0.945616C54.0456 0.352603 52.9828 0 51.821 0H29.1801C28.0158 0 26.9542 0.35137 26.1632 0.945616C25.408 1.51027 24.9026 2.32767 24.863 3.24986L24.8457 3.36822V5.02274C24.8457 5.87959 25.2696 6.63658 25.9061 7.2111L26.1632 7.44288C26.9542 8.03836 28.0171 8.38726 29.1801 8.38849H51.821C52.9828 8.38726 54.0444 8.03712 54.8379 7.44288L55.0925 7.2111C55.729 6.63781 56.1504 5.87959 56.1504 5.02274V3.36822L56.1381 3.25603C56.0998 2.3289 55.593 1.51027 54.8379 0.945616Z" fill="#82BFAB"/>
    <path d="M14.2081 39.2979C14.2971 39.2092 14.4182 39.1599 14.5418 39.1599H15.4292V37.8049H7.0249V65.721H73.9724V37.8049H65.5706V39.1599H66.4556C66.5804 39.1599 66.704 39.2092 66.7905 39.2979C66.8795 39.3842 66.9277 39.5051 66.9277 39.6308V47.7579C66.9277 47.8849 66.8795 48.0021 66.7905 48.0908C66.699 48.1796 66.5804 48.2301 66.4556 48.2301H58.3083C58.1835 48.2301 58.0624 48.1784 57.9759 48.0908C57.8881 48.0045 57.8337 47.8825 57.8337 47.7579V39.6308C57.8337 39.5051 57.8869 39.3842 57.9759 39.2979C58.0624 39.2092 58.1835 39.1599 58.3083 39.1599H59.1945V37.8049H21.8053V39.1599H22.6915C22.8151 39.1599 22.9362 39.2092 23.0252 39.2979C23.1129 39.3842 23.1624 39.5051 23.1624 39.6308V47.7579C23.1624 47.8849 23.1129 48.0021 23.0252 48.0908C22.9362 48.1796 22.8163 48.2301 22.6915 48.2301H14.5418C14.4182 48.2301 14.2983 48.1784 14.2081 48.0908C14.1216 48.0045 14.0697 47.8825 14.0697 47.7579V39.6308C14.0697 39.5051 14.1216 39.3842 14.2081 39.2979Z" fill="#616E7D"/>
    <path d="M2.00586 37.8037V65.2648C2.00586 68.9844 5.03017 72.0012 8.76142 72.0012H72.2373C75.9685 72.0012 78.9916 68.9856 78.9916 65.2648V37.8037H74.9143V66.6617H6.07823V37.8037H2.00586Z" fill="#616E7D"/>
    <path d="M6.07837 37.8037V66.6617H74.9169V66.1907V37.8037H73.9726V65.7185H7.02509V37.8037H6.07837Z" fill="#82BFAB"/>
    <path d="M65.5707 37.8037H80.5279C80.6527 37.8037 80.7726 37.7544 80.8616 37.6669C80.953 37.5769 81.0012 37.4585 81.0012 37.3328V17.0729C81.0012 13.1708 77.8298 10.0073 73.9169 10.006H7.08185C3.17015 10.0073 0 13.1708 0 17.0729V37.3328C0 37.4573 0.048201 37.5769 0.138424 37.6669C0.226174 37.7544 0.344823 37.8037 0.470887 37.8037H15.428V31.4433H21.8029V37.8037H59.1946V31.4433H65.5707V37.8037Z" fill="#AAD4C8"/>
    <path d="M22.2159 47.2858V40.1006H15.0142V47.2858H22.2159ZM16.3712 43.6919V41.9264C16.3712 41.8032 16.4231 41.6811 16.5109 41.5936C16.5961 41.506 16.7197 41.4555 16.8433 41.4555H20.3855C20.5091 41.4555 20.6327 41.506 20.7217 41.5936C20.8082 41.6823 20.8601 41.8032 20.8601 41.9264V45.4599C20.8601 45.5856 20.8094 45.704 20.7217 45.7927C20.6302 45.8827 20.5128 45.9296 20.3855 45.9296H16.8433C16.7197 45.9296 16.5961 45.8803 16.5109 45.7927C16.4243 45.7052 16.3712 45.5832 16.3712 45.4599V43.6932V43.6919Z" fill="#AAD4C8"/>
    <path d="M21.803 32.3865V31.4433H15.4269V39.1586H14.5408C14.4159 39.1586 14.2936 39.208 14.2058 39.2967C14.1205 39.383 14.0662 39.5038 14.0662 39.6296V47.7567C14.0662 47.8812 14.1193 48.0033 14.2058 48.0896C14.2936 48.1771 14.4159 48.2289 14.5408 48.2289H22.6855C22.8128 48.2289 22.9302 48.1784 23.0204 48.0896C23.1107 48.0008 23.1589 47.8837 23.1589 47.7567V39.6296C23.1589 39.5038 23.1107 39.383 23.0204 39.2967C22.9302 39.208 22.8103 39.1586 22.6855 39.1586H21.8018V32.3865H21.803ZM16.3699 32.3865H20.8588V39.1586H16.3699V32.3865ZM22.2146 40.1006V47.2858H15.0129V40.1006H22.2146Z" fill="white"/>
    <path d="M16.842 41.4555C16.7184 41.4555 16.5973 41.5061 16.5095 41.5936C16.423 41.6824 16.3699 41.8032 16.3699 41.9265V45.4599C16.3699 45.5832 16.4218 45.7052 16.5095 45.7928C16.5973 45.8803 16.7184 45.9296 16.842 45.9296H20.3842C20.5115 45.9296 20.6276 45.8828 20.7203 45.7928C20.8081 45.704 20.8588 45.5856 20.8588 45.4599V41.9265C20.8588 41.8032 20.8068 41.6811 20.7203 41.5936C20.6313 41.5061 20.5115 41.4555 20.3842 41.4555H16.842Z" fill="#616E7D"/>
    <path d="M20.8563 32.3864H16.3699V39.1586H20.8563V32.3864Z" fill="#82BFAB"/>
    <path d="M64.535 32.3864H60.0461V39.1586H64.535V32.3864Z" fill="#82BFAB"/>
    <path d="M65.8934 47.2858V40.1006H58.688V47.2858H65.8934ZM60.0487 43.6919V41.9264C60.0487 41.8032 60.0982 41.6811 60.1872 41.5936C60.2737 41.506 60.3948 41.4555 60.5184 41.4555H64.063C64.1841 41.4555 64.3065 41.506 64.3955 41.5936C64.482 41.6823 64.5351 41.8032 64.5351 41.9264V45.4599C64.5351 45.5856 64.4845 45.704 64.3955 45.7927C64.3077 45.8827 64.1891 45.9296 64.063 45.9296H60.5184C60.3973 45.9296 60.2724 45.8803 60.1872 45.7927C60.0994 45.7052 60.0487 45.5832 60.0487 45.4599V43.6932V43.6919Z" fill="#AAD4C8"/>
    <path d="M65.4805 32.3865V31.4433H59.1044V39.1586H58.2182C58.0922 39.1586 57.9723 39.208 57.8845 39.2967C57.798 39.383 57.7449 39.5038 57.7449 39.6296V47.7567C57.7449 47.8812 57.798 48.0033 57.8845 48.0896C57.9723 48.1771 58.0922 48.2289 58.2182 48.2289H66.3654C66.4903 48.2289 66.6089 48.1784 66.7004 48.0896C66.7881 48.0008 66.8376 47.8837 66.8376 47.7567V39.6296C66.8376 39.5038 66.7881 39.383 66.7004 39.2967C66.6139 39.208 66.4903 39.1586 66.3654 39.1586H65.4805V32.3865ZM60.0499 32.3865H64.5363V39.1586H60.0499V32.3865ZM65.8958 40.1006V47.2858H58.6916V40.1006H65.8958Z" fill="white"/>
    <path d="M60.5182 41.4555C60.3946 41.4555 60.2723 41.5061 60.187 41.5936C60.0993 41.6824 60.0486 41.8032 60.0486 41.9265V45.4599C60.0486 45.5832 60.098 45.7052 60.187 45.7928C60.2735 45.8803 60.3971 45.9296 60.5182 45.9296H64.0629C64.1889 45.9296 64.3063 45.8828 64.3953 45.7928C64.4843 45.704 64.535 45.5856 64.535 45.4599V41.9265C64.535 41.8032 64.4831 41.6811 64.3953 41.5936C64.3076 41.5061 64.184 41.4555 64.0629 41.4555H60.5182Z" fill="#616E7D"/>
  </g>
  <defs>
    <clipPath id="clip0_95_8220">
      <rect width="81" height="72" fill="white"/>
    </clipPath>
  </defs>
</svg>