<svg width="81" height="115" viewBox="0 0 81 115" fill="none" xmlns="http://www.w3.org/2000/svg">
<path d="M24.248 111.781C23.5333 111.781 22.872 111.643 22.264 111.365C21.6667 111.077 21.176 110.677 20.792 110.165L21.976 108.741C22.5947 109.595 23.336 110.021 24.2 110.021C25.3627 110.021 25.944 109.333 25.944 107.957V102.165H21.96V100.421H28.024V107.845C28.024 109.157 27.704 110.144 27.064 110.805C26.424 111.456 25.4853 111.781 24.248 111.781ZM34.5895 111.733C33.7255 111.733 32.9468 111.547 32.2535 111.173C31.5602 110.8 31.0162 110.283 30.6215 109.621C30.2375 108.949 30.0455 108.192 30.0455 107.349C30.0455 106.507 30.2375 105.755 30.6215 105.093C31.0162 104.432 31.5602 103.915 32.2535 103.541C32.9468 103.168 33.7255 102.981 34.5895 102.981C35.4642 102.981 36.2482 103.168 36.9415 103.541C37.6348 103.915 38.1735 104.432 38.5575 105.093C38.9522 105.755 39.1495 106.507 39.1495 107.349C39.1495 108.192 38.9522 108.949 38.5575 109.621C38.1735 110.283 37.6348 110.8 36.9415 111.173C36.2482 111.547 35.4642 111.733 34.5895 111.733ZM34.5895 110.021C35.3255 110.021 35.9335 109.776 36.4135 109.285C36.8935 108.795 37.1335 108.149 37.1335 107.349C37.1335 106.549 36.8935 105.904 36.4135 105.413C35.9335 104.923 35.3255 104.677 34.5895 104.677C33.8535 104.677 33.2455 104.923 32.7655 105.413C32.2962 105.904 32.0615 106.549 32.0615 107.349C32.0615 108.149 32.2962 108.795 32.7655 109.285C33.2455 109.776 33.8535 110.021 34.5895 110.021ZM45.798 102.981C46.63 102.981 47.3713 103.163 48.022 103.525C48.6833 103.888 49.2007 104.4 49.574 105.061C49.9473 105.723 50.134 106.485 50.134 107.349C50.134 108.213 49.9473 108.981 49.574 109.653C49.2007 110.315 48.6833 110.827 48.022 111.189C47.3713 111.552 46.63 111.733 45.798 111.733C45.2113 111.733 44.6727 111.632 44.182 111.429C43.702 111.227 43.2967 110.923 42.966 110.517V111.621H41.062V99.7492H43.062V104.117C43.4033 103.744 43.8033 103.461 44.262 103.269C44.7313 103.077 45.2433 102.981 45.798 102.981ZM45.574 110.021C46.31 110.021 46.9127 109.776 47.382 109.285C47.862 108.795 48.102 108.149 48.102 107.349C48.102 106.549 47.862 105.904 47.382 105.413C46.9127 104.923 46.31 104.677 45.574 104.677C45.094 104.677 44.662 104.789 44.278 105.013C43.894 105.227 43.59 105.536 43.366 105.941C43.142 106.347 43.03 106.816 43.03 107.349C43.03 107.883 43.142 108.352 43.366 108.757C43.59 109.163 43.894 109.477 44.278 109.701C44.662 109.915 45.094 110.021 45.574 110.021ZM54.6708 111.733C53.9774 111.733 53.3001 111.643 52.6388 111.461C51.9774 111.28 51.4494 111.051 51.0548 110.773L51.8228 109.253C52.2068 109.509 52.6654 109.717 53.1988 109.877C53.7428 110.027 54.2761 110.101 54.7988 110.101C55.9934 110.101 56.5908 109.787 56.5908 109.157C56.5908 108.859 56.4361 108.651 56.1268 108.533C55.8281 108.416 55.3428 108.304 54.6708 108.197C53.9668 108.091 53.3908 107.968 52.9428 107.829C52.5054 107.691 52.1214 107.451 51.7908 107.109C51.4708 106.757 51.3108 106.272 51.3108 105.653C51.3108 104.843 51.6468 104.197 52.3188 103.717C53.0014 103.227 53.9188 102.981 55.0708 102.981C55.6574 102.981 56.2441 103.051 56.8308 103.189C57.4174 103.317 57.8974 103.493 58.2708 103.717L57.5028 105.237C56.7774 104.811 55.9614 104.597 55.0548 104.597C54.4681 104.597 54.0201 104.688 53.7108 104.869C53.4121 105.04 53.2628 105.269 53.2628 105.557C53.2628 105.877 53.4228 106.107 53.7428 106.245C54.0734 106.373 54.5801 106.496 55.2628 106.613C55.9454 106.72 56.5054 106.843 56.9428 106.981C57.3801 107.12 57.7534 107.355 58.0628 107.685C58.3828 108.016 58.5428 108.485 58.5428 109.093C58.5428 109.893 58.1961 110.533 57.5028 111.013C56.8094 111.493 55.8654 111.733 54.6708 111.733Z" fill="white"/>
<circle cx="40.4618" cy="40.8661" r="35.4042" fill="white"/>
<circle cx="40.4619" cy="40.8661" r="39.9619" stroke="white" stroke-dasharray="11 11"/>
<g clip-path="url(#clip0_632_12)">
<path d="M32.8578 24.3014C32.7171 24.4473 32.5909 24.6032 32.4896 24.7778C32.3121 25.0871 32.2058 25.445 32.207 25.8191V27.7191H33.3854V26.3043C33.0641 26.0143 32.849 25.6308 32.849 25.1975V24.3606L32.8578 24.3008V24.3014Z" fill="#616E7D"/>
<path d="M48.095 26.3043V27.7192H49.2739V25.8192C49.2739 25.4451 49.1695 25.0871 48.9907 24.7778C48.8895 24.6039 48.7638 24.4499 48.6238 24.3046L48.6301 24.3613V25.1981C48.6301 25.6315 48.4163 26.0144 48.095 26.3049V26.3043Z" fill="#616E7D"/>
<path d="M47.9664 23.1366C47.5657 22.8367 47.0281 22.6583 46.4405 22.6583H34.9893C34.4005 22.6583 33.8635 22.836 33.4635 23.1366C33.0815 23.4222 32.8259 23.8356 32.8059 24.302L32.7971 24.3619V25.1987C32.7971 25.6321 33.0115 26.0149 33.3335 26.3055L33.4635 26.4227C33.8635 26.7239 34.4011 26.9004 34.9893 26.901H46.4405C47.0281 26.9004 47.5651 26.7233 47.9664 26.4227L48.0951 26.3055C48.4171 26.0156 48.6302 25.6321 48.6302 25.1987V24.3619L48.624 24.3051C48.6046 23.8362 48.3483 23.4222 47.9664 23.1366Z" fill="#82BFAB"/>
<path d="M27.4168 42.5342C27.4618 42.4893 27.523 42.4643 27.5855 42.4643H28.0344V41.7791H23.7837V55.8982H57.644V41.7791H53.3946V42.4643H53.8422C53.9053 42.4643 53.9678 42.4893 54.0115 42.5342C54.0566 42.5778 54.0809 42.6389 54.0809 42.7025V46.813C54.0809 46.8773 54.0566 46.9365 54.0115 46.9814C53.9653 47.0263 53.9053 47.0518 53.8422 47.0518H49.7215C49.6584 47.0518 49.5971 47.0257 49.5534 46.9814C49.509 46.9377 49.4815 46.876 49.4815 46.813V42.7025C49.4815 42.6389 49.5083 42.5778 49.5534 42.5342C49.5971 42.4893 49.6584 42.4643 49.7215 42.4643H50.1697V41.7791H31.2592V42.4643H31.7074C31.7699 42.4643 31.8312 42.4893 31.8762 42.5342C31.9206 42.5778 31.9456 42.6389 31.9456 42.7025V46.813C31.9456 46.8773 31.9206 46.9365 31.8762 46.9814C31.8312 47.0263 31.7706 47.0518 31.7074 47.0518H27.5855C27.523 47.0518 27.4624 47.0257 27.4168 46.9814C27.373 46.9377 27.3467 46.876 27.3467 46.813V42.7025C27.3467 42.6389 27.373 42.5778 27.4168 42.5342Z" fill="#616E7D"/>
<path d="M21.2454 41.7784V55.6675C21.2454 57.5488 22.775 59.0747 24.6621 59.0747H56.7665C58.6537 59.0747 60.1827 57.5494 60.1827 55.6675V41.7784H58.1205V56.374H23.3051V41.7784H21.2454Z" fill="#616E7D"/>
<path d="M23.3049 41.7784V56.374H58.1216V56.1358V41.7784H57.6441V55.897H23.7838V41.7784H23.3049Z" fill="#82BFAB"/>
<path d="M53.3947 41.7784H60.9596C61.0227 41.7784 61.0834 41.7535 61.1284 41.7092C61.1746 41.6637 61.199 41.6038 61.199 41.5402V31.2933C61.199 29.3198 59.595 27.7197 57.6159 27.7191H23.8125C21.8341 27.7197 20.2307 29.3198 20.2307 31.2933V41.5402C20.2307 41.6032 20.2551 41.6637 20.3007 41.7092C20.3451 41.7535 20.4051 41.7784 20.4689 41.7784H28.0338V38.5615H31.2581V41.7784H50.1698V38.5615H53.3947V41.7784Z" fill="#AAD4C8"/>
<path d="M31.4669 46.5743V42.9402H27.8245V46.5743H31.4669ZM28.5108 44.7566V43.8637C28.5108 43.8013 28.5371 43.7396 28.5815 43.6953C28.6246 43.651 28.6871 43.6255 28.7496 43.6255H30.5411C30.6036 43.6255 30.6662 43.651 30.7112 43.6953C30.7549 43.7402 30.7812 43.8013 30.7812 43.8637V45.6508C30.7812 45.7144 30.7555 45.7742 30.7112 45.8191C30.6649 45.8647 30.6055 45.8884 30.5411 45.8884H28.7496C28.6871 45.8884 28.6246 45.8634 28.5815 45.8191C28.5377 45.7749 28.5108 45.7131 28.5108 45.6508V44.7572V44.7566Z" fill="#AAD4C8"/>
<path d="M31.2581 39.0385V38.5615H28.0332V42.4637H27.585C27.5219 42.4637 27.46 42.4887 27.4156 42.5336C27.3725 42.5772 27.345 42.6383 27.345 42.7019V46.8124C27.345 46.8754 27.3719 46.9371 27.4156 46.9808C27.46 47.0251 27.5219 47.0512 27.585 47.0512H31.7044C31.7688 47.0512 31.8282 47.0257 31.8738 46.9808C31.9194 46.9359 31.9438 46.8766 31.9438 46.8124V42.7019C31.9438 42.6383 31.9194 42.5772 31.8738 42.5336C31.8282 42.4887 31.7675 42.4637 31.7044 42.4637H31.2575V39.0385H31.2581ZM28.5102 39.0385H30.7805V42.4637H28.5102V39.0385ZM31.4662 42.9401V46.5742H27.8238V42.9401H31.4662Z" fill="white"/>
<path d="M28.749 43.6255C28.6865 43.6255 28.6253 43.6511 28.5809 43.6953C28.5371 43.7402 28.5103 43.8013 28.5103 43.8637V45.6508C28.5103 45.7132 28.5365 45.7749 28.5809 45.8192C28.6253 45.8634 28.6865 45.8884 28.749 45.8884H30.5406C30.605 45.8884 30.6637 45.8647 30.7106 45.8192C30.755 45.7743 30.7806 45.7144 30.7806 45.6508V43.8637C30.7806 43.8013 30.7544 43.7396 30.7106 43.6953C30.6656 43.6511 30.605 43.6255 30.5406 43.6255H28.749Z" fill="#616E7D"/>
<path d="M30.7794 39.0386H28.5103V42.4638H30.7794V39.0386Z" fill="#82BFAB"/>
<path d="M52.8707 39.0386H50.6003V42.4638H52.8707V39.0386Z" fill="#82BFAB"/>
<path d="M53.5579 46.5743V42.9402H49.9136V46.5743H53.5579ZM50.6018 44.7566V43.8637C50.6018 43.8013 50.6268 43.7396 50.6718 43.6953C50.7156 43.651 50.7768 43.6255 50.8393 43.6255H52.6321C52.6934 43.6255 52.7553 43.651 52.8003 43.6953C52.844 43.7402 52.8709 43.8013 52.8709 43.8637V45.6508C52.8709 45.7144 52.8453 45.7742 52.8003 45.8191C52.7559 45.8647 52.6959 45.8884 52.6321 45.8884H50.8393C50.7781 45.8884 50.715 45.8634 50.6718 45.8191C50.6274 45.7749 50.6018 45.7131 50.6018 45.6508V44.7572V44.7566Z" fill="#AAD4C8"/>
<path d="M53.349 39.0385V38.5615H50.1241V42.4637H49.6759C49.6122 42.4637 49.5515 42.4887 49.5072 42.5336C49.4634 42.5772 49.4365 42.6383 49.4365 42.7019V46.8124C49.4365 46.8754 49.4634 46.9371 49.5072 46.9808C49.5515 47.0251 49.6122 47.0512 49.6759 47.0512H53.7966C53.8597 47.0512 53.9197 47.0257 53.966 46.9808C54.0104 46.9359 54.0354 46.8766 54.0354 46.8124V42.7019C54.0354 42.6383 54.0104 42.5772 53.966 42.5336C53.9222 42.4887 53.8597 42.4637 53.7966 42.4637H53.349V39.0385ZM50.6023 39.0385H52.8714V42.4637H50.6023V39.0385ZM53.559 42.9401V46.5742H49.9153V42.9401H53.559Z" fill="white"/>
<path d="M50.8393 43.6255C50.7768 43.6255 50.715 43.6511 50.6718 43.6953C50.6274 43.7402 50.6018 43.8013 50.6018 43.8637V45.6508C50.6018 45.7132 50.6268 45.7749 50.6718 45.8192C50.7156 45.8634 50.7781 45.8884 50.8393 45.8884H52.6321C52.6959 45.8884 52.7553 45.8647 52.8003 45.8192C52.8453 45.7743 52.8709 45.7144 52.8709 45.6508V43.8637C52.8709 43.8013 52.8447 43.7396 52.8003 43.6953C52.7559 43.6511 52.6934 43.6255 52.6321 43.6255H50.8393Z" fill="#616E7D"/>
</g>
<defs>
<clipPath id="clip0_632_12">
<rect width="40.9677" height="36.4157" fill="white" transform="translate(20.2307 22.6583)"/>
</clipPath>
</defs>
</svg>
