<svg width="160" height="160" viewBox="0 0 160 160" fill="none" xmlns="http://www.w3.org/2000/svg">
<circle cx="80" cy="80" r="70" fill="white"/>
<circle cx="80" cy="80" r="79.5" stroke="white" stroke-dasharray="11 11"/>
<g clip-path="url(#clip0_98_8289)">
<path d="M64.9656 47.2486C64.6875 47.5371 64.4378 47.8454 64.2376 48.1906C63.8866 48.8021 63.6765 49.5097 63.679 50.2495V54.006H66.0087V51.2086C65.3734 50.6354 64.9483 49.8771 64.9483 49.0203V47.3658L64.9656 47.2474V47.2486Z" fill="#616E7D"/>
<path d="M95.0925 51.2086V54.006H97.4235V50.2494C97.4235 49.5097 97.2171 48.8021 96.8636 48.1905C96.6634 47.8466 96.415 47.5421 96.1381 47.2548L96.1505 47.367V49.0215C96.1505 49.8784 95.7278 50.6353 95.0925 51.2099V51.2086Z" fill="#616E7D"/>
<path d="M94.8379 44.9456C94.0456 44.3526 92.9828 44 91.821 44H69.1801C68.0158 44 66.9542 44.3514 66.1632 44.9456C65.408 45.5103 64.9026 46.3277 64.863 47.2499L64.8457 47.3682V49.0227C64.8457 49.8796 65.2696 50.6366 65.9061 51.2111L66.1632 51.4429C66.9542 52.0384 68.0171 52.3873 69.1801 52.3885H91.821C92.9828 52.3873 94.0444 52.0371 94.8379 51.4429L95.0925 51.2111C95.729 50.6378 96.1504 49.8796 96.1504 49.0227V47.3682L96.1381 47.256C96.0998 46.3289 95.593 45.5103 94.8379 44.9456Z" fill="#82BFAB"/>
<path d="M54.2081 83.2979C54.2971 83.2092 54.4182 83.1599 54.5418 83.1599H55.4292V81.8049H47.0249V109.721H113.972V81.8049H105.571V83.1599H106.456C106.58 83.1599 106.704 83.2092 106.79 83.2979C106.879 83.3842 106.928 83.5051 106.928 83.6308V91.7579C106.928 91.8849 106.879 92.0021 106.79 92.0908C106.699 92.1796 106.58 92.2301 106.456 92.2301H98.3083C98.1835 92.2301 98.0624 92.1784 97.9759 92.0908C97.8881 92.0045 97.8337 91.8825 97.8337 91.7579V83.6308C97.8337 83.5051 97.8869 83.3842 97.9759 83.2979C98.0624 83.2092 98.1835 83.1599 98.3083 83.1599H99.1945V81.8049H61.8053V83.1599H62.6915C62.8151 83.1599 62.9362 83.2092 63.0252 83.2979C63.1129 83.3842 63.1624 83.5051 63.1624 83.6308V91.7579C63.1624 91.8849 63.1129 92.0021 63.0252 92.0908C62.9362 92.1796 62.8163 92.2301 62.6915 92.2301H54.5418C54.4182 92.2301 54.2983 92.1784 54.2081 92.0908C54.1216 92.0045 54.0697 91.8825 54.0697 91.7579V83.6308C54.0697 83.5051 54.1216 83.3842 54.2081 83.2979Z" fill="#616E7D"/>
<path d="M42.0059 81.8037V109.265C42.0059 112.984 45.0302 116.001 48.7614 116.001H112.237C115.969 116.001 118.992 112.986 118.992 109.265V81.8037H114.914V110.662H46.0782V81.8037H42.0059Z" fill="#616E7D"/>
<path d="M46.0784 81.8037V110.662H114.917V110.191V81.8037H113.973V109.719H47.0251V81.8037H46.0784Z" fill="#82BFAB"/>
<path d="M105.571 81.8037H120.528C120.653 81.8037 120.773 81.7544 120.862 81.6669C120.953 81.5769 121.001 81.4585 121.001 81.3328V61.0729C121.001 57.1708 117.83 54.0073 113.917 54.006H47.0818C43.1701 54.0073 40 57.1708 40 61.0729V81.3328C40 81.4573 40.0482 81.5769 40.1384 81.6669C40.2262 81.7544 40.3448 81.8037 40.4709 81.8037H55.428V75.4433H61.8029V81.8037H99.1946V75.4433H105.571V81.8037Z" fill="#AAD4C8"/>
<path d="M62.2159 91.2858V84.1006H55.0142V91.2858H62.2159ZM56.3712 87.6919V85.9264C56.3712 85.8032 56.4231 85.6811 56.5109 85.5936C56.5961 85.506 56.7197 85.4555 56.8433 85.4555H60.3855C60.5091 85.4555 60.6327 85.506 60.7217 85.5936C60.8082 85.6823 60.8601 85.8032 60.8601 85.9264V89.4599C60.8601 89.5856 60.8094 89.704 60.7217 89.7927C60.6302 89.8827 60.5128 89.9296 60.3855 89.9296H56.8433C56.7197 89.9296 56.5961 89.8803 56.5109 89.7927C56.4243 89.7052 56.3712 89.5832 56.3712 89.4599V87.6932V87.6919Z" fill="#AAD4C8"/>
<path d="M61.803 76.3865V75.4433H55.4269V83.1586H54.5408C54.4159 83.1586 54.2936 83.208 54.2058 83.2967C54.1205 83.383 54.0662 83.5038 54.0662 83.6296V91.7567C54.0662 91.8812 54.1193 92.0033 54.2058 92.0896C54.2936 92.1771 54.4159 92.2289 54.5408 92.2289H62.6855C62.8128 92.2289 62.9302 92.1784 63.0204 92.0896C63.1107 92.0008 63.1589 91.8837 63.1589 91.7567V83.6296C63.1589 83.5038 63.1107 83.383 63.0204 83.2967C62.9302 83.208 62.8103 83.1586 62.6855 83.1586H61.8018V76.3865H61.803ZM56.3699 76.3865H60.8588V83.1586H56.3699V76.3865ZM62.2146 84.1006V91.2858H55.0129V84.1006H62.2146Z" fill="white"/>
<path d="M56.842 85.4555C56.7184 85.4555 56.5973 85.5061 56.5095 85.5936C56.423 85.6824 56.3699 85.8032 56.3699 85.9265V89.4599C56.3699 89.5832 56.4218 89.7052 56.5095 89.7928C56.5973 89.8803 56.7184 89.9296 56.842 89.9296H60.3842C60.5115 89.9296 60.6276 89.8828 60.7203 89.7928C60.8081 89.704 60.8588 89.5856 60.8588 89.4599V85.9265C60.8588 85.8032 60.8068 85.6811 60.7203 85.5936C60.6313 85.5061 60.5115 85.4555 60.3842 85.4555H56.842Z" fill="#616E7D"/>
<path d="M60.8563 76.3864H56.3699V83.1586H60.8563V76.3864Z" fill="#82BFAB"/>
<path d="M104.535 76.3864H100.046V83.1586H104.535V76.3864Z" fill="#82BFAB"/>
<path d="M105.893 91.2858V84.1006H98.688V91.2858H105.893ZM100.049 87.6919V85.9264C100.049 85.8032 100.098 85.6811 100.187 85.5936C100.274 85.506 100.395 85.4555 100.518 85.4555H104.063C104.184 85.4555 104.307 85.506 104.395 85.5936C104.482 85.6823 104.535 85.8032 104.535 85.9264V89.4599C104.535 89.5856 104.484 89.704 104.395 89.7927C104.308 89.8827 104.189 89.9296 104.063 89.9296H100.518C100.397 89.9296 100.272 89.8803 100.187 89.7927C100.099 89.7052 100.049 89.5832 100.049 89.4599V87.6932V87.6919Z" fill="#AAD4C8"/>
<path d="M105.481 76.3865V75.4433H99.1044V83.1586H98.2182C98.0922 83.1586 97.9723 83.208 97.8845 83.2967C97.798 83.383 97.7449 83.5038 97.7449 83.6296V91.7567C97.7449 91.8812 97.798 92.0033 97.8845 92.0896C97.9723 92.1771 98.0922 92.2289 98.2182 92.2289H106.365C106.49 92.2289 106.609 92.1784 106.7 92.0896C106.788 92.0008 106.838 91.8837 106.838 91.7567V83.6296C106.838 83.5038 106.788 83.383 106.7 83.2967C106.614 83.208 106.49 83.1586 106.365 83.1586H105.481V76.3865ZM100.05 76.3865H104.536V83.1586H100.05V76.3865ZM105.896 84.1006V91.2858H98.6916V84.1006H105.896Z" fill="white"/>
<path d="M100.518 85.4555C100.395 85.4555 100.272 85.5061 100.187 85.5936C100.099 85.6824 100.049 85.8032 100.049 85.9265V89.4599C100.049 89.5832 100.098 89.7052 100.187 89.7928C100.274 89.8803 100.397 89.9296 100.518 89.9296H104.063C104.189 89.9296 104.306 89.8828 104.395 89.7928C104.484 89.704 104.535 89.5856 104.535 89.4599V85.9265C104.535 85.8032 104.483 85.6811 104.395 85.5936C104.308 85.5061 104.184 85.4555 104.063 85.4555H100.518Z" fill="#616E7D"/>
</g>
<defs>
<clipPath id="clip0_98_8289">
<rect width="81" height="72" fill="white" transform="translate(40 44)"/>
</clipPath>
</defs>
</svg>
