<svg width="52" height="51" viewBox="0 0 52 51" fill="none" xmlns="http://www.w3.org/2000/svg">
<path id="Subtract" fill-rule="evenodd" clip-rule="evenodd" d="M51.4766 25.5C51.4766 39.5833 40.0598 51 25.9766 51C11.8933 51 0.476562 39.5833 0.476562 25.5C0.476562 11.4167 11.8933 0 25.9766 0C40.0598 0 51.4766 11.4167 51.4766 25.5ZM12.5308 18.3128L12.533 18.3143L12.5331 18.3144C13.6081 19.075 14.6496 19.8119 15.6897 20.5522C18.4833 22.54 21.277 24.5296 24.0638 26.5276C25.1932 27.3371 26.7976 27.2927 27.9441 26.473C31.3287 24.0523 34.7228 21.6451 38.1172 19.2377L38.1178 19.2372L38.1272 19.2306C39.0734 18.5595 40.0197 17.8884 40.9657 17.217C41.0072 17.1879 41.0537 17.1668 41.1016 17.1452C41.1267 17.1339 41.1523 17.1223 41.1776 17.1094C41.2901 17.2985 41.2806 17.4846 41.2714 17.6652C41.2687 17.7178 41.2661 17.7699 41.2664 17.8215C41.2699 23.0609 41.2699 28.3003 41.2682 33.538C41.2682 35.4114 40.4566 36.2175 38.577 36.2175H13.4086C11.4847 36.2175 10.6799 35.4199 10.6799 33.5141C10.6765 28.2952 10.6765 23.078 10.6765 17.8608V17.0001C11.3091 17.4484 11.9253 17.8844 12.5308 18.3128ZM13.2441 14.7849C12.8797 14.7831 12.504 14.7812 12.1354 15.0351L12.1337 15.0367C12.1617 15.0547 12.1869 15.0704 12.2102 15.0849C12.2476 15.1082 12.2801 15.1285 12.3113 15.15C13.9372 16.2912 15.5766 17.4131 17.2161 18.535C19.8713 20.352 22.5264 22.1691 25.1241 24.0677C25.7347 24.5142 26.2455 24.4909 26.868 24.046C27.0399 23.9226 27.2062 23.7908 27.3724 23.6589C27.5676 23.504 27.7628 23.3492 27.9674 23.2079C30.746 21.2834 33.5283 19.3625 36.3102 17.442C37.2929 16.7635 38.2755 16.0852 39.2579 15.4066C39.3751 15.3256 39.4908 15.2439 39.6179 15.154C39.6817 15.1089 39.7483 15.0618 39.8195 15.0118C39.4057 14.7846 39.0314 14.7849 38.6677 14.7851C38.6552 14.7851 38.6428 14.7851 38.6304 14.7851C30.1985 14.7818 21.7666 14.7818 13.3347 14.7851C13.3046 14.7851 13.2744 14.785 13.2441 14.7849Z" fill="#820A5B"/>
</svg>
