<svg width="1501" height="820" viewBox="0 0 1501 820" fill="none" xmlns="http://www.w3.org/2000/svg">
<rect y="816.879" width="1501" height="2.24197" fill="url(#paint0_linear_636_24054)"/>
<path d="M2 302C2 285.431 15.4315 272 32 272L1091.49 272C1111.34 272 1125.72 290.933 1120.39 310.055L1006.11 720.055C1002.49 733.027 990.675 742 977.208 742H32C15.4314 742 2 728.569 2 712V302Z" fill="url(#paint1_linear_636_24054)"/>
<path d="M1200.22 346.778C1200.22 346.778 1171.97 337.991 1145.88 331.761C1122.34 326.116 1116.7 353.285 1111.17 366.944C1099.87 394.788 1025.38 655.473 1012.06 712.199C1005.29 730.742 999.92 748.169 963.053 745.892C943.571 748.349 102.5 745 102.5 745" stroke="#5B318C" stroke-width="9.57" stroke-linecap="round" stroke-linejoin="round"/>
<path d="M1162.93 336.48L1202.39 347.421" stroke="#1F1A3E" stroke-width="9.57" stroke-linecap="round" stroke-linejoin="round"/>
<path d="M932.682 787.216C932.682 803.741 946.451 817.166 963.468 817.166C980.484 817.166 994.253 803.77 994.253 787.216C994.253 770.661 980.484 757.266 963.468 757.266C946.451 757.266 932.682 770.661 932.682 787.216Z" fill="#1F1A3E"/>
<path d="M943.566 787.216C943.566 797.92 952.465 806.578 963.468 806.578C974.471 806.578 983.37 797.92 983.37 787.216C983.37 776.511 974.471 767.854 963.468 767.854C952.465 767.854 943.566 776.511 943.566 787.216Z" fill="#DADADA"/>
<path d="M958.718 787.216C958.718 789.76 960.852 791.837 963.468 791.837C966.083 791.837 968.218 789.79 968.218 787.216C968.218 784.642 966.083 782.624 963.468 782.624C960.852 782.624 958.718 784.7 958.718 787.216Z" fill="#B4B4B4"/>
<g style="mix-blend-mode:multiply">
<path d="M960.071 801.957C971.044 801.957 979.973 793.299 979.973 782.595C979.973 779.289 979.041 776.218 977.538 773.498C981.145 776.979 983.37 781.834 983.37 787.186C983.37 797.891 974.471 806.549 963.468 806.549C955.892 806.549 949.368 802.366 946.001 796.282C949.608 799.763 954.569 801.927 960.041 801.927L960.071 801.957Z" fill="#DADADA"/>
</g>
<path d="M955.681 782.448C958.898 789.936 968.579 789.936 968.579 782.448V744.572H942.814C942.814 744.572 952.494 774.961 955.681 782.448Z" fill="white"/>
<path d="M273.134 787.216C273.134 803.741 286.903 817.166 303.919 817.166C320.935 817.166 334.705 803.77 334.705 787.216C334.705 770.661 320.905 757.266 303.919 757.266C286.933 757.266 273.134 770.661 273.134 787.216Z" fill="#1F1A3E"/>
<path d="M284.017 787.216C284.017 797.92 292.915 806.578 303.889 806.578C314.862 806.578 323.791 797.92 323.791 787.216C323.791 776.511 314.892 767.854 303.889 767.854C292.885 767.854 284.017 776.511 284.017 787.216Z" fill="#DADADA"/>
<path d="M309.169 787.216C309.169 789.76 311.304 791.837 313.889 791.837C316.475 791.837 318.639 789.79 318.639 787.216C318.639 784.642 316.505 782.624 313.889 782.624C311.274 782.624 309.169 784.7 309.169 787.216Z" fill="#B4B4B4"/>
<g style="mix-blend-mode:multiply">
<path d="M300.492 801.957C311.465 801.957 320.394 793.299 320.394 782.595C320.394 779.29 319.462 776.219 317.959 773.499C321.566 776.979 323.791 781.834 323.791 787.187C323.791 797.891 314.892 806.549 303.889 806.549C296.313 806.549 289.789 802.366 286.452 796.283C290.059 799.763 295.02 801.927 300.492 801.927V801.957Z" fill="#DADADA"/>
</g>
<path d="M296.133 782.448C299.35 789.936 309.03 789.936 309.03 782.448V744.572H283.266C283.266 744.572 292.946 774.961 296.133 782.448Z" fill="white"/>
<path d="M1210.68 776.83C1210.68 776.83 1180.42 785.346 1148.56 781.988C1134.41 780.499 1128.77 789.188 1133.82 793.066C1150.37 800.682 1229.74 824.741 1235.31 817.714C1242.79 808.263 1236.14 785.692 1238.65 780.326C1242.37 772.329 1210.72 776.83 1210.72 776.83H1210.68Z" fill="#21232F"/>
<path d="M1449.18 746.088L1429.67 786.349C1429.67 786.349 1422.61 784.48 1418.5 786.973C1411.27 791.335 1407.13 802.17 1415.97 802.343C1426.82 802.551 1441.6 802.932 1445.39 798.985C1451.93 792.235 1498.82 755.366 1496.94 749.308C1493.39 737.849 1471.02 730.337 1468 725.248C1463.51 717.667 1449.18 746.123 1449.18 746.123V746.088Z" fill="#21232F"/>
<path d="M1281.64 463.395C1291.86 488.148 1315.83 558.769 1343.79 609.485C1361.81 642.095 1445.22 752.908 1445.22 752.908L1476.28 713.617C1468.56 695.442 1389.32 581.825 1389.32 581.825C1389.32 581.825 1377.67 478.039 1363.34 451.002C1335.03 398.278 1266.68 427.254 1281.64 463.395Z" fill="#2B2D3C"/>
<path d="M1400.35 397.067C1391.69 359.09 1300.04 359.644 1288.87 397.067C1281.26 422.719 1250.37 486.693 1226.09 580.924C1207.69 652.342 1185.33 779.703 1185.33 779.703L1241.26 785.9C1246.72 766.929 1279.55 597.057 1279.55 597.057C1279.55 597.057 1328.42 514.977 1334.26 484.963C1369.71 482.885 1411.9 447.886 1400.35 397.101V397.067Z" fill="#383B4E"/>
<path d="M1284.59 295.22C1289.12 238.376 1301.43 191.746 1317.22 185.03C1324.73 181.845 1345.39 182.745 1353.5 183.299C1363.79 183.991 1383.13 190.949 1390.75 203.654C1405.43 228.025 1395.17 296.224 1397.25 322.36C1400.73 365.945 1401.84 407.591 1401.84 407.591H1285.85C1285.85 407.591 1281.15 338.769 1284.59 295.185V295.22Z" fill="#851E7C"/>
<path d="M1324 166.44C1324 155.466 1352.49 151.727 1351.2 161.489C1349.91 171.286 1353.53 183.333 1353.53 183.333C1353.53 183.333 1346.12 197.111 1330.65 197.146C1315.2 197.146 1317.22 185.064 1317.22 185.064L1324.32 180.668C1324.32 180.668 1323.97 171.909 1323.97 166.44H1324Z" fill="#F8B894"/>
<path d="M1287.76 86.9905C1287.76 138.883 1304.38 148.473 1341.29 158.477C1365.95 165.193 1409.7 150.134 1412.66 75.6357C1413.53 53.6531 1410.3 22.5659 1393.29 24.7814C1382.47 -5.1634 1367.69 0.410149 1345.67 0.410149C1300.14 0.410149 1249.95 27.6548 1287.76 87.0252V86.9905Z" fill="#2B2D3C"/>
<path d="M1281.26 97.5145C1281.26 150.861 1300.45 172.602 1324 172.602C1350.92 172.602 1387.3 140.822 1387.3 97.5145C1387.3 44.1677 1363.55 14.8114 1334.26 14.8114C1304.98 14.8114 1281.26 44.1677 1281.26 97.5145Z" fill="#E4A386"/>
<path d="M1283.83 94.6066C1283.83 146.084 1294.68 167.79 1322.54 167.79C1350.4 167.79 1384.7 150.065 1387.31 94.0527C1389.71 42.6445 1362.12 14.8114 1334.26 14.8114C1306.4 14.8114 1283.83 43.1292 1283.83 94.6066Z" fill="#F8B894"/>
<path d="M1330.37 12.4227C1353.91 12.4227 1382.02 25.4392 1384.7 48.4258C1369.46 63.0347 1348.63 69.8545 1325.64 69.8545C1302.65 69.8545 1277.74 67.085 1276.11 47.768C1291.34 31.1859 1307.38 12.4573 1330.4 12.4573L1330.37 12.4227Z" fill="#2B2D3C"/>
<path d="M1400.66 98.1376C1413.01 103.053 1401.81 126.559 1389.18 124.482C1383.79 123.582 1375.83 123.34 1375.83 114.824C1375.83 106.308 1385.84 105.996 1385.84 105.996C1385.84 105.996 1389.39 93.6373 1400.66 98.1376Z" fill="#F8B894"/>
<g style="mix-blend-mode:multiply">
<path d="M1392.28 101.842C1392.28 101.842 1398.57 99.4532 1401.15 104.404C1404.38 110.67 1394.68 120.466 1394.68 120.466C1394.68 120.466 1401.08 110.877 1398.05 104.888C1396.14 101.08 1392.24 101.842 1392.24 101.842H1392.28Z" fill="#C1A7AB"/>
</g>
<g style="mix-blend-mode:multiply">
<path d="M1320.11 114.027C1322.12 114.027 1323.97 114.512 1325.43 115.343C1324.63 112.885 1322.54 111.12 1320.11 111.12C1317.67 111.12 1315.58 112.885 1314.78 115.343C1316.28 114.512 1318.12 114.027 1320.11 114.027Z" fill="#C1A7AB"/>
</g>
<path d="M1343.65 131.544C1343.65 131.544 1340.49 150.169 1322.54 150.169C1304.59 150.169 1301.43 131.544 1301.43 131.544H1343.62H1343.65Z" fill="#FDFDFD"/>
<path d="M1361.57 80.9323C1357.84 75.7049 1350.05 76.1204 1342.05 78.3359C1339.38 79.0629 1340.7 82.8363 1343.45 82.3863C1348.35 81.59 1354.09 81.5901 1358.26 86.8867C1359.97 89.033 1363.2 83.2171 1361.6 80.9669L1361.57 80.9323Z" fill="#2B2D3C"/>
<path d="M1384.1 89.2061C1392.28 57.2534 1365.98 61.3383 1365.98 61.3383C1365.98 61.3383 1381.5 32.3282 1387.48 44.2369C1389.74 48.7027 1402.16 86.0904 1390.54 99.0031C1390.54 106.896 1383.62 112.885 1381.15 112.123C1378.68 111.362 1381.64 98.8992 1384.1 89.2061Z" fill="#2B2D3C"/>
<path d="M1345.85 100.526C1345.85 101.669 1346.78 102.638 1347.93 102.638C1349.08 102.638 1350.05 101.703 1350.05 100.526V93.8103C1350.05 92.6679 1349.11 91.6986 1347.93 91.6986C1346.75 91.6986 1345.85 92.6333 1345.85 93.8103V100.526Z" fill="#2B2D3C"/>
<path d="M1287.79 80.9323C1291.52 75.7049 1299.31 76.1204 1307.31 78.3359C1309.98 79.0629 1308.66 82.8363 1305.95 82.3863C1301.01 81.59 1295.27 81.5901 1291.13 86.8867C1289.46 89.033 1286.19 83.2171 1287.79 80.9669V80.9323Z" fill="#2B2D3C"/>
<path d="M1303.52 100.526C1303.52 101.669 1302.58 102.638 1301.43 102.638C1300.28 102.638 1299.31 101.703 1299.31 100.526V93.8103C1299.31 92.6679 1300.25 91.6986 1301.43 91.6986C1302.58 91.6986 1303.52 92.6333 1303.52 93.8103V100.526Z" fill="#2B2D3C"/>
<path d="M1381.01 221.448C1381.01 221.448 1320.98 298.405 1302.79 308.756C1288.25 317.029 1222.34 336.277 1222.34 336.277" stroke="#F8B894" stroke-width="24.14" stroke-miterlimit="10"/>
<path d="M1344.45 298.405L1311.17 281.545C1311.17 281.545 1349.5 178.591 1380.77 195.069C1426.89 219.371 1344.45 298.405 1344.45 298.405Z" fill="#DBF0FD"/>
<path d="M1224.39 322.741C1224.39 322.741 1216.07 323.676 1200.6 323.122C1191.1 322.81 1181.61 330.738 1179.73 342.404C1178.16 351.994 1184.14 353.759 1191.38 358.571C1190.23 359.437 1193.01 362.725 1196.11 364.872C1199.21 367.018 1201.81 366.014 1205.43 363.729C1215.24 357.533 1219.07 347.909 1225.43 348.255C1231.8 348.601 1224.39 322.741 1224.39 322.741Z" fill="#F8B894"/>
<defs>
<linearGradient id="paint0_linear_636_24054" x1="0" y1="816.879" x2="1533.37" y2="816.879" gradientUnits="userSpaceOnUse">
<stop stop-color="#F8F4F4" stop-opacity="0"/>
<stop offset="0.515625" stop-color="#EA64DB"/>
<stop offset="1" stop-color="#D9D9D9" stop-opacity="0"/>
</linearGradient>
<linearGradient id="paint1_linear_636_24054" x1="729.853" y1="243.131" x2="-317.232" y2="741.71" gradientUnits="userSpaceOnUse">
<stop stop-color="#EECAFF"/>
<stop offset="0.914652" stop-color="#D9D9D9" stop-opacity="0"/>
</linearGradient>
</defs>
</svg>
