<svg width="52" height="51" viewBox="0 0 52 51" fill="none" xmlns="http://www.w3.org/2000/svg">
<path id="Subtract" fill-rule="evenodd" clip-rule="evenodd" d="M26.0283 51C40.3156 51 51.8978 39.5833 51.8978 25.5C51.8978 11.4167 40.3156 0 26.0283 0C11.7409 0 0.158691 11.4167 0.158691 25.5C0.158691 39.5833 11.7409 51 26.0283 51ZM14.2168 28.2802C15.1918 30.8129 16.937 32.1875 19.5823 32.4442V32.4456C17.0526 34.3971 14.2711 35.1671 11.1995 34.9076C13.4521 36.401 15.9049 37.2431 18.5543 37.475C20.1675 37.6164 21.769 37.521 23.3595 37.2007C26.3238 36.6032 28.9382 35.276 31.1036 33.1102C34.6565 29.5564 36.399 25.2008 36.3577 20.0922C36.3563 19.9684 36.4361 19.8016 36.5317 19.7259C37.2757 19.1369 37.9489 18.4751 38.5416 17.7277C38.6908 17.5399 38.8301 17.3436 38.9695 17.1472C39.0358 17.0538 39.1021 16.9604 39.1694 16.8679C38.1435 17.2391 37.1292 17.5474 36.0579 17.6612C37.1726 16.8622 37.9874 15.8398 38.4275 14.4539C38.3856 14.475 38.3488 14.493 38.3156 14.5093C38.2483 14.5423 38.1955 14.5681 38.1449 14.5975C37.1588 15.1674 36.1088 15.5605 35.0072 15.8214C34.8305 15.8631 34.726 15.8243 34.6008 15.7019C32.5888 13.7327 29.7709 13.4188 27.4426 14.9609C25.8446 16.0194 24.9651 17.5665 24.8358 19.5286C24.81 19.921 24.8303 20.3166 24.8511 20.7207C24.8607 20.9087 24.8705 21.0985 24.8757 21.2907C20.1015 20.9591 16.169 18.8704 13.054 15.0896C12.3258 16.4564 12.09 17.867 12.4131 19.3681C12.7356 20.8664 13.5353 22.0444 14.7779 22.999C13.8207 22.9707 13.0189 22.6886 12.2323 22.2983C12.1855 24.7278 13.7272 27.3949 16.7569 28.1847C15.9063 28.4096 15.0956 28.4195 14.2168 28.2802Z" fill="#820A5B"/>
</svg>
