<svg width="52" height="51" viewBox="0 0 52 51" fill="none" xmlns="http://www.w3.org/2000/svg">
<path id="Subtract" fill-rule="evenodd" clip-rule="evenodd" d="M25.9206 50.7876C40.1485 50.7876 51.6824 39.4184 51.6824 25.3938C51.6824 11.3692 40.1485 0 25.9206 0C11.6928 0 0.158813 11.3692 0.158813 25.3938C0.158813 39.4184 11.6928 50.7876 25.9206 50.7876ZM14.2169 28.2802C15.192 30.8129 16.9372 32.1875 19.5825 32.4442V32.4456C17.0527 34.3971 14.2712 35.1671 11.1996 34.9076C13.4523 36.401 15.905 37.2431 18.5545 37.475C20.1676 37.6164 21.7691 37.521 23.3596 37.2007C26.324 36.6032 28.9383 35.276 31.1037 33.1102C34.6566 29.5564 36.3991 25.2008 36.3578 20.0922C36.3565 19.9684 36.4362 19.8016 36.5318 19.7259C37.2758 19.1369 37.949 18.4751 38.5417 17.7277C38.6909 17.5399 38.8302 17.3436 38.9696 17.1472C39.0359 17.0538 39.1022 16.9604 39.1696 16.8679C38.1436 17.2391 37.1294 17.5474 36.058 17.6612C37.1727 16.8622 37.9875 15.8398 38.4276 14.4539C38.3858 14.475 38.349 14.493 38.3157 14.5093C38.2484 14.5423 38.1956 14.5681 38.145 14.5975C37.1589 15.1674 36.1089 15.5605 35.0073 15.8214C34.8306 15.8631 34.7261 15.8243 34.601 15.7019C32.589 13.7327 29.7711 13.4188 27.4427 14.9609C25.8447 16.0194 24.9652 17.5665 24.8359 19.5286C24.8101 19.921 24.8304 20.3166 24.8512 20.7207C24.8608 20.9087 24.8706 21.0985 24.8758 21.2907C20.1016 20.9591 16.1691 18.8704 13.0541 15.0896C12.3259 16.4564 12.0901 17.867 12.4133 19.3681C12.7358 20.8664 13.5355 22.0444 14.778 22.999C13.8208 22.9707 13.0191 22.6886 12.2324 22.2983C12.1857 24.7278 13.7273 27.3949 16.757 28.1847C15.9064 28.4096 15.0957 28.4195 14.2169 28.2802Z" fill="white"/>
</svg>
