<svg width="68" height="71" viewBox="0 0 68 71" fill="none" xmlns="http://www.w3.org/2000/svg">
<g id="Layer_1" clip-path="url(#clip0_332_518)">
<path id="Vector" d="M60.6644 14.3602C63.4744 15.5164 65.1888 17.5801 65.766 20.5106C66.2859 23.1475 65.6314 25.6376 64.5758 28.0486C63.4916 30.5274 61.9964 32.7577 60.272 34.8398C59.9211 35.2633 59.8924 35.5499 60.2648 35.9818C61.3476 37.2353 62.2828 38.6004 63.1436 40.0106C63.251 40.187 63.304 40.3973 63.3828 40.5921C62.7196 40.818 62.0651 41.0594 61.5094 41.4998C60.7117 40.1051 59.7864 38.7952 58.7953 37.529C58.5934 37.2706 58.4516 36.9813 58.0506 37.4047C55.706 39.8849 53.1452 42.1322 50.401 44.1776C50.1547 44.3611 49.9356 44.5574 49.894 44.906C49.4944 48.2445 48.807 51.525 47.8173 54.7435C47.6784 55.1938 47.6999 55.462 48.2771 55.479C48.7268 55.4931 49.1736 55.5848 49.6219 55.6399C52.5293 55.9984 55.4124 55.949 58.2597 55.1698C61.9706 54.1549 63.9714 51.5589 63.748 48.0271C64.4727 48.0271 65.1759 47.9099 65.8505 47.6417C66.4549 51.3853 64.1447 55.1613 60.3207 56.7113C57.1067 58.0142 53.7582 58.1681 50.3509 57.9027C49.4014 57.8293 48.4547 57.7432 47.5165 57.5752C47.084 57.4976 46.8391 57.6274 46.6586 58.0735C45.9583 59.8197 45.2235 61.5545 44.1537 63.1242C43.6581 62.6245 43.0809 62.2391 42.4393 61.9441C43.1941 60.5057 43.9575 59.0715 44.559 57.5583C44.7079 57.1828 44.6721 57.0473 44.2453 56.9513C40.8724 56.1904 37.6055 55.1035 34.4188 53.778C34.151 53.6665 33.9061 53.6142 33.6024 53.7399C30.4172 55.0696 27.1517 56.1594 23.7731 56.9047C23.3763 56.9922 23.2961 57.1531 23.4508 57.53C24.5851 60.2869 25.9228 62.9322 27.9466 65.1696C30.7595 68.2794 34.161 69.4002 37.7745 67.1572C38.1154 67.7783 38.6267 68.2512 39.1566 68.7085C37.5726 69.9705 35.7451 70.5112 33.7313 70.4476C30.3312 70.3404 27.9208 68.4615 25.8541 66.0462C23.8705 63.7284 22.4454 61.0774 21.3884 58.2429C21.1363 57.5681 20.7783 57.4623 20.1452 57.571C18.3392 57.8801 16.5145 58.0086 14.6799 57.9973C14.9391 57.3183 14.9864 56.6139 14.9319 55.8982C16.5002 55.8304 18.0642 55.7232 19.6239 55.5227C20.2126 55.4465 20.3085 55.2729 20.1366 54.7181C19.1584 51.549 18.4724 48.3165 18.0972 45.0232C18.0499 44.6138 17.8336 44.3414 17.5142 44.1028C14.8317 42.0997 12.3296 39.8948 10.0237 37.481C9.68281 37.1238 9.51095 37.1154 9.22164 37.4908C7.68915 39.4784 6.27984 41.5379 5.31166 43.86C4.58981 45.5906 4.08567 47.3777 4.25037 49.2679C4.46378 51.7029 5.84444 53.3743 7.96987 54.512C7.68629 55.143 7.42133 55.7796 7.33396 56.4727C4.53682 55.3039 2.80526 53.2543 2.22807 50.3181C1.7139 47.7038 2.3541 45.2363 3.38674 42.8437C4.44945 40.3818 5.91892 38.1628 7.62614 36.0948C8.03432 35.5993 8.11452 35.269 7.64475 34.7326C6.58491 33.5228 5.69263 32.1846 4.85334 30.8154C4.74449 30.6389 4.69436 30.4272 4.61559 30.2324C5.28874 30.0319 5.91462 29.7355 6.48465 29.3303C7.28526 30.6954 8.19759 31.9842 9.16435 33.2419C9.50235 33.6809 9.66992 33.7077 10.0566 33.2998C12.3883 30.8365 14.9505 28.6245 17.6689 26.5862C17.9296 26.3914 18.0714 26.1627 18.1115 25.8267C18.5025 22.5814 19.1771 19.3926 20.1209 16.2589C20.3715 15.426 20.3586 15.3752 19.5108 15.2651C16.8325 14.9192 14.1499 14.7781 11.4702 15.2496C10.1039 15.4909 8.77908 15.8678 7.56598 16.5624C5.16127 17.9401 4.13293 20.049 4.20168 22.7367C3.49273 22.772 2.81528 22.9485 2.15359 23.1913C1.56208 19.8048 3.44976 16.2716 6.76966 14.5494C8.9667 13.4102 11.3442 12.9726 13.7904 12.8541C16.0104 12.7468 18.2203 12.9063 20.4088 13.2775C20.9315 13.3665 21.1507 13.2592 21.3354 12.7567C21.904 11.2081 22.6473 9.733 23.4379 8.28328C23.5496 8.07859 23.7029 7.89791 23.8375 7.70593C24.3374 8.20281 24.9146 8.59101 25.5562 8.88603C24.81 10.2779 24.0953 11.6824 23.4752 13.1364C23.279 13.5966 23.2775 13.8267 23.859 13.9523C27.219 14.6793 30.4601 15.7775 33.6268 17.0959C33.8903 17.206 34.1138 17.2018 34.3758 17.0945C37.5454 15.7874 40.7793 14.6736 44.1408 13.9452C44.5805 13.8507 44.7137 13.701 44.5232 13.2437C43.406 10.556 42.0956 7.97978 40.1449 5.77062C37.3592 2.61426 33.876 1.3904 30.2195 3.67297C29.8801 3.05045 29.3702 2.57474 28.8374 2.11879C30.062 1.11231 31.4956 0.595662 33.0582 0.422035C36.0473 0.0888954 38.4935 1.24783 40.6175 3.19867C43.4333 5.78614 45.2064 9.03566 46.5885 12.5153C46.8262 13.1124 47.0382 13.4088 47.7801 13.2663C49.6019 12.9148 51.4552 12.8117 53.3142 12.8315C53.0593 13.5105 53.0063 14.2134 53.0636 14.9291C51.5612 14.9489 50.0688 15.0929 48.5778 15.2566C47.6583 15.3583 47.6497 15.3907 47.9075 16.2447C48.8414 19.3573 49.5131 22.5222 49.8926 25.7477C49.937 26.1218 50.0745 26.4154 50.3824 26.6441C53.1323 28.6838 55.6845 30.9438 58.0477 33.4071C58.3628 33.736 58.5089 33.647 58.7481 33.3421C60.2247 31.4576 61.5739 29.4969 62.5277 27.2976C63.4186 25.2452 64.0373 23.1419 63.6305 20.8678C63.2453 18.7179 61.8675 17.3359 60.0242 16.3083C60.3135 15.6815 60.5699 15.0449 60.663 14.3546L60.6644 14.3602ZM19.6783 35.3396C19.6096 37.7252 19.7814 40.0656 19.9547 42.4089C20.0034 43.0554 20.2297 43.4859 20.7668 43.8586C24.7728 46.6395 28.995 49.0434 33.4592 51.038C33.8402 51.2074 34.1539 51.2145 34.5377 51.0423C39.0435 49.0251 43.3044 46.5929 47.3475 43.781C47.813 43.4577 48.0006 43.085 48.025 42.5571C48.0694 41.6198 48.141 40.6839 48.204 39.748C48.4647 35.8491 48.3558 31.9573 47.992 28.0712C47.9534 27.6618 47.7829 27.3555 47.4077 27.0944C43.3502 24.2627 39.065 21.8248 34.5406 19.7907C34.1582 19.6185 33.8416 19.6199 33.4607 19.7907C28.9334 21.8178 24.6467 24.2542 20.5907 27.0901C20.2011 27.3626 20.0135 27.6788 19.9777 28.1305C19.7872 30.5415 19.5996 32.9525 19.6769 35.3396H19.6783ZM17.689 29.3868C17.5114 29.4588 17.414 29.4757 17.3481 29.5294C15.2356 31.2868 13.1359 33.0556 11.3041 35.1095C11.0162 35.4313 11.2024 35.5852 11.3972 35.8082C12.5544 37.1267 13.8664 38.2912 15.1697 39.4586C15.9345 40.1433 16.6907 40.8575 17.6976 41.4815C17.4297 37.3977 17.4498 33.4297 17.689 29.3896V29.3868ZM50.3022 29.3586C50.5572 33.4325 50.5586 37.3991 50.2965 41.4758C50.5085 41.3516 50.6116 41.305 50.6975 41.2372C52.8258 39.5334 54.8481 37.7181 56.6943 35.715C56.9893 35.3946 56.7902 35.2393 56.5969 35.0177C55.3995 33.6414 54.0389 32.4246 52.6697 31.2247C51.9507 30.5951 51.2504 29.926 50.3008 29.36L50.3022 29.3586ZM31.1992 18.4144C28.4865 17.3797 25.857 16.5751 23.173 15.9271C22.5929 15.7874 22.4282 15.9878 22.285 16.4692C21.5703 18.8562 21.0218 21.2799 20.5763 23.7277C20.5391 23.9309 20.4446 24.2034 20.6179 24.3276C20.817 24.4688 21.0046 24.2316 21.175 24.1201C22.9424 22.9654 24.7255 21.8347 26.596 20.848C28.0826 20.0646 29.5664 19.2769 31.1977 18.4144H31.1992ZM36.7877 52.4045C39.5662 53.4448 42.2159 54.2607 44.9299 54.879C45.4398 54.9948 45.5974 54.7393 45.7205 54.3327C46.4438 51.9499 46.9809 49.5262 47.4263 47.0813C47.4621 46.8865 47.571 46.6169 47.3619 46.4983C47.1542 46.3811 46.9752 46.6141 46.8047 46.7256C44.4902 48.2558 42.1084 49.6744 39.6321 50.9364C38.7313 51.3952 37.8347 51.8652 36.7892 52.4045H36.7877ZM20.5591 46.2964C20.5591 46.6282 20.5391 46.7679 20.562 46.9006C21.0103 49.4218 21.5775 51.9132 22.3294 54.3652C22.4855 54.8748 22.6788 55.0202 23.2274 54.8861C25.5419 54.3214 27.8205 53.6467 30.0634 52.8534C30.4057 52.732 30.7366 52.5781 31.2106 52.3819C27.4825 50.568 24.008 48.6341 20.5591 46.295V46.2964ZM36.7949 18.444C37.7817 18.9409 38.6539 19.3602 39.5075 19.8119C42.0297 21.1458 44.506 22.5546 46.8663 24.154C47.0167 24.2556 47.1785 24.4448 47.3705 24.3389C47.5309 24.2514 47.4578 24.0396 47.4292 23.8844C46.9709 21.3406 46.4037 18.8237 45.6289 16.3534C45.4885 15.9074 45.2966 15.8142 44.8626 15.9356C43.6495 16.2744 42.4178 16.5525 41.209 16.9082C39.7596 17.3345 38.3231 17.8032 36.7949 18.444Z" fill="#2E4163"/>
<path id="Vector_2" d="M25.5562 8.89027C24.9146 8.59383 24.3388 8.20564 23.8376 7.71016C23.1501 6.66416 22.8035 5.55323 23.1701 4.30396C23.7932 2.17525 26.1664 1.04738 28.246 1.89434C28.4422 1.9748 28.6413 2.0468 28.8403 2.12302C29.3731 2.57897 29.8816 3.05468 30.2224 3.67579C30.2826 3.85365 30.347 4.02869 30.4015 4.20797C31.046 6.32255 29.7899 8.44985 27.6015 8.96085C26.9111 9.12177 26.2351 9.00602 25.5577 8.89027H25.5562ZM26.7593 6.91119C27.6545 6.93237 28.4064 6.21386 28.4107 5.33443C28.415 4.48605 27.7089 3.77743 26.8381 3.75625C25.9243 3.73508 25.1925 4.42818 25.1882 5.32172C25.1839 6.16587 25.9 6.89002 26.7593 6.90978V6.91119Z" fill="#4447DF"/>
<path id="Vector_3" d="M39.1596 68.7113C38.6297 68.254 38.1183 67.7811 37.7775 67.16C37.1315 65.4604 37.3435 63.9302 38.7614 62.6852C39.8313 61.7465 41.1017 61.6448 42.4422 61.9455C43.0824 62.2405 43.6596 62.6259 44.1566 63.1256C44.7009 63.9754 45.0933 64.8675 44.9486 65.9079C44.5892 68.4812 42.0341 69.907 39.6251 68.8807C39.4732 68.8158 39.3143 68.7692 39.1596 68.7127V68.7113ZM41.2248 67.0795C42.1028 67.0682 42.8017 66.3779 42.8103 65.5154C42.8189 64.6445 42.0613 63.909 41.1733 63.9232C40.3054 63.9373 39.5935 64.6417 39.5878 65.4929C39.5821 66.3695 40.3268 67.0908 41.2248 67.0795Z" fill="#4447DF"/>
<path id="Vector_4" d="M60.6643 14.3603C60.5727 15.0491 60.3149 15.6858 60.0256 16.3139C59.8279 16.5144 59.636 16.7191 59.4312 16.9125C58.0806 18.1886 55.9509 18.2789 54.4857 17.1397C53.7467 16.5652 53.37 15.7733 53.0635 14.932C53.0048 14.2163 53.0592 13.5133 53.3142 12.8343C54.4413 10.7847 56.3605 9.99276 58.2911 10.8058C59.868 11.4707 60.5254 12.751 60.6629 14.3603H60.6643ZM56.8675 15.8058C57.7627 15.7888 58.4874 15.0364 58.453 14.1584C58.42 13.3185 57.6739 12.6381 56.7988 12.6522C55.895 12.6663 55.1861 13.4046 55.219 14.2968C55.2505 15.1437 55.9924 15.8213 56.8675 15.8043V15.8058Z" fill="#4447DF"/>
<path id="Vector_5" d="M2.15491 23.1955C2.8166 22.9527 3.49404 22.7748 4.20299 22.741C4.38345 22.7861 4.56391 22.8355 4.74581 22.8737C6.27399 23.1941 7.43983 24.4307 7.67901 25.9538C7.88955 27.2948 7.39113 28.3803 6.4874 29.3346C5.91594 29.7411 5.29149 30.0376 4.61834 30.2366C3.93373 30.1872 3.2391 30.2606 2.57885 29.9769C1.27266 29.4165 0.450556 28.4608 0.241451 27.0817C0.0237527 25.6461 0.537922 24.4504 1.70662 23.5456C1.85557 23.4298 2.00596 23.3127 2.15491 23.1969V23.1955ZM3.95235 28.0938C4.84893 28.098 5.53496 27.443 5.55502 26.565C5.57507 25.6461 4.88903 24.9431 3.97527 24.9473C3.08299 24.9515 2.3812 25.615 2.35972 26.4733C2.33823 27.3696 3.04432 28.0881 3.95235 28.0924V28.0938Z" fill="#4447DF"/>
<path id="Vector_6" d="M7.33545 56.4742C7.42282 55.7811 7.68778 55.1445 7.97136 54.5135C8.13606 54.3483 8.3022 54.1818 8.46691 54.0166C9.6485 52.8323 11.4173 52.5612 12.914 53.3179C14.0039 53.8684 14.5625 54.8099 14.9334 55.9011C14.9878 56.6168 14.9406 57.3212 14.6813 58.0002C13.4439 60.6977 10.2486 60.942 8.5199 59.2607C7.72931 58.4914 7.42568 57.5287 7.33545 56.4756V56.4742ZM11.1767 55.0259C10.2801 55.0203 9.54681 55.7416 9.54394 56.6309C9.54108 57.4637 10.2772 58.171 11.1538 58.178C12.0704 58.1837 12.7793 57.4892 12.7779 56.5829C12.7779 55.7388 12.0503 55.033 11.1767 55.0273V55.0259Z" fill="#4447DF"/>
<path id="Vector_7" d="M61.5095 41.4998C62.0652 41.0594 62.7197 40.818 63.3828 40.5922C63.8813 40.6232 64.3983 40.5795 64.8724 40.698C66.3862 41.0763 67.3859 42.0264 67.7125 43.5452C68.0261 45.0006 67.5506 46.2287 66.4034 47.1985C66.2229 47.3509 66.0353 47.4935 65.8506 47.6403C65.176 47.9099 64.4728 48.0257 63.7481 48.0257C61.899 47.7532 60.6344 46.631 60.3365 45.019C60.0801 43.6328 60.5571 42.4908 61.5095 41.4998ZM65.6386 44.3428C65.6515 43.4676 64.9655 42.7604 64.0846 42.7392C63.1795 42.718 62.4719 43.3688 62.4419 44.2468C62.4118 45.146 63.062 45.8518 63.9486 45.88C64.8881 45.9111 65.6243 45.2406 65.6386 44.3428Z" fill="#4447DF"/>
<path id="Vector_8" d="M42.2933 35.4511C42.2933 37.0251 42.2646 38.6004 42.3019 40.1743C42.342 41.8612 41.5657 43.1048 40.2294 44.0478C38.6325 45.1743 36.8121 45.6288 34.8686 45.753C32.504 45.9055 30.264 45.5469 28.2145 44.3358C26.566 43.3618 25.6522 41.9812 25.688 39.9965C25.7453 36.8952 25.7267 33.7925 25.688 30.6912C25.6665 29.0368 26.3827 27.7861 27.6817 26.8445C29.1554 25.7745 30.8526 25.2861 32.6673 25.1026C34.8228 24.8852 36.9038 25.1337 38.876 26.0075C40.523 26.7373 41.8307 27.8214 42.2317 29.6776C42.2861 29.9275 42.2976 30.19 42.299 30.4455C42.3047 32.1141 42.3019 33.7826 42.3019 35.4511C42.299 35.4511 42.2961 35.4511 42.2933 35.4511ZM39.9988 39.0465C40.2538 37.9878 40.1936 36.9248 40.0375 35.8619C40.0676 35.6304 40.1263 35.4003 40.1234 35.1702C40.1177 34.7608 40.3369 34.2315 40.0103 33.9788C39.7711 33.7953 39.4231 34.2696 39.0879 34.3741C39.0421 34.3882 38.9991 34.4079 38.9562 34.4263C35.3656 35.876 31.8266 35.8464 28.3548 34.055C28.0054 33.8743 27.8235 33.8715 27.8564 34.3246C27.8937 34.8371 27.928 35.3495 27.9638 35.8619C27.7204 36.8881 27.9194 37.9313 27.8507 38.9646C27.8521 39.2695 27.8822 39.5786 27.8507 39.8807C27.729 41.0792 28.2789 41.8951 29.2886 42.4964C31.2966 43.6921 33.4851 43.7909 35.7193 43.5255C36.911 43.3843 38.0252 42.9905 39.0264 42.2903C39.9688 41.6311 40.4256 40.6247 40.0003 39.0479L39.9988 39.0465ZM29.439 32.2086C32.4782 33.7417 35.5188 33.7431 38.558 32.2086C40.5832 31.0681 40.6233 29.4941 38.6468 28.2928C38.3246 28.098 37.9794 27.9301 37.6271 27.796C35.8511 27.117 34.0164 27.021 32.1517 27.3118C31.0116 27.4896 29.9346 27.851 28.9936 28.5272C27.5413 29.5704 27.5299 30.8436 28.9549 31.915C29.1053 32.028 29.2772 32.1112 29.439 32.2086Z" fill="#2E4163"/>
<path id="Vector_9" d="M29.4403 32.2086C29.2785 32.1112 29.1066 32.0279 28.9562 31.915C27.5312 30.8436 27.5426 29.5703 28.9949 28.5271C29.9373 27.851 31.0129 27.4896 32.153 27.3117C34.0177 27.0195 35.8524 27.1169 37.6284 27.7959C37.9807 27.93 38.3259 28.098 38.6481 28.2928C40.6232 29.4927 40.5845 31.068 38.5593 32.2086C35.5201 30.9523 32.4795 30.9579 29.4403 32.2086Z" fill="#DFE2E9"/>
<path id="Vector_10" d="M40.0003 39.0465C35.9342 41.2331 31.8853 41.1893 27.8507 38.9632C27.9195 37.9299 27.7204 36.8881 27.9639 35.8605C28.2646 36.6623 28.8991 37.1634 29.6353 37.5106C32.4854 38.8488 35.3685 38.8545 38.2387 37.5756C39.0293 37.2241 39.7096 36.7089 40.0376 35.8619C40.1937 36.9248 40.2553 37.9878 39.9989 39.0465H40.0003Z" fill="#4447DF"/>
</g>
<defs>
<clipPath id="clip0_332_518">

<rect width="67.614" height="70.0877" fill="white" transform="translate(0.192871 0.368408)"/>
</clipPath>
</defs>
</svg>
