<svg xmlns="http://www.w3.org/2000/svg" width="160" height="160" viewBox="0 0 160 160" fill="none">
  <circle cx="80" cy="80" r="70" fill="white"/>
  <circle cx="80" cy="80" r="79.5" stroke="white" stroke-dasharray="11 11"/>
  <path d="M108.771 88.6999C108.771 92.2274 108.686 95.7588 108.807 99.2824C108.868 101.056 108.146 102.182 106.771 103.103C103.624 105.209 100.147 106.541 96.5341 107.545C83.0652 111.288 69.7764 110.795 56.7005 105.756C54.7013 104.986 52.8057 103.99 51.0883 102.675C50.1433 101.951 49.6718 101.11 49.6833 99.8273C49.7427 92.2582 49.7236 84.6911 49.6967 77.122C49.6929 76.2806 49.806 76.1073 50.6743 76.4057C59.6695 79.5038 68.6839 82.5422 77.6791 85.6346C78.7679 86.0081 79.7492 86.0004 80.8322 85.6269C89.7987 82.5442 98.7766 79.498 107.751 76.4423C108.429 76.2112 108.769 76.4481 108.771 77.1528C108.771 81.0018 108.771 84.849 108.771 88.698V88.6999Z" fill="#1F7CCF"/>
  <path d="M121.593 66.9959C117.796 68.1185 114.087 69.5068 110.34 70.7795C100.304 74.1895 90.2778 77.6227 80.2494 81.0539C79.6303 81.2657 79.063 81.3466 78.3998 81.1194C63.4224 75.9841 48.4355 70.8719 33.4504 65.7559C33.3603 65.7251 33.276 65.6866 33 65.5749C33.506 65.3901 33.8664 65.2476 34.2325 65.1244C48.9281 60.1431 63.6237 55.1677 78.3155 50.1788C78.9135 49.9766 79.4482 49.9246 80.0673 50.1345C94.878 55.1715 109.694 60.1893 124.509 65.2129C124.777 65.3034 125.04 65.4151 125.431 65.5653C124.961 65.7636 124.605 65.9138 124.248 66.064C123.328 66.2719 122.458 66.6262 121.593 66.994V66.9959Z" fill="#1F7CCF"/>
  <path d="M125.356 84.7256C126.113 86.1774 125.996 87.7486 125.99 89.3063C125.981 91.7382 126.006 94.172 125.981 96.6039C125.965 98.0788 125.095 99.2707 123.824 99.677C122.628 100.06 121.375 99.6481 120.501 98.5717C120.06 98.0307 119.874 97.3972 119.874 96.704C119.874 93.4403 119.897 90.1747 119.857 86.911C119.847 86.0908 120.367 85.4804 120.489 84.7314C122.113 84.7314 123.734 84.7275 125.358 84.7275L125.356 84.7256Z" fill="#99D5C8"/>
  <path d="M121.594 66.9957C122.458 66.6279 123.328 66.2736 124.248 66.0657C124.25 71.2799 124.252 76.4941 124.26 81.7083C124.26 82.1223 124.298 82.5363 124.319 82.9522C123.411 83.0003 122.498 83.1428 121.599 82.8694C121.597 77.5781 121.595 72.2869 121.594 66.9976V66.9957Z" fill="#9ED5CA"/>
  <path d="M121.599 82.8676C122.498 83.141 123.41 82.9985 124.319 82.9504C125.599 82.9812 125.626 83.0274 125.356 84.7257C123.732 84.7257 122.109 84.7295 120.487 84.7295C120.457 84.5447 120.428 84.3579 120.397 84.1731C120.231 83.2103 120.593 82.7386 121.601 82.8676H121.599Z" fill="#62BEAD"/>
</svg>