<svg width="80" height="105" viewBox="0 0 80 105" fill="none" xmlns="http://www.w3.org/2000/svg">
<g id="Layer_1" clip-path="url(#clip0_330_198)">
<path id="Vector" d="M72.3664 98.6501C72.959 99.7732 74.1181 100.135 75.2844 100.464C76.4127 100.783 77.5672 101.018 78.6837 101.371C79.9695 101.778 80.2635 102.629 79.7795 103.876C79.4465 104.733 78.8719 105.051 78.0214 104.988C76.8217 104.9 75.6219 104.8 74.4248 104.68C73.2314 104.56 72.0533 104.531 70.907 104.979C70.7884 105.026 70.5749 104.987 70.4754 104.905C69.3 103.936 67.9293 103.584 66.4381 103.612C65.2637 103.634 64.0865 103.747 62.9166 103.692C61.9042 103.644 60.8989 103.423 59.8928 103.267C58.8097 103.099 57.7249 102.939 56.6482 102.739C54.5183 102.343 52.3902 101.936 50.2666 101.509C46.6066 100.775 43.1159 99.501 39.6713 98.1039C36.7597 96.9232 33.8299 95.7731 30.9888 94.4373C26.349 92.2561 22.1082 89.4358 18.3822 85.9053C15.903 83.5564 13.594 81.0408 11.7048 78.1809C10.4064 76.215 9.0745 74.2646 7.9064 72.2221C7.14365 70.8891 6.63153 69.4118 6.03526 67.9886C3.77868 62.6085 2.15908 57.0374 1.22985 51.285C0.737638 48.2385 0.382955 45.1605 0.164898 42.0824C0.0128906 39.9363 0.144992 37.7641 0.243615 35.6081C0.407385 32.0407 0.654396 28.4768 0.365764 24.9057C0.332286 24.4884 0.297904 24.063 0.192042 23.6601C-0.586089 20.6739 1.10408 18.1989 3.60134 17.0046C5.01917 16.3259 6.51028 16.1141 8.07469 16.1492C8.97949 16.1691 9.88792 16.0032 10.7954 15.9203L10.7972 15.7265C10.6507 15.7049 10.5041 15.6751 10.3566 15.6625C9.50971 15.5931 8.68091 15.6842 7.8512 15.8734C7.25584 16.0086 6.65777 15.9681 6.28861 15.3741C5.99455 14.9 6.14927 14.2429 6.66229 13.6931C7.36261 12.9432 8.25384 12.7737 9.22831 12.899C10.0444 13.0036 10.8461 13.0315 11.6188 12.6602C12.6946 12.1428 13.3624 10.8981 13.1651 9.71642C13.1434 9.58843 13.0837 9.46224 13.0203 9.34597C12.7489 8.84393 12.7607 8.57082 13.2538 8.27789C13.8039 7.95161 14.4192 7.73258 15.0073 7.46939C15.6913 7.16294 16.4016 6.90336 17.0558 6.54282C17.7434 6.16426 17.8728 5.54414 17.5036 4.84741C17.4123 4.67616 17.3173 4.49679 17.1842 4.35889C16.5762 3.72886 16.3618 2.94289 16.2722 2.11096C16.16 1.07623 16.7436 0.265031 17.7588 0.0730466C18.812 -0.126148 19.8037 0.084764 20.684 0.685052C21.8539 1.48273 22.0847 2.73198 21.3364 3.9605C21.0659 4.40396 20.7419 4.83119 20.5619 5.3098C20.3004 6.00382 20.5537 6.64467 21.2432 6.90876C22.1923 7.2729 23.1894 7.51446 24.1639 7.8137C24.5521 7.93268 24.9502 8.03363 25.3193 8.19587C26.0703 8.52486 26.2784 9.04943 25.978 9.80745C25.874 10.0697 25.7401 10.3293 25.5709 10.5538C25.4161 10.7593 25.4342 10.9089 25.551 11.118C26.054 12.0193 26.8964 12.5169 27.7659 12.9729C28.5775 13.3984 29.4181 13.7688 30.2279 14.1979C30.569 14.379 30.8857 14.6224 31.1698 14.8856C31.6919 15.3678 31.9135 15.9645 31.7127 16.6756C31.6548 16.882 31.6502 17.028 31.9108 17.1272C32.8527 17.485 33.5558 18.1619 34.2027 18.9046C34.7248 19.5049 35.2378 20.1151 35.778 20.6992C35.9996 20.9389 36.2548 21.1778 36.5416 21.3247C38.0698 22.1026 39.3438 23.2382 40.6883 24.2658C41.7334 25.0643 42.7006 25.9792 43.6208 26.922C44.341 27.6602 44.7889 28.5831 44.931 29.6368C44.9843 30.0379 44.8115 30.1379 44.4822 30.1704C43.5457 30.2632 42.725 29.9234 41.9704 29.4403C40.92 28.7679 39.9183 28.018 38.867 27.3474C38.4046 27.0527 37.8862 26.8192 37.3632 26.6507C36.6511 26.4217 35.9616 26.6128 35.5626 27.2356C35.1654 27.8549 34.8026 28.5471 34.6397 29.2555C33.7756 33.0276 32.9649 36.8114 32.1642 40.597C31.282 44.7702 30.5781 48.9731 30.5391 53.2509C30.5075 56.7354 30.5925 60.2191 31.6077 63.6C32.4727 66.4815 33.6725 69.2324 34.8894 71.9788C35.9064 74.2745 36.9795 76.535 38.4182 78.6063C40.2251 81.2075 42.3315 83.5528 44.6007 85.7548C47.6092 88.6742 51.07 90.9717 54.7255 92.9961C55.3697 93.353 56.0338 93.673 56.6717 94.0407C56.9178 94.1831 57.1069 94.1651 57.3376 94.0371C58.6541 93.3097 59.9597 92.5607 61.3007 91.8793C62.2688 91.3872 63.2957 90.9555 64.415 91.2015C64.8746 91.3025 65.2945 91.6125 65.7125 91.8613C66.0663 92.0722 66.0129 92.4084 65.7993 92.6653C65.4763 93.0547 65.1253 93.4314 64.7335 93.7505C64.3046 94.1002 63.816 94.3778 63.3537 94.6879C63.1293 94.8393 62.8967 94.9808 62.685 95.1485C62.0715 95.6352 62.0896 96.0426 62.8063 96.3364C63.398 96.5789 64.0332 96.7763 64.6656 96.8475C65.8862 96.9854 66.8706 97.5929 67.8578 98.2301C68.6549 98.7448 69.4529 99.3261 70.4654 99.1846C71.0906 99.0972 71.6932 98.8448 72.3664 98.6483V98.6501ZM29.8262 64.9664C29.8488 64.1309 29.7076 63.326 29.3113 62.5815C29.0055 62.0073 28.6581 61.4557 27.8826 61.4088C28.0772 60.7139 28.5241 60.32 29.2245 60.1668C29.7791 60.046 29.8126 59.9045 29.619 59.3799C29.5041 59.069 29.4344 58.7229 29.4326 58.3912C29.4281 57.5818 29.5068 56.7715 29.495 55.9621C29.4624 53.6808 29.5611 51.4076 29.799 49.1381C29.828 48.8614 29.7312 48.572 29.6932 48.289C29.4118 48.3981 29.1295 48.5062 28.849 48.6171C28.8227 48.6279 28.801 48.6531 28.7793 48.6739C28.3939 49.0551 28.0093 49.4364 27.5886 49.8528C27.8691 49.0047 28.1586 48.1926 28.7449 47.5274C29.001 47.2372 29.1548 47.2705 29.3086 47.6058C29.3421 47.6779 29.3656 47.7536 29.4389 47.9438C29.7465 47.4895 30.037 47.1434 30.2324 46.7504C30.427 46.3593 30.2207 46.0456 29.7882 45.9573C29.6823 45.9356 29.5719 45.9329 29.4262 45.9176C29.5475 45.7481 29.6416 45.6319 29.7203 45.5057C30.2514 44.6584 30.6857 43.7742 30.7608 42.7557C30.7862 42.4141 30.7174 42.1437 30.274 42.2266C30.6061 41.4235 30.9879 40.6529 31.2431 39.8417C31.5833 38.7583 31.8665 37.6533 32.0945 36.541C32.232 35.8677 32.0312 35.6126 31.5914 35.4756C32.0764 34.4625 32.5958 33.4521 33.0473 32.412C33.5277 31.3043 33.8661 30.1506 33.7684 28.9202C33.7014 28.0694 33.2382 27.68 32.3895 27.7485C32.1678 27.7665 31.9525 27.8594 31.7308 27.8882C31.4856 27.9198 31.2322 27.9495 30.9879 27.9243C29.6561 27.7873 28.3287 27.6133 26.995 27.4952C26.549 27.4556 26.0911 27.5457 25.5863 27.5809C26.0531 28.1316 26.4558 28.6066 26.8584 29.0816C26.8159 29.1266 26.7734 29.1717 26.7308 29.2168C25.5537 28.8148 24.562 28.0432 23.4355 27.4772C23.3505 27.6106 23.2727 27.735 23.194 27.8576C22.8764 28.3533 22.509 28.53 21.9327 28.4101C21.5961 28.3398 21.2685 28.2208 20.9446 28.1027C20.5709 27.9666 20.2054 27.808 19.7539 27.625C20.352 28.3758 20.2497 28.7102 19.4074 29.0203C19.1676 29.1086 18.9215 29.1879 18.6717 29.2375C17.6276 29.4412 16.5961 29.4421 15.6461 28.8869C15.0987 28.5669 14.4897 28.7463 14.3423 29.3754C14.2599 29.726 14.2934 30.119 14.3468 30.4823C14.4327 31.06 14.6056 31.6242 14.6933 32.202C14.8001 32.9122 14.7096 33.0447 14.0681 33.4071C14.0183 33.435 13.9604 33.4729 13.9396 33.5206C13.7659 33.9064 13.4447 33.8496 13.1262 33.7956C12.6068 33.7072 12.092 33.581 11.5699 33.5261C10.8488 33.4494 10.3584 33.764 10.0689 34.4283C9.99287 34.6022 9.93497 34.7834 9.86258 34.9763C9.78024 34.933 9.72686 34.9069 9.67529 34.8781C9.09259 34.5563 8.76415 34.6897 8.65557 35.3468C8.55152 35.9741 8.67095 36.5888 9.0555 37.0989C9.19393 37.2819 9.57757 37.4928 9.71691 37.4243C10.1612 37.2053 10.4109 37.4892 10.6814 37.6839C12.187 38.7682 12.5489 39.9165 11.9681 41.6804C11.7572 42.3213 11.5518 42.9648 11.3193 43.5985C11.2641 43.7481 11.1157 43.9617 11.0017 43.9671C10.8479 43.9743 10.6226 43.8472 10.5385 43.7102C10.0761 42.9621 9.93316 42.1473 10.1747 41.2929C10.3023 40.8413 10.628 40.6493 11.1049 40.6808C11.2343 40.689 11.3627 40.7079 11.5944 40.7331C11.3284 40.1031 11.1275 39.5217 10.8425 38.9854C10.581 38.4915 10.1865 38.3662 9.697 38.6375C8.95235 39.0503 8.24841 39.5362 7.49019 40.0139C7.625 40.1914 7.74082 40.3428 7.85482 40.4961C8.22217 40.9891 8.64562 41.4515 8.9424 41.9833C9.46537 42.9207 9.21112 43.3686 8.15522 43.53C8.13622 43.5327 8.12083 43.5669 8.10364 43.5867C8.11631 43.612 8.12174 43.6498 8.14164 43.6607C9.4337 44.3258 9.88611 45.4534 9.89968 46.8243C9.90511 47.3489 9.89425 47.8753 9.92682 48.399C9.97206 49.12 10.5756 49.4229 11.2008 49.0759C11.4587 48.9326 11.7455 48.7415 12.016 48.7469C12.2657 48.7523 12.5109 48.9902 12.8104 49.1543C12.4006 48.4594 12.0015 47.7951 11.6143 47.1236C11.2243 46.4485 10.8361 45.7707 10.4679 45.0839C10.4064 44.9685 10.3892 44.7152 10.4507 44.6738C10.562 44.5998 10.7665 44.5899 10.9004 44.6386C11.2515 44.7657 11.5853 44.9378 11.9554 45.1064C12.0178 44.8549 12.092 44.6125 12.1373 44.3646C12.2268 43.8779 12.2549 43.3749 12.3996 42.9062C12.4874 42.625 12.7019 42.3276 12.9443 42.1644C13.1714 42.0121 13.5117 42.0265 13.8455 41.9589C13.7903 42.1167 13.7288 42.306 13.6591 42.4916C13.3587 43.2902 13.0375 44.0825 12.7688 44.891C12.7037 45.0866 12.7353 45.4318 12.8638 45.539C12.9977 45.6508 13.3334 45.6265 13.5288 45.5426C14.05 45.3173 14.5486 45.0361 15.0471 44.7612C15.5294 44.4953 15.8053 44.5467 16.0225 45.0532C16.3229 45.7545 16.5934 46.471 16.8323 47.1957C16.9843 47.659 17.0684 48.1863 16.607 48.5225C16.1573 48.8487 15.6642 48.6559 15.2561 48.3809C14.7757 48.0574 14.335 47.6734 13.8781 47.3156C13.841 47.3264 13.8048 47.3381 13.7677 47.3489C13.9767 47.7933 14.1586 48.2521 14.402 48.6775C14.7666 49.3147 15.2009 49.9141 15.5574 50.5559C15.9401 51.2445 16.0243 51.9962 15.6913 52.7218C15.3846 53.3915 15.5067 54.026 15.7927 54.6173C15.9094 54.8579 16.2785 55.0301 16.569 55.1202C16.8395 55.204 17.158 55.1382 17.4222 55.1382C17.5073 55.6385 17.5787 56.0612 17.6502 56.4839C17.7253 56.4966 17.8004 56.5101 17.8764 56.5227C18.1488 56.0252 18.422 55.5267 18.6944 55.0292C19.9204 55.5943 20.4614 56.3704 20.542 57.6953C20.5583 57.9648 20.5438 58.237 20.5718 58.5056C20.5981 58.758 20.6315 59.0185 20.7238 59.2501C20.7727 59.3718 20.9537 59.4412 21.0749 59.5341C21.1518 59.4196 21.2568 59.3132 21.2966 59.1879C21.3346 59.0654 21.3183 58.9202 21.3029 58.7877C21.2224 58.073 21.1319 57.3582 21.0496 56.6435C21.0242 56.419 21.0134 56.1919 20.9962 55.9666C21.141 55.9954 21.198 56.0396 21.2278 56.0982C21.7499 57.1437 22.3045 58.1766 22.775 59.2447C23.0564 59.8838 23.1976 60.6057 22.6655 61.2015C22.139 61.7919 21.4115 61.6891 20.7193 61.5963C20.4244 61.5566 20.1357 61.4692 19.8769 61.4106C20.3275 62.1137 20.76 62.8122 21.217 63.4945C21.6105 64.0831 22.0277 64.6906 22.7343 64.9159C23.4518 65.1449 23.8499 65.6613 24.1648 66.2634C24.6073 67.1089 24.9429 67.9976 24.7131 68.9782C24.5937 69.4902 24.1603 69.7822 23.6934 69.5731C23.1152 69.3144 22.5524 68.9728 22.0693 68.5645C21.3735 67.9759 20.7781 67.2702 20.0941 66.6663C19.7403 66.3544 19.2861 66.1543 18.878 65.9029C18.8446 65.9425 18.812 65.9813 18.7785 66.021C18.8337 66.1363 18.8672 66.2706 18.9486 66.3653C19.3585 66.8439 19.7349 67.363 20.2054 67.7749C22.0041 69.3496 23.8698 70.8485 25.6396 72.4547C26.8711 73.5714 28.145 74.7017 29.1114 76.0339C30.2532 77.6094 31.0838 79.4094 32.1316 81.2571C31.4937 81.1598 30.9735 81.1291 30.4812 80.993C29.647 80.7641 28.8743 80.3819 28.2663 79.751C28.1061 79.5851 28.0509 79.3192 27.9478 79.1002C28.1803 78.9939 28.4074 78.8704 28.6481 78.7883C28.7694 78.7469 28.9159 78.7811 29.0507 78.7811C28.3405 78.3151 27.6148 77.9249 26.8666 77.5851C26.4151 77.3796 26.187 77.558 26.2612 78.0438C26.3743 78.7811 26.6177 79.4535 27.2484 79.9466C28.1957 80.6875 29.2616 81.1967 30.3709 81.6303C31.1345 81.9286 31.9018 82.2161 32.7405 82.5352C32.4691 82.7713 32.2601 82.9597 32.0429 83.1391C31.8312 83.3148 31.6104 83.4798 31.3327 83.6979C31.662 83.8638 31.9108 83.989 32.1995 84.1351C32.0619 84.1891 31.9552 84.236 31.8457 84.2739C31.253 84.4794 31.2033 84.7173 31.6629 85.159C31.9226 85.4086 32.2194 85.6313 32.4302 85.917C32.5777 86.1171 32.7034 86.1369 32.9152 86.1036C33.8254 85.9612 34.3131 86.2559 34.609 87.1167C34.7555 87.5421 34.8677 87.9811 35.0369 88.3966C35.2496 88.9202 35.5807 89.1005 36.1145 88.9302C36.5534 88.7905 36.9569 88.5408 37.3831 88.3578C37.802 88.1775 38.2309 88.0189 38.6552 87.8513C38.676 87.89 38.696 87.9297 38.7168 87.9684C38.1865 88.3434 37.6563 88.7183 37.1261 89.0942C37.1515 89.1411 37.1759 89.1888 37.2012 89.2357C37.4048 89.2051 37.6075 89.1735 37.8111 89.1429C38.581 89.0275 39.3546 88.8013 40.1201 88.8229C41.4764 88.8608 42.6147 89.553 43.685 90.3281C45.5363 91.6693 47.1206 93.3764 49.2668 94.3183C49.7418 94.5265 50.1571 94.8754 50.5905 95.1728C51.5541 95.8335 52.6218 95.8461 53.7166 95.6766C53.8035 95.6631 53.8786 95.5748 54.0423 95.4657C53.7121 95.208 53.4506 94.9646 53.1529 94.7798C52.2716 94.2327 51.3596 93.7343 50.4928 93.1673C50.0078 92.8501 49.5717 92.4526 49.1455 92.0569C48.9211 91.8487 48.9664 91.5954 49.2315 91.4097C49.3057 91.3574 49.3735 91.298 49.4848 91.2105C47.8752 91.1465 46.556 90.576 45.4585 89.4944C44.522 88.5714 43.8714 87.461 43.372 86.2613C43.2082 85.8674 42.9748 85.6006 42.6029 85.3789C40.0477 83.852 37.7124 82.0584 36.1399 79.4824C35.5925 78.5865 35.2758 77.5481 34.8858 76.5621C34.827 76.4124 34.9021 76.0573 34.9881 76.0312C35.3228 75.9293 35.236 75.7364 35.1564 75.5426C34.9808 75.1127 34.8261 74.6683 34.5963 74.2691C33.8353 72.9459 33.3006 71.5389 32.8355 70.0887C32.3198 68.4771 32.1886 66.7339 31.1472 65.2927C30.8423 64.87 30.7228 64.3147 30.5183 63.8199C30.4731 63.81 30.427 63.801 30.3817 63.7911C30.1962 64.1831 30.0116 64.5752 29.8262 64.9673V64.9664ZM11.4822 25.7232C12.1345 25.7521 12.6801 25.8467 13.2076 25.7854C14.6861 25.615 16.1609 25.4023 17.6303 25.1635C18.897 24.9571 20.1601 24.7218 21.4413 24.9589C22.4285 25.1418 23.3957 25.4321 24.3847 25.6024C26.6702 25.9981 28.9648 26.3253 31.2947 26.3136C31.9859 26.31 32.6781 26.3073 33.3676 26.3424C34.9799 26.4253 36.4122 26.0243 37.5604 24.8417C37.9251 24.4658 38.1531 24.0125 38.1648 23.4753C38.1784 22.8696 38.0743 22.7218 37.5143 22.5136C35.4178 21.7348 33.249 21.2391 31.0467 20.8794C27.6347 20.3215 24.1992 20.1097 20.7419 20.1665C17.9117 20.2134 15.0806 20.2377 12.2612 19.8916C11.8613 19.842 11.4505 19.8384 11.0479 19.8654C10.7176 19.8871 10.6271 20.1025 10.8443 20.3603C11.0759 20.6352 11.3456 20.8776 11.5971 21.1363C11.7274 21.2706 11.8541 21.4076 12.0269 21.5906C11.7654 21.6312 11.5871 21.6528 11.4116 21.687C10.9746 21.7736 10.9058 21.9502 11.1845 22.2936C11.4017 22.5622 11.6423 22.8119 11.8559 23.0832C12.0649 23.3482 11.9735 23.5312 11.6586 23.6033C11.2415 23.6988 10.8289 23.7412 10.4417 23.4798C10.0689 23.2283 9.66805 23.0147 9.30884 22.7452C8.13983 21.8682 7.99054 21.221 8.64562 19.9123C7.05226 19.678 5.46976 19.5211 3.89993 19.9763C2.97703 20.244 2.22966 20.7533 1.93831 21.7276C1.60534 22.8407 1.91479 23.8935 2.30295 24.93C2.32285 24.9841 2.41152 25.0121 2.53367 25.0995C2.58344 24.8444 2.62506 24.6488 2.65854 24.4505C2.8205 23.4969 3.09194 22.5803 3.61763 21.7582C4.41657 20.509 6.04883 20.344 6.97535 21.4013C6.67043 21.4365 6.35104 21.441 6.04793 21.514C5.45619 21.6555 5.22908 22.0097 5.29966 22.6073C5.41909 23.6339 6.64148 25.0463 7.6431 25.3158C8.25836 25.4817 8.62843 25.2626 8.77863 24.6425C8.81934 24.4731 8.8483 24.3009 8.87725 24.1603C9.78296 24.2883 10.6461 24.3937 11.503 24.5362C12.1192 24.6389 12.1744 24.8327 11.7844 25.3401C11.712 25.4339 11.6387 25.5276 11.4849 25.7241L11.4822 25.7232ZM16.4324 82.1702C16.3898 82.2107 16.3482 82.2504 16.3057 82.2909C16.407 82.4333 16.4948 82.5875 16.6115 82.7155C17.2385 83.4041 17.8249 84.1378 18.5152 84.7579C19.8769 85.9819 21.2767 87.1671 22.699 88.3227C24.7303 89.973 26.8439 91.5224 29.2299 92.6301C32.6238 94.2057 36.0322 95.7524 39.465 97.2414C42.3251 98.4825 45.2784 99.4695 48.3593 100.028C49.1908 100.179 50.0304 100.286 50.8665 100.413C50.7814 100.224 50.6692 100.131 50.5507 100.048C49.4649 99.2928 48.2154 98.9674 46.9478 98.6925C45.4784 98.3734 43.9538 98.1463 42.706 97.2648C41.9804 96.7519 41.2421 96.5023 40.3961 96.4284C40.2766 96.4184 40.1608 96.3788 40.0423 96.3554C38.1884 95.9759 36.4321 95.3017 34.7293 94.504C32.6021 93.5071 30.4288 92.64 28.573 91.0843C25.3528 88.3848 21.8449 86.027 18.9522 82.9372C18.5406 82.4973 17.9533 82.2206 17.4466 81.8682L17.3335 81.9935C17.4403 82.162 17.5272 82.3477 17.6575 82.4955C18.9821 83.9954 20.39 85.4077 21.9652 86.6516C22.2701 86.8922 22.5144 87.2077 22.7868 87.4889C22.756 87.5196 22.7262 87.5502 22.6954 87.5809C20.3456 86.0892 18.4754 84.0269 16.4324 82.1693V82.1702ZM1.85869 46.5639C1.8225 46.5747 1.78721 46.5846 1.75102 46.5954C1.75102 46.8856 1.73292 47.1768 1.75373 47.4652C1.96003 50.3224 2.54725 53.1057 3.40047 55.8386C4.36138 58.9157 5.41547 61.9622 6.15108 65.1115C6.79892 67.8876 7.87292 70.5078 9.58933 72.8359C10.1195 73.5561 10.5412 74.3565 11.0017 75.1262C11.1709 75.4092 11.3085 75.7112 11.4605 76.005C12.0441 77.1317 12.9878 77.878 14.0962 78.4341C14.2762 78.5243 14.5214 78.4828 14.7377 78.5017C14.7521 78.289 14.8381 78.0484 14.7693 77.8672C14.2943 76.617 13.6003 75.5372 12.3182 74.9532C12.2286 74.9126 12.1282 74.8441 12.0857 74.7612C11.7066 74.0302 11.3401 73.292 10.9683 72.5574C10.7692 72.1644 10.7511 71.8138 11.2867 71.5389C10.0725 71.3947 9.61557 70.6087 9.36765 69.6308C9.22741 69.0783 9.12426 68.514 8.94873 67.9732C8.8673 67.7218 8.69991 67.3793 8.4909 67.3072C7.38432 66.9214 7.02693 66.0525 6.89483 65.0241C6.84687 64.6536 6.86406 64.2751 6.85863 63.8992C6.84144 62.6716 6.7582 61.453 5.99002 60.421C5.60005 59.8982 5.22456 59.3952 5.3268 58.6949C5.33042 58.6679 5.31323 58.6372 5.30328 58.6084C4.99202 57.7341 4.73235 56.8373 4.35866 55.99C3.55972 54.1774 2.95803 52.3414 2.85126 50.3296C2.79426 49.2552 2.39252 48.1971 2.13013 47.1353C2.08037 46.9343 1.95098 46.754 1.85869 46.5639ZM17.4756 59.7774C17.4738 59.7188 17.472 59.6593 17.4702 59.6008C16.5174 59.0059 15.571 58.3984 14.6065 57.8233C14.3423 57.6656 14.022 57.6007 13.727 57.4925C13.689 57.5367 13.6501 57.5818 13.6121 57.6259C13.765 57.963 13.9179 58.3001 14.0772 58.6534C13.6781 58.3695 13.3026 58.1018 12.8258 57.762C12.8041 58.1974 12.7905 58.4741 12.7751 58.7796C12.3924 58.6102 12.0766 58.4705 11.6785 58.2938C11.836 59.1384 12.5643 59.6143 12.6014 60.4453C12.2902 60.3453 12.0504 60.2686 11.7799 60.1821C12.4277 61.1402 13.0448 62.0533 13.6628 62.9672L13.5171 63.0808C12.9959 62.6319 12.4738 62.1822 11.9527 61.7333C11.9111 61.7612 11.8694 61.7883 11.8278 61.8162C11.9111 62.0244 11.9536 62.2642 12.0857 62.4345C12.3517 62.7771 12.6557 63.0907 12.9624 63.399C13.7867 64.2282 14.6182 65.0502 15.4497 65.8722C15.9085 66.3256 16.3645 66.7826 16.8377 67.2215C17.0141 67.3856 17.2349 67.5018 17.4349 67.6397C17.4747 67.6046 17.5145 67.5685 17.5534 67.5334C17.2557 67.0476 16.959 66.5609 16.6658 66.0804C17.1082 65.6018 17.1444 65.3891 16.8404 64.8249C16.6767 64.522 16.4785 64.2381 16.2921 63.9479C16.0777 63.6144 15.9646 63.2917 16.3799 63.0357C15.9709 62.3714 15.276 61.9541 14.9883 61.0889C15.5221 61.2304 15.942 61.3421 16.4287 61.471C16.1446 61.1348 15.8976 60.8761 15.6913 60.5877C15.4941 60.3128 15.5882 60.1046 15.923 60.0334C16.084 59.9991 16.2523 60.0027 16.4152 59.9757C16.7698 59.9153 17.1227 59.845 17.4765 59.7792L17.4756 59.7774ZM21.7861 18.2241C21.8006 17.896 21.768 17.5742 21.8449 17.2813C21.8983 17.0785 22.0729 16.8306 22.2521 16.7667C22.3652 16.7261 22.6556 16.9496 22.747 17.1191C22.9361 17.4715 23.0356 17.8699 23.1912 18.2421C23.3469 18.6135 23.4862 19.0011 23.7052 19.3337C24.1277 19.9754 24.7891 20.0015 25.284 19.4166C25.456 19.2138 25.6098 18.9758 25.6994 18.728C25.826 18.3773 25.8866 18.0024 25.9826 17.6076C26.3409 18.1808 26.6005 18.8037 27.2049 19.1732C27.1724 18.7838 27.1018 18.417 26.9498 18.0871C26.7191 17.5869 26.5426 17.1786 27.1651 16.7793C27.5542 16.5296 27.4556 16.2304 27.005 16.0798C26.7661 15.9996 26.5101 15.9347 26.2603 15.9257C23.811 15.8374 21.3617 15.7536 18.9124 15.686C17.168 15.6382 15.4226 15.612 13.6772 15.5904C13.4076 15.5868 13.138 15.6562 12.8674 15.6923C12.8656 15.7509 12.8647 15.8094 12.8629 15.868C13.0683 15.9086 13.2728 15.9807 13.4791 15.9852C14.5911 16.0086 15.7085 15.9564 16.816 16.042C18.7116 16.1889 20.5646 16.5017 21.787 18.2223L21.7861 18.2241ZM13.7578 49.4112C13.8229 49.9628 13.9297 50.482 13.9369 51.0038C13.9469 51.7961 13.546 52.0142 12.8747 51.5933C12.4567 51.331 12.083 50.9993 11.6894 50.6983C11.2361 50.3522 10.7991 49.9826 10.3204 49.6753C10.144 49.5617 9.80829 49.4986 9.65809 49.5923C9.51061 49.6852 9.4328 50.0124 9.45451 50.2233C9.49433 50.6063 9.64181 50.9777 9.72053 51.359C9.7531 51.5185 9.72596 51.6906 9.72596 51.8565C9.67529 51.8817 9.62552 51.907 9.57485 51.9322C9.74858 52.0746 9.92592 52.2125 10.0951 52.3612C11.2008 53.3311 12.301 54.3063 13.4094 55.2725C13.9749 55.7656 14.5477 56.2514 15.1331 56.721C15.2281 56.7976 15.428 56.821 15.5384 56.7742C15.6126 56.7426 15.6651 56.5326 15.6416 56.4199C15.4769 55.6358 15.3765 54.8336 14.8137 54.1819C14.6309 53.971 14.5024 53.6456 14.4916 53.368C14.4653 52.6974 14.5241 52.0232 14.5467 51.3499C14.5621 50.9011 14.6119 50.4495 14.5757 50.0042C14.5377 49.5374 14.2654 49.3715 13.7569 49.4121L13.7578 49.4112ZM18.7477 72.4024C18.8961 72.3357 19.1522 72.2194 19.4083 72.1041C19.2427 71.8706 19.0807 71.6336 18.9088 71.4046C18.8654 71.3469 18.7912 71.3127 18.7297 71.2694C18.2782 70.9485 17.833 70.6169 17.3724 70.3095C16.664 69.8372 15.9646 69.3442 15.2208 68.9323C14.8119 68.706 14.3278 68.578 13.8618 68.496C13.4103 68.4167 13.2384 68.6483 13.3841 69.081C13.6003 69.7227 13.8555 70.3474 14.5685 70.6223C14.6906 70.6691 14.8046 70.7602 14.896 70.8557C15.9067 71.9058 17.2141 72.2275 18.7468 72.4024H18.7477ZM24.733 14.0284C24.2091 12.2329 22.4457 11.7931 21.2332 10.7133C20.8976 11.0747 20.8143 11.4578 20.8351 11.8733C20.8831 12.8161 21.2179 13.6625 21.7852 14.4034C22.0059 14.6918 22.3009 14.9703 22.6239 15.1253C23.3387 15.4696 23.7088 15.2064 23.7296 14.4223C23.7377 14.1203 23.7604 13.8193 23.7839 13.383C24.1802 13.6525 24.4562 13.8409 24.733 14.0284ZM65.0529 98.7024C62.9908 97.8498 61.0211 96.998 59.0187 96.2301C58.4189 96.0002 57.7321 95.9597 57.0797 95.9173C56.678 95.8912 56.2926 96.0633 56.1207 96.5455C56.4482 96.6816 56.745 96.8258 57.0544 96.9313C58.6279 97.4676 60.2004 98.0066 61.7811 98.5195C62.4507 98.7367 63.1347 98.9151 63.8232 99.0621C64.2376 99.1504 64.6539 99.0765 65.0529 98.7033V98.7024ZM1.61168 37.4189C1.52663 37.4342 1.44158 37.4487 1.35743 37.464C1.40086 38.2004 1.40176 38.9422 1.49767 39.6723C1.67592 41.0378 1.93017 42.3943 2.11475 43.7589C2.29842 45.1118 2.40881 46.4809 2.9526 47.7536C3.16613 48.2539 3.46834 48.7171 3.72982 49.1976C3.77778 49.1777 3.82483 49.1579 3.87278 49.1381C3.36247 47.8068 3.29914 46.4151 3.2729 45.019C3.25299 43.9608 3.1218 42.9261 2.69201 41.9445C2.62144 41.7841 2.60153 41.5993 2.57167 41.4235C2.41243 40.4816 2.28485 39.5325 2.0876 38.5988C2.00165 38.1905 1.77454 37.8119 1.61168 37.4198V37.4189ZM17.4059 3.33948C17.4331 3.32867 17.4602 3.31875 17.4874 3.30793C17.4765 3.24033 17.4575 3.17273 17.4566 3.10423C17.4539 2.80229 17.4566 2.50124 17.4584 2.19929C17.7751 2.21191 18.0909 2.22453 18.4075 2.23985C18.4347 2.24166 18.46 2.26779 18.489 2.27771C19.0129 2.45888 19.5322 2.65447 20.0633 2.8122C20.3755 2.90504 20.7329 2.8771 20.7247 2.46158C20.7166 2.0704 20.6469 1.63686 20.4596 1.30337C20.0416 0.558866 19.1278 0.333532 18.3324 0.694066C17.4593 1.08975 16.939 2.00461 17.1571 2.79057C17.2105 2.98165 17.3218 3.15651 17.4068 3.33948H17.4059ZM42.8237 91.3493C42.839 90.7049 42.6481 90.4408 42.2265 90.5517C41.4357 90.7608 40.6558 91.0438 39.9129 91.3863C39.7021 91.4836 39.6333 91.8892 39.4994 92.1533C39.7663 92.1479 40.0332 92.1434 40.3002 92.1371C40.3137 92.1371 40.3273 92.1245 40.3418 92.1191C40.9462 91.8955 40.9462 91.9064 41.0222 92.5247C41.0421 92.6851 41.2511 92.9681 41.2692 92.96C41.7189 92.7617 42.2374 92.6121 42.5649 92.2804C42.7992 92.0434 42.7748 91.5521 42.8237 91.3484V91.3493ZM27.1298 88.9833C27.1099 89.0203 27.0891 89.0572 27.0692 89.0942C28.9367 90.9969 31.187 92.2669 33.6888 93.1196C33.7367 93.0556 33.7856 92.9916 33.8335 92.9276C33.373 92.5436 32.9559 92.0857 32.4447 91.791C31.2368 91.0943 29.9845 90.475 28.7494 89.8261C28.2111 89.5431 27.6709 89.2646 27.1308 88.9833H27.1298ZM12.2413 30.2218C12.2196 30.2623 12.197 30.3029 12.1753 30.3443C11.8097 30.2055 11.4487 30.0514 11.075 29.9342C10.9257 29.8874 10.7502 29.9234 10.5873 29.9216C10.6398 30.0893 10.6461 30.2966 10.7529 30.4174C11.2822 31.0185 11.9816 31.0952 12.6901 30.8725C12.9959 30.7761 13.3578 30.5228 13.4773 30.247C13.6483 29.854 13.2746 29.5728 12.938 29.4394C12.0775 29.0969 11.1972 28.8022 10.324 28.4903C10.3096 28.4849 10.2806 28.5182 10.1946 28.5795C10.8877 29.1357 11.5645 29.6792 12.2413 30.2227V30.2218ZM3.39595 42.6385C3.75154 40.5772 3.39686 38.7024 2.76892 36.8466C2.65582 37.0268 2.59339 37.2098 2.59429 37.3919C2.60425 38.6204 2.59882 39.8507 2.65944 41.0774C2.68658 41.6218 2.81507 42.1762 3.39595 42.6394V42.6385ZM19.7946 70.6664C19.7457 70.7205 19.6969 70.7737 19.648 70.8278C20.4298 71.7552 20.8686 72.972 22.0467 73.5633C22.4846 73.7832 22.9533 73.9428 23.4156 74.1104C23.4889 74.1375 23.6445 74.0879 23.6798 74.0266C23.7151 73.9653 23.6798 73.8058 23.6192 73.7571C23.3306 73.5219 23.0229 73.31 22.7226 73.0901C22.5316 72.9504 22.3226 72.8305 22.1534 72.6692C21.6467 72.1834 21.1726 71.6615 20.6515 71.1919C20.4072 70.972 20.0832 70.8395 19.7955 70.6673L19.7946 70.6664ZM20.6116 13.9058C20.4596 13.0414 19.9719 12.5268 19.2752 12.4898C18.4356 12.4457 17.5932 12.4339 16.7527 12.4502C16.3003 12.4592 15.8497 12.5547 15.3982 12.6106C15.3945 12.6602 15.3909 12.7088 15.3873 12.7584C15.6352 12.8197 15.9076 12.9792 16.1274 12.9261C17.225 12.6575 18.2058 13.0135 19.1938 13.3948C19.6372 13.566 20.0878 13.7183 20.6107 13.9058H20.6116ZM26.5263 74.2483C26.5589 74.169 26.5906 74.0897 26.6232 74.0104C26.349 73.8436 26.0767 73.6742 25.7998 73.511C25.4406 73.2992 24.9674 73.1739 24.7412 72.8675C24.2327 72.178 23.526 71.8706 22.7796 71.5966C22.6022 71.5317 22.3914 71.556 22.196 71.5389L22.1371 71.6768C22.9388 72.2798 23.7025 72.9441 24.5548 73.4651C25.1492 73.8283 25.864 73.9942 26.5254 74.2483H26.5263ZM77.9689 102.568C77.3283 102.057 73.8186 101.168 73.1454 101.347C73.6585 101.967 76.8723 102.78 77.9689 102.568ZM43.7972 29.4881C44.2514 28.9978 44.3039 28.6048 44.0289 28.128C43.6579 27.4835 42.8599 26.995 42.2057 27.1203C42.4572 27.4637 42.6518 27.7873 42.9033 28.0586C43.1992 28.3776 43.5466 28.6426 43.5692 29.133C43.5747 29.242 43.7004 29.3448 43.7963 29.4881H43.7972ZM21.0713 76.5026C21.2278 77.3805 22.7515 78.6459 23.6871 78.7054C23.3849 77.9835 21.7255 76.5684 21.0713 76.5026ZM45.235 92.3615C45.1001 92.2921 44.9979 92.1921 44.9065 92.2002C44.3781 92.248 43.8461 92.2948 43.3276 92.403C43.1756 92.4345 43.0209 92.6446 42.9449 92.8077C42.8291 93.0574 43.058 93.4188 43.2661 93.344C43.8551 93.1322 44.4306 92.8843 45.0051 92.6373C45.0866 92.6022 45.1327 92.4877 45.235 92.3624V92.3615ZM7.42595 28.8734C6.94911 28.9401 6.77811 29.1158 6.89664 29.4556C7.13822 30.1433 7.83582 30.3083 8.36242 29.8081C8.55966 29.6206 8.57233 29.4151 8.35246 29.2844C8.06383 29.1131 7.73629 29.0077 7.42504 28.8734H7.42595ZM23.0537 8.93947C22.281 8.08951 21.1283 8.0129 20.8777 8.7583C21.5644 9.00076 22.2448 9.18463 23.0537 8.93947ZM6.46957 35.7902C6.76815 35.1205 6.37185 34.3823 5.75749 34.3895C5.59824 34.3913 5.34309 34.4752 5.30509 34.5824C5.25442 34.7239 5.31775 34.9925 5.43176 35.089C5.74663 35.354 6.11398 35.5568 6.46866 35.7902H6.46957ZM24.0969 75.9663C23.4473 75.211 22.7587 74.6909 21.8856 74.2916C22.0955 75.1434 23.108 75.914 24.0969 75.9663ZM5.69777 32.851L5.591 32.9789C6.00088 33.3539 6.39447 33.7505 6.8333 34.0885C6.92649 34.1597 7.1916 34.0335 7.36261 33.9623C7.40242 33.9461 7.41328 33.7658 7.3789 33.6865C7.21241 33.3034 6.14474 32.7825 5.69687 32.851H5.69777ZM20.4678 70.0959C19.8978 69.3397 19.2083 68.7259 18.3062 68.2797C18.4211 69.0116 19.3585 69.7984 20.4678 70.0959ZM50.1797 96.1381L50.13 95.9804C49.6585 95.7911 48.5737 95.9975 48.2932 96.3472C48.2281 96.4284 48.2045 96.5627 48.2082 96.6708C48.21 96.715 48.3538 96.8051 48.4036 96.788C48.999 96.5816 49.5889 96.3581 50.1806 96.139L50.1797 96.1381ZM2.94717 35.0088C2.99874 34.9988 3.05032 34.9889 3.10189 34.979C3.0657 34.5698 3.06117 34.1552 2.97793 33.7559C2.94898 33.6153 2.72911 33.5143 2.5961 33.3954C2.48934 33.5441 2.3129 33.6829 2.28847 33.8442C2.20432 34.3913 2.52734 34.7365 2.94717 35.0097V35.0088ZM42.8906 94.1723C43.2272 94.2787 43.5005 94.4671 43.6832 94.4013C44.0813 94.2588 44.4713 94.0272 44.7038 93.5351C44.0062 93.5116 43.4606 93.618 42.8906 94.1723ZM25.3429 82.4063C25.4008 82.3901 25.4587 82.3739 25.5166 82.3576C25.5166 82.162 25.5872 81.9259 25.5021 81.779C25.3012 81.4329 24.6923 81.3031 24.1938 81.5203C24.61 81.8412 24.9764 82.1242 25.3429 82.4063ZM29.4995 83.6574C29.8198 84.3784 30.6794 84.3974 31.168 83.9665C30.6541 83.6556 30.1257 83.5681 29.4995 83.6574ZM19.8896 59.6864C20.0009 58.95 19.7711 58.5949 19.2173 58.53C19.1024 58.5164 18.9776 58.5886 18.8572 58.621C18.8907 58.7301 18.8907 58.877 18.964 58.9419C19.2382 59.187 19.5367 59.407 19.8896 59.6864ZM45.4141 94.7203C45.8258 94.568 46.2411 94.4238 46.6465 94.2561C46.7207 94.2255 46.7541 94.0975 46.8057 94.0137C46.7225 93.9641 46.6437 93.8866 46.5542 93.8713C46.0348 93.7802 45.5553 94.0678 45.4141 94.7203ZM7.00974 44.4088C7.20879 45.1073 8.02221 45.4029 8.57414 44.8017C8.04212 44.6683 7.57524 44.5512 7.00974 44.4088ZM10.7583 58.9572C10.6118 58.2145 10.0218 57.5628 9.37218 57.4529C9.68253 58.1217 10.2498 58.4822 10.7583 58.9572ZM8.6239 56.4975C8.6791 55.7151 8.28822 55.1662 7.59514 55.0914C7.9824 55.6205 8.3036 56.0594 8.6239 56.4975ZM47.2011 95.2034C47.1722 95.1205 47.1441 95.0367 47.1151 94.9538C46.7749 95.0412 46.4284 95.1115 46.0991 95.2278C46.0276 95.253 45.9597 95.4621 45.9905 95.5514C46.0176 95.6307 46.2176 95.7316 46.2863 95.701C46.6021 95.5586 46.898 95.3738 47.2011 95.2034ZM18.9902 79.0344H17.6466C18.1298 79.5356 18.4754 79.5563 18.9902 79.0344ZM21.3708 83.2815C21.207 83.4473 21.0297 83.606 21.0405 83.6195C21.1898 83.8106 21.3653 83.9827 21.5336 84.1594C21.6666 84.0314 21.7987 83.9025 21.9318 83.7745C21.7607 83.6249 21.5897 83.4744 21.3708 83.2815ZM15.0037 67.4514C15.0236 67.4027 15.0435 67.3531 15.0634 67.3044C14.5703 67.0539 14.0772 66.8033 13.5849 66.5527C13.5614 66.5978 13.5379 66.6429 13.5144 66.687C13.9586 67.0377 14.3305 67.5226 15.0046 67.4514H15.0037ZM4.07908 24.8002C4.48262 25.4122 4.7432 25.4159 5.16484 24.848C4.8183 24.5992 4.479 24.5956 4.07908 24.8002ZM24.5349 87.2591C24.5041 87.3267 24.4733 87.3952 24.4426 87.4628C24.6489 87.6088 24.8443 87.7764 25.0669 87.89C25.1583 87.9369 25.3094 87.8666 25.4324 87.8495C25.3944 87.7125 25.3944 87.4898 25.3121 87.4538C25.0705 87.3492 24.7955 87.3186 24.534 87.2591H24.5349ZM23.46 80.6694C23.4726 80.6226 23.4853 80.5748 23.498 80.5279C23.1017 80.3864 22.7054 80.244 22.3082 80.1025C22.6004 80.7091 23.0419 80.8803 23.4591 80.6703L23.46 80.6694ZM20.2009 77.0794C19.8661 76.6639 19.5123 76.5512 19.1404 76.7261C19.5765 77.284 19.8543 77.3841 20.2009 77.0794ZM15.6732 67.948C15.6343 68.0093 15.5954 68.0706 15.5574 68.1319C15.9591 68.3572 16.1347 68.9431 16.7427 68.8403L16.8332 68.6997C16.4468 68.4491 16.0596 68.1986 15.6732 67.948ZM8.78767 30.6977C8.76053 30.7635 8.73248 30.8293 8.70534 30.8951C8.89263 31.0303 9.06635 31.1943 9.27265 31.2862C9.35589 31.3232 9.51061 31.1997 9.63276 31.1492C9.58571 31.042 9.56219 30.8689 9.48618 30.841C9.26451 30.7617 9.02292 30.7418 8.78858 30.6986L8.78767 30.6977ZM48.8298 95.472C48.8071 95.3945 48.7836 95.3179 48.761 95.2404L47.3604 95.6352L47.4318 95.8812C47.8978 95.7442 48.3647 95.6081 48.8307 95.4711L48.8298 95.472ZM5.69506 36.6284C5.77196 36.1715 5.51862 35.9759 5.25442 35.8082C5.12593 35.7271 4.95402 35.7118 4.80202 35.6676C4.78301 35.7199 4.76401 35.7722 4.74592 35.8245C5.04812 36.0804 5.35123 36.3373 5.69506 36.6284ZM36.7877 78.2809C36.8664 78.2259 36.9461 78.1709 37.0248 78.116C36.9397 77.9132 36.8538 77.7113 36.7687 77.5085C36.6104 77.622 36.452 77.7356 36.2928 77.8501C36.4575 77.9934 36.6221 78.1376 36.7868 78.2809H36.7877ZM7.99145 31.7919C8.06655 31.7513 8.14255 31.7099 8.21765 31.6693C8.16607 31.4755 8.1145 31.2826 8.06293 31.0889C7.87925 31.1862 7.69648 31.2844 7.51281 31.3818C7.67205 31.5188 7.8313 31.6549 7.99054 31.7919H7.99145ZM7.63948 59.5377C7.63134 58.9518 7.39518 58.4741 6.9654 58.1072C6.92016 58.1334 6.87582 58.1586 6.83058 58.1848C7.10022 58.6354 7.36985 59.087 7.63948 59.5377ZM30.0198 85.3275C30.037 85.2825 30.0533 85.2365 30.0705 85.1914C29.4181 84.9436 28.7657 84.6957 28.1134 84.4478C28.0935 84.501 28.0736 84.5542 28.0537 84.6083C28.7087 84.848 29.3647 85.0878 30.0198 85.3284V85.3275ZM52.04 100.533C52.3992 101.141 52.6435 101.154 53.0434 100.638C52.6725 100.6 52.3558 100.566 52.04 100.533ZM59.7715 92.8618C60.1615 93.4819 60.4067 93.4774 60.7777 92.8618H59.7715ZM39.0968 90.6427C39.1212 90.7193 39.1465 90.7959 39.171 90.8725C39.5971 90.7274 40.0242 90.5832 40.4504 90.4381C40.4305 90.3777 40.4106 90.3173 40.3906 90.2569C39.9591 90.3858 39.5284 90.5138 39.0968 90.6427ZM12.7851 46.9424C12.738 46.7054 12.6901 46.4683 12.643 46.2313C12.5336 46.2889 12.3707 46.3196 12.3246 46.4088C12.1653 46.718 12.3779 46.8631 12.7851 46.9424ZM23.6002 77.5283C23.9531 77.7536 24.2091 77.9177 24.5023 78.1051C24.5521 77.531 24.2888 77.3444 23.6002 77.5283ZM67.2307 99.2784C67.1674 99.2036 67.1041 99.1297 67.0407 99.0548C66.8661 99.1909 66.6924 99.327 66.5178 99.4631C66.6001 99.5488 66.7467 99.7146 66.7566 99.7065C66.9249 99.5767 67.0751 99.4244 67.2298 99.2784H67.2307ZM35.0831 90.8139C35.0433 90.7662 35.0034 90.7184 34.9645 90.6706L34.3457 91.1799C34.3773 91.2177 34.4081 91.2565 34.4398 91.2944C34.7754 91.2944 35.1084 91.2889 35.0831 90.8139ZM37.7025 79.9394L37.6093 80.1034C37.8436 80.2485 38.0789 80.3945 38.3132 80.5396C38.2843 80.0854 38.1268 79.8222 37.7025 79.9394ZM71.8271 100.235C71.7439 100.183 71.6607 100.133 71.5774 100.081C71.4589 100.253 71.3395 100.423 71.2209 100.594C71.3259 100.629 71.4924 100.724 71.5249 100.69C71.6489 100.56 71.7303 100.39 71.8271 100.235ZM64.9163 92.558C64.966 92.5409 65.0158 92.5229 65.0655 92.5057C65.1081 92.2939 65.1506 92.0821 65.1922 91.8703C65.1352 91.8442 65.0791 91.818 65.0221 91.7928C64.9108 91.9442 64.7661 92.0839 64.7045 92.2543C64.6801 92.321 64.8402 92.4553 64.9172 92.5589L64.9163 92.558ZM8.44475 52.5523C8.42666 52.628 8.40856 52.7037 8.39047 52.7804C8.60219 52.8444 8.81301 52.9092 9.02473 52.9732C9.05369 52.8714 9.08174 52.7686 9.11069 52.6668C8.88901 52.6289 8.66643 52.5902 8.44475 52.5523ZM15.9709 73.265C16.0098 73.2163 16.0478 73.1676 16.0867 73.1181C15.7963 72.9062 15.5058 72.6953 15.2154 72.4835C15.1819 72.5286 15.1484 72.5736 15.115 72.6187C15.4 72.8341 15.685 73.0487 15.97 73.2641L15.9709 73.265ZM7.82768 42.634C7.84306 42.5637 7.85935 42.4934 7.87473 42.4231C7.61867 42.369 7.36261 42.3159 7.10655 42.2618C7.09207 42.3294 7.0776 42.397 7.06312 42.4646C7.31827 42.5214 7.57252 42.5773 7.82768 42.634Z" fill="black"/>
<path id="Vector_2" d="M64.917 92.5589C64.841 92.4552 64.68 92.3218 64.7044 92.2542C64.7659 92.0848 64.9107 91.9451 65.022 91.7927C65.079 91.8189 65.1351 91.845 65.1921 91.8702C65.1496 92.0821 65.107 92.2939 65.0654 92.5057C65.0157 92.5228 64.9659 92.5408 64.9161 92.558L64.917 92.5589Z" fill="white"/>
<path id="Vector_3" d="M17.5677 41.5867C17.8039 43.0036 17.9658 44.406 18.5666 45.7391C18.5666 45.3885 18.582 45.0361 18.563 44.6864C18.5413 44.2979 18.4897 43.9112 18.449 43.5236C18.411 43.1613 18.3703 42.799 18.3314 42.4366C18.3802 42.4168 18.4282 42.3961 18.477 42.3762C18.5829 42.4826 18.7277 42.5709 18.7892 42.698C19.4009 43.9635 20.0188 45.2254 20.5889 46.5098C20.7979 46.9794 20.692 47.0515 20.1853 47.2038C20.0424 47.2461 19.922 47.4462 19.8469 47.6004C19.7935 47.7103 19.8306 47.8654 19.8297 47.9997C19.8288 48.1159 19.8297 48.2313 19.8297 48.4557C19.7193 48.2394 19.6578 48.1123 19.59 47.9888C19.2905 47.4408 19.1312 47.3994 18.6128 47.7284C18.2328 47.9699 18.0427 47.9474 17.8708 47.5373C17.6817 47.0848 17.4727 46.6071 17.4429 46.1294C17.3687 44.9072 17.3759 43.6787 17.3813 42.4529C17.3822 42.1635 17.5026 41.8751 17.5677 41.5867Z" fill="black"/>
<path id="Vector_4" d="M25.4956 43.1432C25.8838 43.7769 25.6069 44.3619 25.635 44.9486C25.7019 44.9675 25.768 44.9901 25.8358 45.0045C26.348 45.1136 26.4565 45.2983 26.2774 45.8049C26.148 46.1717 25.9969 46.5296 25.8585 46.8928C25.7282 47.2353 25.7318 47.5427 26.2204 47.7788C25.8874 48.2718 25.5988 48.7523 25.255 49.1903C25.0577 49.4409 24.8017 49.421 24.6632 49.0894C23.8742 47.2047 23.9412 45.3768 25.0505 43.6264C25.1545 43.4623 25.3174 43.3343 25.4956 43.1442V43.1432Z" fill="black"/>
<path id="Vector_5" d="M30.5598 35.0042C31.0674 34.2516 31.575 33.4999 32.0826 32.7473C32.136 32.7743 32.1894 32.8004 32.2437 32.8275C32.2129 32.9573 32.2003 33.0952 32.1496 33.2169C31.7578 34.1678 31.2213 35.0303 30.5038 35.7703C30.2459 36.0362 29.9301 36.3661 29.5311 36.1705C29.1674 35.9921 29.0914 35.5711 29.1456 35.1827C29.3411 33.7613 30.0369 32.5931 31.0439 31.5963C31.1362 31.5052 31.3461 31.4223 31.4348 31.4674C31.5289 31.5151 31.6049 31.7324 31.5796 31.8522C31.5045 32.2101 31.4104 32.5724 31.2602 32.9041C31.0267 33.4206 30.7327 33.9082 30.4848 34.4183C30.4124 34.5671 30.4115 34.7491 30.3771 34.9159C30.4377 34.9456 30.4992 34.9745 30.5598 35.0042Z" fill="black"/>
<path id="Vector_6" d="M13.2808 38.4076C13.1234 37.8326 12.9659 37.2575 12.7958 36.6338C12.8592 36.6807 12.9017 36.7023 12.9324 36.7356C13.3296 37.1566 13.7196 37.5847 14.1214 38.0011C14.704 38.6041 14.7538 39.5947 14.2218 40.1742C13.878 40.5483 13.4011 40.624 13.1333 40.2283C12.4918 39.281 11.9996 38.2481 11.6096 37.1746C11.6567 37.1403 11.7046 37.1052 11.7517 37.0709C12.1887 37.5513 12.6257 38.0318 13.0627 38.5122C13.1351 38.477 13.2075 38.4419 13.279 38.4076H13.2808Z" fill="black"/>
<path id="Vector_7" d="M18.6543 39.1179C18.3793 38.9476 18.0961 38.7898 17.8319 38.6042C17.2447 38.1932 16.6764 37.756 16.0838 37.354C15.4043 36.8934 15.3409 36.1616 15.217 35.4612C15.1754 35.2269 15.3545 35.1349 15.5699 35.244C15.7544 35.3386 15.9381 35.4495 16.0937 35.5856C17.0574 36.4329 17.8699 37.409 18.5503 38.4942C18.648 38.6501 18.6978 38.8358 18.7702 39.008L18.6552 39.117L18.6543 39.1179Z" fill="black"/>
<path id="Vector_8" d="M18.124 31.8297C18.1973 31.9505 18.2453 31.9955 18.2525 32.0469C18.39 32.9582 18.942 33.617 19.5781 34.2263C19.5889 34.2372 19.6025 34.2462 19.6097 34.2588C19.7156 34.4607 19.8205 34.6626 19.9255 34.8645C19.7319 34.9132 19.5373 34.9618 19.3157 35.0177C19.5057 35.4017 19.7056 35.8037 19.9056 36.2066C19.8631 36.2363 19.8196 36.2661 19.7771 36.2949C18.97 35.7866 18.3919 35.0547 17.8625 34.2696C18.3955 33.5251 18.143 32.7049 18.1249 31.8288L18.124 31.8297Z" fill="black"/>
<path id="Vector_9" d="M13.4897 35.7415C13.5946 35.7902 13.7177 35.8181 13.8018 35.8902C14.6234 36.6023 15.3753 37.3774 15.8974 38.3418C15.9616 38.4599 15.9544 38.6167 15.9797 38.7546C15.8404 38.7483 15.6911 38.7709 15.5626 38.7294C15.0324 38.5591 14.6062 38.2878 14.3755 37.7253C14.1773 37.2431 13.8643 36.8087 13.6146 36.3463C13.525 36.1804 13.4725 35.9948 13.4028 35.8181C13.4318 35.792 13.4598 35.7658 13.4888 35.7397L13.4897 35.7415Z" fill="black"/>
<path id="Vector_10" d="M32.5458 74.8044C31.8066 74.2132 31.0991 71.9382 31.5605 71.2811C32.2183 71.5768 32.9114 74.0023 32.5458 74.8044Z" fill="black"/>
<path id="Vector_11" d="M16.4086 35.0303C17.8418 35.5342 18.9086 36.522 19.8288 37.7037C18.4996 37.0655 17.5695 35.892 16.2693 35.2151C16.3154 35.1538 16.3625 35.0916 16.4086 35.0303Z" fill="black"/>
<path id="Vector_12" d="M27.9984 59.6674C27.9775 59.0148 27.9414 58.3623 27.9504 57.7106C27.9522 57.5718 28.1214 57.4348 28.2128 57.2969C28.3187 57.4294 28.4788 57.5465 28.5204 57.6971C28.7204 58.41 28.5729 59.0707 28.1938 59.6809C28.1286 59.6764 28.0635 59.6719 27.9984 59.6674Z" fill="black"/>
<path id="Vector_13" d="M16.87 44.279C16.7433 44.5403 16.6329 44.7675 16.5234 44.9937C16.3796 44.79 16.204 44.5998 16.1027 44.3763C16.0403 44.2375 16.0285 44.0058 16.1072 43.8923C16.1878 43.7751 16.4909 43.6561 16.5452 43.7057C16.6899 43.8355 16.7542 44.0563 16.87 44.278V44.279Z" fill="black"/>
<path id="Vector_14" d="M21.0746 33.4062C20.9135 33.6324 20.7977 33.7955 20.6819 33.9587C20.5037 33.7198 20.3046 33.4918 20.1725 33.2304C20.1553 33.1961 20.4964 32.8744 20.6394 32.896C20.7914 32.9185 20.9045 33.1925 21.0746 33.4062Z" fill="black"/>
<path id="Vector_15" d="M30.1137 66.9096C30.5308 67.3702 30.7443 67.8082 30.7009 68.3635C30.1155 68.3112 29.8983 67.8082 30.1137 66.9096Z" fill="black"/>
<path id="Vector_16" d="M28.2869 46.4827C28.6054 45.7869 28.9229 45.0919 29.2414 44.3961C29.2993 44.4232 29.3582 44.4502 29.4161 44.4781C29.3039 45.2722 28.8759 45.9158 28.4054 46.5386C28.3656 46.5197 28.3267 46.5016 28.2869 46.4827Z" fill="black"/>
<path id="Vector_17" d="M27.9014 45.4299L28.5193 43.8832L28.6867 43.9445C28.5103 44.47 28.333 44.9955 28.1565 45.521C28.0715 45.4903 27.9864 45.4606 27.9014 45.4299Z" fill="black"/>
<path id="Vector_18" d="M14.5899 43.3163C14.2976 42.8846 14.3329 42.6439 14.8767 42.1824C14.8287 42.5637 14.7817 42.9459 14.7337 43.3271C14.6858 43.3235 14.6378 43.3199 14.5899 43.3163Z" fill="black"/>
<path id="Vector_19" d="M16.7089 41.0909C16.1651 40.8926 16.0448 40.5745 16.252 39.8967L16.7089 41.0909Z" fill="black"/>
<path id="Vector_20" d="M28.6931 62.7554C28.5999 63.0789 28.5058 63.4016 28.3809 63.8343C27.9891 63.261 28.2606 62.9816 28.5393 62.704C28.5908 62.7211 28.6424 62.7382 28.6931 62.7554Z" fill="black"/>
<path id="Vector_21" d="M22.8879 43.6462C22.9829 43.2415 23.0779 42.8368 23.1739 42.4321C23.2318 42.4447 23.2888 42.4574 23.3467 42.47C23.2652 42.8783 23.1838 43.2857 23.1024 43.694C23.0309 43.6778 22.9603 43.6625 22.8888 43.6462H22.8879Z" fill="black"/>
<path id="Vector_22" d="M27.5331 38.5483C27.6046 38.9746 27.676 39.4009 27.7475 39.8273C27.6878 39.8363 27.629 39.8453 27.5693 39.8543C27.5077 39.4271 27.4462 38.9989 27.3838 38.5717C27.4336 38.5636 27.4833 38.5564 27.5322 38.5483H27.5331Z" fill="black"/>
<path id="Vector_23" d="M17.6953 52.8443C18.1993 53.1237 18.2228 53.2571 17.8582 53.6564C17.8021 53.3752 17.7577 53.1544 17.6953 52.8443Z" fill="black"/>
<path id="Vector_24" d="M13.9675 22.8155C14.1992 22.6307 14.4055 22.3747 14.6697 22.281C14.9357 22.1863 15.3247 22.1413 15.5455 22.2693C16.3399 22.7316 16.691 23.5059 16.786 24.3955C16.7996 24.5244 16.7344 24.7362 16.643 24.7804C16.5489 24.8254 16.3517 24.7452 16.2458 24.6623C16.0115 24.4775 15.7853 24.2747 15.5917 24.0476C15.1691 23.5519 14.7248 23.0958 14.0453 22.9489C14.02 22.9047 13.9938 22.8596 13.9684 22.8155H13.9675Z" fill="black"/>
<path id="Vector_25" d="M31.4762 22.5153C31.393 23.1913 30.9596 23.4897 30.3742 23.203C29.1328 22.5937 29.1717 22.7037 29.7897 21.4427C30.0991 20.8127 30.6203 20.7902 30.9931 21.3823C31.2093 21.7257 31.3188 22.1359 31.4762 22.5153Z" fill="black"/>
<path id="Vector_26" d="M20.0251 21.4806C21.0195 20.6117 24.6776 21.0822 25.2929 22.0196C24.7012 22.3567 23.5086 22.2522 23.0001 21.8231C22.5523 21.4446 22.023 21.4346 21.4701 21.4734C20.9906 21.5068 20.5065 21.4806 20.0251 21.4806Z" fill="black"/>
<path id="Vector_27" d="M18.0878 22.9056C17.4129 22.765 16.8673 22.7281 16.6266 22.1016C16.4845 21.7294 16.5949 21.4626 17.0039 21.4265C17.469 21.386 18.3846 22.0674 18.4009 22.5262C18.4054 22.6677 18.1657 22.8173 18.0878 22.9056Z" fill="black"/>
<path id="Vector_28" d="M32.4996 23.0291C32.3847 23.2391 32.2607 23.4654 32.1368 23.6916C32.0825 23.6808 32.0282 23.67 31.9739 23.66C31.9739 23.5203 31.926 23.3563 31.9821 23.2454C32.2535 22.7091 33.1619 22.2828 33.76 22.4162C33.9102 22.4496 34.0324 22.6055 34.1681 22.7055C34.0432 22.7939 33.9247 22.9426 33.7908 22.9588C33.3773 23.0093 32.9574 23.0093 32.4996 23.03V23.0291Z" fill="black"/>
<path id="Vector_29" d="M14.6975 21.2525C15.0377 21.1993 15.2929 21.1597 15.5806 21.1146C15.4232 21.5905 15.1725 21.6374 14.6975 21.2525Z" fill="black"/>
</g>
<defs>
<clipPath id="clip0_330_198">
<rect width="80" height="105" fill="white"/>
</clipPath>
</defs>
</svg>
