<svg width="58" height="81" viewBox="0 0 58 81" fill="none" xmlns="http://www.w3.org/2000/svg">
<g id="Isolation_Mode" clip-path="url(#clip0_316_38)">
<path id="Vector" d="M29.0151 16.0285C38.3792 16.0285 47.7434 16.0364 57.1075 16.0127C57.8285 16.0111 58.0592 16.1598 57.9871 16.9128C57.4472 22.5209 56.9409 28.1338 56.4331 33.745C55.9797 38.7535 55.5439 43.7636 55.0921 48.7721C54.6387 53.8075 54.1693 58.8414 53.7143 63.8752C53.4179 67.153 53.1184 70.4309 52.8588 73.7119C52.8108 74.3225 52.6265 74.6073 51.9889 74.7797C44.5697 76.7841 37.1601 78.8264 29.7473 80.8561C29.3179 80.9731 28.9126 81.068 28.4304 80.9351C20.9967 78.8802 13.5599 76.841 6.11182 74.8398C5.37486 74.6421 5.18742 74.3035 5.12654 73.6043C4.63951 67.8855 4.10601 62.1698 3.59175 56.4526C3.19443 52.0468 2.80993 47.6394 2.41262 43.2337C1.95763 38.1982 1.49463 33.1644 1.03804 28.129C0.698397 24.3544 0.373175 20.5767 0.0111058 16.8021C-0.0497732 16.1725 0.124853 16.0127 0.764082 16.0127C10.1811 16.0333 19.5981 16.0269 29.0151 16.0269V16.0285ZM29.0071 61.1162C26.4374 60.4534 23.8708 59.7763 21.2947 59.1372C20.8701 59.0312 20.8477 58.7971 20.8189 58.4617C20.6875 56.9161 20.5273 55.3721 20.3975 53.8265C20.3671 53.4643 20.3014 53.257 19.8512 53.2618C17.7733 53.2839 15.6938 53.2792 13.6159 53.2649C13.1818 53.2618 13.0712 53.4215 13.1081 53.8313C13.4205 57.2357 13.7233 60.6401 14.0149 64.0476C14.0501 64.4574 14.2504 64.6187 14.6301 64.7231C19.4235 66.0298 24.2137 67.3492 29.0055 68.6654C29.0039 70.8786 29.0151 73.0933 28.9927 75.3065C28.9863 75.9219 29.1337 76.0817 29.7841 75.8934C32.3314 75.1562 34.8979 74.4807 37.4565 73.7767C40.7808 72.8608 44.1035 71.9353 47.431 71.0273C47.9485 70.8865 48.1936 70.6713 48.2689 70.0765C48.3458 69.4738 48.3394 68.8726 48.4002 68.2746C48.6133 66.1675 48.8216 64.0587 49.0138 61.9484C49.1436 60.5404 49.2333 59.1293 49.3599 57.7197C49.5585 55.505 49.7748 53.2918 49.9767 51.0771C50.0984 49.7466 50.1994 48.4162 50.3259 47.0858C50.523 45.0023 50.7441 42.922 50.9347 40.8386C51.0661 39.4037 51.1526 37.9657 51.2808 36.5309C51.4778 34.3161 51.6941 32.1029 51.8992 29.8882C52.0241 28.5324 52.1363 27.1767 52.2661 25.8209C52.4038 24.3892 52.548 22.9576 52.7018 21.529C52.7611 20.9769 52.5432 20.8077 51.9825 20.8092C44.5633 20.8251 37.144 20.8266 29.7264 20.8061C29.0824 20.8045 28.9847 21.0529 28.9911 21.6002C29.0167 23.709 29.0023 25.8162 29.0039 27.9249C28.6851 27.9392 28.3663 27.9645 28.0475 27.9645C22.5267 27.9677 17.0059 27.9756 11.4836 27.9534C10.87 27.9502 10.7018 28.1005 10.7819 28.708C10.9357 29.8818 11.011 31.0651 11.1199 32.2453C11.6326 37.7759 12.1677 43.3033 12.6355 48.8386C12.6996 49.5995 12.9655 49.7213 13.6416 49.7166C17.6948 49.6913 21.7497 49.7007 25.8045 49.7055C26.8699 49.7055 27.9353 49.7387 28.9991 49.7561C29.0023 53.5418 29.0039 57.329 29.0071 61.1147V61.1162Z" fill="#E44C21"/>
<path id="Vector_2" d="M35.7937 3.93593C36.521 2.76053 37.2131 1.66897 37.87 0.558424C38.0686 0.223046 38.2817 0.0822508 38.6838 0.0949065C39.6419 0.126546 40.6031 0.118636 41.5628 0.0980705C41.9104 0.0901606 42.0145 0.196153 42.0129 0.542604C42.0017 3.88689 42.0017 7.23117 42.0129 10.5755C42.0129 10.9108 41.9264 11.0358 41.5692 11.0263C40.664 11.0042 39.7556 10.9994 38.8504 11.0263C38.4307 11.039 38.3057 10.9108 38.3121 10.4948C38.3362 8.96817 38.3218 7.44157 38.1904 5.84695C37.407 7.03184 36.6236 8.21832 35.7616 9.52186C34.9238 8.25787 34.1227 7.04608 33.1743 5.61282C33.1743 6.92427 33.1887 8.00634 33.1695 9.08682C33.1583 9.71012 33.4482 10.5596 33.0509 10.8934C32.6728 11.2098 31.8398 11.0105 31.2069 11.0137C29.56 11.0216 29.56 11.0168 29.56 9.38581C29.56 6.51612 29.576 3.64485 29.5456 0.775153C29.5392 0.208808 29.7106 0.0664311 30.2585 0.0917426C31.295 0.140784 32.5222 -0.216741 33.3233 0.2183C34.1163 0.648596 34.4816 1.84773 35.0311 2.7099C35.2714 3.08641 35.5037 3.46767 35.7937 3.93435V3.93593Z" fill="#030303"/>
<path id="Vector_3" d="M16.1394 5.55745C16.1394 7.19005 16.1234 8.82264 16.149 10.4536C16.1554 10.9029 16.0224 11.0437 15.5675 11.0263C14.7152 10.9915 13.8596 10.9884 13.0089 11.0263C12.5347 11.0485 12.4274 10.8792 12.445 10.4473C12.4771 9.63261 12.4146 8.81315 12.4674 8.00001C12.5027 7.44949 12.2864 7.34192 11.7946 7.36881C11.1569 7.40519 10.5129 7.4131 9.87688 7.36881C9.28732 7.3261 9.02297 7.45582 9.07905 8.11708C9.14633 8.90174 9.07424 9.69588 9.10308 10.4853C9.1175 10.8919 9.00375 11.0406 8.57119 11.0263C7.66601 10.9963 6.75764 11.0026 5.85246 11.0247C5.47597 11.0342 5.3446 10.9298 5.34621 10.5407C5.36062 7.22327 5.35902 3.90588 5.34621 0.588488C5.34621 0.208815 5.45995 0.0870036 5.84445 0.0964954C6.74963 0.120225 7.658 0.123389 8.56318 0.0964954C8.9653 0.0838397 9.05662 0.224635 9.047 0.594816C9.02297 1.46332 9.047 2.33182 9.03419 3.20032C9.02938 3.53728 9.07744 3.74452 9.50199 3.73028C10.3271 3.70339 11.1553 3.70339 11.9804 3.73028C12.3969 3.74293 12.461 3.54993 12.4546 3.20665C12.4402 2.36504 12.4867 1.52027 12.437 0.680242C12.405 0.147119 12.6244 0.0775118 13.081 0.0964954C13.8789 0.129717 14.6815 0.137627 15.4793 0.0949135C16 0.066438 16.1618 0.213561 16.149 0.741939C16.1138 2.34764 16.1362 3.95334 16.1362 5.55904L16.1394 5.55745Z" fill="#030303"/>
<path id="Vector_4" d="M24.6784 7.38146C24.6784 8.43505 24.6608 9.49022 24.688 10.5438C24.6976 10.9282 24.5775 11.0374 24.1946 11.0263C23.315 10.9994 22.4323 10.9931 21.5543 11.0279C21.0962 11.0469 20.9792 10.9045 20.984 10.46C21.008 8.43188 20.9744 6.40222 21.008 4.37413C21.016 3.85208 20.8703 3.69863 20.3496 3.73185C19.6591 3.77615 18.9622 3.71603 18.2701 3.75242C17.8311 3.77615 17.7366 3.61479 17.7494 3.21455C17.7783 2.34605 17.7831 1.47438 17.7478 0.607462C17.7302 0.167674 17.9016 0.0949036 18.2957 0.0964856C21.3365 0.110723 24.3788 0.112305 27.4196 0.0949036C27.8505 0.0917397 27.9578 0.224625 27.945 0.629609C27.9162 1.49811 27.9114 2.36978 27.945 3.23669C27.9627 3.66857 27.8008 3.76507 27.3987 3.75083C26.6522 3.72236 25.904 3.76349 25.159 3.73502C24.7697 3.7192 24.6624 3.84259 24.6704 4.22068C24.6944 5.27427 24.6784 6.32786 24.6784 7.38304V7.38146Z" fill="#030303"/>
<path id="Vector_5" d="M43.8568 5.5116C43.8568 3.90432 43.8808 2.29545 43.8423 0.689755C43.8311 0.181943 43.9913 0.0696233 44.4704 0.0933528C45.2682 0.132902 46.074 0.145558 46.8703 0.0901889C47.4662 0.0490577 47.5624 0.278443 47.5528 0.805239C47.5223 2.78112 47.5656 4.75858 47.5255 6.73446C47.5143 7.31188 47.6985 7.42736 48.24 7.41154C49.5457 7.37199 50.8546 7.41787 52.1619 7.3894C52.6201 7.3799 52.7595 7.51595 52.7435 7.96523C52.7098 8.83373 52.7195 9.70382 52.7403 10.5739C52.7483 10.9093 52.6538 11.0279 52.2965 11.0263C49.6274 11.0137 46.96 11.0089 44.2909 11.0295C43.8407 11.0327 43.8487 10.8128 43.8504 10.4964C43.8584 8.8369 43.8536 7.17583 43.8536 5.51634L43.8568 5.5116Z" fill="#030303"/>
<path id="Vector_6" d="M29.0024 27.9265C29.0024 25.8177 29.0168 23.709 28.9896 21.6018C28.9832 21.0544 29.0809 20.8045 29.7249 20.8076C37.1441 20.8282 44.5634 20.8266 51.981 20.8108C52.5417 20.8108 52.7612 20.9785 52.7003 21.5306C52.5449 22.9607 52.4007 24.3908 52.2645 25.8225C52.1348 27.1782 52.0226 28.534 51.8977 29.8897C51.6926 32.1045 51.4763 34.3177 51.2793 36.5324C51.1511 37.9673 51.0646 39.4053 50.9332 40.8401C50.7426 42.9236 50.5215 45.0039 50.3244 47.0873C50.1979 48.4162 50.0969 49.7482 49.9752 51.0786C49.7733 53.2934 49.5554 55.5066 49.3584 57.7213C49.2318 59.1293 49.1421 60.542 49.0123 61.9499C48.8185 64.0603 48.6118 66.1675 48.3987 68.2762C48.3378 68.8758 48.3443 69.4754 48.2674 70.0781C48.1921 70.6729 47.9469 70.8881 47.4295 71.0288C44.102 71.9369 40.7808 72.8623 37.4549 73.7783C34.8964 74.4823 32.3315 75.1578 29.7826 75.895C29.1337 76.0832 28.9848 75.9235 28.9912 75.3081C29.0136 73.0949 29.0024 70.8801 29.004 68.667C29.0104 68.6385 29.0088 68.6116 29.0008 68.5831C29.0536 68.5831 29.1097 68.5942 29.1594 68.58C33.9047 67.2859 38.6469 65.9855 43.3938 64.701C43.7719 64.5981 43.8745 64.4162 43.9065 64.046C44.4849 57.5188 45.0808 50.9932 45.6656 44.466C45.7217 43.8443 46.0965 43.058 45.7072 42.642C45.3227 42.2291 44.4945 42.5138 43.8632 42.5138C38.9048 42.5123 33.9448 42.5281 28.9864 42.5392L29.0024 42.4696C29.0024 40.0539 29.0008 37.6398 28.9992 35.2241C28.996 35.1972 28.9928 35.1703 28.9848 35.1435C34.6609 35.1561 40.3387 35.164 46.0148 35.1877C46.4522 35.1893 46.5515 34.9884 46.5836 34.6198C46.7486 32.6803 46.9024 30.7393 47.1139 28.8029C47.186 28.1448 47.0241 27.9518 46.3336 27.9581C42.8684 27.993 39.4031 27.9692 35.9378 27.9755C33.6196 27.9803 31.3014 27.9993 28.9832 28.0119C28.9912 27.985 28.9944 27.9581 28.996 27.9313L29.0024 27.9265Z" fill="#F06524"/>
<path id="Vector_7" d="M28.9993 49.7561C27.9339 49.7387 26.8685 49.7071 25.8047 49.7055C21.7499 49.6992 17.6966 49.6897 13.6418 49.7166C12.9657 49.7213 12.6997 49.5995 12.6357 48.8386C12.1678 43.3048 11.6328 37.7758 11.1201 32.2453C11.0111 31.0651 10.9359 29.8818 10.7821 28.708C10.7019 28.1021 10.8702 27.9518 11.4838 27.9534C17.0045 27.9771 22.5253 27.9676 28.0476 27.9645C28.3665 27.9645 28.6853 27.9376 29.0041 27.9249C29.0041 27.9518 28.9993 27.9803 28.9913 28.0056C28.9913 30.3817 28.9913 32.7594 28.9913 35.1355C28.9977 35.1624 29.0025 35.1893 29.0057 35.2162C25.7551 35.202 22.5028 35.1957 19.2522 35.1672C18.7908 35.1624 18.7268 35.3586 18.7652 35.7383C18.9735 37.8328 19.1785 39.9273 19.3612 42.0234C19.3932 42.3984 19.5278 42.5059 19.8963 42.5044C22.9338 42.4806 25.9729 42.4743 29.0105 42.4616L28.9945 42.5313C28.9945 44.9042 28.9913 47.2772 28.9897 49.6485C29.0041 49.6818 29.0073 49.7166 29.0025 49.7529L28.9993 49.7561Z" fill="#EBE8E7"/>
<path id="Vector_8" d="M29.0056 68.6638C24.2154 67.3476 19.4252 66.0283 14.6301 64.7216C14.2504 64.6172 14.0502 64.4558 14.0149 64.0461C13.7234 60.6401 13.4206 57.2341 13.1082 53.8297C13.0713 53.4216 13.1819 53.2602 13.616 53.2634C15.6939 53.2776 17.7734 53.2824 19.8513 53.2602C20.3031 53.2555 20.3672 53.4627 20.3976 53.825C20.5274 55.3706 20.6876 56.9146 20.819 58.4601C20.8478 58.7955 20.8702 59.0297 21.2948 59.1356C23.8709 59.7748 26.4374 60.4503 29.0072 61.1147L28.9928 61.1748C28.996 63.6427 28.9992 66.1105 29.0024 68.5784C29.0104 68.6069 29.012 68.6338 29.0056 68.6623V68.6638Z" fill="#EBE8E7"/>
<path id="Vector_9" d="M29.0072 61.1147C29.004 57.329 29.0023 53.5418 28.9991 49.7561C29.0056 49.7198 29.0007 49.685 28.9863 49.6517C29.2763 49.6723 29.5679 49.7087 29.8579 49.7103C32.3106 49.715 34.765 49.7245 37.2178 49.7039C37.7513 49.6992 37.9435 49.772 37.8763 50.3921C37.5959 53.0356 37.3684 55.6838 37.1713 58.3352C37.1297 58.892 36.9086 59.1008 36.3991 59.2306C33.9255 59.8618 31.4599 60.5246 28.9927 61.1748L29.0072 61.1147Z" fill="#F06524"/>
<path id="Vector_10" d="M28.9944 61.1747C31.4632 60.523 33.9288 59.8617 36.4008 59.2305C36.9087 59.1008 37.1314 58.892 37.173 58.3351C37.3701 55.6853 37.5976 53.0355 37.878 50.392C37.9436 49.7703 37.7514 49.6991 37.2195 49.7039C34.7667 49.7244 32.3123 49.715 29.8596 49.7102C29.5696 49.7102 29.278 49.6722 28.988 49.6517C28.988 47.2787 28.9912 44.9058 28.9928 42.5328C33.9513 42.5217 38.9113 42.5059 43.8697 42.5075C44.5009 42.5075 45.3276 42.2227 45.7137 42.6356C46.103 43.0533 45.7265 43.8379 45.6721 44.4597C45.0873 50.9869 44.4897 57.5125 43.913 64.0397C43.8809 64.4083 43.7784 64.5918 43.4003 64.6946C38.6534 65.9792 33.9096 67.2796 29.1659 68.5736C29.1162 68.5878 29.0601 68.5752 29.0073 68.5768C29.0041 66.1089 29.0009 63.641 28.9976 61.1732L28.9944 61.1747Z" fill="#FEFDFD"/>
<path id="Vector_11" d="M28.9895 35.1387C28.9895 32.7626 28.9895 30.3849 28.9895 28.0088C31.3077 27.9961 33.6259 27.9771 35.9441 27.9724C39.4094 27.9661 42.8747 27.9898 46.34 27.955C47.0305 27.9487 47.1923 28.1417 47.1202 28.7998C46.9087 30.7345 46.7549 32.6756 46.5899 34.6167C46.5595 34.9837 46.4586 35.1862 46.0212 35.1846C40.345 35.1609 34.6673 35.1529 28.9911 35.1403L28.9895 35.1387Z" fill="#FEFDFD"/>
<path id="Vector_12" d="M29.0071 42.4648C25.9696 42.4774 22.9304 42.4838 19.8929 42.5075C19.526 42.5107 19.3915 42.4015 19.3578 42.0266C19.1768 39.9305 18.9701 37.8344 18.7618 35.7414C18.7234 35.3617 18.7875 35.1672 19.2489 35.1703C22.4995 35.2004 25.7501 35.2067 29.0023 35.2194C29.0023 37.635 29.0039 40.0491 29.0055 42.4648H29.0071Z" fill="#E44C21"/>
</g>
<defs>
<clipPath id="clip0_316_38">
<rect width="58" height="81" fill="white"/>
</clipPath>
</defs>
</svg>
