<svg width="64" height="81" viewBox="0 0 64 81" fill="none" xmlns="http://www.w3.org/2000/svg">
<g id="Layer_1" clip-path="url(#clip0_106_8354)">
<path id="Vector" d="M29.6523 81C28.6916 80.653 27.6698 80.7878 26.6839 80.7264C22.2334 80.4468 17.8314 79.8619 13.4527 79.0866C13.2881 79.0569 13.1276 79.0053 12.965 78.9676C12.566 78.8764 12.281 78.6643 12.3253 78.2578C12.3739 77.8137 12.718 77.655 13.1677 77.6669C16.7843 77.7582 20.4008 77.8652 24.0174 77.9346C26.4854 77.9822 28.9556 77.9763 31.4257 77.9901C35.6334 78.0139 39.839 77.887 44.0403 77.665C49.2023 77.3933 54.2038 76.4674 58.8865 74.3141C59.9443 73.8263 60.9556 73.2612 61.8549 72.5316C62.1484 72.2936 62.4693 72.0141 62.8979 72.2917C63.3286 72.5712 63.2652 72.9837 63.1259 73.3643C62.4334 75.24 60.9534 76.4555 59.1927 77.4171C56.4987 78.8883 53.5134 79.4574 50.4817 79.8857C47.1565 80.3556 43.8186 80.7006 40.4576 80.8453C40.3161 80.8513 40.1768 80.8572 40.1029 81H29.6544H29.6523Z" fill="#74A1FA"/>
<path id="Vector_2" d="M43.1725 7.63558C43.1958 10.9944 41.6651 13.7286 39.328 16.1496C36.8072 18.7609 33.8198 20.8765 30.9654 23.1349C30.1082 23.815 29.3017 24.5506 28.4657 25.2545C26.65 26.7851 26.1391 28.6787 26.517 30.9073C27.201 34.9522 28.6789 38.7393 30.5072 42.4292C30.7437 42.905 31.2694 43.4523 30.6318 43.9163C29.9921 44.3802 29.5508 43.7576 29.137 43.4206C25.8287 40.722 22.8625 37.7617 21.0151 33.9548C19.2459 30.3085 19.4634 26.8347 21.8681 23.466C23.7745 20.7932 26.232 18.6677 28.9491 16.7682C31.2441 15.1641 33.6593 13.7147 35.8254 11.9441C38.2428 9.96731 39.1591 7.33817 39.5961 4.48893C39.7777 3.30522 39.746 2.1215 39.5771 0.941758C39.5201 0.537274 39.5855 0.174427 40.0352 0.0356337C40.4913 -0.105143 40.7573 0.178393 40.9747 0.519429C42.366 2.71237 43.1599 5.0679 43.1725 7.63558Z" fill="#DA3910"/>
<path id="Vector_3" d="M6.4371 70.8026C7.75662 71.5085 9.18171 71.7226 10.5772 71.9507C14.5548 72.603 18.564 72.9539 22.6007 73.1304C27.0069 73.3227 31.4088 73.3227 35.8065 73.0729C42.1592 72.712 48.476 72.0756 54.6514 70.5469C55.4093 70.3585 56.1609 70.1444 56.8703 69.8172C57.3601 69.5912 57.6367 69.2957 57.3643 68.7525C57.1975 68.4233 57.2883 68.1041 57.6135 67.9237C57.9238 67.7512 58.2532 67.8245 58.5572 68.0287C59.959 68.9666 60.1068 70.5548 58.8865 71.7028C57.9893 72.5495 56.8196 72.9678 55.6796 73.3921C52.7238 74.4906 49.633 75.127 46.5041 75.6128C41.1859 76.4396 35.8318 76.7827 30.444 76.9433C26.2299 77.0702 22.0265 76.9869 17.8251 76.8362C13.4316 76.6796 9.03814 76.396 4.76711 75.2896C3.41381 74.9387 2.09429 74.4767 1.05345 73.5289C-0.5722 72.0498 -0.287184 70.2435 1.70371 69.27C3.78961 68.2508 6.07186 67.9812 8.34988 67.7194C9.76652 67.5568 11.1958 67.4815 12.6209 67.3903C13.1339 67.3566 13.8159 67.2138 13.9151 67.9118C14.0185 68.6513 13.2859 68.6791 12.7603 68.7802C11.0016 69.1193 9.25771 69.5 7.58984 70.1384C7.20137 70.2871 6.80657 70.4219 6.43499 70.7987L6.4371 70.8026Z" fill="#74A1FA"/>
<path id="Vector_4" d="M14.327 47.4833C15.4037 47.9116 16.4994 47.9691 17.5656 48.0524C23.4475 48.5104 29.3336 48.4668 35.2261 48.1436C38.7835 47.9473 42.3262 47.6895 45.8414 47.1324C46.669 47.0015 47.4902 46.829 48.3073 46.6446C48.795 46.5355 49.2384 46.5494 49.4474 47.0233C49.65 47.4813 49.2827 47.751 48.9217 47.981C46.4262 49.5751 43.6267 50.4951 40.7448 51.2169C34.1071 52.8804 27.3237 52.9835 20.5277 52.7773C17.4769 52.6841 14.4325 52.3788 11.481 51.5619C10.1024 51.1812 8.7533 50.7192 7.70823 49.7337C6.39293 48.4906 6.57872 46.8746 8.1347 45.8951C9.74347 44.8819 11.6056 44.5845 13.4571 44.293C15.9231 43.9024 18.4143 43.7676 20.9161 43.7815C21.3827 43.7835 21.881 43.7597 21.9696 44.3168C22.0667 44.9275 21.5389 45.0386 21.066 45.1417C19.206 45.5422 17.3608 45.9843 15.6064 46.7061C15.1567 46.8905 14.6774 47.0451 14.3227 47.4833H14.327Z" fill="#74A1FA"/>
<path id="Vector_5" d="M35.0548 46.135C35.0971 46.0359 35.1984 45.792 35.3103 45.5521C35.8212 44.4616 36.1463 43.3195 36.3279 42.1437C36.4736 41.196 36.1189 40.3969 35.4982 39.6613C34.1745 38.0929 32.7557 36.5662 32.0569 34.635C31.0203 31.7738 30.4312 28.9068 32.4855 26.1705C33.5664 24.7311 34.9239 23.5553 36.4187 22.5163C39.822 20.1509 43.58 18.3981 47.4795 16.8892C47.9228 16.7167 48.305 16.6929 48.5625 17.1331C48.837 17.603 48.4844 17.8707 48.1487 18.1205C45.706 19.9387 43.2718 21.7648 41.055 23.8289C40.1767 24.6458 39.3364 25.4924 38.6482 26.466C37.449 28.1652 37.2927 29.8783 38.5173 31.6311C39.0873 32.446 39.6637 33.257 40.1894 34.0976C42.5054 37.7995 42.2309 40.8232 39.2879 44.1186C38.4011 45.1099 37.411 46.0061 36.3047 46.7834C36.0176 46.9837 35.7093 47.1125 35.3694 46.9559C35.0907 46.829 34.9978 46.5772 35.0548 46.1311V46.135Z" fill="#DA3910"/>
<path id="Vector_6" d="M30.6614 64.2357C33.6931 64.1366 36.8009 63.5556 39.917 63.0441C40.4491 62.9568 40.8882 62.9826 41.3506 63.2602C42.5329 63.968 43.7426 64.6362 44.9376 65.3242C45.2944 65.5304 45.6997 65.7109 45.6765 66.1967C45.6533 66.7042 45.2078 66.7935 44.8193 66.9422C41.6293 68.1636 38.3062 68.8397 34.8817 69.1569C29.9879 69.609 25.1447 69.3314 20.3522 68.3301C18.9525 68.0386 17.6013 67.5965 16.4739 66.7003C14.7849 65.3599 14.9496 63.4049 16.8856 62.4116C17.88 61.9 18.9778 61.6581 20.1242 61.6859C20.8357 61.7037 21.1207 62.0765 20.7787 62.6653C20.4683 63.1987 20.7808 63.2027 21.1714 63.3018C22.9385 63.7519 24.7563 63.8927 26.5656 64.0473C27.8767 64.1604 29.1983 64.1723 30.6614 64.2357Z" fill="#74A1FA"/>
<path id="Vector_7" d="M27.1853 60.4627C23.3534 60.4588 19.5764 60.1058 15.9514 58.8369C15.2653 58.5969 14.6192 58.2698 14.0302 57.8633C12.6853 56.9294 12.6558 55.6109 13.95 54.6235C15.166 53.6955 16.6671 53.41 18.1196 53.0254C18.4891 52.9282 18.7847 53.1185 18.9219 53.4536C19.0507 53.7709 18.8881 54.0148 18.62 54.2051C18.5968 54.221 18.5736 54.2348 18.5503 54.2507C18.2252 54.4767 17.5876 54.5898 17.7016 55.0042C17.8241 55.4523 18.4786 55.4463 18.9261 55.5217C23.2901 56.2474 27.6751 56.2255 32.0791 55.9123C35.6366 55.6585 39.1391 55.1271 42.6058 54.3578C43.0491 54.2586 43.3658 54.4113 43.693 54.6274C44.6325 55.25 45.5742 55.8726 46.5179 56.4892C46.8726 56.7212 47.2273 56.9612 47.1196 57.437C47.0077 57.9228 46.5327 57.9684 46.1357 58.0497C43.237 58.6505 40.3298 59.2156 37.3931 59.6181C34.0109 60.082 30.6182 60.4984 27.1853 60.4647V60.4627Z" fill="#74A1FA"/>
<path id="Vector_8" d="M57.0054 42.683C60.7149 42.6672 63.0309 44.6083 63.8522 48.3954C64.3187 50.5506 63.6579 52.4065 62.159 54.0185C59.9633 56.38 57.0308 57.6331 53.9758 58.6681C52.8716 59.0428 51.7316 59.3224 50.6042 59.6317C50.1608 59.7527 49.6773 59.8359 49.4345 59.3402C49.1917 58.8446 49.5718 58.5749 49.9581 58.3171C52.2045 56.8221 54.3622 55.226 56.2032 53.2888C56.9695 52.4819 57.681 51.6352 58.1434 50.6299C58.8232 49.1508 58.3608 47.7351 56.9252 46.8508C55.2974 45.8495 53.4438 45.5917 51.5669 45.4272C51.1109 45.3875 50.7055 45.3181 50.6126 44.8343C50.5239 44.3723 50.9082 44.182 51.2692 44.0293C53.0954 43.256 54.9786 42.689 57.0075 42.683H57.0054Z" fill="#74A1FA"/>
</g>
<defs>
<clipPath id="clip0_106_8354">
<rect width="64" height="81" fill="white"/>
</clipPath>
</defs>
</svg>
