<svg width="61" height="61" viewBox="0 0 61 61" fill="none" xmlns="http://www.w3.org/2000/svg">
<g id="Layer_1" clip-path="url(#clip0_330_190)">
<path id="Vector" d="M60.9864 60.2822C61.1584 61.451 59.6132 60.7914 58.932 60.9851C55.3216 60.9851 51.7097 60.9851 48.0993 60.9851C39.0718 60.9851 30.0443 60.9851 21.0181 60.9851C15.6024 60.9851 10.1854 60.9851 4.76969 60.9851C3.42356 61.0122 2.06252 60.9431 0.723159 60.9743C0.148952 61.0433 -0.0460614 60.8158 0.0135261 60.2822C0.0067548 52.1584 0.0135261 44.036 0.0108176 35.9122C0.0108176 27.7858 0.0108176 19.6593 0.0108176 11.5328C0.0108176 8.8267 0.0108176 6.11923 0.0108176 3.41312C0.0108176 2.50837 0.0108176 1.60362 0.0108176 0.700232C-0.0447071 0.167948 0.148952 -0.0582387 0.720451 0.0121907C12.8993 -0.00947988 25.089 0.00677306 37.272 0.00270983C44.9384 0.00406424 52.6117 -0.00406223 60.2741 0.0135451C60.8456 -0.0568843 61.0406 0.169302 60.9878 0.700232C60.9878 2.50566 60.9878 4.31109 60.9878 6.11653C60.9878 10.6321 60.9878 15.1477 60.9878 19.6634C60.9864 33.2034 60.9905 46.7435 60.9864 60.2822ZM32.1325 52.3087C33.6155 49.8153 33.0981 46.7976 33.1835 44.0333C33.1835 40.4224 33.1835 36.8116 33.1835 33.1993C33.1821 31.8476 33.1794 30.4973 33.2051 29.1456C33.2078 28.2562 32.756 27.8878 31.8495 28.0404C30.9489 28.0404 30.047 28.0404 29.1464 28.0404C28.7103 27.8928 28.2607 28.0052 27.8179 27.9686C27.5294 27.9442 27.4116 28.0891 27.4251 28.3682C27.5023 33.5894 27.3371 38.8107 27.4874 44.0319C27.18 47.1295 28.5248 51.5584 23.7307 51.0654C21.3743 50.4789 21.0709 47.743 20.406 48.3241C19.8223 48.6925 19.1926 48.9877 18.6522 49.4265C18.1254 49.7028 17.6054 50.0062 17.0853 50.3029C16.2936 50.7787 16.1911 51.4022 16.7779 52.1733C19.7167 57.3038 29.3292 57.7995 32.1312 52.3087H32.1325ZM50.8214 34.6025C51.7599 34.0648 52.6767 33.458 53.5204 32.8066C54.2625 32.4264 54.4034 31.9127 53.9429 31.2652C52.074 28.5185 48.6207 27.2968 45.3908 27.7831C41.1695 27.8535 37.4995 31.6174 38.0832 35.9122C38.0615 37.9669 39.046 40.0527 40.6495 41.3312C41.9726 42.5895 43.6925 43.4143 45.3975 44.0306C47.6253 45.064 51.5527 46.245 50.2648 49.4523C48.0817 52.3629 43.0492 51.2333 41.4133 48.2794C41.0883 47.6469 40.7294 47.6265 40.2364 48.0423C39.4916 48.5543 38.6249 48.8767 37.9044 49.4401C37.6552 49.5051 37.4426 49.6365 37.2557 49.8099C36.5488 50.1232 36.3998 50.5963 36.8088 51.2293C41.4458 59.0239 57.8771 57.7657 56.0827 46.7448C55.5748 41.3326 49.5294 39.7804 45.4057 37.78C44.7123 37.2815 43.9918 36.8061 43.7413 35.9136C43.4081 34.5673 44.0771 33.221 45.3894 32.7741C49.8977 31.9086 49.3926 36.1939 50.8214 34.6039V34.6025Z" fill="#FEC828"/>
</g>
<defs>
<clipPath id="clip0_330_190">
<rect width="61" height="61" fill="white"/>
</clipPath>
</defs>
</svg>
