<svg width="70" height="69" viewBox="0 0 70 69" fill="none" xmlns="http://www.w3.org/2000/svg">
<g id="Layer_1" clip-path="url(#clip0_332_408)">
<path id="Vector" d="M33.3135 0.00111001H35.7844C35.9575 -0.0194601 35.8564 0.223952 36.0609 0.252522C36.7564 0.350801 37.3542 0.737061 37.9767 1.0399C45.6851 4.79736 53.3934 8.55483 61.0973 12.3237C62.6491 13.0825 63.6525 14.2893 64.0458 16.0435C65.9628 24.5698 67.9045 33.0904 69.8473 41.6109C70.2451 43.3525 69.8563 44.9216 68.7854 46.2735C63.1761 53.3599 57.5353 60.42 51.9158 67.4972C51.3349 68.2286 50.6011 68.6583 49.728 68.8937C49.155 69.048 48.5751 68.9851 47.9965 68.9851C39.3307 68.9863 30.6639 68.992 21.9982 68.9805C20.5711 68.9783 19.2834 68.5383 18.1878 67.5612C17.4911 66.9395 16.9754 66.167 16.4 65.4459C11.3323 59.0921 6.27131 52.7313 1.21817 46.3649C0.147319 45.0153 -0.238099 43.476 0.145072 41.7663C2.09576 33.0561 4.05881 24.3492 5.99039 15.6344C6.36008 13.9648 7.24665 12.8105 8.77147 12.0883C11.2975 10.8907 13.7988 9.63933 16.309 8.4097C21.7184 5.76073 27.1288 3.11062 32.5359 0.45708C32.8045 0.32566 33.1281 0.282234 33.3135 0.00111001ZM33.6776 13.9259C33.9315 14.4619 33.3416 15.0333 33.2326 15.7064C33.1843 16.0023 33.0966 16.1223 32.8011 16.1612C32.0044 16.264 31.2021 16.3589 30.4178 16.5326C26.7164 17.352 23.5522 19.169 20.8925 21.9071C20.7913 22.0122 20.6846 22.2294 20.5486 22.1516C19.9643 21.8168 19.2014 22.0088 18.6923 21.3826C18.2934 20.8923 17.781 20.4855 17.3271 20.0318C16.8225 19.5267 16.4248 18.913 15.8079 18.5222C15.2404 18.1633 14.4696 18.1428 14.0078 18.4982C13.519 18.8753 13.3234 19.6455 13.5549 20.3129C13.8066 21.0363 14.3853 21.4123 15.0247 21.7151C16.0135 22.1825 16.9226 22.7699 17.7619 23.4841C18.2002 23.8567 18.2665 24.4349 18.5957 24.8703C18.6811 24.9835 18.2934 25.4691 18.1226 25.7823C18.0777 25.8657 18.0249 25.9445 17.9788 26.0268C15.9753 29.6243 15.1292 33.4789 15.5 37.6021C15.5438 38.0923 15.8461 38.6831 15.0045 38.7871C14.9752 38.7905 14.9438 38.834 14.9269 38.866C14.6561 39.3825 14.1595 39.5071 13.6594 39.5962C13.0156 39.7116 12.365 39.7859 11.7188 39.8888C10.93 40.0145 10.1131 39.9916 9.36252 40.331C8.63101 40.6613 8.2557 41.4567 8.47931 42.2132C8.68719 42.9148 9.40634 43.3788 10.1558 43.2165C10.6592 43.108 11.157 42.94 11.6548 42.812C13.0347 42.4577 14.2977 41.5024 15.8899 42.1103C16.3293 42.2783 16.5405 42.3823 16.69 42.7994C18.1945 47.0026 20.8217 50.2984 24.5062 52.7291C24.8219 52.937 25.3635 53.0353 24.8478 53.5861C24.8163 53.6193 24.8399 53.7324 24.8691 53.793C25.0916 54.2455 24.9085 54.6409 24.7219 55.042C24.1691 56.2328 23.405 57.2888 22.678 58.3687C22.1487 59.1549 22.3016 60.1411 23.0038 60.6474C23.7016 61.1514 24.559 60.9308 25.1422 60.116C25.5916 59.4875 25.7591 58.7424 26.031 58.0373C26.4333 56.9985 26.5872 55.7997 27.6783 55.1632C27.7356 55.13 27.7806 55.0466 27.8008 54.9769C27.939 54.4844 28.2154 54.5586 28.6008 54.7003C31.3594 55.7094 34.2046 55.994 37.1115 55.6649C38.5857 55.498 40.0061 55.0889 41.4219 54.6569C41.5848 54.6066 41.8286 54.4101 41.9309 54.6044C42.2759 55.2603 43.0534 55.5277 43.2849 56.3025C43.4894 56.9882 43.8389 57.6259 44.0153 58.3321C44.185 59.0132 44.4097 59.6703 44.8738 60.2291C45.4873 60.9674 46.3784 61.1536 47.0582 60.6337C47.7066 60.1366 47.7627 59.1698 47.3189 58.3698C46.4503 56.8065 44.8581 55.5837 45.1412 53.4524C45.1873 53.1016 45.1839 52.8993 45.4749 52.7062C49.1797 50.2481 51.8529 46.9397 53.4035 42.7137C53.5519 42.3092 53.5654 41.7595 54.2452 41.9972C54.2946 42.0143 54.38 41.9423 54.4407 41.9001C54.7609 41.6795 55.0935 41.7035 55.461 41.7789C56.8779 42.0703 58.2027 42.6383 59.5556 43.1263C60.2557 43.3788 61.0479 43.076 61.4344 42.404C61.6794 41.9778 61.5007 41.3104 60.9782 40.8407C60.4366 40.3527 59.7646 40.2042 59.0623 40.1607C58.0342 40.0979 57.0218 39.9185 56.006 39.7516C55.4486 39.6602 55.1306 39.2088 54.6823 38.9997C54.2957 38.8191 54.2598 38.6648 54.2946 38.298C54.7205 33.8206 53.7957 29.6403 51.5697 25.7571C51.3315 25.3423 50.9337 24.9503 51.5517 24.5241C51.5978 24.4921 51.6046 24.3835 51.6079 24.3104C51.6237 23.931 51.8484 23.6944 52.1147 23.4647C53.062 22.6442 54.144 22.0419 55.2306 21.4454C55.7475 21.1609 56.0543 20.6877 56.2498 20.1495C56.4588 19.5735 56.2891 19.0513 55.8767 18.633C55.4823 18.233 55.0059 18.0696 54.4396 18.2376C53.7755 18.4342 53.3271 18.9096 52.8923 19.4124C52.2113 20.1986 51.5124 20.9654 50.6371 21.5391C50.4 21.6945 50.155 21.8762 49.8617 21.802C49.6325 21.7437 49.4561 21.7928 49.2954 21.9322C49.0291 22.1654 48.8572 22.0408 48.6369 21.8328C47.8695 21.1094 47.1593 20.3243 46.2964 19.7049C43.4737 17.6788 40.3375 16.4857 36.9272 16.0069C36.8047 15.9898 36.6002 16.0458 36.5822 15.8949C36.5204 15.3761 36.035 15.031 36.0609 14.4779C36.0946 13.7373 36.1069 12.9968 36.1867 12.2563C36.2744 11.4449 36.5047 10.6518 36.4665 9.82446C36.4362 9.16165 36.1699 8.64739 35.5766 8.35141C34.99 8.05886 34.4506 8.21428 33.9517 8.59254C33.1191 9.2245 33.1764 10.1136 33.3539 10.9844C33.5382 11.8849 33.6045 12.79 33.6798 13.927L33.6776 13.9259Z" fill="#326DE5"/>
<path id="Vector_2" d="M33.6775 13.9259C33.6022 12.7889 33.5348 11.8838 33.3517 10.9833C33.1741 10.1125 33.1168 9.22339 33.9495 8.59143C34.4484 8.21317 34.9877 8.05661 35.5743 8.35031C36.1676 8.64629 36.4328 9.16054 36.4642 9.82335C36.5024 10.6507 36.2709 11.4438 36.1844 12.2552C36.1046 12.9946 36.0934 13.7351 36.0586 14.4768C36.0327 15.0299 36.5182 15.375 36.58 15.8938C36.5979 16.0447 36.8024 15.9887 36.9249 16.0058C40.3364 16.4846 43.4714 17.6765 46.2941 19.7038C47.157 20.3232 47.8672 21.1083 48.6347 21.8317C48.856 22.0397 49.0268 22.1642 49.2931 21.9311C49.4538 21.7906 49.6302 21.7426 49.8595 21.8008C50.1527 21.8751 50.3977 21.6934 50.6348 21.538C51.5101 20.9643 52.209 20.1975 52.89 19.4113C53.326 18.9085 53.7732 18.4331 54.4373 18.2365C55.0036 18.0685 55.4812 18.2319 55.8745 18.6319C56.288 19.0502 56.4565 19.5724 56.2475 20.1484C56.052 20.6878 55.7452 21.1609 55.2283 21.4443C54.1418 22.042 53.0597 22.6431 52.1124 23.4636C51.8472 23.6933 51.6214 23.931 51.6056 24.3092C51.6023 24.3835 51.5955 24.4921 51.5495 24.5229C50.9314 24.9481 51.3303 25.3412 51.5674 25.756C53.7934 29.6392 54.7182 33.8195 54.2923 38.2969C54.2575 38.6649 54.2923 38.8191 54.68 38.9986C55.1283 39.2077 55.4463 39.6579 56.0037 39.7505C57.0195 39.9174 58.0319 40.0968 59.06 40.1596C59.7623 40.2031 60.4332 40.3516 60.9759 40.8396C61.4984 41.3104 61.6782 41.9778 61.4321 42.4029C61.0456 43.0737 60.2523 43.3777 59.5533 43.1251C58.2016 42.6372 56.8756 42.0681 55.4587 41.7778C55.0913 41.7024 54.7598 41.6784 54.4384 41.8989C54.3777 41.9412 54.2912 42.0132 54.2429 41.9961C53.5631 41.7584 53.5496 42.3081 53.4013 42.7126C51.8495 46.9386 49.1763 50.247 45.4727 52.7051C45.1816 52.8982 45.185 53.1005 45.1389 53.4513C44.8558 55.5826 46.4491 56.8054 47.3166 58.3687C47.7604 59.1687 47.7054 60.1354 47.0559 60.6326C46.3772 61.1525 45.485 60.9663 44.8715 60.228C44.4063 59.6692 44.1827 59.0121 44.013 58.331C43.8366 57.6259 43.4871 56.9871 43.2826 56.3014C43.0512 55.5266 42.2736 55.2592 41.9286 54.6032C41.8264 54.409 41.5825 54.6055 41.4196 54.6558C40.0038 55.0878 38.5835 55.4969 37.1092 55.6637C34.2023 55.9917 31.3571 55.7083 28.5985 54.6992C28.2131 54.5587 27.9367 54.4833 27.7985 54.9758C27.7794 55.0455 27.7344 55.1289 27.676 55.1621C26.5849 55.7986 26.4299 56.9974 26.0287 58.0362C25.7557 58.7413 25.5894 59.4863 25.1399 60.1149C24.5567 60.9297 23.7005 61.1502 23.0016 60.6463C22.2993 60.14 22.1464 59.1538 22.6757 58.3676C23.4027 57.2865 24.1668 56.2317 24.7196 55.0409C24.9062 54.6387 25.0893 54.2433 24.8668 53.7919C24.8376 53.7324 24.814 53.6182 24.8455 53.585C25.3624 53.0342 24.8197 52.9359 24.5039 52.7279C20.8194 50.2972 18.1923 47.0015 16.6877 42.7983C16.5382 42.3812 16.3258 42.2772 15.8876 42.1092C14.2954 41.5013 13.0324 42.4566 11.6525 42.8109C11.1547 42.9389 10.6558 43.1069 10.1535 43.2154C9.40293 43.3766 8.68379 42.9137 8.47703 42.2121C8.25342 41.4567 8.62985 40.6602 9.36023 40.3299C10.112 39.9905 10.9277 40.0134 11.7166 39.8876C12.3627 39.7848 13.0133 39.7105 13.6571 39.5951C14.1572 39.506 14.6538 39.3814 14.9246 38.8649C14.9415 38.8329 14.973 38.7894 15.0022 38.786C15.8438 38.682 15.5427 38.0912 15.4977 37.6009C15.1269 33.4778 15.973 29.6232 17.9765 26.0257C18.0226 25.9434 18.0754 25.8646 18.1203 25.7812C18.2923 25.468 18.6799 24.9823 18.5934 24.8692C18.2642 24.4338 18.1979 23.8556 17.7596 23.483C16.9203 22.7699 16.0123 22.1825 15.0224 21.714C14.383 21.4123 13.8043 21.0363 13.5526 20.3118C13.3212 19.6444 13.5156 18.8742 14.0055 18.4971C14.4673 18.1417 15.2381 18.1622 15.8056 18.5211C16.4225 18.9119 16.8214 19.5256 17.3248 20.0307C17.7776 20.4855 18.2911 20.8912 18.69 21.3814C19.1991 22.0088 19.962 21.8157 20.5463 22.1505C20.6834 22.2294 20.7891 22.0111 20.8902 21.906C23.5488 19.169 26.713 17.3509 30.4155 16.5315C31.1998 16.3578 32.001 16.2629 32.7988 16.1601C33.0943 16.1224 33.182 16.0012 33.2303 15.7052C33.3393 15.0321 33.9292 14.4608 33.6753 13.9248L33.6775 13.9259ZM41.6252 40.0876C40.515 40.0911 39.8307 41.0041 40.206 41.9424C41.1611 44.3354 42.1489 46.7146 43.1163 49.103C43.222 49.3636 43.3208 49.4082 43.5591 49.2436C46.2514 47.3877 48.2144 44.9387 49.4302 41.8647C49.5763 41.4955 49.4549 41.411 49.1212 41.3573C47.8301 41.1481 46.5424 40.9161 45.2524 40.6967C44.0175 40.4865 42.7826 40.2819 41.6263 40.0888L41.6252 40.0876ZM32.6471 24.5412C32.6471 24.5412 32.637 24.5412 32.6325 24.5412C32.6999 23.2705 32.7561 21.9974 32.8426 20.7278C32.8685 20.3472 32.7561 20.2764 32.4067 20.3392C29.257 20.9083 26.4861 22.2545 24.1162 24.4498C23.8713 24.6761 23.8589 24.7858 24.1376 24.9858C26.1815 26.4554 28.2098 27.9456 30.2537 29.4129C31.2234 30.11 32.3595 29.5569 32.4392 28.3536C32.5235 27.0839 32.5786 25.8109 32.6471 24.5401V24.5412ZM38.4677 29.6769C38.7486 29.63 39.0385 29.5786 39.2936 29.3935C41.3353 27.9147 43.3793 26.4371 45.4277 24.9686C45.6727 24.7926 45.6974 24.6829 45.467 24.4624C43.0882 22.1871 40.2735 20.85 37.0496 20.3747C36.7699 20.3335 36.6867 20.4078 36.7036 20.6958C36.8631 23.3173 37.0036 25.94 37.171 28.5615C37.2115 29.2004 37.8205 29.694 38.4666 29.678L38.4677 29.6769ZM50.4831 35.9313C50.4157 33.1761 49.7055 30.6105 48.3931 28.2061C48.1908 27.8359 48.0717 27.8107 47.7616 28.101C45.9749 29.7763 44.1748 31.4345 42.3668 33.0858C41.9275 33.4869 41.6825 33.9303 41.8331 34.5394C41.9781 35.1245 42.3882 35.3942 42.9309 35.5474C44.9075 36.1073 46.8772 36.6959 48.856 37.2467C49.3527 37.385 50.0022 37.8604 50.3213 37.5255C50.6089 37.2238 50.446 36.4799 50.482 35.9302L50.4831 35.9313ZM19.1856 37.6752C19.3777 37.6272 19.5407 37.5929 19.7002 37.5461C22.0509 36.8536 24.4028 36.161 26.7524 35.4662C27.9592 35.1097 28.2626 33.9303 27.3378 33.0778C25.5073 31.3911 23.6465 29.7375 21.8105 28.0564C21.5307 27.8004 21.4239 27.8507 21.252 28.1661C20.4587 29.6243 19.8789 31.1637 19.5204 32.7864C19.1665 34.3874 19.0361 36.0079 19.1845 37.6764L19.1856 37.6752ZM29.457 41.6178C29.4458 40.5825 28.7098 40.0465 27.6277 40.2305C25.268 40.6316 22.9128 41.059 20.552 41.451C20.1699 41.5138 20.1452 41.6304 20.2722 41.9618C21.4307 44.9707 23.3285 47.3832 25.8995 49.2687C26.2343 49.5144 26.3344 49.423 26.4714 49.0802C27.4097 46.7409 28.3659 44.4085 29.3132 42.0726C29.384 41.8989 29.4267 41.7138 29.4559 41.619L29.457 41.6178ZM29.8245 51.2195C33.0786 52.3245 36.2799 52.2331 39.4959 51.3532C39.9274 51.2355 39.6779 51.0366 39.5891 50.8721C38.8093 49.4207 38.0216 47.9751 37.2351 46.5272C36.8463 45.8118 36.4766 45.085 36.0642 44.3845C35.4406 43.324 34.2146 43.1537 33.6978 44.0805C32.3909 46.4266 31.1324 48.8013 29.8233 51.2195H29.8245ZM34.8619 33.5064C34.4203 33.6446 33.8697 33.2847 33.5337 33.7223C33.0584 34.3417 32.2741 34.8583 32.2314 35.6468C32.1909 36.3827 32.3055 37.3175 32.8056 37.8478C33.3022 38.3735 34.1416 38.8214 34.8338 38.826C35.5248 38.8306 36.3597 38.3883 36.8755 37.8764C37.416 37.3404 37.5182 36.3839 37.5002 35.6376C37.4811 34.8845 36.6822 34.3794 36.2294 33.7646C35.872 33.2801 35.3125 33.6515 34.8619 33.5075V33.5064Z" fill="#FDFDFE"/>
<path id="Vector_3" d="M41.6252 40.0876C42.7815 40.2819 44.0175 40.4865 45.2513 40.6956C46.5413 40.915 47.829 41.1481 49.1201 41.3561C49.4538 41.4098 49.5752 41.4944 49.4291 41.8635C48.2144 44.9364 46.2503 47.3854 43.5579 49.2425C43.3186 49.407 43.2197 49.3624 43.1152 49.1019C42.1489 46.7135 41.16 44.3342 40.2049 41.9412C39.8307 41.003 40.5139 40.0899 41.6241 40.0865L41.6252 40.0876Z" fill="#326DE5"/>
<path id="Vector_4" d="M32.647 24.5412C32.5796 25.812 32.5234 27.085 32.4391 28.3547C32.3593 29.558 31.2233 30.1111 30.2536 29.414C28.2096 27.9456 26.1803 26.4554 24.1375 24.9869C23.8588 24.7858 23.8712 24.6772 24.1161 24.4509C26.4871 22.2557 29.2569 20.9083 32.4065 20.3404C32.756 20.2775 32.8684 20.3484 32.8425 20.7289C32.756 21.9985 32.6998 23.2704 32.6324 24.5424C32.6369 24.5424 32.6425 24.5424 32.647 24.5424V24.5412Z" fill="#326DE5"/>
<path id="Vector_5" d="M38.4675 29.6769C37.8214 29.6941 37.2135 29.1992 37.1719 28.5604C37.0045 25.9389 36.864 23.3162 36.7045 20.6947C36.6865 20.4067 36.7697 20.3324 37.0506 20.3735C40.2744 20.8489 43.088 22.186 45.468 24.4613C45.6983 24.6818 45.6747 24.7915 45.4286 24.9675C43.3791 26.436 41.3362 27.9125 39.2945 29.3924C39.0383 29.5775 38.7484 29.6289 38.4686 29.6758L38.4675 29.6769Z" fill="#326DE5"/>
<path id="Vector_6" d="M50.4829 35.9313C50.447 36.481 50.6088 37.2249 50.3222 37.5266C50.002 37.8615 49.3536 37.3861 48.857 37.2478C46.8782 36.697 44.9084 36.1073 42.9319 35.5485C42.388 35.3942 41.979 35.1257 41.834 34.5406C41.6835 33.9303 41.9284 33.4881 42.3678 33.0869C44.1758 31.4368 45.9759 29.7774 47.7625 28.1021C48.0726 27.8107 48.1918 27.837 48.394 28.2073C49.7065 30.6117 50.4166 33.1772 50.484 35.9325L50.4829 35.9313Z" fill="#326DE5"/>
<path id="Vector_7" d="M19.1855 37.6752C19.0372 36.0079 19.1664 34.3863 19.5215 32.7852C19.8799 31.1636 20.4597 29.6232 21.253 28.165C21.4238 27.8496 21.5317 27.7993 21.8115 28.0553C23.6476 29.7363 25.5084 31.3899 27.3388 33.0766C28.2636 33.9292 27.9602 35.1074 26.7534 35.4651C24.4027 36.1599 22.052 36.8524 19.7012 37.5449C19.5417 37.5918 19.3787 37.6261 19.1866 37.6741L19.1855 37.6752Z" fill="#326DE5"/>
<path id="Vector_8" d="M29.4569 41.6178C29.4277 41.7138 29.3839 41.899 29.3142 42.0715C28.3669 44.4074 27.4107 46.7398 26.4724 49.0791C26.3354 49.4219 26.2354 49.5133 25.9005 49.2676C23.3307 47.382 21.4317 44.9696 20.2732 41.9607C20.1462 41.6304 20.1709 41.5138 20.553 41.4498C22.9138 41.0579 25.269 40.6293 27.6287 40.2294C28.7108 40.0454 29.4457 40.5825 29.458 41.6167L29.4569 41.6178Z" fill="#326DE5"/>
<path id="Vector_9" d="M29.8245 51.2206C31.1324 48.8013 32.392 46.4278 33.6989 44.0817C34.2146 43.1549 35.4417 43.3251 36.0653 44.3856C36.4777 45.0862 36.8474 45.813 37.2362 46.5284C38.0216 47.9763 38.8104 49.4219 39.5903 50.8732C39.679 51.0378 39.9285 51.2366 39.497 51.3543C36.2811 52.2343 33.0797 52.3257 29.8256 51.2206H29.8245Z" fill="#326DE5"/>
<path id="Vector_10" d="M34.8619 33.5075C35.3125 33.6515 35.8721 33.2801 36.2294 33.7646C36.6822 34.3794 37.4812 34.8845 37.5003 35.6376C37.5194 36.3839 37.416 37.3404 36.8755 37.8764C36.3597 38.3883 35.5249 38.8306 34.8338 38.826C34.1416 38.8214 33.3022 38.3735 32.8056 37.8478C32.3044 37.3187 32.1909 36.3839 32.2314 35.6468C32.2741 34.8583 33.0584 34.3406 33.5337 33.7223C33.8708 33.2847 34.4203 33.6435 34.8619 33.5064V33.5075Z" fill="#326DE5"/>
</g>
<defs>
<clipPath id="clip0_332_408">
<rect width="70" height="69" fill="white"/>
</clipPath>
</defs>
</svg>
