<svg width="51" height="51" viewBox="0 0 51 51" fill="none" xmlns="http://www.w3.org/2000/svg">
<path id="Subtract" fill-rule="evenodd" clip-rule="evenodd" d="M25.5 51C39.5833 51 51 39.5833 51 25.5C51 11.4167 39.5833 0 25.5 0C11.4167 0 0 11.4167 0 25.5C0 39.5833 11.4167 51 25.5 51ZM23.0501 36.8016H28.4084V36.3822C28.4084 35.6381 28.4079 34.8939 28.4073 34.1497C28.4058 32.1642 28.4043 30.1788 28.4135 28.1933C28.416 27.5694 28.4465 26.9403 28.536 26.3241C28.737 24.9433 29.3198 23.6954 31.167 23.5125C32.8496 23.3451 33.9206 24.0354 34.2103 25.7226C34.3572 26.5769 34.3868 27.4598 34.3936 28.3297C34.41 30.2676 34.4071 32.2056 34.4042 34.1436C34.4031 34.8921 34.402 35.6406 34.402 36.3891V36.7524H39.7731C39.7745 36.7286 39.776 36.7065 39.7774 36.6857L39.7774 36.6853C39.781 36.6325 39.7841 36.5879 39.7841 36.5427C39.7836 35.5993 39.7841 34.6559 39.7847 33.7124C39.7862 31.2358 39.7877 28.7593 39.7705 26.2827C39.7629 25.1297 39.6438 23.9811 39.3398 22.8618C38.8533 21.0737 37.8752 19.7274 36.1056 19.0957C35.0338 18.7134 33.9231 18.6124 32.8031 18.7039C30.9111 18.8584 29.3756 19.6748 28.3383 21.3541C28.3211 21.3821 28.3009 21.4079 28.2807 21.4337L28.2807 21.4338C28.2722 21.4446 28.2638 21.4554 28.2556 21.4663C28.2319 21.4603 28.2091 21.4542 28.1863 21.4482V19.1155H23.0501V36.8016ZM19.5636 36.8017H13.9851V19.3697H19.5636V36.8017ZM13.985 13.4203C13.9816 15.1569 15.3954 16.5806 17.1237 16.5806C18.8367 16.5806 20.2411 15.1772 20.2607 13.4465C20.2794 11.7445 18.852 10.3099 17.1339 10.3048C15.4115 10.2997 13.9884 11.7073 13.985 13.4203Z" fill="#820A5B"/>
</svg>
