<svg width="218" height="88" viewBox="0 0 218 88" fill="none" xmlns="http://www.w3.org/2000/svg">
<g id="Group 65">
<g id="Group">
<path id="Vector" d="M67.6783 44.4232L84.9372 64.6209H71.8779L56.8902 47.4799H51.1551V64.6209H39.3457V25.019H51.1551V41.6512H56.8902L71.4815 25.019H84.9372L67.6783 44.4232Z" fill="#7001E3"/>
<path id="Vector_2" d="M131.893 64.6209H88.3442V25.019H128.429V40.1246H131.893V64.6209ZM100.211 30.8442V40.1246H120.027V30.8442H100.211ZM100.211 45.9498V58.7922H120.027V45.9498H100.211Z" fill="#7001E3"/>
<path id="Vector_3" d="M181.741 58.6247L176.574 64.6207H140.749L135.639 58.792H167.603L169.703 56.358V47.7003H137.171V31.2924L142.563 25.0117H183.101L178.105 30.8404H151.591L149.037 33.7263V41.8752H181.741V58.6212V58.6247Z" fill="#7001E3"/>
</g>
<path id="Vector_4" d="M198.925 65.4286L195.15 61.1651L210.613 43.6885L195.15 26.2119L198.925 21.9485L218 43.6921L198.925 65.4357V65.4286Z" fill="#EE01EF"/>
<path id="Vector_5" d="M18.8635 65.6375L0 43.6924L18.8635 21.7437L22.644 26.0497L7.28084 43.6924L22.644 61.3351L18.8635 65.6411V65.6375Z" fill="#EE01EF"/>
<path id="Vector_6" d="M89.1294 88L84.6064 85.775L137.102 0L141.628 2.22501L89.1294 88Z" fill="#EE01EF"/>
<path id="Vector_7" d="M123.512 40H100.663V46.1538H123.512V40Z" fill="#7001E3"/>
</g>
</svg>
