<svg width="51" height="51" viewBox="0 0 52 51" fill="none" xmlns="http://www.w3.org/2000/svg">
<path id="Subtract" fill-rule="evenodd" clip-rule="evenodd" d="M51.9999 25.3938C51.9999 39.4184 40.466 50.7876 26.2381 50.7876C12.0103 50.7876 0.476318 39.4184 0.476318 25.3938C0.476318 11.3692 12.0103 0 26.2381 0C40.466 0 51.9999 11.3692 51.9999 25.3938ZM12.6565 18.2378L12.6567 18.2379C13.7428 18.9954 14.795 19.7292 15.8459 20.4665C18.6682 22.446 21.4905 24.4273 24.3059 26.417C25.4469 27.2231 27.0678 27.1789 28.2261 26.3626C31.6459 23.9517 35.0753 21.5542 38.505 19.1565C39.4638 18.4861 40.4227 17.8158 41.3814 17.1451C41.4232 17.1162 41.4703 17.0952 41.5186 17.0737C41.5441 17.0624 41.5699 17.0509 41.5954 17.038C41.7091 17.2263 41.6995 17.4116 41.6902 17.5915C41.6875 17.6439 41.6848 17.6958 41.6852 17.7472C41.6887 22.9647 41.6887 28.1823 41.6869 33.3982C41.6869 35.2638 40.867 36.0665 38.9682 36.0665H13.5414C11.5977 36.0665 10.7847 35.2723 10.7847 33.3744C10.7812 28.1772 10.7812 22.9817 10.7812 17.7863V16.9291C11.421 17.3761 12.0441 17.8107 12.6565 18.2378ZM13.375 14.7232C13.0069 14.7214 12.6273 14.7196 12.2549 14.9724L12.2532 14.9741C12.2815 14.9919 12.3069 15.0075 12.3305 15.022C12.3682 15.0452 12.4011 15.0654 12.4327 15.0869C14.0752 16.2232 15.7315 17.3405 17.3878 18.4577C20.0702 20.2672 22.7526 22.0767 25.377 23.9674C25.9938 24.412 26.5099 24.3888 27.1388 23.9458C27.3125 23.8229 27.4804 23.6916 27.6484 23.5603C27.8456 23.4061 28.0428 23.2518 28.2495 23.1112C31.0572 21.1943 33.8686 19.2811 36.6796 17.3681C37.6718 16.6929 38.6639 16.0177 39.6559 15.3424C39.7742 15.2617 39.891 15.1803 40.0195 15.0909C40.0839 15.046 40.1513 14.9991 40.2232 14.9492C39.8052 14.7229 39.4271 14.7232 39.0596 14.7235C39.047 14.7235 39.0344 14.7235 39.0219 14.7235C30.5034 14.7202 21.985 14.7202 13.4665 14.7235C13.4361 14.7235 13.4056 14.7234 13.375 14.7232Z" fill="white"/>
</svg>
