<svg width="144" height="58" viewBox="0 0 144 58" fill="none" xmlns="http://www.w3.org/2000/svg">
<g id="Group 149">
<path id="Vector" d="M120.064 42.6685C121.705 42.4471 123.208 42.1889 124.673 41.7285C129.427 40.2365 132.086 36.9615 132.884 32.1358C133.265 29.8349 133.392 27.5246 132.776 25.2306C132.363 23.6908 131.656 22.3026 130.61 21.1003C130.312 20.7587 130.286 20.4868 130.411 20.0701C131.089 17.8075 130.849 15.5791 130.101 13.3712C129.969 12.9832 129.736 12.8998 129.383 12.9053C128.292 12.9203 127.265 13.2182 126.265 13.6144C124.903 14.1527 123.634 14.8714 122.42 15.6857C122.128 15.8824 121.874 15.918 121.531 15.8319C117.058 14.7143 112.58 14.7115 108.107 15.8278C107.738 15.9207 107.474 15.8633 107.157 15.6597C105.252 14.4369 103.296 13.3179 101.004 12.9709C100.801 12.9408 100.595 12.9354 100.392 12.9067C99.8786 12.8343 99.6083 13.0392 99.449 13.5461C98.7518 15.7677 98.5473 17.9961 99.2638 20.2505C99.3585 20.5483 99.3022 20.7451 99.1032 20.9814C96.9291 23.5705 96.21 26.5791 96.4735 29.8923C96.6162 31.6931 96.8839 33.4611 97.5536 35.1457C99.0359 38.877 101.918 40.9647 105.703 41.9826C106.918 42.3091 108.158 42.4977 109.503 42.6644C108.506 43.7506 107.968 44.9734 107.78 46.3465C107.739 46.643 107.471 46.6621 107.275 46.74C104.002 48.0571 101.232 47.1567 99.3667 44.1864C98.4073 42.6589 97.1309 41.5577 95.2959 41.2188C94.9047 41.1464 94.5232 41.171 94.1444 41.2858C93.5363 41.4702 93.4416 41.7954 93.8836 42.2681C94.084 42.4826 94.3118 42.689 94.563 42.8351C96.0302 43.6891 97.076 44.957 97.6003 46.5023C98.7257 49.8182 101.94 51.2187 105.395 50.9263C105.986 50.8757 106.582 50.8183 107.158 50.6913C107.566 50.6011 107.619 50.7323 107.618 51.0834C107.617 52.6533 107.646 54.2245 107.646 55.7944C107.646 57.0814 106.784 57.7044 105.547 57.2973C102.974 56.4502 100.561 55.2629 98.3771 53.6698C89.9047 47.4942 85.7282 39.1407 86.0137 28.705C86.3802 15.3072 96.5037 3.7717 109.75 1.44492C125.312 -1.29038 140.017 8.85701 143.083 24.445C145.837 38.4412 137.79 52.4702 124.283 57.2235C122.766 57.7577 121.918 57.1716 121.924 55.5867C121.932 53.0604 121.951 50.5342 121.958 48.0065C121.963 46.0445 121.552 44.2192 120.064 42.6685Z" fill="white"/>
<g id="Group 67">
<circle id="Ellipse 32" cx="28.8107" cy="28.8107" r="28.8107" fill="white"/>
<g id="Vector_2">
<mask id="path-3-inside-1_416_6388" fill="white">
<path d="M9.60379 27.9354C9.54682 39.0021 18.3111 47.9232 29.2736 48.0171C40.1701 48.1102 49.133 39.3108 49.2176 28.383C49.3031 17.4021 40.4379 8.45811 29.4827 8.40338C18.5862 8.34785 9.61763 17.1383 9.60379 27.9354ZM20.7689 34.6685C20.7575 34.6661 20.7372 34.6628 20.7372 34.6603C20.7372 34.6416 20.7429 34.6228 20.7461 34.604C20.7608 34.332 20.9716 34.4178 21.1115 34.4178C23.457 34.4112 25.8033 34.4112 28.1488 34.4088C28.2554 34.4088 28.3726 34.3729 28.4133 34.5223C28.4817 34.6007 28.4809 34.6963 28.4809 34.791C28.4809 36.052 28.4809 37.3139 28.4809 38.5749C28.4809 38.6705 28.4825 38.766 28.415 38.8444V45.3292C28.2758 45.237 28.2164 45.2067 28.1692 45.1634C27.2031 44.2887 26.2689 43.3822 25.4159 42.3931C23.5653 40.2484 22.0776 37.8791 20.9984 35.2541C20.9382 35.2108 20.917 35.1512 20.9252 35.0793C20.8967 35.0009 20.8682 34.9225 20.8397 34.8441C20.777 34.8041 20.7559 34.7461 20.7689 34.6742V34.6693V34.6685ZM28.24 20.9949C25.8554 20.99 23.47 20.9802 21.0855 20.9875C20.7307 20.9883 20.6452 20.941 20.7893 20.5677C22.1419 17.0574 24.3571 14.1874 27.2121 11.7871C27.5677 11.4882 27.9153 11.1721 28.3645 10.9336C28.3759 11.0463 28.3881 11.1108 28.3881 11.1754C28.3905 14.3443 28.3922 17.5132 28.393 20.6821C28.393 20.7882 28.4117 20.9026 28.3189 20.9875C28.2929 20.99 28.266 20.9924 28.24 20.9949ZM37.7432 34.7461C37.7554 34.8196 37.7383 34.8817 37.6749 34.9274C37.2232 36.0153 36.7446 37.0893 36.1619 38.1159C34.6661 40.749 32.7536 43.0383 30.5179 45.0663C30.4919 45.1055 30.4634 45.112 30.4317 45.0728C30.4243 41.6164 30.4195 38.16 30.404 34.7036C30.4024 34.3998 30.557 34.3851 30.7849 34.3859C33.0091 34.39 35.2325 34.3884 37.4568 34.3884C37.578 34.3884 37.7017 34.3794 37.8132 34.4455C37.8303 34.4643 37.8319 34.4847 37.8189 34.5068C37.7937 34.5868 37.7676 34.6661 37.7424 34.7461H37.7432ZM47.205 27.2534C47.3189 27.9338 47.3295 28.6141 47.2001 29.2936C47.1732 29.3688 47.1187 29.4447 47.1228 29.5174C47.1692 30.384 46.9486 31.2146 46.8094 32.0574C46.7647 32.3269 46.6507 32.4111 46.3805 32.4094C44.5502 32.3988 42.7199 32.398 40.8887 32.4094C40.5787 32.4111 40.4956 32.349 40.5624 32.0199C41.1378 29.1875 41.1638 26.3485 40.6283 23.5055C40.5957 23.334 40.4712 23.1478 40.6137 22.9648C40.6657 22.9509 40.717 22.924 40.7691 22.924C42.5848 22.9215 44.4005 22.9215 46.217 22.924C46.2682 22.924 46.3203 22.9509 46.3716 22.9656C46.4709 23.0163 46.4766 23.1233 46.5018 23.2082C46.7435 24.0372 46.9266 24.88 47.0414 25.7351C47.1089 26.2391 47.1513 26.7471 47.205 27.2526V27.2534ZM28.3954 27.7035H28.3995C28.3995 29.145 28.3938 30.5857 28.4044 32.0272C28.406 32.2984 28.3433 32.4094 28.0455 32.4078C25.512 32.398 22.9785 32.4005 20.4442 32.4078C20.2025 32.4078 20.0804 32.3425 20.0242 32.0901C19.3813 29.1809 19.3414 26.2693 19.9559 23.3495C20.0145 23.0734 20.1268 22.9795 20.4165 22.9803C22.95 22.9926 25.4835 22.9926 28.017 22.9803C28.3303 22.9787 28.4028 23.0832 28.3995 23.3781C28.3865 24.8196 28.3938 26.2603 28.3938 27.7018L28.3954 27.7035ZM30.4072 27.7084H30.3983C30.3983 26.2668 30.4081 24.8253 30.391 23.3838C30.3869 23.0555 30.4911 22.9787 30.8028 22.9803C33.2419 22.9918 35.681 22.9918 38.12 22.9762C38.4269 22.9738 38.5082 23.0963 38.5636 23.3577C39.1797 26.2619 39.1569 29.1605 38.518 32.0582C38.461 32.318 38.3569 32.4086 38.0867 32.4078C35.6614 32.398 33.2354 32.3964 30.8101 32.4086C30.4854 32.4103 30.3975 32.3098 30.4016 31.9921C30.4162 30.5645 30.4081 29.1368 30.4081 27.7084H30.4072ZM15.0793 32.4062C14.1987 32.4062 13.3182 32.3996 12.4384 32.4111C12.1951 32.4143 12.0852 32.3474 12.0299 32.0893C11.3991 29.1654 11.4683 26.2628 12.2406 23.3724C12.3171 23.0865 12.4303 22.9811 12.7338 22.9844C14.3591 22.9991 15.9843 22.9975 17.6096 22.9844C17.9107 22.982 17.9978 23.0285 17.9318 23.365C17.3622 26.2538 17.3898 29.1442 17.9791 32.028C18.0474 32.3621 17.94 32.4184 17.6397 32.4127C16.7868 32.3964 15.933 32.407 15.0801 32.4062H15.0793ZM32.9529 45.5596C33.0286 45.4705 33.0994 45.3758 33.1816 45.2933C34.509 43.9678 35.7037 42.5328 36.7503 40.9736C37.5463 39.7877 38.2315 38.5406 38.8598 37.2559C39.2594 36.4384 39.4751 35.5563 39.834 34.7265C39.9479 34.4635 40.0985 34.4047 40.3581 34.4055C42.1193 34.4153 43.8812 34.4096 45.6432 34.4112C46.1079 34.4112 46.116 34.4178 45.9297 34.8604C43.9244 39.626 40.529 42.9681 35.7298 44.8604C34.85 45.2075 33.9426 45.4828 32.9529 45.5596ZM25.5413 45.5016C25.3663 45.5914 25.2288 45.5057 25.0945 45.4697C19.3194 43.8975 15.2543 40.3472 12.882 34.8359C12.7469 34.5215 12.7778 34.4112 13.1505 34.4145C14.8441 34.4276 16.5369 34.4251 18.2305 34.4104C18.5178 34.408 18.6293 34.5174 18.7156 34.773C19.8444 38.1298 21.6381 41.0986 23.9575 43.7554C24.4719 44.3443 25.0074 44.9143 25.5421 45.5024L25.5413 45.5016ZM30.4048 11.1656C30.5114 11.1288 30.5611 11.2121 30.6205 11.2587C32.7886 12.9542 34.6474 14.9347 36.0911 17.2902C36.4907 17.9419 36.9131 18.5904 37.2167 19.2871C37.3973 19.7028 37.657 20.0875 37.7644 20.5432C37.8482 20.8993 37.7774 20.9867 37.403 20.9834C35.2211 20.9655 33.0384 20.9663 30.8565 20.9867C30.4593 20.9908 30.3649 20.8756 30.3657 20.4869C30.3771 17.4944 30.3649 14.5019 30.3625 11.5094C30.3625 11.3934 30.3202 11.2668 30.404 11.1647L30.4048 11.1656ZM33.3176 10.8675C33.4209 10.8127 33.5096 10.8576 33.5991 10.8797C35.051 11.2382 36.4443 11.7503 37.7619 12.465C41.2094 14.3345 43.786 17.0395 45.5097 20.5693C45.6627 20.883 45.6416 20.9802 45.2648 20.9769C43.6249 20.963 41.9858 20.9638 40.3459 20.9802C40.0602 20.9826 39.952 20.8805 39.8592 20.6249C39.6208 19.9658 39.3668 19.31 39.0771 18.6721C37.7839 15.8242 35.9324 13.383 33.6618 11.2505C33.5381 11.1345 33.3745 11.0479 33.3167 10.8683L33.3176 10.8675ZM25.0595 10.9516C25.0611 11.0994 24.9333 11.1541 24.8495 11.2325C22.0295 13.8632 19.9127 16.9627 18.6562 20.629C18.5561 20.9205 18.4161 20.9924 18.1337 20.9875C17.2531 20.972 16.3717 20.9818 15.4903 20.9818C14.7196 20.9818 13.9497 20.9818 13.1725 20.9818C13.9399 17.1897 21.0782 11.1835 25.0603 10.9524L25.0595 10.9516Z"/>
</mask>
<path d="M9.60379 27.9354C9.54682 39.0021 18.3111 47.9232 29.2736 48.0171C40.1701 48.1102 49.133 39.3108 49.2176 28.383C49.3031 17.4021 40.4379 8.45811 29.4827 8.40338C18.5862 8.34785 9.61763 17.1383 9.60379 27.9354ZM20.7689 34.6685C20.7575 34.6661 20.7372 34.6628 20.7372 34.6603C20.7372 34.6416 20.7429 34.6228 20.7461 34.604C20.7608 34.332 20.9716 34.4178 21.1115 34.4178C23.457 34.4112 25.8033 34.4112 28.1488 34.4088C28.2554 34.4088 28.3726 34.3729 28.4133 34.5223C28.4817 34.6007 28.4809 34.6963 28.4809 34.791C28.4809 36.052 28.4809 37.3139 28.4809 38.5749C28.4809 38.6705 28.4825 38.766 28.415 38.8444V45.3292C28.2758 45.237 28.2164 45.2067 28.1692 45.1634C27.2031 44.2887 26.2689 43.3822 25.4159 42.3931C23.5653 40.2484 22.0776 37.8791 20.9984 35.2541C20.9382 35.2108 20.917 35.1512 20.9252 35.0793C20.8967 35.0009 20.8682 34.9225 20.8397 34.8441C20.777 34.8041 20.7559 34.7461 20.7689 34.6742V34.6693V34.6685ZM28.24 20.9949C25.8554 20.99 23.47 20.9802 21.0855 20.9875C20.7307 20.9883 20.6452 20.941 20.7893 20.5677C22.1419 17.0574 24.3571 14.1874 27.2121 11.7871C27.5677 11.4882 27.9153 11.1721 28.3645 10.9336C28.3759 11.0463 28.3881 11.1108 28.3881 11.1754C28.3905 14.3443 28.3922 17.5132 28.393 20.6821C28.393 20.7882 28.4117 20.9026 28.3189 20.9875C28.2929 20.99 28.266 20.9924 28.24 20.9949ZM37.7432 34.7461C37.7554 34.8196 37.7383 34.8817 37.6749 34.9274C37.2232 36.0153 36.7446 37.0893 36.1619 38.1159C34.6661 40.749 32.7536 43.0383 30.5179 45.0663C30.4919 45.1055 30.4634 45.112 30.4317 45.0728C30.4243 41.6164 30.4195 38.16 30.404 34.7036C30.4024 34.3998 30.557 34.3851 30.7849 34.3859C33.0091 34.39 35.2325 34.3884 37.4568 34.3884C37.578 34.3884 37.7017 34.3794 37.8132 34.4455C37.8303 34.4643 37.8319 34.4847 37.8189 34.5068C37.7937 34.5868 37.7676 34.6661 37.7424 34.7461H37.7432ZM47.205 27.2534C47.3189 27.9338 47.3295 28.6141 47.2001 29.2936C47.1732 29.3688 47.1187 29.4447 47.1228 29.5174C47.1692 30.384 46.9486 31.2146 46.8094 32.0574C46.7647 32.3269 46.6507 32.4111 46.3805 32.4094C44.5502 32.3988 42.7199 32.398 40.8887 32.4094C40.5787 32.4111 40.4956 32.349 40.5624 32.0199C41.1378 29.1875 41.1638 26.3485 40.6283 23.5055C40.5957 23.334 40.4712 23.1478 40.6137 22.9648C40.6657 22.9509 40.717 22.924 40.7691 22.924C42.5848 22.9215 44.4005 22.9215 46.217 22.924C46.2682 22.924 46.3203 22.9509 46.3716 22.9656C46.4709 23.0163 46.4766 23.1233 46.5018 23.2082C46.7435 24.0372 46.9266 24.88 47.0414 25.7351C47.1089 26.2391 47.1513 26.7471 47.205 27.2526V27.2534ZM28.3954 27.7035H28.3995C28.3995 29.145 28.3938 30.5857 28.4044 32.0272C28.406 32.2984 28.3433 32.4094 28.0455 32.4078C25.512 32.398 22.9785 32.4005 20.4442 32.4078C20.2025 32.4078 20.0804 32.3425 20.0242 32.0901C19.3813 29.1809 19.3414 26.2693 19.9559 23.3495C20.0145 23.0734 20.1268 22.9795 20.4165 22.9803C22.95 22.9926 25.4835 22.9926 28.017 22.9803C28.3303 22.9787 28.4028 23.0832 28.3995 23.3781C28.3865 24.8196 28.3938 26.2603 28.3938 27.7018L28.3954 27.7035ZM30.4072 27.7084H30.3983C30.3983 26.2668 30.4081 24.8253 30.391 23.3838C30.3869 23.0555 30.4911 22.9787 30.8028 22.9803C33.2419 22.9918 35.681 22.9918 38.12 22.9762C38.4269 22.9738 38.5082 23.0963 38.5636 23.3577C39.1797 26.2619 39.1569 29.1605 38.518 32.0582C38.461 32.318 38.3569 32.4086 38.0867 32.4078C35.6614 32.398 33.2354 32.3964 30.8101 32.4086C30.4854 32.4103 30.3975 32.3098 30.4016 31.9921C30.4162 30.5645 30.4081 29.1368 30.4081 27.7084H30.4072ZM15.0793 32.4062C14.1987 32.4062 13.3182 32.3996 12.4384 32.4111C12.1951 32.4143 12.0852 32.3474 12.0299 32.0893C11.3991 29.1654 11.4683 26.2628 12.2406 23.3724C12.3171 23.0865 12.4303 22.9811 12.7338 22.9844C14.3591 22.9991 15.9843 22.9975 17.6096 22.9844C17.9107 22.982 17.9978 23.0285 17.9318 23.365C17.3622 26.2538 17.3898 29.1442 17.9791 32.028C18.0474 32.3621 17.94 32.4184 17.6397 32.4127C16.7868 32.3964 15.933 32.407 15.0801 32.4062H15.0793ZM32.9529 45.5596C33.0286 45.4705 33.0994 45.3758 33.1816 45.2933C34.509 43.9678 35.7037 42.5328 36.7503 40.9736C37.5463 39.7877 38.2315 38.5406 38.8598 37.2559C39.2594 36.4384 39.4751 35.5563 39.834 34.7265C39.9479 34.4635 40.0985 34.4047 40.3581 34.4055C42.1193 34.4153 43.8812 34.4096 45.6432 34.4112C46.1079 34.4112 46.116 34.4178 45.9297 34.8604C43.9244 39.626 40.529 42.9681 35.7298 44.8604C34.85 45.2075 33.9426 45.4828 32.9529 45.5596ZM25.5413 45.5016C25.3663 45.5914 25.2288 45.5057 25.0945 45.4697C19.3194 43.8975 15.2543 40.3472 12.882 34.8359C12.7469 34.5215 12.7778 34.4112 13.1505 34.4145C14.8441 34.4276 16.5369 34.4251 18.2305 34.4104C18.5178 34.408 18.6293 34.5174 18.7156 34.773C19.8444 38.1298 21.6381 41.0986 23.9575 43.7554C24.4719 44.3443 25.0074 44.9143 25.5421 45.5024L25.5413 45.5016ZM30.4048 11.1656C30.5114 11.1288 30.5611 11.2121 30.6205 11.2587C32.7886 12.9542 34.6474 14.9347 36.0911 17.2902C36.4907 17.9419 36.9131 18.5904 37.2167 19.2871C37.3973 19.7028 37.657 20.0875 37.7644 20.5432C37.8482 20.8993 37.7774 20.9867 37.403 20.9834C35.2211 20.9655 33.0384 20.9663 30.8565 20.9867C30.4593 20.9908 30.3649 20.8756 30.3657 20.4869C30.3771 17.4944 30.3649 14.5019 30.3625 11.5094C30.3625 11.3934 30.3202 11.2668 30.404 11.1647L30.4048 11.1656ZM33.3176 10.8675C33.4209 10.8127 33.5096 10.8576 33.5991 10.8797C35.051 11.2382 36.4443 11.7503 37.7619 12.465C41.2094 14.3345 43.786 17.0395 45.5097 20.5693C45.6627 20.883 45.6416 20.9802 45.2648 20.9769C43.6249 20.963 41.9858 20.9638 40.3459 20.9802C40.0602 20.9826 39.952 20.8805 39.8592 20.6249C39.6208 19.9658 39.3668 19.31 39.0771 18.6721C37.7839 15.8242 35.9324 13.383 33.6618 11.2505C33.5381 11.1345 33.3745 11.0479 33.3167 10.8683L33.3176 10.8675ZM25.0595 10.9516C25.0611 11.0994 24.9333 11.1541 24.8495 11.2325C22.0295 13.8632 19.9127 16.9627 18.6562 20.629C18.5561 20.9205 18.4161 20.9924 18.1337 20.9875C17.2531 20.972 16.3717 20.9818 15.4903 20.9818C14.7196 20.9818 13.9497 20.9818 13.1725 20.9818C13.9399 17.1897 21.0782 11.1835 25.0603 10.9524L25.0595 10.9516Z" fill="#663687" stroke="#653586" stroke-width="2" mask="url(#path-3-inside-1_416_6388)"/>
</g>
</g>
</g>
</svg>
