<svg width="1495" height="819" viewBox="0 0 1495 819" fill="none" xmlns="http://www.w3.org/2000/svg">
<path d="M0 302C0 285.431 13.4315 272 30 272L1089.49 272C1109.34 272 1123.72 290.933 1118.39 310.055L1004.11 720.055C1000.49 733.027 988.675 742 975.208 742H30C13.4314 742 0 728.569 0 712V302Z" fill="url(#paint0_linear_636_23665)"/>
<path d="M1198.22 346.778C1198.22 346.778 1169.97 337.991 1143.88 331.761C1120.34 326.116 1114.7 353.285 1109.17 366.944C1097.87 394.788 1023.38 655.473 1010.06 712.199C1003.29 730.742 997.92 748.169 961.053 745.892C941.571 748.349 100.5 745 100.5 745" stroke="white" stroke-width="9.57" stroke-linecap="round" stroke-linejoin="round"/>
<path d="M1160.93 336.48L1200.39 347.421" stroke="#1F1A3E" stroke-width="9.57" stroke-linecap="round" stroke-linejoin="round"/>
<path d="M930.682 787.216C930.682 803.741 944.451 817.166 961.468 817.166C978.484 817.166 992.253 803.77 992.253 787.216C992.253 770.661 978.484 757.266 961.468 757.266C944.451 757.266 930.682 770.661 930.682 787.216Z" fill="#1F1A3E"/>
<path d="M941.566 787.216C941.566 797.921 950.465 806.578 961.468 806.578C972.471 806.578 981.37 797.921 981.37 787.216C981.37 776.511 972.471 767.854 961.468 767.854C950.465 767.854 941.566 776.511 941.566 787.216Z" fill="#DADADA"/>
<path d="M956.718 787.216C956.718 789.76 958.852 791.837 961.468 791.837C964.083 791.837 966.218 789.79 966.218 787.216C966.218 784.642 964.083 782.624 961.468 782.624C958.852 782.624 956.718 784.7 956.718 787.216Z" fill="#B4B4B4"/>
<g style="mix-blend-mode:multiply">
<path d="M958.071 801.957C969.044 801.957 977.973 793.299 977.973 782.595C977.973 779.29 977.041 776.219 975.538 773.499C979.145 776.979 981.37 781.834 981.37 787.187C981.37 797.891 972.471 806.549 961.468 806.549C953.892 806.549 947.368 802.366 944.001 796.283C947.608 799.763 952.569 801.927 958.041 801.927L958.071 801.957Z" fill="#DADADA"/>
</g>
<path d="M953.681 782.448C956.898 789.936 966.579 789.936 966.579 782.448V744.572H940.814C940.814 744.572 950.494 774.961 953.681 782.448Z" fill="white"/>
<path d="M271.134 787.216C271.134 803.741 284.903 817.166 301.919 817.166C318.935 817.166 332.705 803.77 332.705 787.216C332.705 770.661 318.905 757.266 301.919 757.266C284.933 757.266 271.134 770.661 271.134 787.216Z" fill="#1F1A3E"/>
<path d="M282.017 787.216C282.017 797.921 290.915 806.578 301.889 806.578C312.862 806.578 321.791 797.921 321.791 787.216C321.791 776.511 312.892 767.854 301.889 767.854C290.885 767.854 282.017 776.511 282.017 787.216Z" fill="#DADADA"/>
<path d="M307.169 787.216C307.169 789.76 309.304 791.837 311.889 791.837C314.475 791.837 316.639 789.79 316.639 787.216C316.639 784.642 314.505 782.624 311.889 782.624C309.274 782.624 307.169 784.7 307.169 787.216Z" fill="#B4B4B4"/>
<g style="mix-blend-mode:multiply">
<path d="M298.492 801.957C309.465 801.957 318.394 793.299 318.394 782.595C318.394 779.29 317.462 776.219 315.959 773.499C319.566 776.979 321.791 781.834 321.791 787.187C321.791 797.891 312.892 806.549 301.889 806.549C294.313 806.549 287.789 802.366 284.452 796.283C288.059 799.763 293.02 801.927 298.492 801.927V801.957Z" fill="#DADADA"/>
</g>
<path d="M294.133 782.448C297.35 789.936 307.03 789.936 307.03 782.448V744.572H281.266C281.266 744.572 290.946 774.961 294.133 782.448Z" fill="white"/>
<path d="M1208.68 776.83C1208.68 776.83 1178.42 785.346 1146.56 781.988C1132.41 780.499 1126.77 789.188 1131.82 793.066C1148.37 800.682 1227.74 824.741 1233.31 817.714C1240.79 808.263 1234.14 785.692 1236.65 780.326C1240.37 772.329 1208.72 776.83 1208.72 776.83H1208.68Z" fill="#21232F"/>
<path d="M1447.18 746.088L1427.67 786.349C1427.67 786.349 1420.61 784.48 1416.5 786.973C1409.27 791.335 1405.13 802.17 1413.97 802.343C1424.82 802.551 1439.6 802.932 1443.39 798.985C1449.93 792.235 1496.82 755.366 1494.94 749.308C1491.39 737.849 1469.02 730.337 1466 725.248C1461.51 717.667 1447.18 746.123 1447.18 746.123V746.088Z" fill="#21232F"/>
<path d="M1279.64 463.395C1289.86 488.148 1313.83 558.769 1341.79 609.485C1359.81 642.095 1443.22 752.908 1443.22 752.908L1474.28 713.617C1466.56 695.442 1387.32 581.825 1387.32 581.825C1387.32 581.825 1375.67 478.039 1361.34 451.002C1333.03 398.278 1264.68 427.254 1279.64 463.395Z" fill="#2B2D3C"/>
<path d="M1398.35 397.067C1389.69 359.09 1298.04 359.644 1286.87 397.067C1279.26 422.719 1248.37 486.693 1224.09 580.925C1205.69 652.342 1183.33 779.703 1183.33 779.703L1239.26 785.9C1244.72 766.929 1277.55 597.057 1277.55 597.057C1277.55 597.057 1326.42 514.977 1332.26 484.963C1367.71 482.885 1409.9 447.886 1398.35 397.101V397.067Z" fill="#383B4E"/>
<path d="M1282.59 295.22C1287.12 238.376 1299.43 191.746 1315.22 185.03C1322.73 181.845 1343.39 182.745 1351.5 183.299C1361.79 183.991 1381.13 190.949 1388.75 203.654C1403.43 228.026 1393.17 296.224 1395.25 322.36C1398.73 365.945 1399.84 407.591 1399.84 407.591H1283.85C1283.85 407.591 1279.15 338.769 1282.59 295.185V295.22Z" fill="#FDA4FF"/>
<path d="M1322 166.44C1322 155.466 1350.49 151.727 1349.2 161.489C1347.91 171.286 1351.53 183.333 1351.53 183.333C1351.53 183.333 1344.12 197.111 1328.65 197.146C1313.2 197.146 1315.22 185.064 1315.22 185.064L1322.32 180.668C1322.32 180.668 1321.97 171.909 1321.97 166.44H1322Z" fill="#F8B894"/>
<path d="M1285.76 86.9905C1285.76 138.883 1302.38 148.473 1339.29 158.477C1363.95 165.193 1407.7 150.134 1410.66 75.6357C1411.53 53.6531 1408.3 22.5659 1391.29 24.7814C1380.47 -5.1634 1365.69 0.410149 1343.67 0.410149C1298.14 0.410149 1247.95 27.6548 1285.76 87.0252V86.9905Z" fill="#2B2D3C"/>
<path d="M1279.26 97.5145C1279.26 150.861 1298.45 172.602 1322 172.602C1348.92 172.602 1385.3 140.822 1385.3 97.5145C1385.3 44.1677 1361.55 14.8114 1332.26 14.8114C1302.98 14.8114 1279.26 44.1677 1279.26 97.5145Z" fill="#E4A386"/>
<path d="M1281.83 94.6066C1281.83 146.084 1292.68 167.79 1320.54 167.79C1348.4 167.79 1382.7 150.065 1385.3 94.0527C1387.7 42.6445 1360.12 14.8114 1332.26 14.8114C1304.4 14.8114 1281.83 43.1291 1281.83 94.6066Z" fill="#F8B894"/>
<path d="M1328.37 12.4227C1351.91 12.4227 1380.02 25.4392 1382.7 48.4257C1367.46 63.0347 1346.63 69.8545 1323.64 69.8545C1300.65 69.8545 1275.74 67.085 1274.11 47.768C1289.34 31.1858 1305.38 12.4573 1328.4 12.4573L1328.37 12.4227Z" fill="#2B2D3C"/>
<path d="M1398.66 98.1376C1411.01 103.053 1399.81 126.559 1387.18 124.482C1381.79 123.582 1373.83 123.34 1373.83 114.824C1373.83 106.308 1383.84 105.996 1383.84 105.996C1383.84 105.996 1387.39 93.6373 1398.66 98.1376Z" fill="#F8B894"/>
<g style="mix-blend-mode:multiply">
<path d="M1390.28 101.842C1390.28 101.842 1396.57 99.4532 1399.15 104.404C1402.38 110.669 1392.68 120.466 1392.68 120.466C1392.68 120.466 1399.08 110.877 1396.05 104.888C1394.14 101.08 1390.24 101.842 1390.24 101.842H1390.28Z" fill="#C1A7AB"/>
</g>
<g style="mix-blend-mode:multiply">
<path d="M1318.11 114.027C1320.12 114.027 1321.97 114.512 1323.43 115.343C1322.63 112.885 1320.54 111.12 1318.11 111.12C1315.67 111.12 1313.58 112.885 1312.78 115.343C1314.28 114.512 1316.12 114.027 1318.11 114.027Z" fill="#C1A7AB"/>
</g>
<path d="M1341.65 131.544C1341.65 131.544 1338.49 150.169 1320.54 150.169C1302.59 150.169 1299.43 131.544 1299.43 131.544H1341.62H1341.65Z" fill="#FDFDFD"/>
<path d="M1359.57 80.9323C1355.84 75.705 1348.05 76.1204 1340.05 78.336C1337.38 79.063 1338.7 82.8364 1341.45 82.3863C1346.35 81.5901 1352.09 81.5901 1356.26 86.8867C1357.97 89.033 1361.2 83.2172 1359.6 80.967L1359.57 80.9323Z" fill="#2B2D3C"/>
<path d="M1382.1 89.2061C1390.28 57.2534 1363.98 61.3384 1363.98 61.3384C1363.98 61.3384 1379.5 32.3282 1385.48 44.2369C1387.74 48.7027 1400.16 86.0905 1388.54 99.0031C1388.54 106.896 1381.62 112.885 1379.15 112.123C1376.68 111.362 1379.64 98.8992 1382.1 89.2061Z" fill="#2B2D3C"/>
<path d="M1343.84 100.526C1343.84 101.669 1344.78 102.638 1345.93 102.638C1347.08 102.638 1348.05 101.703 1348.05 100.526V93.8104C1348.05 92.668 1347.11 91.6986 1345.93 91.6986C1344.75 91.6986 1343.84 92.6333 1343.84 93.8104V100.526Z" fill="#2B2D3C"/>
<path d="M1285.79 80.9323C1289.52 75.705 1297.31 76.1204 1305.31 78.336C1307.98 79.063 1306.66 82.8364 1303.95 82.3863C1299.01 81.5901 1293.27 81.5901 1289.13 86.8867C1287.46 89.033 1284.19 83.2172 1285.79 80.967V80.9323Z" fill="#2B2D3C"/>
<path d="M1301.52 100.526C1301.52 101.669 1300.58 102.638 1299.43 102.638C1298.28 102.638 1297.31 101.703 1297.31 100.526V93.8104C1297.31 92.668 1298.25 91.6986 1299.43 91.6986C1300.58 91.6986 1301.52 92.6333 1301.52 93.8104V100.526Z" fill="#2B2D3C"/>
<path d="M1379.01 221.448C1379.01 221.448 1318.98 298.405 1300.79 308.755C1286.25 317.029 1220.34 336.277 1220.34 336.277" stroke="#F8B894" stroke-width="24.14" stroke-miterlimit="10"/>
<path d="M1342.45 298.405L1309.17 281.545C1309.17 281.545 1347.5 178.591 1378.77 195.069C1424.89 219.371 1342.45 298.405 1342.45 298.405Z" fill="#DBF0FD"/>
<path d="M1222.39 322.741C1222.39 322.741 1214.07 323.676 1198.6 323.122C1189.1 322.81 1179.61 330.738 1177.73 342.404C1176.16 351.994 1182.14 353.759 1189.38 358.571C1188.23 359.437 1191.01 362.725 1194.11 364.872C1197.21 367.018 1199.81 366.014 1203.43 363.729C1213.24 357.533 1217.07 347.909 1223.43 348.255C1229.8 348.601 1222.39 322.741 1222.39 322.741Z" fill="#F8B894"/>
<defs>
<linearGradient id="paint0_linear_636_23665" x1="727.853" y1="243.131" x2="-319.232" y2="741.71" gradientUnits="userSpaceOnUse">
<stop stop-color="#FFFAFA" stop-opacity="0.51"/>
<stop offset="0.914652" stop-color="#D9D9D9" stop-opacity="0"/>
</linearGradient>
</defs>
</svg>
