<svg width="67" height="43" viewBox="0 0 67 43" fill="none" xmlns="http://www.w3.org/2000/svg">
<g id="Layer_1" clip-path="url(#clip0_316_6)">
<path id="Vector" d="M56.0423 0.386137C58.329 0.904411 60.4072 2.07079 62.0137 3.73974C62.8991 4.64227 63.6674 5.64741 64.3025 6.73107C64.3315 6.84938 60.1815 9.56639 57.6638 11.0814C57.5725 11.1411 57.2093 10.7569 56.7988 10.1653C55.864 8.6 54.1704 7.61161 52.3125 7.54774C49.4198 7.35404 47.5554 8.83034 47.5683 11.2982C47.5436 11.9044 47.6855 12.5064 47.9788 13.0414C48.615 14.324 49.7981 15.0936 53.5107 16.662C60.3449 19.5288 63.2784 21.4186 65.0891 24.1032C67.1608 27.5385 67.5702 31.6888 66.2066 35.4456C64.3218 39.5897 60.2772 42.4114 55.6437 42.8145C53.2248 43.0846 50.7813 43.0605 48.3689 42.7412C44.6735 42.1496 41.2693 40.421 38.6548 37.8097C37.6673 36.7261 36.8302 35.5188 36.1672 34.2205C36.4455 34.0185 36.74 33.8363 37.0452 33.6761C37.4696 33.4405 39.0761 32.5401 40.5912 31.6847L43.3421 30.1141L43.917 30.9308C44.8852 32.2804 46.1177 33.429 47.5436 34.3127C50.4804 35.8822 54.0737 35.7052 56.8332 33.8551C58.2731 32.4867 58.4999 30.3099 57.3705 28.6881C56.629 27.6536 55.1139 26.7857 50.8071 24.9659C47.4308 23.8561 44.3543 22.0175 41.8108 19.5864C40.5987 18.2409 39.7036 16.6537 39.1889 14.9345C38.8074 12.9765 38.7516 10.9725 39.0223 8.99786C40.0593 4.34282 43.9696 0.814368 48.8127 0.166263C51.2197 -0.114338 53.6568 -0.0399993 56.0413 0.386137H56.0423ZM33.6302 4.26743L33.6592 8.07335H21.2212V42.4888H12.4495V8.08172H0.0114563V4.34387C-0.0218552 3.06336 0.0146799 1.78286 0.118912 0.506544C0.164044 0.446864 7.72681 0.417548 16.896 0.433253L33.5808 0.478275L33.6291 4.26848L33.6302 4.26743Z" fill="#007ACC"/>
</g>
<defs>
<clipPath id="clip0_316_6">
<rect width="67" height="43" fill="white"/>
</clipPath>
</defs>
</svg>
